%TF.GenerationSoftware,KiCad,Pcbnew,9.0.1*%
%TF.CreationDate,2026-02-20T11:00:57+01:00*%
%TF.ProjectId,Odometre_Schematic,4f646f6d-6574-4726-955f-536368656d61,rev?*%
%TF.SameCoordinates,Original*%
%TF.FileFunction,Soldermask,Top*%
%TF.FilePolarity,Negative*%
%FSLAX46Y46*%
G04 Gerber Fmt 4.6, Leading zero omitted, Abs format (unit mm)*
G04 Created by KiCad (PCBNEW 9.0.1) date 2026-02-20 11:00:57*
%MOMM*%
%LPD*%
G01*
G04 APERTURE LIST*
G04 Aperture macros list*
%AMRoundRect*
0 Rectangle with rounded corners*
0 $1 Rounding radius*
0 $2 $3 $4 $5 $6 $7 $8 $9 X,Y pos of 4 corners*
0 Add a 4 corners polygon primitive as box body*
4,1,4,$2,$3,$4,$5,$6,$7,$8,$9,$2,$3,0*
0 Add four circle primitives for the rounded corners*
1,1,$1+$1,$2,$3*
1,1,$1+$1,$4,$5*
1,1,$1+$1,$6,$7*
1,1,$1+$1,$8,$9*
0 Add four rect primitives between the rounded corners*
20,1,$1+$1,$2,$3,$4,$5,0*
20,1,$1+$1,$4,$5,$6,$7,0*
20,1,$1+$1,$6,$7,$8,$9,0*
20,1,$1+$1,$8,$9,$2,$3,0*%
G04 Aperture macros list end*
%ADD10RoundRect,0.237500X0.237500X-0.250000X0.237500X0.250000X-0.237500X0.250000X-0.237500X-0.250000X0*%
%ADD11C,5.600000*%
%ADD12RoundRect,0.237500X-0.250000X-0.237500X0.250000X-0.237500X0.250000X0.237500X-0.250000X0.237500X0*%
%ADD13RoundRect,0.250000X0.475000X-0.337500X0.475000X0.337500X-0.475000X0.337500X-0.475000X-0.337500X0*%
%ADD14RoundRect,0.102000X-0.775000X-0.650000X0.775000X-0.650000X0.775000X0.650000X-0.775000X0.650000X0*%
%ADD15R,1.700000X1.700000*%
%ADD16C,1.700000*%
%ADD17RoundRect,0.237500X-0.237500X0.287500X-0.237500X-0.287500X0.237500X-0.287500X0.237500X0.287500X0*%
%ADD18RoundRect,0.237500X-0.237500X0.250000X-0.237500X-0.250000X0.237500X-0.250000X0.237500X0.250000X0*%
%ADD19RoundRect,0.250000X0.337500X0.475000X-0.337500X0.475000X-0.337500X-0.475000X0.337500X-0.475000X0*%
%ADD20RoundRect,0.150000X-0.825000X-0.150000X0.825000X-0.150000X0.825000X0.150000X-0.825000X0.150000X0*%
%ADD21RoundRect,0.237500X0.287500X0.237500X-0.287500X0.237500X-0.287500X-0.237500X0.287500X-0.237500X0*%
%ADD22RoundRect,0.250000X0.625000X-0.350000X0.625000X0.350000X-0.625000X0.350000X-0.625000X-0.350000X0*%
%ADD23O,1.750000X1.200000*%
%ADD24RoundRect,0.102000X-0.650000X0.775000X-0.650000X-0.775000X0.650000X-0.775000X0.650000X0.775000X0*%
%ADD25RoundRect,0.250000X-0.350000X0.850000X-0.350000X-0.850000X0.350000X-0.850000X0.350000X0.850000X0*%
%ADD26RoundRect,0.249997X-2.650003X2.950003X-2.650003X-2.950003X2.650003X-2.950003X2.650003X2.950003X0*%
%ADD27R,1.475000X0.450000*%
%ADD28RoundRect,0.250000X-0.625000X0.350000X-0.625000X-0.350000X0.625000X-0.350000X0.625000X0.350000X0*%
%ADD29RoundRect,0.250000X-0.475000X0.337500X-0.475000X-0.337500X0.475000X-0.337500X0.475000X0.337500X0*%
%ADD30RoundRect,0.250000X-0.350000X-0.625000X0.350000X-0.625000X0.350000X0.625000X-0.350000X0.625000X0*%
%ADD31O,1.200000X1.750000*%
%ADD32RoundRect,0.250000X-0.337500X-0.475000X0.337500X-0.475000X0.337500X0.475000X-0.337500X0.475000X0*%
G04 APERTURE END LIST*
D10*
%TO.C,R4*%
X133572500Y-80000000D03*
X133572500Y-78175000D03*
%TD*%
D11*
%TO.C,H1*%
X117000000Y-64500000D03*
%TD*%
D12*
%TO.C,R1*%
X172500000Y-73500000D03*
X174325000Y-73500000D03*
%TD*%
D13*
%TO.C,C2*%
X129572500Y-74037500D03*
X129572500Y-71962500D03*
%TD*%
D14*
%TO.C,S2*%
X169025000Y-85250000D03*
X169025000Y-89750000D03*
X176975000Y-85250000D03*
X176975000Y-89750000D03*
%TD*%
D13*
%TO.C,C1*%
X127072500Y-74075000D03*
X127072500Y-72000000D03*
%TD*%
D12*
%TO.C,R2*%
X172587500Y-78500000D03*
X174412500Y-78500000D03*
%TD*%
D15*
%TO.C,J5*%
X156000000Y-115540000D03*
D16*
X156000000Y-113000000D03*
X156000000Y-110460000D03*
%TD*%
D11*
%TO.C,H3*%
X117500000Y-114500000D03*
%TD*%
D17*
%TO.C,D4*%
X133500000Y-99175000D03*
X133500000Y-100925000D03*
%TD*%
D18*
%TO.C,R3*%
X177500000Y-97587500D03*
X177500000Y-99412500D03*
%TD*%
D19*
%TO.C,C5*%
X153537500Y-93000000D03*
X151462500Y-93000000D03*
%TD*%
D13*
%TO.C,C9*%
X129000000Y-91712500D03*
X129000000Y-89637500D03*
%TD*%
D20*
%TO.C,U1*%
X170525000Y-96595000D03*
X170525000Y-97865000D03*
X170525000Y-99135000D03*
X170525000Y-100405000D03*
X175475000Y-100405000D03*
X175475000Y-99135000D03*
X175475000Y-97865000D03*
X175475000Y-96595000D03*
%TD*%
D21*
%TO.C,D1*%
X170787500Y-73500000D03*
X169037500Y-73500000D03*
%TD*%
D10*
%TO.C,R5*%
X133500000Y-97462500D03*
X133500000Y-95637500D03*
%TD*%
D17*
%TO.C,D3*%
X133572500Y-81712500D03*
X133572500Y-83462500D03*
%TD*%
D22*
%TO.C,J1*%
X186400000Y-91500000D03*
D23*
X186400000Y-89500000D03*
X186400000Y-87500000D03*
%TD*%
D19*
%TO.C,C7*%
X174037500Y-102500000D03*
X171962500Y-102500000D03*
%TD*%
D24*
%TO.C,S1*%
X157750000Y-68525000D03*
X153250000Y-68525000D03*
X157750000Y-76475000D03*
X153250000Y-76475000D03*
%TD*%
D15*
%TO.C,J6*%
X147150000Y-64000000D03*
D16*
X149690000Y-64000000D03*
X152230000Y-64000000D03*
X154770000Y-64000000D03*
X157310000Y-64000000D03*
X159850000Y-64000000D03*
%TD*%
D25*
%TO.C,U2*%
X131327500Y-76875000D03*
X129047500Y-76875000D03*
D26*
X129047500Y-83175000D03*
D25*
X126767500Y-76875000D03*
%TD*%
D27*
%TO.C,IC1*%
X149699500Y-85150000D03*
X149699500Y-85800000D03*
X149699500Y-86450000D03*
X149699500Y-87100000D03*
X149699500Y-87750000D03*
X149699500Y-88400000D03*
X149699500Y-89050000D03*
X149699500Y-89700000D03*
X149699500Y-90350000D03*
X149699500Y-91000000D03*
X155575500Y-91000000D03*
X155575500Y-90350000D03*
X155575500Y-89700000D03*
X155575500Y-89050000D03*
X155575500Y-88400000D03*
X155575500Y-87750000D03*
X155575500Y-87100000D03*
X155575500Y-86450000D03*
X155575500Y-85800000D03*
X155575500Y-85150000D03*
%TD*%
D15*
%TO.C,J4*%
X160000000Y-115540000D03*
D16*
X160000000Y-113000000D03*
X160000000Y-110460000D03*
%TD*%
D13*
%TO.C,C6*%
X160000000Y-73537500D03*
X160000000Y-71462500D03*
%TD*%
D28*
%TO.C,J3*%
X118000000Y-85000000D03*
D23*
X118000000Y-87000000D03*
%TD*%
D29*
%TO.C,C4*%
X146000000Y-86962500D03*
X146000000Y-89037500D03*
%TD*%
D21*
%TO.C,D2*%
X171020000Y-78500000D03*
X169270000Y-78500000D03*
%TD*%
D22*
%TO.C,J2*%
X186400000Y-82000000D03*
D23*
X186400000Y-80000000D03*
X186400000Y-78000000D03*
%TD*%
D13*
%TO.C,C8*%
X126535000Y-91712500D03*
X126535000Y-89637500D03*
%TD*%
D30*
%TO.C,J7*%
X135000000Y-114000000D03*
D31*
X137000000Y-114000000D03*
X139000000Y-114000000D03*
X141000000Y-114000000D03*
X143000000Y-114000000D03*
X145000000Y-114000000D03*
%TD*%
D32*
%TO.C,C3*%
X151462500Y-83000000D03*
X153537500Y-83000000D03*
%TD*%
D25*
%TO.C,U3*%
X131280000Y-94375000D03*
X129000000Y-94375000D03*
D26*
X129000000Y-100675000D03*
D25*
X126720000Y-94375000D03*
%TD*%
D11*
%TO.C,H2*%
X188500000Y-65000000D03*
%TD*%
%TO.C,H4*%
X189000000Y-115000000D03*
%TD*%
M02*
