%TF.GenerationSoftware,KiCad,Pcbnew,9.0.1*%
%TF.CreationDate,2026-02-20T11:00:57+01:00*%
%TF.ProjectId,Odometre_Schematic,4f646f6d-6574-4726-955f-536368656d61,rev?*%
%TF.SameCoordinates,Original*%
%TF.FileFunction,Copper,L2,Bot*%
%TF.FilePolarity,Positive*%
%FSLAX46Y46*%
G04 Gerber Fmt 4.6, Leading zero omitted, Abs format (unit mm)*
G04 Created by KiCad (PCBNEW 9.0.1) date 2026-02-20 11:00:57*
%MOMM*%
%LPD*%
G01*
G04 APERTURE LIST*
G04 Aperture macros list*
%AMRoundRect*
0 Rectangle with rounded corners*
0 $1 Rounding radius*
0 $2 $3 $4 $5 $6 $7 $8 $9 X,Y pos of 4 corners*
0 Add a 4 corners polygon primitive as box body*
4,1,4,$2,$3,$4,$5,$6,$7,$8,$9,$2,$3,0*
0 Add four circle primitives for the rounded corners*
1,1,$1+$1,$2,$3*
1,1,$1+$1,$4,$5*
1,1,$1+$1,$6,$7*
1,1,$1+$1,$8,$9*
0 Add four rect primitives between the rounded corners*
20,1,$1+$1,$2,$3,$4,$5,0*
20,1,$1+$1,$4,$5,$6,$7,0*
20,1,$1+$1,$6,$7,$8,$9,0*
20,1,$1+$1,$8,$9,$2,$3,0*%
G04 Aperture macros list end*
%TA.AperFunction,ComponentPad*%
%ADD10C,5.600000*%
%TD*%
%TA.AperFunction,ComponentPad*%
%ADD11R,1.700000X1.700000*%
%TD*%
%TA.AperFunction,ComponentPad*%
%ADD12C,1.700000*%
%TD*%
%TA.AperFunction,ComponentPad*%
%ADD13RoundRect,0.250000X0.625000X-0.350000X0.625000X0.350000X-0.625000X0.350000X-0.625000X-0.350000X0*%
%TD*%
%TA.AperFunction,ComponentPad*%
%ADD14O,1.750000X1.200000*%
%TD*%
%TA.AperFunction,ComponentPad*%
%ADD15RoundRect,0.250000X-0.625000X0.350000X-0.625000X-0.350000X0.625000X-0.350000X0.625000X0.350000X0*%
%TD*%
%TA.AperFunction,ComponentPad*%
%ADD16RoundRect,0.250000X-0.350000X-0.625000X0.350000X-0.625000X0.350000X0.625000X-0.350000X0.625000X0*%
%TD*%
%TA.AperFunction,ComponentPad*%
%ADD17O,1.200000X1.750000*%
%TD*%
%TA.AperFunction,ViaPad*%
%ADD18C,0.800000*%
%TD*%
%TA.AperFunction,Conductor*%
%ADD19C,0.300000*%
%TD*%
%TA.AperFunction,Conductor*%
%ADD20C,0.250000*%
%TD*%
G04 APERTURE END LIST*
D10*
%TO.P,H1,1,1*%
%TO.N,GND*%
X117000000Y-64500000D03*
%TD*%
D11*
%TO.P,J5,1,Pin_1*%
%TO.N,+3.3V*%
X156000000Y-115540000D03*
D12*
%TO.P,J5,2,Pin_2*%
%TO.N,TIM2_CH2*%
X156000000Y-113000000D03*
%TO.P,J5,3,Pin_3*%
%TO.N,GND*%
X156000000Y-110460000D03*
%TD*%
D10*
%TO.P,H3,1,1*%
%TO.N,GND*%
X117500000Y-114500000D03*
%TD*%
D13*
%TO.P,J1,1,Pin_1*%
%TO.N,CANH*%
X186400000Y-91500000D03*
D14*
%TO.P,J1,2,Pin_2*%
%TO.N,CANL*%
X186400000Y-89500000D03*
%TO.P,J1,3,Pin_3*%
%TO.N,GND*%
X186400000Y-87500000D03*
%TD*%
D11*
%TO.P,J6,1,Pin_1*%
%TO.N,+3.3V*%
X147150000Y-64000000D03*
D12*
%TO.P,J6,2,Pin_2*%
%TO.N,DEBUG_SWCLK*%
X149690000Y-64000000D03*
%TO.P,J6,3,Pin_3*%
%TO.N,GND*%
X152230000Y-64000000D03*
%TO.P,J6,4,Pin_4*%
%TO.N,DEBUG_SWDIO*%
X154770000Y-64000000D03*
%TO.P,J6,5,Pin_5*%
%TO.N,NRST*%
X157310000Y-64000000D03*
%TO.P,J6,6,Pin_6*%
%TO.N,unconnected-(J6-Pin_6-Pad6)*%
X159850000Y-64000000D03*
%TD*%
D11*
%TO.P,J4,1,Pin_1*%
%TO.N,+3.3V*%
X160000000Y-115540000D03*
D12*
%TO.P,J4,2,Pin_2*%
%TO.N,TIM2_CH1*%
X160000000Y-113000000D03*
%TO.P,J4,3,Pin_3*%
%TO.N,GND*%
X160000000Y-110460000D03*
%TD*%
D15*
%TO.P,J3,1,Pin_1*%
%TO.N,GND*%
X118000000Y-85000000D03*
D14*
%TO.P,J3,2,Pin_2*%
%TO.N,+12V*%
X118000000Y-87000000D03*
%TD*%
D13*
%TO.P,J2,1,Pin_1*%
%TO.N,CANH*%
X186400000Y-82000000D03*
D14*
%TO.P,J2,2,Pin_2*%
%TO.N,CANL*%
X186400000Y-80000000D03*
%TO.P,J2,3,Pin_3*%
%TO.N,GND*%
X186400000Y-78000000D03*
%TD*%
D16*
%TO.P,J7,1,Pin_1*%
%TO.N,unconnected-(J7-Pin_1-Pad1)*%
X135000000Y-114000000D03*
D17*
%TO.P,J7,2,Pin_2*%
%TO.N,GND*%
X137000000Y-114000000D03*
%TO.P,J7,3,Pin_3*%
%TO.N,TIM2_CH1*%
X139000000Y-114000000D03*
%TO.P,J7,4,Pin_4*%
%TO.N,TIM2_CH2*%
X141000000Y-114000000D03*
%TO.P,J7,5,Pin_5*%
%TO.N,+3.3V*%
X143000000Y-114000000D03*
%TO.P,J7,6,Pin_6*%
%TO.N,unconnected-(J7-Pin_6-Pad6)*%
X145000000Y-114000000D03*
%TD*%
D10*
%TO.P,H2,1,1*%
%TO.N,GND*%
X188500000Y-65000000D03*
%TD*%
%TO.P,H4,1,1*%
%TO.N,GND*%
X189000000Y-115000000D03*
%TD*%
D18*
%TO.N,GND*%
X156500000Y-98000000D03*
%TO.N,TIM2_CH2*%
X141000000Y-98285000D03*
X141141041Y-109610000D03*
%TO.N,DEBUG_SWDIO*%
X157434314Y-85934314D03*
%TO.N,FDCAN1_RX*%
X157400000Y-88400000D03*
X168500000Y-100500000D03*
%TO.N,TIM2_CH1*%
X138500000Y-98000000D03*
X138898959Y-110898959D03*
%TO.N,+3.3V*%
X134000000Y-86000000D03*
%TD*%
D19*
%TO.N,GND*%
X185200001Y-61700001D02*
X149930001Y-61700001D01*
X164540000Y-115000000D02*
X189000000Y-115000000D01*
X184523000Y-110523000D02*
X184523000Y-79877000D01*
X188500000Y-75900000D02*
X186400000Y-78000000D01*
X117000000Y-64500000D02*
X114200001Y-67299999D01*
X119799999Y-61700001D02*
X149930001Y-61700001D01*
X160000000Y-110460000D02*
X164540000Y-115000000D01*
X140540000Y-110460000D02*
X156000000Y-110460000D01*
X153500000Y-65270000D02*
X152230000Y-64000000D01*
X147000000Y-85000000D02*
X118000000Y-85000000D01*
X117000000Y-64500000D02*
X119799999Y-61700001D01*
X156000000Y-98500000D02*
X156500000Y-98000000D01*
X188500000Y-65000000D02*
X185200001Y-61700001D01*
X188500000Y-65000000D02*
X188500000Y-75900000D01*
X114200001Y-67299999D02*
X114200001Y-111200001D01*
X114200001Y-111200001D02*
X117500000Y-114500000D01*
X117500000Y-114500000D02*
X120299999Y-117299999D01*
X189000000Y-115000000D02*
X184523000Y-110523000D01*
X184523000Y-79877000D02*
X186400000Y-78000000D01*
X133700001Y-117299999D02*
X137000000Y-114000000D01*
X120299999Y-117299999D02*
X133700001Y-117299999D01*
X156000000Y-110460000D02*
X156000000Y-98500000D01*
X153500000Y-84500000D02*
X153500000Y-65270000D01*
X149930001Y-61700001D02*
X152230000Y-64000000D01*
X137000000Y-114000000D02*
X140540000Y-110460000D01*
X150000000Y-88000000D02*
X153500000Y-84500000D01*
X150000000Y-88000000D02*
X147000000Y-85000000D01*
%TO.N,TIM2_CH2*%
X141000000Y-109468959D02*
X141141041Y-109610000D01*
X141000000Y-98285000D02*
X141000000Y-109468959D01*
%TO.N,DEBUG_SWDIO*%
X157434314Y-66664314D02*
X157434314Y-85934314D01*
X154770000Y-64000000D02*
X157434314Y-66664314D01*
%TO.N,FDCAN1_RX*%
X157400000Y-88400000D02*
X168500000Y-99500000D01*
X168500000Y-99500000D02*
X168500000Y-100500000D01*
%TO.N,TIM2_CH1*%
X157301000Y-115699000D02*
X160000000Y-113000000D01*
X138500000Y-110500000D02*
X138898959Y-110898959D01*
X141841000Y-116841000D02*
X157301000Y-116841000D01*
X138500000Y-98000000D02*
X138500000Y-110500000D01*
X139000000Y-114000000D02*
X141841000Y-116841000D01*
X157301000Y-116841000D02*
X157301000Y-115699000D01*
%TO.N,CANH*%
X187726000Y-90174000D02*
X187726000Y-83326000D01*
X186400000Y-91500000D02*
X187726000Y-90174000D01*
X187726000Y-83326000D02*
X186400000Y-82000000D01*
%TO.N,CANL*%
X185074000Y-81326000D02*
X186400000Y-80000000D01*
X185074000Y-88174000D02*
X185074000Y-81326000D01*
X186400000Y-89500000D02*
X185074000Y-88174000D01*
D20*
%TO.N,+3.3V*%
X156507826Y-111686000D02*
X157276000Y-110917826D01*
X160507826Y-111774000D02*
X161226000Y-112492174D01*
X145314000Y-111686000D02*
X156507826Y-111686000D01*
X158774000Y-99176570D02*
X158774000Y-111055826D01*
X145597430Y-86000000D02*
X134000000Y-86000000D01*
X161226000Y-112492174D02*
X161226000Y-114314000D01*
X157276000Y-110917826D02*
X157276000Y-97678570D01*
X143000000Y-114000000D02*
X145314000Y-111686000D01*
X143000000Y-114000000D02*
X144540000Y-115540000D01*
X144540000Y-115540000D02*
X156000000Y-115540000D01*
X159492174Y-111774000D02*
X160507826Y-111774000D01*
X161226000Y-114314000D02*
X160000000Y-115540000D01*
X158774000Y-99176570D02*
X145597430Y-86000000D01*
X158774000Y-111055826D02*
X159492174Y-111774000D01*
%TD*%
%TA.AperFunction,NonConductor*%
G36*
X115130195Y-61507291D02*
G01*
X115197105Y-61527407D01*
X115242518Y-61580505D01*
X115252015Y-61649726D01*
X115222581Y-61713094D01*
X115198285Y-61734390D01*
X115031532Y-61845811D01*
X115031518Y-61845821D01*
X114780841Y-62051546D01*
X114551546Y-62280841D01*
X114345821Y-62531518D01*
X114345810Y-62531532D01*
X114237153Y-62694149D01*
X114183540Y-62738954D01*
X114114215Y-62747661D01*
X114051188Y-62717506D01*
X114014469Y-62658063D01*
X114010056Y-62626371D01*
X114001124Y-61625915D01*
X114020209Y-61558704D01*
X114072603Y-61512479D01*
X114125917Y-61500812D01*
X115130195Y-61507291D01*
G37*
%TD.AperFunction*%
%TA.AperFunction,NonConductor*%
G36*
X191377895Y-61999212D02*
G01*
X191444806Y-62019328D01*
X191490219Y-62072426D01*
X191501090Y-62122102D01*
X191510308Y-63154630D01*
X191491223Y-63221843D01*
X191438829Y-63268067D01*
X191369762Y-63278628D01*
X191305950Y-63250171D01*
X191283211Y-63224628D01*
X191213440Y-63120208D01*
X191154183Y-63031524D01*
X190948458Y-62780847D01*
X190948457Y-62780846D01*
X190948453Y-62780841D01*
X190719158Y-62551546D01*
X190468481Y-62345821D01*
X190468480Y-62345820D01*
X190468476Y-62345817D01*
X190328059Y-62251993D01*
X190279692Y-62219675D01*
X190234887Y-62166063D01*
X190226180Y-62096738D01*
X190256334Y-62033710D01*
X190315778Y-61996991D01*
X190349378Y-61992576D01*
X191377895Y-61999212D01*
G37*
%TD.AperFunction*%
%TA.AperFunction,NonConductor*%
G36*
X186596230Y-83120184D02*
G01*
X186616872Y-83136818D01*
X187039181Y-83559126D01*
X187072666Y-83620449D01*
X187075500Y-83646807D01*
X187075500Y-86304029D01*
X187055815Y-86371068D01*
X187003011Y-86416823D01*
X186933853Y-86426767D01*
X186932103Y-86426502D01*
X186761611Y-86399500D01*
X186038389Y-86399500D01*
X185867897Y-86426502D01*
X185798604Y-86417547D01*
X185745152Y-86372550D01*
X185724513Y-86305799D01*
X185724500Y-86304029D01*
X185724500Y-83224499D01*
X185744185Y-83157460D01*
X185796989Y-83111705D01*
X185848496Y-83100499D01*
X186529191Y-83100499D01*
X186596230Y-83120184D01*
G37*
%TD.AperFunction*%
%TA.AperFunction,NonConductor*%
G36*
X144772586Y-111130185D02*
G01*
X144818341Y-111182989D01*
X144828285Y-111252147D01*
X144799260Y-111315703D01*
X144793228Y-111322181D01*
X143466996Y-112648412D01*
X143405673Y-112681897D01*
X143340997Y-112678662D01*
X143257704Y-112651598D01*
X143129383Y-112631274D01*
X143086611Y-112624500D01*
X142913389Y-112624500D01*
X142873728Y-112630781D01*
X142742302Y-112651597D01*
X142577552Y-112705128D01*
X142423211Y-112783768D01*
X142343256Y-112841859D01*
X142283072Y-112885586D01*
X142283070Y-112885588D01*
X142283069Y-112885588D01*
X142160588Y-113008069D01*
X142160581Y-113008078D01*
X142100317Y-113091023D01*
X142044987Y-113133689D01*
X141975374Y-113139667D01*
X141913579Y-113107061D01*
X141899683Y-113091023D01*
X141839418Y-113008078D01*
X141839414Y-113008072D01*
X141716928Y-112885586D01*
X141576788Y-112783768D01*
X141422445Y-112705127D01*
X141257701Y-112651598D01*
X141257699Y-112651597D01*
X141257698Y-112651597D01*
X141126271Y-112630781D01*
X141086611Y-112624500D01*
X140913389Y-112624500D01*
X140873728Y-112630781D01*
X140742302Y-112651597D01*
X140577552Y-112705128D01*
X140423211Y-112783768D01*
X140343256Y-112841859D01*
X140283072Y-112885586D01*
X140283070Y-112885588D01*
X140283069Y-112885588D01*
X140160588Y-113008069D01*
X140160581Y-113008078D01*
X140100317Y-113091023D01*
X140044987Y-113133689D01*
X139975374Y-113139667D01*
X139913579Y-113107061D01*
X139899683Y-113091023D01*
X139839418Y-113008078D01*
X139839414Y-113008072D01*
X139716928Y-112885586D01*
X139576788Y-112783768D01*
X139571043Y-112780841D01*
X139436969Y-112712527D01*
X139386173Y-112664553D01*
X139369378Y-112596732D01*
X139391915Y-112530597D01*
X139405577Y-112514367D01*
X140773127Y-111146819D01*
X140834450Y-111113334D01*
X140860808Y-111110500D01*
X144705547Y-111110500D01*
X144772586Y-111130185D01*
G37*
%TD.AperFunction*%
%TA.AperFunction,NonConductor*%
G36*
X191501674Y-66703374D02*
G01*
X191538394Y-66762817D01*
X191542807Y-66794516D01*
X191956011Y-113073369D01*
X191936926Y-113140581D01*
X191884532Y-113186806D01*
X191815465Y-113197367D01*
X191751653Y-113168910D01*
X191728914Y-113143367D01*
X191727911Y-113141866D01*
X191654183Y-113031524D01*
X191448458Y-112780847D01*
X191448457Y-112780846D01*
X191448453Y-112780841D01*
X191219158Y-112551546D01*
X190968481Y-112345821D01*
X190968480Y-112345820D01*
X190968476Y-112345817D01*
X190698842Y-112165653D01*
X190698837Y-112165650D01*
X190698830Y-112165646D01*
X190412854Y-112012788D01*
X190412849Y-112012786D01*
X190113247Y-111888686D01*
X189802913Y-111794548D01*
X189802902Y-111794545D01*
X189484874Y-111731287D01*
X189484857Y-111731284D01*
X189240812Y-111707248D01*
X189162143Y-111699500D01*
X188837857Y-111699500D01*
X188765099Y-111706666D01*
X188515142Y-111731284D01*
X188515125Y-111731287D01*
X188197097Y-111794545D01*
X188197086Y-111794548D01*
X187886752Y-111888686D01*
X187587150Y-112012786D01*
X187587145Y-112012788D01*
X187301157Y-112165653D01*
X187301152Y-112165655D01*
X187256551Y-112195457D01*
X187189874Y-112216334D01*
X187122494Y-112197849D01*
X187099981Y-112180035D01*
X185209819Y-110289873D01*
X185176334Y-110228550D01*
X185173500Y-110202192D01*
X185173500Y-92582947D01*
X185193185Y-92515908D01*
X185245989Y-92470153D01*
X185315147Y-92460209D01*
X185362593Y-92477406D01*
X185455666Y-92534814D01*
X185622203Y-92589999D01*
X185724991Y-92600500D01*
X187075008Y-92600499D01*
X187177797Y-92589999D01*
X187344334Y-92534814D01*
X187493656Y-92442712D01*
X187617712Y-92318656D01*
X187709814Y-92169334D01*
X187764999Y-92002797D01*
X187775500Y-91900009D01*
X187775499Y-91099992D01*
X187775499Y-91096835D01*
X187776888Y-91096835D01*
X187791850Y-91034225D01*
X187811761Y-91008182D01*
X188231276Y-90588669D01*
X188302465Y-90482127D01*
X188351501Y-90363744D01*
X188355855Y-90341855D01*
X188376500Y-90238069D01*
X188376500Y-83261931D01*
X188376500Y-83261928D01*
X188351502Y-83136261D01*
X188351501Y-83136260D01*
X188351501Y-83136256D01*
X188302465Y-83017873D01*
X188302464Y-83017872D01*
X188302461Y-83017866D01*
X188231277Y-82911332D01*
X188231276Y-82911331D01*
X188140669Y-82820724D01*
X187811769Y-82491824D01*
X187778284Y-82430501D01*
X187776050Y-82403166D01*
X187775500Y-82403166D01*
X187775499Y-81599998D01*
X187775498Y-81599980D01*
X187764999Y-81497203D01*
X187764998Y-81497200D01*
X187709814Y-81330666D01*
X187617712Y-81181344D01*
X187493656Y-81057288D01*
X187493652Y-81057285D01*
X187429456Y-81017688D01*
X187382731Y-80965740D01*
X187371510Y-80896777D01*
X187399353Y-80832695D01*
X187406850Y-80824491D01*
X187514414Y-80716928D01*
X187616232Y-80576788D01*
X187694873Y-80422445D01*
X187748402Y-80257701D01*
X187775500Y-80086611D01*
X187775500Y-79913389D01*
X187748402Y-79742299D01*
X187694873Y-79577555D01*
X187616232Y-79423212D01*
X187514414Y-79283072D01*
X187391928Y-79160586D01*
X187308975Y-79100317D01*
X187266311Y-79044988D01*
X187260332Y-78975374D01*
X187292938Y-78913579D01*
X187308976Y-78899682D01*
X187391928Y-78839414D01*
X187514414Y-78716928D01*
X187616232Y-78576788D01*
X187694873Y-78422445D01*
X187748402Y-78257701D01*
X187775500Y-78086611D01*
X187775500Y-77913389D01*
X187748402Y-77742299D01*
X187730006Y-77685685D01*
X187728012Y-77615845D01*
X187760255Y-77559689D01*
X189005276Y-76314670D01*
X189076465Y-76208127D01*
X189125501Y-76089744D01*
X189150500Y-75964069D01*
X189150500Y-68337531D01*
X189170185Y-68270492D01*
X189222989Y-68224737D01*
X189250306Y-68215914D01*
X189302923Y-68205449D01*
X189613246Y-68111314D01*
X189912847Y-67987215D01*
X190198842Y-67834347D01*
X190468476Y-67654183D01*
X190719153Y-67448458D01*
X190948458Y-67219153D01*
X191154183Y-66968476D01*
X191315711Y-66726731D01*
X191369322Y-66681927D01*
X191438647Y-66673220D01*
X191501674Y-66703374D01*
G37*
%TD.AperFunction*%
%TA.AperFunction,NonConductor*%
G36*
X184946232Y-62370186D02*
G01*
X184966874Y-62386820D01*
X185680035Y-63099981D01*
X185713520Y-63161304D01*
X185708536Y-63230996D01*
X185695457Y-63256551D01*
X185665655Y-63301152D01*
X185665653Y-63301157D01*
X185512788Y-63587145D01*
X185512786Y-63587150D01*
X185388686Y-63886752D01*
X185294548Y-64197086D01*
X185294545Y-64197097D01*
X185231287Y-64515125D01*
X185231284Y-64515142D01*
X185199500Y-64837860D01*
X185199500Y-65162139D01*
X185231284Y-65484857D01*
X185231287Y-65484874D01*
X185294545Y-65802902D01*
X185294548Y-65802913D01*
X185388686Y-66113247D01*
X185512786Y-66412849D01*
X185512788Y-66412854D01*
X185665646Y-66698830D01*
X185665657Y-66698848D01*
X185845811Y-66968467D01*
X185845821Y-66968481D01*
X186051546Y-67219158D01*
X186280841Y-67448453D01*
X186280846Y-67448457D01*
X186280847Y-67448458D01*
X186531524Y-67654183D01*
X186801158Y-67834347D01*
X186801167Y-67834352D01*
X186801169Y-67834353D01*
X187087145Y-67987211D01*
X187087147Y-67987211D01*
X187087153Y-67987215D01*
X187386754Y-68111314D01*
X187697077Y-68205449D01*
X187749690Y-68215914D01*
X187811600Y-68248297D01*
X187846176Y-68309012D01*
X187849500Y-68337531D01*
X187849500Y-75579192D01*
X187829815Y-75646231D01*
X187813181Y-75666873D01*
X186616873Y-76863181D01*
X186555550Y-76896666D01*
X186529192Y-76899500D01*
X186038389Y-76899500D01*
X185998728Y-76905781D01*
X185867302Y-76926597D01*
X185702552Y-76980128D01*
X185548211Y-77058768D01*
X185468256Y-77116859D01*
X185408072Y-77160586D01*
X185408070Y-77160588D01*
X185408069Y-77160588D01*
X185285588Y-77283069D01*
X185285588Y-77283070D01*
X185285586Y-77283072D01*
X185241859Y-77343256D01*
X185183768Y-77423211D01*
X185105128Y-77577552D01*
X185051597Y-77742302D01*
X185024500Y-77913389D01*
X185024500Y-78086610D01*
X185051598Y-78257704D01*
X185069991Y-78314313D01*
X185071986Y-78384154D01*
X185039741Y-78440311D01*
X184017726Y-79462326D01*
X183946534Y-79568874D01*
X183897499Y-79687255D01*
X183897497Y-79687261D01*
X183872500Y-79812928D01*
X183872500Y-79812931D01*
X183872500Y-110587069D01*
X183886429Y-110657093D01*
X183897499Y-110712744D01*
X183946535Y-110831127D01*
X184012970Y-110930555D01*
X184017726Y-110937673D01*
X184017727Y-110937674D01*
X186180035Y-113099981D01*
X186213520Y-113161304D01*
X186208536Y-113230996D01*
X186195457Y-113256551D01*
X186165655Y-113301152D01*
X186165653Y-113301157D01*
X186012788Y-113587145D01*
X186012786Y-113587150D01*
X185888686Y-113886752D01*
X185856358Y-113993325D01*
X185794906Y-114195909D01*
X185794550Y-114197081D01*
X185784085Y-114249692D01*
X185751700Y-114311603D01*
X185690984Y-114346177D01*
X185662468Y-114349500D01*
X164860808Y-114349500D01*
X164793769Y-114329815D01*
X164773127Y-114313181D01*
X161350657Y-110890711D01*
X161317172Y-110829388D01*
X161317689Y-110781245D01*
X161316484Y-110781055D01*
X161350500Y-110566286D01*
X161350500Y-110353713D01*
X161317246Y-110143760D01*
X161317246Y-110143757D01*
X161251557Y-109941588D01*
X161155051Y-109752184D01*
X161155049Y-109752181D01*
X161155048Y-109752179D01*
X161030109Y-109580213D01*
X160879786Y-109429890D01*
X160707820Y-109304951D01*
X160518414Y-109208444D01*
X160518413Y-109208443D01*
X160518412Y-109208443D01*
X160316243Y-109142754D01*
X160316241Y-109142753D01*
X160316240Y-109142753D01*
X160154957Y-109117208D01*
X160106287Y-109109500D01*
X159893713Y-109109500D01*
X159854202Y-109115757D01*
X159683759Y-109142753D01*
X159683755Y-109142754D01*
X159561817Y-109182374D01*
X159491976Y-109184369D01*
X159432144Y-109148288D01*
X159401316Y-109085587D01*
X159399500Y-109064443D01*
X159399500Y-99114963D01*
X159399499Y-99114959D01*
X159375464Y-98994123D01*
X159375462Y-98994115D01*
X159371989Y-98985731D01*
X159360743Y-98958580D01*
X159328312Y-98880284D01*
X159273339Y-98798013D01*
X159270183Y-98793290D01*
X159270180Y-98793284D01*
X159259858Y-98777837D01*
X159259853Y-98777831D01*
X159169637Y-98687615D01*
X159169606Y-98687586D01*
X157761860Y-97279840D01*
X157761858Y-97279837D01*
X157674733Y-97192712D01*
X157674729Y-97192709D01*
X146344201Y-85862181D01*
X146310716Y-85800858D01*
X146315700Y-85731166D01*
X146357572Y-85675233D01*
X146423036Y-85650816D01*
X146431882Y-85650500D01*
X146679192Y-85650500D01*
X146746231Y-85670185D01*
X146766873Y-85686819D01*
X149494723Y-88414669D01*
X149585331Y-88505277D01*
X149674156Y-88564627D01*
X149691874Y-88576466D01*
X149783436Y-88614391D01*
X149810256Y-88625501D01*
X149810257Y-88625501D01*
X149810262Y-88625503D01*
X149831105Y-88629648D01*
X149831112Y-88629649D01*
X149935929Y-88650500D01*
X149935931Y-88650500D01*
X150064071Y-88650500D01*
X150168896Y-88629648D01*
X150189744Y-88625501D01*
X150308127Y-88576465D01*
X150414670Y-88505277D01*
X150505277Y-88414670D01*
X150505278Y-88414668D01*
X150512338Y-88407608D01*
X150512343Y-88407601D01*
X150608640Y-88311304D01*
X156499500Y-88311304D01*
X156499500Y-88488695D01*
X156534103Y-88662658D01*
X156534106Y-88662667D01*
X156601983Y-88826540D01*
X156601990Y-88826553D01*
X156700535Y-88974034D01*
X156700538Y-88974038D01*
X156825961Y-89099461D01*
X156825965Y-89099464D01*
X156973446Y-89198009D01*
X156973459Y-89198016D01*
X157096363Y-89248923D01*
X157137334Y-89265894D01*
X157137336Y-89265894D01*
X157137341Y-89265896D01*
X157311304Y-89300499D01*
X157311307Y-89300500D01*
X157311309Y-89300500D01*
X157329192Y-89300500D01*
X157396231Y-89320185D01*
X157416873Y-89336819D01*
X167813181Y-99733127D01*
X167827884Y-99760054D01*
X167844477Y-99785873D01*
X167845368Y-99792073D01*
X167846666Y-99794450D01*
X167849500Y-99820808D01*
X167849500Y-99825638D01*
X167829815Y-99892677D01*
X167813181Y-99913319D01*
X167800538Y-99925961D01*
X167800535Y-99925965D01*
X167701990Y-100073446D01*
X167701983Y-100073459D01*
X167634106Y-100237332D01*
X167634103Y-100237341D01*
X167599500Y-100411304D01*
X167599500Y-100588695D01*
X167634103Y-100762658D01*
X167634106Y-100762667D01*
X167701983Y-100926540D01*
X167701990Y-100926553D01*
X167800535Y-101074034D01*
X167800538Y-101074038D01*
X167925961Y-101199461D01*
X167925965Y-101199464D01*
X168073446Y-101298009D01*
X168073459Y-101298016D01*
X168196363Y-101348923D01*
X168237334Y-101365894D01*
X168237336Y-101365894D01*
X168237341Y-101365896D01*
X168411304Y-101400499D01*
X168411307Y-101400500D01*
X168411309Y-101400500D01*
X168588693Y-101400500D01*
X168588694Y-101400499D01*
X168646682Y-101388964D01*
X168762658Y-101365896D01*
X168762661Y-101365894D01*
X168762666Y-101365894D01*
X168926547Y-101298013D01*
X169074035Y-101199464D01*
X169199464Y-101074035D01*
X169298013Y-100926547D01*
X169365894Y-100762666D01*
X169400500Y-100588691D01*
X169400500Y-100411309D01*
X169400500Y-100411306D01*
X169400499Y-100411304D01*
X169365896Y-100237341D01*
X169365893Y-100237332D01*
X169298016Y-100073459D01*
X169298009Y-100073446D01*
X169199464Y-99925965D01*
X169199461Y-99925961D01*
X169186819Y-99913319D01*
X169153334Y-99851996D01*
X169150500Y-99825638D01*
X169150500Y-99435928D01*
X169125502Y-99310261D01*
X169125501Y-99310260D01*
X169125501Y-99310256D01*
X169095645Y-99238177D01*
X169076466Y-99191874D01*
X169074318Y-99188660D01*
X169005278Y-99085332D01*
X169005272Y-99085325D01*
X158336819Y-88416872D01*
X158303334Y-88355549D01*
X158300500Y-88329191D01*
X158300500Y-88311306D01*
X158300499Y-88311304D01*
X158265896Y-88137341D01*
X158265893Y-88137332D01*
X158198016Y-87973459D01*
X158198009Y-87973446D01*
X158099464Y-87825965D01*
X158099461Y-87825961D01*
X157974038Y-87700538D01*
X157974034Y-87700535D01*
X157826553Y-87601990D01*
X157826540Y-87601983D01*
X157662667Y-87534106D01*
X157662658Y-87534103D01*
X157488694Y-87499500D01*
X157488691Y-87499500D01*
X157311309Y-87499500D01*
X157311306Y-87499500D01*
X157137341Y-87534103D01*
X157137332Y-87534106D01*
X156973459Y-87601983D01*
X156973446Y-87601990D01*
X156825965Y-87700535D01*
X156825961Y-87700538D01*
X156700538Y-87825961D01*
X156700535Y-87825965D01*
X156601990Y-87973446D01*
X156601983Y-87973459D01*
X156534106Y-88137332D01*
X156534103Y-88137341D01*
X156499500Y-88311304D01*
X150608640Y-88311304D01*
X154005276Y-84914670D01*
X154076465Y-84808127D01*
X154125501Y-84689744D01*
X154143354Y-84599991D01*
X154150500Y-84564069D01*
X154150500Y-65389382D01*
X154170185Y-65322343D01*
X154222989Y-65276588D01*
X154292147Y-65266644D01*
X154312805Y-65271447D01*
X154453757Y-65317246D01*
X154663713Y-65350500D01*
X154663714Y-65350500D01*
X154876286Y-65350500D01*
X154876287Y-65350500D01*
X155020290Y-65327692D01*
X155091055Y-65316484D01*
X155091315Y-65318128D01*
X155153852Y-65321250D01*
X155200711Y-65350657D01*
X156747495Y-66897441D01*
X156780980Y-66958764D01*
X156783814Y-66985122D01*
X156783814Y-85259952D01*
X156764129Y-85326991D01*
X156747495Y-85347633D01*
X156734852Y-85360275D01*
X156734849Y-85360279D01*
X156636304Y-85507760D01*
X156636297Y-85507773D01*
X156568420Y-85671646D01*
X156568417Y-85671655D01*
X156533814Y-85845618D01*
X156533814Y-86023009D01*
X156568417Y-86196972D01*
X156568420Y-86196981D01*
X156636297Y-86360854D01*
X156636304Y-86360867D01*
X156734849Y-86508348D01*
X156734852Y-86508352D01*
X156860275Y-86633775D01*
X156860279Y-86633778D01*
X157007760Y-86732323D01*
X157007773Y-86732330D01*
X157130677Y-86783237D01*
X157171648Y-86800208D01*
X157171650Y-86800208D01*
X157171655Y-86800210D01*
X157345618Y-86834813D01*
X157345621Y-86834814D01*
X157345623Y-86834814D01*
X157523007Y-86834814D01*
X157523008Y-86834813D01*
X157580996Y-86823278D01*
X157696972Y-86800210D01*
X157696975Y-86800208D01*
X157696980Y-86800208D01*
X157860861Y-86732327D01*
X158008349Y-86633778D01*
X158133778Y-86508349D01*
X158232327Y-86360861D01*
X158300208Y-86196980D01*
X158307448Y-86160586D01*
X158332465Y-86034814D01*
X158334814Y-86023005D01*
X158334814Y-85845623D01*
X158334814Y-85845620D01*
X158334813Y-85845618D01*
X158300210Y-85671655D01*
X158300207Y-85671646D01*
X158299249Y-85669334D01*
X158283237Y-85630677D01*
X158232330Y-85507773D01*
X158232323Y-85507760D01*
X158133778Y-85360279D01*
X158133775Y-85360275D01*
X158121133Y-85347633D01*
X158087648Y-85286310D01*
X158084814Y-85259952D01*
X158084814Y-66600242D01*
X158059816Y-66474575D01*
X158059815Y-66474574D01*
X158059815Y-66474570D01*
X158010779Y-66356187D01*
X157939591Y-66249645D01*
X157939589Y-66249643D01*
X157939587Y-66249640D01*
X157939586Y-66249639D01*
X157252127Y-65562181D01*
X157218642Y-65500858D01*
X157223626Y-65431167D01*
X157265497Y-65375233D01*
X157330962Y-65350816D01*
X157339808Y-65350500D01*
X157416286Y-65350500D01*
X157416287Y-65350500D01*
X157626243Y-65317246D01*
X157828412Y-65251557D01*
X158017816Y-65155051D01*
X158104138Y-65092335D01*
X158189786Y-65030109D01*
X158189788Y-65030106D01*
X158189792Y-65030104D01*
X158340104Y-64879792D01*
X158340106Y-64879788D01*
X158340109Y-64879786D01*
X158465048Y-64707820D01*
X158465047Y-64707820D01*
X158465051Y-64707816D01*
X158469514Y-64699054D01*
X158517488Y-64648259D01*
X158585308Y-64631463D01*
X158651444Y-64653999D01*
X158690486Y-64699056D01*
X158694951Y-64707820D01*
X158819890Y-64879786D01*
X158970213Y-65030109D01*
X159142179Y-65155048D01*
X159142181Y-65155049D01*
X159142184Y-65155051D01*
X159331588Y-65251557D01*
X159533757Y-65317246D01*
X159743713Y-65350500D01*
X159743714Y-65350500D01*
X159956286Y-65350500D01*
X159956287Y-65350500D01*
X160166243Y-65317246D01*
X160368412Y-65251557D01*
X160557816Y-65155051D01*
X160644138Y-65092335D01*
X160729786Y-65030109D01*
X160729788Y-65030106D01*
X160729792Y-65030104D01*
X160880104Y-64879792D01*
X160880106Y-64879788D01*
X160880109Y-64879786D01*
X161005048Y-64707820D01*
X161005047Y-64707820D01*
X161005051Y-64707816D01*
X161101557Y-64518412D01*
X161167246Y-64316243D01*
X161200500Y-64106287D01*
X161200500Y-63893713D01*
X161167246Y-63683757D01*
X161101557Y-63481588D01*
X161005051Y-63292184D01*
X161005049Y-63292181D01*
X161005048Y-63292179D01*
X160880109Y-63120213D01*
X160729786Y-62969890D01*
X160557820Y-62844951D01*
X160368414Y-62748444D01*
X160368413Y-62748443D01*
X160368412Y-62748443D01*
X160166243Y-62682754D01*
X160166241Y-62682753D01*
X160166240Y-62682753D01*
X160004957Y-62657208D01*
X159956287Y-62649500D01*
X159743713Y-62649500D01*
X159695042Y-62657208D01*
X159533760Y-62682753D01*
X159331585Y-62748444D01*
X159142179Y-62844951D01*
X158970213Y-62969890D01*
X158819890Y-63120213D01*
X158694949Y-63292182D01*
X158690484Y-63300946D01*
X158642509Y-63351742D01*
X158574688Y-63368536D01*
X158508553Y-63345998D01*
X158469516Y-63300946D01*
X158465050Y-63292182D01*
X158340109Y-63120213D01*
X158189786Y-62969890D01*
X158017820Y-62844951D01*
X157828414Y-62748444D01*
X157828413Y-62748443D01*
X157828412Y-62748443D01*
X157626243Y-62682754D01*
X157626241Y-62682753D01*
X157626240Y-62682753D01*
X157464957Y-62657208D01*
X157416287Y-62649500D01*
X157203713Y-62649500D01*
X157155042Y-62657208D01*
X156993760Y-62682753D01*
X156791585Y-62748444D01*
X156602179Y-62844951D01*
X156430213Y-62969890D01*
X156279890Y-63120213D01*
X156154949Y-63292182D01*
X156150484Y-63300946D01*
X156102509Y-63351742D01*
X156034688Y-63368536D01*
X155968553Y-63345998D01*
X155929516Y-63300946D01*
X155925050Y-63292182D01*
X155800109Y-63120213D01*
X155649786Y-62969890D01*
X155477820Y-62844951D01*
X155288414Y-62748444D01*
X155288413Y-62748443D01*
X155288412Y-62748443D01*
X155086243Y-62682754D01*
X155086241Y-62682753D01*
X155086240Y-62682753D01*
X154924957Y-62657208D01*
X154876287Y-62649500D01*
X154663713Y-62649500D01*
X154615042Y-62657208D01*
X154453760Y-62682753D01*
X154251585Y-62748444D01*
X154062179Y-62844951D01*
X153890213Y-62969890D01*
X153739890Y-63120213D01*
X153614949Y-63292182D01*
X153610484Y-63300946D01*
X153562509Y-63351742D01*
X153494688Y-63368536D01*
X153428553Y-63345998D01*
X153389516Y-63300946D01*
X153385050Y-63292182D01*
X153260109Y-63120213D01*
X153109786Y-62969890D01*
X152937820Y-62844951D01*
X152748414Y-62748444D01*
X152748413Y-62748443D01*
X152748412Y-62748443D01*
X152546243Y-62682754D01*
X152546241Y-62682753D01*
X152546240Y-62682753D01*
X152384957Y-62657208D01*
X152336287Y-62649500D01*
X152123713Y-62649500D01*
X152069649Y-62658063D01*
X151908945Y-62683516D01*
X151908686Y-62681882D01*
X151846094Y-62678730D01*
X151799288Y-62649342D01*
X151712128Y-62562182D01*
X151678643Y-62500859D01*
X151683627Y-62431167D01*
X151725499Y-62375234D01*
X151790963Y-62350817D01*
X151799809Y-62350501D01*
X184879193Y-62350501D01*
X184946232Y-62370186D01*
G37*
%TD.AperFunction*%
%TA.AperFunction,NonConductor*%
G36*
X158114492Y-110910370D02*
G01*
X158146327Y-110972565D01*
X158148500Y-110995678D01*
X158148500Y-111117435D01*
X158171146Y-111231286D01*
X158172537Y-111238278D01*
X158186347Y-111271618D01*
X158186347Y-111271619D01*
X158219685Y-111352106D01*
X158219690Y-111352115D01*
X158253914Y-111403333D01*
X158253915Y-111403335D01*
X158288140Y-111454557D01*
X158288141Y-111454558D01*
X158288142Y-111454559D01*
X158375267Y-111541684D01*
X158375268Y-111541684D01*
X158382335Y-111548751D01*
X158382334Y-111548751D01*
X158382337Y-111548753D01*
X158888233Y-112054649D01*
X158921717Y-112115971D01*
X158916733Y-112185663D01*
X158900870Y-112215213D01*
X158844950Y-112292181D01*
X158748444Y-112481585D01*
X158682753Y-112683760D01*
X158649500Y-112893713D01*
X158649500Y-113106286D01*
X158683516Y-113321055D01*
X158681877Y-113321314D01*
X158678738Y-113383883D01*
X158649342Y-113430710D01*
X157522210Y-114557842D01*
X157460887Y-114591327D01*
X157391195Y-114586343D01*
X157335262Y-114544471D01*
X157318347Y-114513493D01*
X157293798Y-114447673D01*
X157293793Y-114447664D01*
X157207547Y-114332455D01*
X157207544Y-114332452D01*
X157092335Y-114246206D01*
X157092328Y-114246202D01*
X156960917Y-114197189D01*
X156904983Y-114155318D01*
X156880566Y-114089853D01*
X156895418Y-114021580D01*
X156916563Y-113993332D01*
X157030104Y-113879792D01*
X157155051Y-113707816D01*
X157251557Y-113518412D01*
X157317246Y-113316243D01*
X157350500Y-113106287D01*
X157350500Y-112893713D01*
X157317246Y-112683757D01*
X157251557Y-112481588D01*
X157155051Y-112292184D01*
X157086513Y-112197849D01*
X157062099Y-112164245D01*
X157038619Y-112098439D01*
X157054445Y-112030385D01*
X157074733Y-112003682D01*
X157674729Y-111403686D01*
X157674733Y-111403684D01*
X157761858Y-111316559D01*
X157814164Y-111238278D01*
X157830312Y-111214112D01*
X157870357Y-111117433D01*
X157877463Y-111100278D01*
X157895369Y-111010257D01*
X157901500Y-110979433D01*
X157901500Y-110979432D01*
X157902688Y-110973460D01*
X157904978Y-110973915D01*
X157927253Y-110918743D01*
X157984285Y-110878380D01*
X158054085Y-110875259D01*
X158114492Y-110910370D01*
G37*
%TD.AperFunction*%
%TA.AperFunction,NonConductor*%
G36*
X154664797Y-112320743D02*
G01*
X154696591Y-112328859D01*
X154698154Y-112330538D01*
X154700356Y-112331185D01*
X154721835Y-112355973D01*
X154744201Y-112379996D01*
X154744608Y-112382255D01*
X154746111Y-112383989D01*
X154750781Y-112416471D01*
X154756606Y-112448756D01*
X154755849Y-112451719D01*
X154756055Y-112453147D01*
X154749558Y-112476827D01*
X154749949Y-112476954D01*
X154748443Y-112481586D01*
X154748443Y-112481588D01*
X154725712Y-112551546D01*
X154682753Y-112683760D01*
X154649500Y-112893713D01*
X154649500Y-113106286D01*
X154680585Y-113302552D01*
X154682754Y-113316243D01*
X154731836Y-113467302D01*
X154748444Y-113518414D01*
X154844951Y-113707820D01*
X154969890Y-113879786D01*
X155083430Y-113993326D01*
X155116915Y-114054649D01*
X155111931Y-114124341D01*
X155070059Y-114180274D01*
X155039083Y-114197189D01*
X154907669Y-114246203D01*
X154907664Y-114246206D01*
X154792455Y-114332452D01*
X154792452Y-114332455D01*
X154706206Y-114447664D01*
X154706202Y-114447671D01*
X154655908Y-114582517D01*
X154649501Y-114642116D01*
X154649500Y-114642135D01*
X154649500Y-114790500D01*
X154629815Y-114857539D01*
X154577011Y-114903294D01*
X154525500Y-114914500D01*
X146111628Y-114914500D01*
X146044589Y-114894815D01*
X145998834Y-114842011D01*
X145988890Y-114772853D01*
X146001143Y-114734205D01*
X146012084Y-114712731D01*
X146019873Y-114697445D01*
X146073402Y-114532701D01*
X146100500Y-114361611D01*
X146100500Y-113638389D01*
X146073402Y-113467299D01*
X146019873Y-113302555D01*
X145941232Y-113148212D01*
X145839414Y-113008072D01*
X145716928Y-112885586D01*
X145576788Y-112783768D01*
X145571043Y-112780841D01*
X145422440Y-112705124D01*
X145422077Y-112704974D01*
X145421960Y-112704879D01*
X145418104Y-112702915D01*
X145418516Y-112702104D01*
X145367676Y-112661130D01*
X145345614Y-112594835D01*
X145362896Y-112527137D01*
X145381845Y-112502743D01*
X145536772Y-112347816D01*
X145598095Y-112314334D01*
X145624452Y-112311500D01*
X154633317Y-112311500D01*
X154664797Y-112320743D01*
G37*
%TD.AperFunction*%
%TA.AperFunction,NonConductor*%
G36*
X142086421Y-114892938D02*
G01*
X142100315Y-114908973D01*
X142160586Y-114991928D01*
X142283072Y-115114414D01*
X142423212Y-115216232D01*
X142577555Y-115294873D01*
X142742299Y-115348402D01*
X142913389Y-115375500D01*
X142913390Y-115375500D01*
X143086610Y-115375500D01*
X143086611Y-115375500D01*
X143257701Y-115348402D01*
X143340999Y-115321335D01*
X143410837Y-115319340D01*
X143466996Y-115351586D01*
X144054139Y-115938729D01*
X144054142Y-115938733D01*
X144068177Y-115952768D01*
X144094229Y-115978821D01*
X144113892Y-116014833D01*
X144127712Y-116040142D01*
X144127711Y-116040143D01*
X144127713Y-116040145D01*
X144124789Y-116081005D01*
X144122728Y-116109834D01*
X144080856Y-116165767D01*
X144080855Y-116165767D01*
X144080854Y-116165769D01*
X144046258Y-116178671D01*
X144015392Y-116190184D01*
X144006546Y-116190500D01*
X142161808Y-116190500D01*
X142094769Y-116170815D01*
X142074127Y-116154181D01*
X141405583Y-115485637D01*
X141372098Y-115424314D01*
X141377082Y-115354622D01*
X141418954Y-115298689D01*
X141436964Y-115287474D01*
X141576788Y-115216232D01*
X141716928Y-115114414D01*
X141839414Y-114991928D01*
X141899682Y-114908975D01*
X141955012Y-114866311D01*
X142024626Y-114860332D01*
X142086421Y-114892938D01*
G37*
%TD.AperFunction*%
%TA.AperFunction,NonConductor*%
G36*
X149676232Y-62370186D02*
G01*
X149696874Y-62386820D01*
X149747873Y-62437819D01*
X149781358Y-62499142D01*
X149776374Y-62568834D01*
X149734502Y-62624767D01*
X149669038Y-62649184D01*
X149660192Y-62649500D01*
X149583713Y-62649500D01*
X149535042Y-62657208D01*
X149373760Y-62682753D01*
X149171585Y-62748444D01*
X148982179Y-62844951D01*
X148810215Y-62969889D01*
X148696673Y-63083431D01*
X148635350Y-63116915D01*
X148565658Y-63111931D01*
X148509725Y-63070059D01*
X148492810Y-63039082D01*
X148443797Y-62907671D01*
X148443793Y-62907664D01*
X148357547Y-62792455D01*
X148357544Y-62792452D01*
X148242335Y-62706206D01*
X148242328Y-62706202D01*
X148107482Y-62655908D01*
X148107483Y-62655908D01*
X148047883Y-62649501D01*
X148047881Y-62649500D01*
X148047873Y-62649500D01*
X148047864Y-62649500D01*
X146252129Y-62649500D01*
X146252123Y-62649501D01*
X146192516Y-62655908D01*
X146057671Y-62706202D01*
X146057664Y-62706206D01*
X145942455Y-62792452D01*
X145942452Y-62792455D01*
X145856206Y-62907664D01*
X145856202Y-62907671D01*
X145805908Y-63042517D01*
X145799501Y-63102116D01*
X145799500Y-63102135D01*
X145799500Y-64897870D01*
X145799501Y-64897876D01*
X145805908Y-64957483D01*
X145856202Y-65092328D01*
X145856206Y-65092335D01*
X145942452Y-65207544D01*
X145942455Y-65207547D01*
X146057664Y-65293793D01*
X146057671Y-65293797D01*
X146192517Y-65344091D01*
X146192516Y-65344091D01*
X146199444Y-65344835D01*
X146252127Y-65350500D01*
X148047872Y-65350499D01*
X148107483Y-65344091D01*
X148242331Y-65293796D01*
X148357546Y-65207546D01*
X148443796Y-65092331D01*
X148492810Y-64960916D01*
X148534681Y-64904984D01*
X148600145Y-64880566D01*
X148668418Y-64895417D01*
X148696673Y-64916569D01*
X148810213Y-65030109D01*
X148982179Y-65155048D01*
X148982181Y-65155049D01*
X148982184Y-65155051D01*
X149171588Y-65251557D01*
X149373757Y-65317246D01*
X149583713Y-65350500D01*
X149583714Y-65350500D01*
X149796286Y-65350500D01*
X149796287Y-65350500D01*
X150006243Y-65317246D01*
X150208412Y-65251557D01*
X150397816Y-65155051D01*
X150484138Y-65092335D01*
X150569786Y-65030109D01*
X150569788Y-65030106D01*
X150569792Y-65030104D01*
X150720104Y-64879792D01*
X150720106Y-64879788D01*
X150720109Y-64879786D01*
X150845048Y-64707820D01*
X150845047Y-64707820D01*
X150845051Y-64707816D01*
X150849514Y-64699054D01*
X150897488Y-64648259D01*
X150965308Y-64631463D01*
X151031444Y-64653999D01*
X151070486Y-64699056D01*
X151074951Y-64707820D01*
X151199890Y-64879786D01*
X151350213Y-65030109D01*
X151522179Y-65155048D01*
X151522181Y-65155049D01*
X151522184Y-65155051D01*
X151711588Y-65251557D01*
X151913757Y-65317246D01*
X152123713Y-65350500D01*
X152123714Y-65350500D01*
X152336286Y-65350500D01*
X152336287Y-65350500D01*
X152480290Y-65327692D01*
X152551055Y-65316484D01*
X152551315Y-65318126D01*
X152554453Y-65318283D01*
X152564185Y-65314654D01*
X152588753Y-65319998D01*
X152613863Y-65321254D01*
X152624121Y-65327692D01*
X152632458Y-65329506D01*
X152660712Y-65350657D01*
X152813181Y-65503126D01*
X152846666Y-65564449D01*
X152849500Y-65590807D01*
X152849500Y-84179192D01*
X152829815Y-84246231D01*
X152813181Y-84266873D01*
X150087681Y-86992372D01*
X150026358Y-87025857D01*
X149956666Y-87020873D01*
X149912319Y-86992372D01*
X147414673Y-84494726D01*
X147414669Y-84494723D01*
X147308127Y-84423535D01*
X147189744Y-84374499D01*
X147189738Y-84374497D01*
X147064071Y-84349500D01*
X147064069Y-84349500D01*
X119390638Y-84349500D01*
X119323599Y-84329815D01*
X119285099Y-84290597D01*
X119257734Y-84246231D01*
X119217712Y-84181344D01*
X119093656Y-84057288D01*
X118944334Y-83965186D01*
X118777797Y-83910001D01*
X118777795Y-83910000D01*
X118675010Y-83899500D01*
X117324998Y-83899500D01*
X117324981Y-83899501D01*
X117222203Y-83910000D01*
X117222200Y-83910001D01*
X117055668Y-83965185D01*
X117055663Y-83965187D01*
X116906342Y-84057289D01*
X116782289Y-84181342D01*
X116690187Y-84330663D01*
X116690186Y-84330666D01*
X116635001Y-84497203D01*
X116635001Y-84497204D01*
X116635000Y-84497204D01*
X116624500Y-84599983D01*
X116624500Y-85400001D01*
X116624501Y-85400019D01*
X116635000Y-85502796D01*
X116635001Y-85502799D01*
X116690185Y-85669331D01*
X116690187Y-85669336D01*
X116700971Y-85686819D01*
X116782288Y-85818656D01*
X116906344Y-85942712D01*
X116970543Y-85982310D01*
X117017268Y-86034258D01*
X117028489Y-86103221D01*
X117000646Y-86167303D01*
X116993128Y-86175530D01*
X116885585Y-86283073D01*
X116783768Y-86423211D01*
X116705128Y-86577552D01*
X116651597Y-86742302D01*
X116632022Y-86865894D01*
X116624500Y-86913389D01*
X116624500Y-87086611D01*
X116651598Y-87257701D01*
X116705127Y-87422445D01*
X116783768Y-87576788D01*
X116885586Y-87716928D01*
X117008072Y-87839414D01*
X117148212Y-87941232D01*
X117302555Y-88019873D01*
X117467299Y-88073402D01*
X117638389Y-88100500D01*
X117638390Y-88100500D01*
X118361610Y-88100500D01*
X118361611Y-88100500D01*
X118532701Y-88073402D01*
X118697445Y-88019873D01*
X118851788Y-87941232D01*
X118991928Y-87839414D01*
X119114414Y-87716928D01*
X119216232Y-87576788D01*
X119294873Y-87422445D01*
X119348402Y-87257701D01*
X119375500Y-87086611D01*
X119375500Y-86913389D01*
X119348402Y-86742299D01*
X119294873Y-86577555D01*
X119216232Y-86423212D01*
X119114414Y-86283072D01*
X119006872Y-86175530D01*
X118973387Y-86114207D01*
X118978371Y-86044515D01*
X119020243Y-85988582D01*
X119029457Y-85982310D01*
X119093656Y-85942712D01*
X119217712Y-85818656D01*
X119285099Y-85709402D01*
X119337047Y-85662679D01*
X119390638Y-85650500D01*
X133000284Y-85650500D01*
X133067323Y-85670185D01*
X133113078Y-85722989D01*
X133123022Y-85792147D01*
X133121901Y-85798692D01*
X133099500Y-85911306D01*
X133099500Y-86088695D01*
X133134103Y-86262658D01*
X133134106Y-86262667D01*
X133201983Y-86426540D01*
X133201990Y-86426553D01*
X133300535Y-86574034D01*
X133300538Y-86574038D01*
X133425961Y-86699461D01*
X133425965Y-86699464D01*
X133573446Y-86798009D01*
X133573459Y-86798016D01*
X133662297Y-86834813D01*
X133737334Y-86865894D01*
X133737336Y-86865894D01*
X133737341Y-86865896D01*
X133911304Y-86900499D01*
X133911307Y-86900500D01*
X133911309Y-86900500D01*
X134088693Y-86900500D01*
X134088694Y-86900499D01*
X134146682Y-86888964D01*
X134262658Y-86865896D01*
X134262661Y-86865894D01*
X134262666Y-86865894D01*
X134426547Y-86798013D01*
X134574035Y-86699464D01*
X134611679Y-86661820D01*
X134673001Y-86628334D01*
X134699361Y-86625500D01*
X145286978Y-86625500D01*
X145354017Y-86645185D01*
X145374659Y-86661819D01*
X155881989Y-97169149D01*
X155915474Y-97230472D01*
X155910490Y-97300164D01*
X155881989Y-97344511D01*
X155800538Y-97425961D01*
X155800535Y-97425965D01*
X155701990Y-97573446D01*
X155701983Y-97573459D01*
X155634106Y-97737332D01*
X155634103Y-97737341D01*
X155599500Y-97911304D01*
X155599500Y-97929191D01*
X155579815Y-97996230D01*
X155563181Y-98016872D01*
X155494727Y-98085325D01*
X155494724Y-98085328D01*
X155424955Y-98189747D01*
X155423535Y-98191871D01*
X155423532Y-98191877D01*
X155374500Y-98310251D01*
X155374497Y-98310261D01*
X155349500Y-98435928D01*
X155349500Y-109200382D01*
X155329815Y-109267421D01*
X155295408Y-109301099D01*
X155296125Y-109302085D01*
X155120213Y-109429890D01*
X154969890Y-109580213D01*
X154842085Y-109756125D01*
X154840740Y-109755148D01*
X154794295Y-109797166D01*
X154740382Y-109809500D01*
X142165541Y-109809500D01*
X142098502Y-109789815D01*
X142052747Y-109737011D01*
X142041541Y-109685500D01*
X142041541Y-109521306D01*
X142041540Y-109521304D01*
X142006937Y-109347341D01*
X142006934Y-109347332D01*
X141939057Y-109183459D01*
X141939050Y-109183446D01*
X141840505Y-109035965D01*
X141840502Y-109035961D01*
X141715083Y-108910542D01*
X141715078Y-108910538D01*
X141715076Y-108910536D01*
X141705603Y-108904206D01*
X141660802Y-108850592D01*
X141650500Y-108801108D01*
X141650500Y-98959361D01*
X141670185Y-98892322D01*
X141686816Y-98871682D01*
X141699464Y-98859035D01*
X141798013Y-98711547D01*
X141865894Y-98547666D01*
X141900500Y-98373691D01*
X141900500Y-98196309D01*
X141900500Y-98196306D01*
X141900499Y-98196304D01*
X141865896Y-98022341D01*
X141865893Y-98022332D01*
X141863631Y-98016872D01*
X141848588Y-97980554D01*
X141798016Y-97858459D01*
X141798009Y-97858446D01*
X141699464Y-97710965D01*
X141699461Y-97710961D01*
X141574038Y-97585538D01*
X141574034Y-97585535D01*
X141426553Y-97486990D01*
X141426540Y-97486983D01*
X141262667Y-97419106D01*
X141262658Y-97419103D01*
X141088694Y-97384500D01*
X141088691Y-97384500D01*
X140911309Y-97384500D01*
X140911306Y-97384500D01*
X140737341Y-97419103D01*
X140737332Y-97419106D01*
X140573459Y-97486983D01*
X140573446Y-97486990D01*
X140425965Y-97585535D01*
X140425961Y-97585538D01*
X140300538Y-97710961D01*
X140300535Y-97710965D01*
X140201990Y-97858446D01*
X140201983Y-97858459D01*
X140134106Y-98022332D01*
X140134103Y-98022341D01*
X140099500Y-98196304D01*
X140099500Y-98373695D01*
X140134103Y-98547658D01*
X140134106Y-98547667D01*
X140201983Y-98711540D01*
X140201990Y-98711553D01*
X140300534Y-98859033D01*
X140300535Y-98859034D01*
X140300536Y-98859035D01*
X140313180Y-98871679D01*
X140346665Y-98932999D01*
X140349500Y-98959361D01*
X140349500Y-109143163D01*
X140340061Y-109190615D01*
X140275147Y-109347332D01*
X140275144Y-109347341D01*
X140240541Y-109521304D01*
X140240541Y-109698694D01*
X140255814Y-109775475D01*
X140249587Y-109845066D01*
X140206724Y-109900243D01*
X140203088Y-109902768D01*
X140125328Y-109954724D01*
X139764457Y-110315595D01*
X139703134Y-110349080D01*
X139633442Y-110344096D01*
X139589095Y-110315595D01*
X139472997Y-110199497D01*
X139472993Y-110199494D01*
X139325512Y-110100949D01*
X139325503Y-110100944D01*
X139227047Y-110060163D01*
X139172644Y-110016322D01*
X139150579Y-109950028D01*
X139150500Y-109945602D01*
X139150500Y-98674361D01*
X139170185Y-98607322D01*
X139186816Y-98586682D01*
X139199464Y-98574035D01*
X139298013Y-98426547D01*
X139365894Y-98262666D01*
X139380400Y-98189743D01*
X139400499Y-98088695D01*
X139400500Y-98088693D01*
X139400500Y-97911306D01*
X139400499Y-97911304D01*
X139365896Y-97737341D01*
X139365893Y-97737332D01*
X139298016Y-97573459D01*
X139298009Y-97573446D01*
X139199464Y-97425965D01*
X139199461Y-97425961D01*
X139074038Y-97300538D01*
X139074034Y-97300535D01*
X138926553Y-97201990D01*
X138926540Y-97201983D01*
X138762667Y-97134106D01*
X138762658Y-97134103D01*
X138588694Y-97099500D01*
X138588691Y-97099500D01*
X138411309Y-97099500D01*
X138411306Y-97099500D01*
X138237341Y-97134103D01*
X138237332Y-97134106D01*
X138073459Y-97201983D01*
X138073446Y-97201990D01*
X137925965Y-97300535D01*
X137925961Y-97300538D01*
X137800538Y-97425961D01*
X137800535Y-97425965D01*
X137701990Y-97573446D01*
X137701983Y-97573459D01*
X137634106Y-97737332D01*
X137634103Y-97737341D01*
X137599500Y-97911304D01*
X137599500Y-98088695D01*
X137634103Y-98262658D01*
X137634106Y-98262667D01*
X137701983Y-98426540D01*
X137701990Y-98426553D01*
X137800534Y-98574033D01*
X137800535Y-98574034D01*
X137800536Y-98574035D01*
X137813180Y-98586679D01*
X137846665Y-98647999D01*
X137849500Y-98674361D01*
X137849500Y-110564071D01*
X137868004Y-110657093D01*
X137868004Y-110657094D01*
X137874497Y-110689737D01*
X137874498Y-110689742D01*
X137884023Y-110712736D01*
X137923535Y-110808127D01*
X137970476Y-110878380D01*
X137977562Y-110888985D01*
X137998439Y-110955663D01*
X137998459Y-110957875D01*
X137998459Y-110987654D01*
X138033062Y-111161617D01*
X138033065Y-111161626D01*
X138100942Y-111325499D01*
X138100949Y-111325512D01*
X138199494Y-111472993D01*
X138199497Y-111472997D01*
X138315595Y-111589095D01*
X138349080Y-111650418D01*
X138344096Y-111720110D01*
X138315595Y-111764457D01*
X137440311Y-112639741D01*
X137378988Y-112673226D01*
X137314313Y-112669991D01*
X137257704Y-112651598D01*
X137129383Y-112631274D01*
X137086611Y-112624500D01*
X136913389Y-112624500D01*
X136873728Y-112630781D01*
X136742302Y-112651597D01*
X136577552Y-112705128D01*
X136423211Y-112783768D01*
X136283073Y-112885585D01*
X136175530Y-112993128D01*
X136114207Y-113026612D01*
X136044515Y-113021628D01*
X135988582Y-112979756D01*
X135982310Y-112970543D01*
X135942712Y-112906344D01*
X135818656Y-112782288D01*
X135693559Y-112705128D01*
X135669336Y-112690187D01*
X135669331Y-112690185D01*
X135667862Y-112689698D01*
X135502797Y-112635001D01*
X135502795Y-112635000D01*
X135400010Y-112624500D01*
X134599998Y-112624500D01*
X134599980Y-112624501D01*
X134497203Y-112635000D01*
X134497200Y-112635001D01*
X134330668Y-112690185D01*
X134330663Y-112690187D01*
X134181342Y-112782289D01*
X134057289Y-112906342D01*
X133965187Y-113055663D01*
X133965186Y-113055666D01*
X133910001Y-113222203D01*
X133910001Y-113222204D01*
X133910000Y-113222204D01*
X133899500Y-113324983D01*
X133899500Y-114675001D01*
X133899501Y-114675018D01*
X133910000Y-114777796D01*
X133910001Y-114777799D01*
X133953469Y-114908976D01*
X133965186Y-114944334D01*
X134057288Y-115093656D01*
X134181344Y-115217712D01*
X134330666Y-115309814D01*
X134470005Y-115355986D01*
X134527448Y-115395757D01*
X134554271Y-115460273D01*
X134541956Y-115529049D01*
X134518680Y-115561372D01*
X133466874Y-116613180D01*
X133405551Y-116646665D01*
X133379193Y-116649499D01*
X120620807Y-116649499D01*
X120553768Y-116629814D01*
X120533126Y-116613180D01*
X120319964Y-116400018D01*
X120286479Y-116338695D01*
X120291463Y-116269003D01*
X120304543Y-116243446D01*
X120334347Y-116198842D01*
X120487215Y-115912847D01*
X120611314Y-115613246D01*
X120705449Y-115302923D01*
X120705451Y-115302913D01*
X120705454Y-115302902D01*
X120742946Y-115114411D01*
X120768714Y-114984868D01*
X120800500Y-114662143D01*
X120800500Y-114337857D01*
X120768714Y-114015132D01*
X120741792Y-113879784D01*
X120705454Y-113697097D01*
X120705451Y-113697086D01*
X120705450Y-113697083D01*
X120705449Y-113697077D01*
X120611314Y-113386754D01*
X120487215Y-113087153D01*
X120479847Y-113073369D01*
X120334353Y-112801169D01*
X120334352Y-112801167D01*
X120334347Y-112801158D01*
X120154183Y-112531524D01*
X119948458Y-112280847D01*
X119948457Y-112280846D01*
X119948453Y-112280841D01*
X119719158Y-112051546D01*
X119468481Y-111845821D01*
X119468480Y-111845820D01*
X119468476Y-111845817D01*
X119198842Y-111665653D01*
X119198837Y-111665650D01*
X119198830Y-111665646D01*
X118912854Y-111512788D01*
X118912849Y-111512786D01*
X118613247Y-111388686D01*
X118302913Y-111294548D01*
X118302902Y-111294545D01*
X117984874Y-111231287D01*
X117984857Y-111231284D01*
X117740812Y-111207248D01*
X117662143Y-111199500D01*
X117337857Y-111199500D01*
X117265099Y-111206666D01*
X117015142Y-111231284D01*
X117015125Y-111231287D01*
X116697097Y-111294545D01*
X116697086Y-111294548D01*
X116386752Y-111388686D01*
X116087150Y-111512786D01*
X116087145Y-111512788D01*
X115801157Y-111665653D01*
X115801152Y-111665655D01*
X115756551Y-111695457D01*
X115689874Y-111716334D01*
X115622494Y-111697849D01*
X115599981Y-111680035D01*
X114886820Y-110966874D01*
X114853335Y-110905551D01*
X114850501Y-110879193D01*
X114850501Y-67620806D01*
X114870186Y-67553767D01*
X114886816Y-67533129D01*
X115099981Y-67319963D01*
X115161304Y-67286479D01*
X115230996Y-67291463D01*
X115256549Y-67304540D01*
X115301158Y-67334347D01*
X115301167Y-67334352D01*
X115301169Y-67334353D01*
X115587145Y-67487211D01*
X115587147Y-67487211D01*
X115587153Y-67487215D01*
X115886754Y-67611314D01*
X116197077Y-67705449D01*
X116197083Y-67705450D01*
X116197086Y-67705451D01*
X116197097Y-67705454D01*
X116396528Y-67745122D01*
X116515132Y-67768714D01*
X116837857Y-67800500D01*
X116837860Y-67800500D01*
X117162140Y-67800500D01*
X117162143Y-67800500D01*
X117484868Y-67768714D01*
X117642295Y-67737399D01*
X117802902Y-67705454D01*
X117802913Y-67705451D01*
X117802913Y-67705450D01*
X117802923Y-67705449D01*
X118113246Y-67611314D01*
X118412847Y-67487215D01*
X118698842Y-67334347D01*
X118968476Y-67154183D01*
X119219153Y-66948458D01*
X119448458Y-66719153D01*
X119654183Y-66468476D01*
X119834347Y-66198842D01*
X119987215Y-65912847D01*
X120111314Y-65613246D01*
X120205449Y-65302923D01*
X120205451Y-65302913D01*
X120205454Y-65302902D01*
X120237399Y-65142295D01*
X120268714Y-64984868D01*
X120300500Y-64662143D01*
X120300500Y-64337857D01*
X120268714Y-64015132D01*
X120231582Y-63828457D01*
X120205454Y-63697097D01*
X120205451Y-63697086D01*
X120205450Y-63697083D01*
X120205449Y-63697077D01*
X120111314Y-63386754D01*
X119987215Y-63087153D01*
X119963356Y-63042517D01*
X119834353Y-62801169D01*
X119834352Y-62801167D01*
X119834347Y-62801158D01*
X119804541Y-62756551D01*
X119783665Y-62689875D01*
X119802150Y-62622495D01*
X119819964Y-62599981D01*
X119919087Y-62500859D01*
X120033126Y-62386820D01*
X120094449Y-62353335D01*
X120120807Y-62350501D01*
X149609193Y-62350501D01*
X149676232Y-62370186D01*
G37*
%TD.AperFunction*%
%TA.AperFunction,NonConductor*%
G36*
X114694048Y-116249827D02*
G01*
X114716787Y-116275370D01*
X114845811Y-116468467D01*
X114845821Y-116468481D01*
X115051546Y-116719158D01*
X115280841Y-116948453D01*
X115280846Y-116948457D01*
X115280847Y-116948458D01*
X115531524Y-117154183D01*
X115683413Y-117255672D01*
X115720306Y-117280323D01*
X115765111Y-117333935D01*
X115773818Y-117403260D01*
X115743664Y-117466287D01*
X115684221Y-117503007D01*
X115650615Y-117507422D01*
X114622104Y-117500787D01*
X114555193Y-117480671D01*
X114509780Y-117427573D01*
X114498909Y-117377900D01*
X114489690Y-116345365D01*
X114508775Y-116278156D01*
X114561169Y-116231931D01*
X114630236Y-116221370D01*
X114694048Y-116249827D01*
G37*
%TD.AperFunction*%
%TA.AperFunction,NonConductor*%
G36*
X138086421Y-114892938D02*
G01*
X138100315Y-114908973D01*
X138160586Y-114991928D01*
X138283072Y-115114414D01*
X138423212Y-115216232D01*
X138577555Y-115294873D01*
X138742299Y-115348402D01*
X138913389Y-115375500D01*
X138913390Y-115375500D01*
X139086610Y-115375500D01*
X139086611Y-115375500D01*
X139257701Y-115348402D01*
X139314314Y-115330006D01*
X139384152Y-115328012D01*
X139440311Y-115360257D01*
X141426325Y-117346272D01*
X141426326Y-117346273D01*
X141426329Y-117346275D01*
X141426331Y-117346277D01*
X141532873Y-117417465D01*
X141557276Y-117427573D01*
X141577188Y-117435821D01*
X141631591Y-117479662D01*
X141653656Y-117545956D01*
X141636377Y-117613655D01*
X141585240Y-117661266D01*
X141528935Y-117674379D01*
X134588898Y-117629604D01*
X134521987Y-117609488D01*
X134476574Y-117556390D01*
X134467077Y-117487168D01*
X134496511Y-117423801D01*
X134501974Y-117417971D01*
X136559689Y-115360255D01*
X136621010Y-115326772D01*
X136685685Y-115330006D01*
X136742299Y-115348402D01*
X136913389Y-115375500D01*
X136913390Y-115375500D01*
X137086610Y-115375500D01*
X137086611Y-115375500D01*
X137257701Y-115348402D01*
X137422445Y-115294873D01*
X137576788Y-115216232D01*
X137716928Y-115114414D01*
X137839414Y-114991928D01*
X137899682Y-114908975D01*
X137955012Y-114866311D01*
X138024626Y-114860332D01*
X138086421Y-114892938D01*
G37*
%TD.AperFunction*%
%TA.AperFunction,NonConductor*%
G36*
X162056703Y-113437095D02*
G01*
X162063181Y-113443127D01*
X164125325Y-115505272D01*
X164125332Y-115505278D01*
X164231863Y-115576459D01*
X164231867Y-115576461D01*
X164231874Y-115576466D01*
X164292571Y-115601607D01*
X164350256Y-115625501D01*
X164350260Y-115625501D01*
X164350261Y-115625502D01*
X164475928Y-115650500D01*
X164475931Y-115650500D01*
X164604069Y-115650500D01*
X185662468Y-115650500D01*
X185729507Y-115670185D01*
X185775262Y-115722989D01*
X185784085Y-115750308D01*
X185794551Y-115802923D01*
X185835747Y-115938729D01*
X185888686Y-116113247D01*
X186012786Y-116412849D01*
X186012788Y-116412854D01*
X186165646Y-116698830D01*
X186165657Y-116698848D01*
X186345811Y-116968467D01*
X186345821Y-116968481D01*
X186551546Y-117219158D01*
X186780841Y-117448453D01*
X186780846Y-117448457D01*
X186780847Y-117448458D01*
X187031524Y-117654183D01*
X187161810Y-117741237D01*
X187206614Y-117794848D01*
X187215321Y-117864172D01*
X187185167Y-117927200D01*
X187125724Y-117963920D01*
X187092118Y-117968335D01*
X151622154Y-117739497D01*
X151555243Y-117719381D01*
X151509830Y-117666283D01*
X151500333Y-117597061D01*
X151529767Y-117533694D01*
X151588787Y-117496300D01*
X151622954Y-117491500D01*
X157365071Y-117491500D01*
X157449615Y-117474682D01*
X157490744Y-117466501D01*
X157609127Y-117417465D01*
X157715669Y-117346276D01*
X157806276Y-117255669D01*
X157877465Y-117149127D01*
X157926501Y-117030744D01*
X157951500Y-116905069D01*
X157951500Y-116019807D01*
X157971185Y-115952768D01*
X157987815Y-115932130D01*
X158437819Y-115482125D01*
X158499142Y-115448641D01*
X158568834Y-115453625D01*
X158624767Y-115495497D01*
X158649184Y-115560961D01*
X158649500Y-115569807D01*
X158649500Y-116437870D01*
X158649501Y-116437876D01*
X158655908Y-116497483D01*
X158706202Y-116632328D01*
X158706206Y-116632335D01*
X158792452Y-116747544D01*
X158792455Y-116747547D01*
X158907664Y-116833793D01*
X158907671Y-116833797D01*
X159042517Y-116884091D01*
X159042516Y-116884091D01*
X159049444Y-116884835D01*
X159102127Y-116890500D01*
X160897872Y-116890499D01*
X160957483Y-116884091D01*
X161092331Y-116833796D01*
X161207546Y-116747546D01*
X161293796Y-116632331D01*
X161344091Y-116497483D01*
X161350500Y-116437873D01*
X161350499Y-115125450D01*
X161370184Y-115058412D01*
X161386813Y-115037775D01*
X161624729Y-114799860D01*
X161624733Y-114799858D01*
X161711858Y-114712733D01*
X161780311Y-114610286D01*
X161780312Y-114610285D01*
X161819725Y-114515132D01*
X161827463Y-114496452D01*
X161851500Y-114375606D01*
X161851500Y-113530808D01*
X161871185Y-113463769D01*
X161923989Y-113418014D01*
X161993147Y-113408070D01*
X162056703Y-113437095D01*
G37*
%TD.AperFunction*%
%TA.AperFunction,NonConductor*%
G36*
X191948809Y-116782493D02*
G01*
X191985529Y-116841936D01*
X191989942Y-116873635D01*
X191998875Y-117874083D01*
X191979790Y-117941295D01*
X191927397Y-117987520D01*
X191874080Y-117999187D01*
X190869806Y-117992708D01*
X190802895Y-117972592D01*
X190757482Y-117919494D01*
X190747985Y-117850273D01*
X190777419Y-117786905D01*
X190801713Y-117765610D01*
X190968476Y-117654183D01*
X191219153Y-117448458D01*
X191448458Y-117219153D01*
X191654183Y-116968476D01*
X191762845Y-116805851D01*
X191816457Y-116761046D01*
X191885782Y-116752339D01*
X191948809Y-116782493D01*
G37*
%TD.AperFunction*%
M02*
