M48
; DRILL file {KiCad 9.0.1} date 2026-02-20T11:00:48+0100
; FORMAT={-:-/ absolute / metric / decimal}
; #@! TF.CreationDate,2026-02-20T11:00:48+01:00
; #@! TF.GenerationSoftware,Kicad,Pcbnew,9.0.1
; #@! TF.FileFunction,Plated,1,2,PTH
FMAT,2
METRIC
; #@! TA.AperFunction,Plated,PTH,ViaDrill
T1C0.400
; #@! TA.AperFunction,Plated,PTH,ComponentDrill
T2C0.750
; #@! TA.AperFunction,Plated,PTH,ComponentDrill
T3C1.000
; #@! TA.AperFunction,Plated,PTH,ComponentDrill
T4C3.200
%
G90
G05
T1
X134.0Y-86.0
X138.5Y-98.0
X138.899Y-110.899
X141.0Y-98.285
X141.141Y-109.61
X156.5Y-98.0
X157.4Y-88.4
X157.434Y-85.934
X168.5Y-100.5
T2
X118.0Y-85.0
X118.0Y-87.0
X135.0Y-114.0
X137.0Y-114.0
X139.0Y-114.0
X141.0Y-114.0
X143.0Y-114.0
X145.0Y-114.0
X186.4Y-78.0
X186.4Y-80.0
X186.4Y-82.0
X186.4Y-87.5
X186.4Y-89.5
X186.4Y-91.5
T3
X147.15Y-64.0
X149.69Y-64.0
X152.23Y-64.0
X154.77Y-64.0
X156.0Y-110.46
X156.0Y-113.0
X156.0Y-115.54
X157.31Y-64.0
X159.85Y-64.0
X160.0Y-110.46
X160.0Y-113.0
X160.0Y-115.54
T4
X117.0Y-64.5
X117.5Y-114.5
X188.5Y-65.0
X189.0Y-115.0
M30
