%TF.GenerationSoftware,KiCad,Pcbnew,9.0.1*%
%TF.CreationDate,2026-02-20T11:00:57+01:00*%
%TF.ProjectId,Odometre_Schematic,4f646f6d-6574-4726-955f-536368656d61,rev?*%
%TF.SameCoordinates,Original*%
%TF.FileFunction,Copper,L1,Top*%
%TF.FilePolarity,Positive*%
%FSLAX46Y46*%
G04 Gerber Fmt 4.6, Leading zero omitted, Abs format (unit mm)*
G04 Created by KiCad (PCBNEW 9.0.1) date 2026-02-20 11:00:57*
%MOMM*%
%LPD*%
G01*
G04 APERTURE LIST*
G04 Aperture macros list*
%AMRoundRect*
0 Rectangle with rounded corners*
0 $1 Rounding radius*
0 $2 $3 $4 $5 $6 $7 $8 $9 X,Y pos of 4 corners*
0 Add a 4 corners polygon primitive as box body*
4,1,4,$2,$3,$4,$5,$6,$7,$8,$9,$2,$3,0*
0 Add four circle primitives for the rounded corners*
1,1,$1+$1,$2,$3*
1,1,$1+$1,$4,$5*
1,1,$1+$1,$6,$7*
1,1,$1+$1,$8,$9*
0 Add four rect primitives between the rounded corners*
20,1,$1+$1,$2,$3,$4,$5,0*
20,1,$1+$1,$4,$5,$6,$7,0*
20,1,$1+$1,$6,$7,$8,$9,0*
20,1,$1+$1,$8,$9,$2,$3,0*%
G04 Aperture macros list end*
%TA.AperFunction,SMDPad,CuDef*%
%ADD10RoundRect,0.237500X0.237500X-0.250000X0.237500X0.250000X-0.237500X0.250000X-0.237500X-0.250000X0*%
%TD*%
%TA.AperFunction,ComponentPad*%
%ADD11C,5.600000*%
%TD*%
%TA.AperFunction,SMDPad,CuDef*%
%ADD12RoundRect,0.237500X-0.250000X-0.237500X0.250000X-0.237500X0.250000X0.237500X-0.250000X0.237500X0*%
%TD*%
%TA.AperFunction,SMDPad,CuDef*%
%ADD13RoundRect,0.250000X0.475000X-0.337500X0.475000X0.337500X-0.475000X0.337500X-0.475000X-0.337500X0*%
%TD*%
%TA.AperFunction,SMDPad,CuDef*%
%ADD14R,1.550000X1.300000*%
%TD*%
%TA.AperFunction,ComponentPad*%
%ADD15R,1.700000X1.700000*%
%TD*%
%TA.AperFunction,ComponentPad*%
%ADD16C,1.700000*%
%TD*%
%TA.AperFunction,SMDPad,CuDef*%
%ADD17RoundRect,0.237500X-0.237500X0.287500X-0.237500X-0.287500X0.237500X-0.287500X0.237500X0.287500X0*%
%TD*%
%TA.AperFunction,SMDPad,CuDef*%
%ADD18RoundRect,0.237500X-0.237500X0.250000X-0.237500X-0.250000X0.237500X-0.250000X0.237500X0.250000X0*%
%TD*%
%TA.AperFunction,SMDPad,CuDef*%
%ADD19RoundRect,0.250000X0.337500X0.475000X-0.337500X0.475000X-0.337500X-0.475000X0.337500X-0.475000X0*%
%TD*%
%TA.AperFunction,SMDPad,CuDef*%
%ADD20RoundRect,0.150000X-0.825000X-0.150000X0.825000X-0.150000X0.825000X0.150000X-0.825000X0.150000X0*%
%TD*%
%TA.AperFunction,SMDPad,CuDef*%
%ADD21RoundRect,0.237500X0.287500X0.237500X-0.287500X0.237500X-0.287500X-0.237500X0.287500X-0.237500X0*%
%TD*%
%TA.AperFunction,ComponentPad*%
%ADD22RoundRect,0.250000X0.625000X-0.350000X0.625000X0.350000X-0.625000X0.350000X-0.625000X-0.350000X0*%
%TD*%
%TA.AperFunction,ComponentPad*%
%ADD23O,1.750000X1.200000*%
%TD*%
%TA.AperFunction,SMDPad,CuDef*%
%ADD24R,1.300000X1.550000*%
%TD*%
%TA.AperFunction,SMDPad,CuDef*%
%ADD25RoundRect,0.250000X-0.350000X0.850000X-0.350000X-0.850000X0.350000X-0.850000X0.350000X0.850000X0*%
%TD*%
%TA.AperFunction,SMDPad,CuDef*%
%ADD26RoundRect,0.249997X-2.650003X2.950003X-2.650003X-2.950003X2.650003X-2.950003X2.650003X2.950003X0*%
%TD*%
%TA.AperFunction,SMDPad,CuDef*%
%ADD27R,1.475000X0.450000*%
%TD*%
%TA.AperFunction,ComponentPad*%
%ADD28RoundRect,0.250000X-0.625000X0.350000X-0.625000X-0.350000X0.625000X-0.350000X0.625000X0.350000X0*%
%TD*%
%TA.AperFunction,SMDPad,CuDef*%
%ADD29RoundRect,0.250000X-0.475000X0.337500X-0.475000X-0.337500X0.475000X-0.337500X0.475000X0.337500X0*%
%TD*%
%TA.AperFunction,ComponentPad*%
%ADD30RoundRect,0.250000X-0.350000X-0.625000X0.350000X-0.625000X0.350000X0.625000X-0.350000X0.625000X0*%
%TD*%
%TA.AperFunction,ComponentPad*%
%ADD31O,1.200000X1.750000*%
%TD*%
%TA.AperFunction,SMDPad,CuDef*%
%ADD32RoundRect,0.250000X-0.337500X-0.475000X0.337500X-0.475000X0.337500X0.475000X-0.337500X0.475000X0*%
%TD*%
%TA.AperFunction,ViaPad*%
%ADD33C,0.800000*%
%TD*%
%TA.AperFunction,Conductor*%
%ADD34C,0.300000*%
%TD*%
%TA.AperFunction,Conductor*%
%ADD35C,0.250000*%
%TD*%
G04 APERTURE END LIST*
D10*
%TO.P,R4,1*%
%TO.N,Net-(D3-K)*%
X133572500Y-80000000D03*
%TO.P,R4,2*%
%TO.N,GND*%
X133572500Y-78175000D03*
%TD*%
D11*
%TO.P,H1,1,1*%
%TO.N,GND*%
X117000000Y-64500000D03*
%TD*%
D12*
%TO.P,R1,1*%
%TO.N,Net-(D1-K)*%
X172500000Y-73500000D03*
%TO.P,R1,2*%
%TO.N,GND*%
X174325000Y-73500000D03*
%TD*%
D13*
%TO.P,C2,1*%
%TO.N,+3.3V*%
X129572500Y-74037500D03*
%TO.P,C2,2*%
%TO.N,GND*%
X129572500Y-71962500D03*
%TD*%
D14*
%TO.P,S2,1*%
%TO.N,D_Botton*%
X169025000Y-85250000D03*
%TO.P,S2,2*%
%TO.N,unconnected-(S2-Pad2)*%
X169025000Y-89750000D03*
%TO.P,S2,3*%
%TO.N,unconnected-(S2-Pad3)*%
X176975000Y-85250000D03*
%TO.P,S2,4*%
%TO.N,GND*%
X176975000Y-89750000D03*
%TD*%
D13*
%TO.P,C1,1*%
%TO.N,+12V*%
X127072500Y-74075000D03*
%TO.P,C1,2*%
%TO.N,GND*%
X127072500Y-72000000D03*
%TD*%
D12*
%TO.P,R2,1*%
%TO.N,Net-(D2-K)*%
X172587500Y-78500000D03*
%TO.P,R2,2*%
%TO.N,GND*%
X174412500Y-78500000D03*
%TD*%
D15*
%TO.P,J5,1,Pin_1*%
%TO.N,+3.3V*%
X156000000Y-115540000D03*
D16*
%TO.P,J5,2,Pin_2*%
%TO.N,TIM2_CH2*%
X156000000Y-113000000D03*
%TO.P,J5,3,Pin_3*%
%TO.N,GND*%
X156000000Y-110460000D03*
%TD*%
D11*
%TO.P,H3,1,1*%
%TO.N,GND*%
X117500000Y-114500000D03*
%TD*%
D17*
%TO.P,D4,1,K*%
%TO.N,Net-(D4-K)*%
X133500000Y-99175000D03*
%TO.P,D4,2,A*%
%TO.N,+5V*%
X133500000Y-100925000D03*
%TD*%
D18*
%TO.P,R3,1*%
%TO.N,CANH*%
X177500000Y-97587500D03*
%TO.P,R3,2*%
%TO.N,CANL*%
X177500000Y-99412500D03*
%TD*%
D19*
%TO.P,C5,1*%
%TO.N,GND*%
X153537500Y-93000000D03*
%TO.P,C5,2*%
%TO.N,+3.3V*%
X151462500Y-93000000D03*
%TD*%
D13*
%TO.P,C9,1*%
%TO.N,+5V*%
X129000000Y-91712500D03*
%TO.P,C9,2*%
%TO.N,GND*%
X129000000Y-89637500D03*
%TD*%
D20*
%TO.P,U1,1,TXD*%
%TO.N,FDCAN1_TX*%
X170525000Y-96595000D03*
%TO.P,U1,2,VSS*%
%TO.N,GND*%
X170525000Y-97865000D03*
%TO.P,U1,3,VDD*%
%TO.N,+5V*%
X170525000Y-99135000D03*
%TO.P,U1,4,RXD*%
%TO.N,FDCAN1_RX*%
X170525000Y-100405000D03*
%TO.P,U1,5,Vio*%
%TO.N,+3.3V*%
X175475000Y-100405000D03*
%TO.P,U1,6,CANL*%
%TO.N,CANL*%
X175475000Y-99135000D03*
%TO.P,U1,7,CANH*%
%TO.N,CANH*%
X175475000Y-97865000D03*
%TO.P,U1,8,STBY*%
%TO.N,GND*%
X175475000Y-96595000D03*
%TD*%
D21*
%TO.P,D1,1,K*%
%TO.N,Net-(D1-K)*%
X170787500Y-73500000D03*
%TO.P,D1,2,A*%
%TO.N,Green_LED*%
X169037500Y-73500000D03*
%TD*%
D10*
%TO.P,R5,1*%
%TO.N,Net-(D4-K)*%
X133500000Y-97462500D03*
%TO.P,R5,2*%
%TO.N,GND*%
X133500000Y-95637500D03*
%TD*%
D17*
%TO.P,D3,1,K*%
%TO.N,Net-(D3-K)*%
X133572500Y-81712500D03*
%TO.P,D3,2,A*%
%TO.N,+3.3V*%
X133572500Y-83462500D03*
%TD*%
D22*
%TO.P,J1,1,Pin_1*%
%TO.N,CANH*%
X186400000Y-91500000D03*
D23*
%TO.P,J1,2,Pin_2*%
%TO.N,CANL*%
X186400000Y-89500000D03*
%TO.P,J1,3,Pin_3*%
%TO.N,GND*%
X186400000Y-87500000D03*
%TD*%
D19*
%TO.P,C7,1*%
%TO.N,+3.3V*%
X174037500Y-102500000D03*
%TO.P,C7,2*%
%TO.N,GND*%
X171962500Y-102500000D03*
%TD*%
D24*
%TO.P,S1,1*%
%TO.N,NRST*%
X157750000Y-68525000D03*
%TO.P,S1,2*%
%TO.N,unconnected-(S1-Pad2)*%
X153250000Y-68525000D03*
%TO.P,S1,3*%
%TO.N,unconnected-(S1-Pad3)*%
X157750000Y-76475000D03*
%TO.P,S1,4*%
%TO.N,GND*%
X153250000Y-76475000D03*
%TD*%
D15*
%TO.P,J6,1,Pin_1*%
%TO.N,+3.3V*%
X147150000Y-64000000D03*
D16*
%TO.P,J6,2,Pin_2*%
%TO.N,DEBUG_SWCLK*%
X149690000Y-64000000D03*
%TO.P,J6,3,Pin_3*%
%TO.N,GND*%
X152230000Y-64000000D03*
%TO.P,J6,4,Pin_4*%
%TO.N,DEBUG_SWDIO*%
X154770000Y-64000000D03*
%TO.P,J6,5,Pin_5*%
%TO.N,NRST*%
X157310000Y-64000000D03*
%TO.P,J6,6,Pin_6*%
%TO.N,unconnected-(J6-Pin_6-Pad6)*%
X159850000Y-64000000D03*
%TD*%
D25*
%TO.P,U2,1,GND*%
%TO.N,GND*%
X131327500Y-76875000D03*
%TO.P,U2,2,VO*%
%TO.N,+3.3V*%
X129047500Y-76875000D03*
D26*
X129047500Y-83175000D03*
D25*
%TO.P,U2,3,VI*%
%TO.N,+12V*%
X126767500Y-76875000D03*
%TD*%
D27*
%TO.P,IC1,1,PB7/PB8*%
%TO.N,unconnected-(IC1-PB7{slash}PB8-Pad1)*%
X149699500Y-85150000D03*
%TO.P,IC1,2,PC14-OSCX_IN*%
%TO.N,unconnected-(IC1-PC14-OSCX_IN-Pad2)*%
X149699500Y-85800000D03*
%TO.P,IC1,3,PC15-OSCX_OUT*%
%TO.N,unconnected-(IC1-PC15-OSCX_OUT-Pad3)*%
X149699500Y-86450000D03*
%TO.P,IC1,4,VDD/VDDA*%
%TO.N,+3.3V*%
X149699500Y-87100000D03*
%TO.P,IC1,5,VSS/VSSA*%
%TO.N,GND*%
X149699500Y-87750000D03*
%TO.P,IC1,6,PF2-NRST*%
%TO.N,NRST*%
X149699500Y-88400000D03*
%TO.P,IC1,7,PA0*%
%TO.N,TIM2_CH1*%
X149699500Y-89050000D03*
%TO.P,IC1,8,PA1*%
%TO.N,TIM2_CH2*%
X149699500Y-89700000D03*
%TO.P,IC1,9,PA2*%
%TO.N,unconnected-(IC1-PA2-Pad9)*%
X149699500Y-90350000D03*
%TO.P,IC1,10,PA3*%
%TO.N,unconnected-(IC1-PA3-Pad10)*%
X149699500Y-91000000D03*
%TO.P,IC1,11,PA4*%
%TO.N,D_Botton*%
X155575500Y-91000000D03*
%TO.P,IC1,12,PA5*%
%TO.N,LED_MOTEUR*%
X155575500Y-90350000D03*
%TO.P,IC1,13,PA6*%
%TO.N,unconnected-(IC1-PA6-Pad13)*%
X155575500Y-89700000D03*
%TO.P,IC1,14,PA7*%
%TO.N,unconnected-(IC1-PA7-Pad14)*%
X155575500Y-89050000D03*
%TO.P,IC1,15,PB0/PB1/PB2/PA8*%
%TO.N,FDCAN1_RX*%
X155575500Y-88400000D03*
%TO.P,IC1,16,PA11_[PA9]*%
%TO.N,Green_LED*%
X155575500Y-87750000D03*
%TO.P,IC1,17,PA12_[PA10]*%
%TO.N,unconnected-(IC1-PA12_[PA10]-Pad17)*%
X155575500Y-87100000D03*
%TO.P,IC1,18,PA13*%
%TO.N,DEBUG_SWDIO*%
X155575500Y-86450000D03*
%TO.P,IC1,19,PA14-BOOT0/PA15*%
%TO.N,DEBUG_SWCLK*%
X155575500Y-85800000D03*
%TO.P,IC1,20,PB3/PB4/PB5/PB6*%
%TO.N,FDCAN1_TX*%
X155575500Y-85150000D03*
%TD*%
D15*
%TO.P,J4,1,Pin_1*%
%TO.N,+3.3V*%
X160000000Y-115540000D03*
D16*
%TO.P,J4,2,Pin_2*%
%TO.N,TIM2_CH1*%
X160000000Y-113000000D03*
%TO.P,J4,3,Pin_3*%
%TO.N,GND*%
X160000000Y-110460000D03*
%TD*%
D13*
%TO.P,C6,1*%
%TO.N,GND*%
X160000000Y-73537500D03*
%TO.P,C6,2*%
%TO.N,NRST*%
X160000000Y-71462500D03*
%TD*%
D28*
%TO.P,J3,1,Pin_1*%
%TO.N,GND*%
X118000000Y-85000000D03*
D23*
%TO.P,J3,2,Pin_2*%
%TO.N,+12V*%
X118000000Y-87000000D03*
%TD*%
D29*
%TO.P,C4,1*%
%TO.N,+3.3V*%
X146000000Y-86962500D03*
%TO.P,C4,2*%
%TO.N,GND*%
X146000000Y-89037500D03*
%TD*%
D21*
%TO.P,D2,1,K*%
%TO.N,Net-(D2-K)*%
X171020000Y-78500000D03*
%TO.P,D2,2,A*%
%TO.N,LED_MOTEUR*%
X169270000Y-78500000D03*
%TD*%
D22*
%TO.P,J2,1,Pin_1*%
%TO.N,CANH*%
X186400000Y-82000000D03*
D23*
%TO.P,J2,2,Pin_2*%
%TO.N,CANL*%
X186400000Y-80000000D03*
%TO.P,J2,3,Pin_3*%
%TO.N,GND*%
X186400000Y-78000000D03*
%TD*%
D13*
%TO.P,C8,1*%
%TO.N,+12V*%
X126535000Y-91712500D03*
%TO.P,C8,2*%
%TO.N,GND*%
X126535000Y-89637500D03*
%TD*%
D30*
%TO.P,J7,1,Pin_1*%
%TO.N,unconnected-(J7-Pin_1-Pad1)*%
X135000000Y-114000000D03*
D31*
%TO.P,J7,2,Pin_2*%
%TO.N,GND*%
X137000000Y-114000000D03*
%TO.P,J7,3,Pin_3*%
%TO.N,TIM2_CH1*%
X139000000Y-114000000D03*
%TO.P,J7,4,Pin_4*%
%TO.N,TIM2_CH2*%
X141000000Y-114000000D03*
%TO.P,J7,5,Pin_5*%
%TO.N,+3.3V*%
X143000000Y-114000000D03*
%TO.P,J7,6,Pin_6*%
%TO.N,unconnected-(J7-Pin_6-Pad6)*%
X145000000Y-114000000D03*
%TD*%
D32*
%TO.P,C3,1*%
%TO.N,+3.3V*%
X151462500Y-83000000D03*
%TO.P,C3,2*%
%TO.N,GND*%
X153537500Y-83000000D03*
%TD*%
D25*
%TO.P,U3,1,GND*%
%TO.N,GND*%
X131280000Y-94375000D03*
%TO.P,U3,2,VO*%
%TO.N,+5V*%
X129000000Y-94375000D03*
D26*
X129000000Y-100675000D03*
D25*
%TO.P,U3,3,VI*%
%TO.N,+12V*%
X126720000Y-94375000D03*
%TD*%
D11*
%TO.P,H2,1,1*%
%TO.N,GND*%
X188500000Y-65000000D03*
%TD*%
%TO.P,H4,1,1*%
%TO.N,GND*%
X189000000Y-115000000D03*
%TD*%
D33*
%TO.N,GND*%
X156500000Y-98000000D03*
%TO.N,TIM2_CH2*%
X141000000Y-98285000D03*
X141141041Y-109610000D03*
%TO.N,DEBUG_SWDIO*%
X157434314Y-85934314D03*
%TO.N,FDCAN1_RX*%
X157400000Y-88400000D03*
X168500000Y-100500000D03*
%TO.N,TIM2_CH1*%
X138500000Y-98000000D03*
X138898959Y-110898959D03*
%TO.N,+3.3V*%
X134000000Y-86000000D03*
%TD*%
D34*
%TO.N,GND*%
X131280000Y-94375000D02*
X132237500Y-94375000D01*
X167960000Y-102500000D02*
X171962500Y-102500000D01*
X146000000Y-89037500D02*
X146000000Y-90037500D01*
X127592792Y-78426000D02*
X127996500Y-78022292D01*
X131327500Y-73717500D02*
X129572500Y-71962500D01*
X121897500Y-85000000D02*
X126535000Y-89637500D01*
X131327500Y-76875000D02*
X132272500Y-76875000D01*
X128396500Y-73402708D02*
X128800208Y-72999000D01*
X160000000Y-110460000D02*
X167960000Y-102500000D01*
X170525000Y-97865000D02*
X173645900Y-97865000D01*
X179456250Y-83543750D02*
X179500000Y-83587500D01*
X118000000Y-85000000D02*
X121897500Y-85000000D01*
X127996500Y-75072292D02*
X128396500Y-74672292D01*
X153537500Y-95037500D02*
X156500000Y-98000000D01*
X127198208Y-78426000D02*
X127592792Y-78426000D01*
X160963500Y-72574000D02*
X173399000Y-72574000D01*
X131327500Y-76875000D02*
X131327500Y-73717500D01*
X128396500Y-74672292D02*
X128396500Y-73402708D01*
X126535000Y-89637500D02*
X129000000Y-89637500D01*
X153250000Y-76475000D02*
X156187500Y-73537500D01*
X129000000Y-89637500D02*
X128275000Y-89637500D01*
X174325000Y-73500000D02*
X174325000Y-78412500D01*
X128275000Y-89637500D02*
X125696500Y-87059000D01*
X176975000Y-94025000D02*
X176975000Y-89750000D01*
X125696500Y-87059000D02*
X125696500Y-79927708D01*
X153537500Y-93000000D02*
X153537500Y-95037500D01*
X130344792Y-72999000D02*
X133572500Y-76226708D01*
X160000000Y-73537500D02*
X160963500Y-72574000D01*
X179362500Y-87362500D02*
X176975000Y-89750000D01*
X156187500Y-73537500D02*
X160000000Y-73537500D01*
X153537500Y-83000000D02*
X153537500Y-93000000D01*
X180000000Y-73500000D02*
X188500000Y-65000000D01*
X133500000Y-95637500D02*
X140400000Y-95637500D01*
X160000000Y-110460000D02*
X156000000Y-110460000D01*
X185000000Y-78000000D02*
X186400000Y-78000000D01*
X131280000Y-91917500D02*
X131280000Y-94375000D01*
X132237500Y-94375000D02*
X133500000Y-95637500D01*
X132272500Y-76875000D02*
X133572500Y-78175000D01*
X147287500Y-87750000D02*
X149775000Y-87750000D01*
X175475000Y-96595000D02*
X175475000Y-95525000D01*
X174915900Y-96595000D02*
X175475000Y-96595000D01*
X127110000Y-71962500D02*
X127072500Y-72000000D01*
X146000000Y-90037500D02*
X140400000Y-95637500D01*
X173399000Y-72574000D02*
X174325000Y-73500000D01*
X179500000Y-83587500D02*
X179500000Y-87225000D01*
X173645900Y-97865000D02*
X174915900Y-96595000D01*
X146000000Y-89037500D02*
X147287500Y-87750000D01*
X174412500Y-78500000D02*
X179456250Y-83543750D01*
X171962500Y-102500000D02*
X171962500Y-99548400D01*
X171962500Y-99548400D02*
X173645900Y-97865000D01*
X174325000Y-78412500D02*
X174412500Y-78500000D01*
X127996500Y-78022292D02*
X127996500Y-75072292D01*
X179500000Y-87500000D02*
X186400000Y-87500000D01*
X179500000Y-87225000D02*
X179362500Y-87362500D01*
X129572500Y-71962500D02*
X127110000Y-71962500D01*
X174325000Y-73500000D02*
X180000000Y-73500000D01*
X175475000Y-95525000D02*
X176975000Y-94025000D01*
X133572500Y-76226708D02*
X133572500Y-78175000D01*
X128800208Y-72999000D02*
X130344792Y-72999000D01*
X125696500Y-79927708D02*
X127198208Y-78426000D01*
X129000000Y-89637500D02*
X131280000Y-91917500D01*
X179362500Y-87362500D02*
X179500000Y-87500000D01*
X179456250Y-83543750D02*
X185000000Y-78000000D01*
%TO.N,NRST*%
X149171818Y-62749000D02*
X156059000Y-62749000D01*
X150474000Y-92248420D02*
X150474000Y-93751580D01*
D35*
X157310000Y-68085000D02*
X157750000Y-68525000D01*
D34*
X148439000Y-76869940D02*
X148439000Y-63481818D01*
D35*
X157310000Y-64000000D02*
X157310000Y-68085000D01*
D34*
X152500000Y-93702580D02*
X152500000Y-80930940D01*
X150848420Y-94126000D02*
X152076580Y-94126000D01*
X148439000Y-63481818D02*
X149171818Y-62749000D01*
X149775000Y-88400000D02*
X150573792Y-88400000D01*
X152500000Y-80930940D02*
X148439000Y-76869940D01*
D35*
X160000000Y-70775000D02*
X160000000Y-71462500D01*
D34*
X156059000Y-62749000D02*
X157310000Y-64000000D01*
X150936500Y-88762708D02*
X150936500Y-91785920D01*
X152076580Y-94126000D02*
X152500000Y-93702580D01*
D35*
X157750000Y-68525000D02*
X160000000Y-70775000D01*
D34*
X150936500Y-91785920D02*
X150474000Y-92248420D01*
X150474000Y-93751580D02*
X150848420Y-94126000D01*
X150573792Y-88400000D02*
X150936500Y-88762708D01*
%TO.N,Green_LED*%
X169037500Y-75462500D02*
X169037500Y-73500000D01*
X156750000Y-87750000D02*
X169037500Y-75462500D01*
X155500000Y-87750000D02*
X156750000Y-87750000D01*
D35*
%TO.N,Net-(D1-K)*%
X170787500Y-73500000D02*
X172500000Y-73500000D01*
D34*
%TO.N,LED_MOTEUR*%
X155500000Y-90350000D02*
X157420000Y-90350000D01*
X157420000Y-90350000D02*
X169270000Y-78500000D01*
D35*
%TO.N,Net-(D2-K)*%
X171020000Y-78500000D02*
X172587500Y-78500000D01*
%TO.N,Net-(D3-K)*%
X133572500Y-81712500D02*
X133572500Y-80000000D01*
%TO.N,Net-(D4-K)*%
X133500000Y-97462500D02*
X133500000Y-99175000D01*
D34*
%TO.N,TIM2_CH2*%
X149775000Y-89700000D02*
X148800000Y-89700000D01*
X141000000Y-97500000D02*
X141000000Y-98285000D01*
X152610000Y-109610000D02*
X141141041Y-109610000D01*
X141000000Y-109751041D02*
X141000000Y-114000000D01*
X156000000Y-113000000D02*
X152610000Y-109610000D01*
X148800000Y-89700000D02*
X141000000Y-97500000D01*
X141141041Y-109610000D02*
X141000000Y-109751041D01*
%TO.N,DEBUG_SWDIO*%
X156918628Y-86450000D02*
X155500000Y-86450000D01*
X157434314Y-85934314D02*
X156918628Y-86450000D01*
%TO.N,FDCAN1_RX*%
X168500000Y-100500000D02*
X170430000Y-100500000D01*
X155500000Y-88400000D02*
X157400000Y-88400000D01*
X157500000Y-88500000D02*
X157400000Y-88400000D01*
X170430000Y-100500000D02*
X170525000Y-100405000D01*
%TO.N,FDCAN1_TX*%
X154311500Y-91331004D02*
X159575496Y-96595000D01*
X154311500Y-85188500D02*
X154311500Y-91331004D01*
X154311500Y-85188500D02*
X154350000Y-85150000D01*
X154350000Y-85150000D02*
X155575500Y-85150000D01*
X159575496Y-96595000D02*
X170525000Y-96595000D01*
%TO.N,D_Botton*%
X163275000Y-91000000D02*
X169025000Y-85250000D01*
X155500000Y-91000000D02*
X163275000Y-91000000D01*
%TO.N,TIM2_CH1*%
X149775000Y-89050000D02*
X148450000Y-89050000D01*
X149775000Y-89050000D02*
X148735000Y-89050000D01*
X148450000Y-89050000D02*
X139500000Y-98000000D01*
X139500000Y-98000000D02*
X138500000Y-98000000D01*
X138898959Y-110898959D02*
X139000000Y-111000000D01*
X139000000Y-111000000D02*
X139000000Y-114000000D01*
%TO.N,DEBUG_SWCLK*%
X156688500Y-85701500D02*
X156590000Y-85800000D01*
X156590000Y-85800000D02*
X155575500Y-85800000D01*
X149690000Y-77341708D02*
X156688500Y-84340208D01*
X155500000Y-85800000D02*
X156367504Y-85800000D01*
X149690000Y-64000000D02*
X149690000Y-77341708D01*
X156688500Y-84340208D02*
X156688500Y-85701500D01*
X156367504Y-85800000D02*
X156368504Y-85801000D01*
%TO.N,CANH*%
X175475000Y-97865000D02*
X177222500Y-97865000D01*
X177222500Y-97865000D02*
X177500000Y-97587500D01*
X177500000Y-97587500D02*
X177912500Y-97587500D01*
X184000000Y-91500000D02*
X186400000Y-91500000D01*
X177912500Y-97587500D02*
X184000000Y-91500000D01*
%TO.N,CANL*%
X177500000Y-99412500D02*
X180460792Y-99412500D01*
X177222500Y-99135000D02*
X177500000Y-99412500D01*
X187726000Y-90826000D02*
X186400000Y-89500000D01*
X180460792Y-99412500D02*
X187726000Y-92147292D01*
X187726000Y-92147292D02*
X187726000Y-90826000D01*
X175475000Y-99135000D02*
X177222500Y-99135000D01*
%TO.N,+12V*%
X124151708Y-76875000D02*
X126767500Y-76875000D01*
X127072500Y-76570000D02*
X126767500Y-76875000D01*
X126535000Y-94190000D02*
X126720000Y-94375000D01*
X116674000Y-84352708D02*
X124151708Y-76875000D01*
X118000000Y-87000000D02*
X121822500Y-87000000D01*
X126535000Y-91712500D02*
X126535000Y-94190000D01*
X118000000Y-87000000D02*
X116674000Y-85674000D01*
X121822500Y-87000000D02*
X126535000Y-91712500D01*
X127072500Y-74075000D02*
X127072500Y-76570000D01*
X116674000Y-85674000D02*
X116674000Y-84352708D01*
D35*
%TO.N,+3.3V*%
X129047500Y-83175000D02*
X133285000Y-83175000D01*
X129047500Y-76875000D02*
X129047500Y-83175000D01*
X156000000Y-115540000D02*
X160000000Y-115540000D01*
X150612438Y-87174000D02*
X146488726Y-87174000D01*
X116148000Y-94315226D02*
X130666774Y-108834000D01*
X133572500Y-83462500D02*
X143500000Y-83462500D01*
X151462500Y-83000000D02*
X150300000Y-83000000D01*
X129047500Y-76875000D02*
X129047500Y-74562500D01*
X151100000Y-87100000D02*
X151462500Y-87462500D01*
X138024000Y-113320728D02*
X138024000Y-114679272D01*
X133537272Y-108834000D02*
X138024000Y-113320728D01*
X160000000Y-115540000D02*
X160997500Y-115540000D01*
X116148000Y-81219774D02*
X116148000Y-94315226D01*
X141749000Y-115251000D02*
X143000000Y-114000000D01*
X160997500Y-115540000D02*
X174037500Y-102500000D01*
X174037500Y-101842500D02*
X175475000Y-100405000D01*
X138024000Y-114679272D02*
X138595728Y-115251000D01*
X174037500Y-102500000D02*
X174037500Y-101842500D01*
X150300000Y-83000000D02*
X147150000Y-79850000D01*
X138595728Y-115251000D02*
X141749000Y-115251000D01*
X149775000Y-87100000D02*
X151100000Y-87100000D01*
X146488726Y-87174000D02*
X130313726Y-70999000D01*
X143518750Y-83481250D02*
X146000000Y-85962500D01*
X133285000Y-83175000D02*
X133572500Y-83462500D01*
X130313726Y-70999000D02*
X126368774Y-70999000D01*
X147150000Y-64000000D02*
X147150000Y-79850000D01*
X149775000Y-87100000D02*
X146137500Y-87100000D01*
X131872500Y-86000000D02*
X129047500Y-83175000D01*
X130666774Y-108834000D02*
X133537272Y-108834000D01*
X151462500Y-87462500D02*
X151462500Y-93000000D01*
X129047500Y-74562500D02*
X129572500Y-74037500D01*
X134000000Y-86000000D02*
X131872500Y-86000000D01*
X147150000Y-79850000D02*
X143518750Y-83481250D01*
X126368774Y-70999000D02*
X116148000Y-81219774D01*
X143500000Y-83462500D02*
X143518750Y-83481250D01*
X146137500Y-87100000D02*
X146000000Y-86962500D01*
X146000000Y-85962500D02*
X146000000Y-86962500D01*
D34*
%TO.N,+5V*%
X133500000Y-100925000D02*
X135290000Y-99135000D01*
X129000000Y-94375000D02*
X129000000Y-100675000D01*
X133250000Y-100675000D02*
X133500000Y-100925000D01*
X129000000Y-91712500D02*
X129000000Y-94375000D01*
X135290000Y-99135000D02*
X170525000Y-99135000D01*
X129000000Y-100675000D02*
X133250000Y-100675000D01*
%TD*%
%TA.AperFunction,NonConductor*%
G36*
X115130195Y-61507291D02*
G01*
X115197105Y-61527407D01*
X115242518Y-61580505D01*
X115252015Y-61649726D01*
X115222581Y-61713094D01*
X115198285Y-61734390D01*
X115031532Y-61845811D01*
X115031518Y-61845821D01*
X114780841Y-62051546D01*
X114551546Y-62280841D01*
X114345821Y-62531518D01*
X114345810Y-62531532D01*
X114237153Y-62694149D01*
X114183540Y-62738954D01*
X114114215Y-62747661D01*
X114051188Y-62717506D01*
X114014469Y-62658063D01*
X114010056Y-62626371D01*
X114001124Y-61625915D01*
X114020209Y-61558704D01*
X114072603Y-61512479D01*
X114125917Y-61500812D01*
X115130195Y-61507291D01*
G37*
%TD.AperFunction*%
%TA.AperFunction,NonConductor*%
G36*
X191378980Y-61999219D02*
G01*
X191445891Y-62019335D01*
X191491304Y-62072433D01*
X191502160Y-62121002D01*
X191520880Y-63169368D01*
X191502396Y-63236748D01*
X191450417Y-63283439D01*
X191381447Y-63294615D01*
X191317383Y-63266730D01*
X191293799Y-63240475D01*
X191154183Y-63031524D01*
X190948458Y-62780847D01*
X190948457Y-62780846D01*
X190948453Y-62780841D01*
X190719158Y-62551546D01*
X190468481Y-62345821D01*
X190468480Y-62345820D01*
X190468476Y-62345817D01*
X190315688Y-62243727D01*
X190279692Y-62219675D01*
X190234887Y-62166063D01*
X190226180Y-62096738D01*
X190256334Y-62033710D01*
X190315778Y-61996991D01*
X190349378Y-61992576D01*
X191378980Y-61999219D01*
G37*
%TD.AperFunction*%
%TA.AperFunction,NonConductor*%
G36*
X130621959Y-74987619D02*
G01*
X130666729Y-75041261D01*
X130677000Y-75090676D01*
X130677000Y-75259362D01*
X130657315Y-75326401D01*
X130618098Y-75364899D01*
X130549788Y-75407033D01*
X130508842Y-75432289D01*
X130384789Y-75556342D01*
X130293039Y-75705094D01*
X130241091Y-75751818D01*
X130172128Y-75763041D01*
X130108046Y-75735197D01*
X130081961Y-75705094D01*
X130049292Y-75652129D01*
X129990212Y-75556344D01*
X129866156Y-75432288D01*
X129866155Y-75432287D01*
X129740913Y-75355038D01*
X129694188Y-75303090D01*
X129682965Y-75234128D01*
X129710809Y-75170045D01*
X129768877Y-75131189D01*
X129806009Y-75125499D01*
X130097502Y-75125499D01*
X130097508Y-75125499D01*
X130200297Y-75114999D01*
X130366834Y-75059814D01*
X130487904Y-74985137D01*
X130555295Y-74966697D01*
X130621959Y-74987619D01*
G37*
%TD.AperFunction*%
%TA.AperFunction,NonConductor*%
G36*
X128341333Y-78699918D02*
G01*
X128397267Y-78741789D01*
X128421684Y-78807254D01*
X128422000Y-78816100D01*
X128422000Y-79350500D01*
X128402315Y-79417539D01*
X128349511Y-79463294D01*
X128298000Y-79474500D01*
X127369016Y-79474500D01*
X127347770Y-79468261D01*
X127325682Y-79466682D01*
X127314898Y-79458609D01*
X127301977Y-79454815D01*
X127287477Y-79438081D01*
X127269749Y-79424810D01*
X127265041Y-79412189D01*
X127256222Y-79402011D01*
X127253070Y-79380093D01*
X127245332Y-79359346D01*
X127248194Y-79346185D01*
X127246278Y-79332853D01*
X127255477Y-79312709D01*
X127260184Y-79291073D01*
X127273452Y-79273347D01*
X127275303Y-79269297D01*
X127281335Y-79262819D01*
X127431335Y-79112819D01*
X127492658Y-79079334D01*
X127519016Y-79076500D01*
X127656863Y-79076500D01*
X127746003Y-79058768D01*
X127782536Y-79051501D01*
X127900919Y-79002465D01*
X127921123Y-78988965D01*
X128007461Y-78931277D01*
X128210319Y-78728419D01*
X128271642Y-78694934D01*
X128341333Y-78699918D01*
G37*
%TD.AperFunction*%
%TA.AperFunction,NonConductor*%
G36*
X130266954Y-78014801D02*
G01*
X130293039Y-78044906D01*
X130354437Y-78144450D01*
X130384788Y-78193656D01*
X130508844Y-78317712D01*
X130658166Y-78409814D01*
X130824703Y-78464999D01*
X130927491Y-78475500D01*
X131727508Y-78475499D01*
X131727516Y-78475498D01*
X131727519Y-78475498D01*
X131783802Y-78469748D01*
X131830297Y-78464999D01*
X131996834Y-78409814D01*
X132146156Y-78317712D01*
X132270212Y-78193656D01*
X132340862Y-78079112D01*
X132358153Y-78063560D01*
X132372091Y-78044942D01*
X132383643Y-78040633D01*
X132392810Y-78032388D01*
X132415765Y-78028652D01*
X132437555Y-78020525D01*
X132449601Y-78023145D01*
X132461772Y-78021165D01*
X132483104Y-78030433D01*
X132505828Y-78035377D01*
X132521522Y-78047126D01*
X132525854Y-78049008D01*
X132534082Y-78056528D01*
X132560681Y-78083127D01*
X132594166Y-78144450D01*
X132597000Y-78170808D01*
X132597000Y-78474168D01*
X132597001Y-78474187D01*
X132607325Y-78575252D01*
X132614063Y-78595585D01*
X132661233Y-78737934D01*
X132661592Y-78739015D01*
X132661593Y-78739018D01*
X132752161Y-78885851D01*
X132866129Y-78999819D01*
X132899614Y-79061142D01*
X132894630Y-79130834D01*
X132866129Y-79175181D01*
X132752161Y-79289148D01*
X132661593Y-79435981D01*
X132661591Y-79435986D01*
X132647559Y-79478333D01*
X132607326Y-79599747D01*
X132607326Y-79599748D01*
X132607325Y-79599748D01*
X132597000Y-79700815D01*
X132597000Y-79816486D01*
X132577315Y-79883525D01*
X132524511Y-79929280D01*
X132455353Y-79939224D01*
X132391797Y-79910199D01*
X132367462Y-79881583D01*
X132290214Y-79756346D01*
X132290211Y-79756342D01*
X132166157Y-79632288D01*
X132166153Y-79632285D01*
X132016844Y-79540189D01*
X132016838Y-79540186D01*
X132016836Y-79540185D01*
X131934899Y-79513034D01*
X131850301Y-79485001D01*
X131747519Y-79474500D01*
X131747512Y-79474500D01*
X129797000Y-79474500D01*
X129729961Y-79454815D01*
X129684206Y-79402011D01*
X129673000Y-79350500D01*
X129673000Y-78506057D01*
X129692685Y-78439018D01*
X129731901Y-78400520D01*
X129866156Y-78317712D01*
X129990212Y-78193656D01*
X130081961Y-78044905D01*
X130133909Y-77998181D01*
X130202871Y-77986958D01*
X130266954Y-78014801D01*
G37*
%TD.AperFunction*%
%TA.AperFunction,NonConductor*%
G36*
X132653203Y-80561253D02*
G01*
X132677536Y-80589865D01*
X132752160Y-80710850D01*
X132752161Y-80710851D01*
X132791129Y-80749819D01*
X132824614Y-80811142D01*
X132819630Y-80880834D01*
X132804072Y-80909963D01*
X132798218Y-80918091D01*
X132752160Y-80964150D01*
X132675213Y-81088900D01*
X132672624Y-81092496D01*
X132648406Y-81111333D01*
X132625591Y-81131855D01*
X132621080Y-81132588D01*
X132617474Y-81135394D01*
X132586910Y-81138148D01*
X132556628Y-81143076D01*
X132552438Y-81141255D01*
X132547886Y-81141666D01*
X132520684Y-81127458D01*
X132492546Y-81115233D01*
X132490004Y-81111435D01*
X132485955Y-81109320D01*
X132470754Y-81082666D01*
X132453690Y-81057164D01*
X132452763Y-81051120D01*
X132451342Y-81048627D01*
X132451609Y-81043584D01*
X132448000Y-81020033D01*
X132448000Y-80654966D01*
X132467685Y-80587927D01*
X132520489Y-80542172D01*
X132589647Y-80532228D01*
X132653203Y-80561253D01*
G37*
%TD.AperFunction*%
%TA.AperFunction,NonConductor*%
G36*
X147980703Y-77332035D02*
G01*
X147987181Y-77338067D01*
X151813181Y-81164067D01*
X151846666Y-81225390D01*
X151849500Y-81251748D01*
X151849500Y-81650500D01*
X151829815Y-81717539D01*
X151777011Y-81763294D01*
X151725500Y-81774500D01*
X151074998Y-81774500D01*
X151074980Y-81774501D01*
X150972203Y-81785000D01*
X150972200Y-81785001D01*
X150805668Y-81840185D01*
X150805663Y-81840187D01*
X150656342Y-81932289D01*
X150532287Y-82056344D01*
X150503465Y-82103072D01*
X150451516Y-82149796D01*
X150382553Y-82161017D01*
X150318472Y-82133173D01*
X150310246Y-82125655D01*
X147811819Y-79627228D01*
X147778334Y-79565905D01*
X147775500Y-79539547D01*
X147775500Y-77425748D01*
X147795185Y-77358709D01*
X147847989Y-77312954D01*
X147917147Y-77303010D01*
X147980703Y-77332035D01*
G37*
%TD.AperFunction*%
%TA.AperFunction,NonConductor*%
G36*
X134393907Y-75970019D02*
G01*
X134420227Y-75990092D01*
X137738786Y-79308651D01*
X141055454Y-82625319D01*
X141088939Y-82686642D01*
X141083955Y-82756334D01*
X141042083Y-82812267D01*
X140976619Y-82836684D01*
X140967773Y-82837000D01*
X134537821Y-82837000D01*
X134534152Y-82835922D01*
X134530428Y-82836779D01*
X134500894Y-82826157D01*
X134470782Y-82817315D01*
X134467234Y-82814051D01*
X134464682Y-82813133D01*
X134455810Y-82803538D01*
X134439434Y-82788471D01*
X134435594Y-82783465D01*
X134392840Y-82714150D01*
X134348118Y-82669428D01*
X134343165Y-82662971D01*
X134333386Y-82637666D01*
X134320386Y-82613858D01*
X134320979Y-82605559D01*
X134317980Y-82597798D01*
X134323435Y-82571222D01*
X134325370Y-82544166D01*
X134330687Y-82535892D01*
X134332029Y-82529356D01*
X134340388Y-82520798D01*
X134353871Y-82499819D01*
X134392840Y-82460850D01*
X134483408Y-82314016D01*
X134537674Y-82150253D01*
X134548000Y-82049177D01*
X134547999Y-81375824D01*
X134537674Y-81274747D01*
X134483408Y-81110984D01*
X134392840Y-80964150D01*
X134353871Y-80925181D01*
X134320386Y-80863858D01*
X134325370Y-80794166D01*
X134353871Y-80749819D01*
X134369777Y-80733913D01*
X134392840Y-80710850D01*
X134483408Y-80564016D01*
X134537674Y-80400253D01*
X134548000Y-80299177D01*
X134547999Y-79700824D01*
X134537674Y-79599747D01*
X134483408Y-79435984D01*
X134392840Y-79289150D01*
X134278871Y-79175181D01*
X134245386Y-79113858D01*
X134250370Y-79044166D01*
X134278871Y-78999819D01*
X134323677Y-78955013D01*
X134392840Y-78885850D01*
X134483408Y-78739016D01*
X134537674Y-78575253D01*
X134548000Y-78474177D01*
X134547999Y-77875824D01*
X134537674Y-77774747D01*
X134483408Y-77610984D01*
X134392840Y-77464150D01*
X134270850Y-77342160D01*
X134270849Y-77342159D01*
X134270847Y-77342157D01*
X134270093Y-77341561D01*
X134269709Y-77341019D01*
X134265743Y-77337053D01*
X134266420Y-77336375D01*
X134229714Y-77284541D01*
X134223000Y-77244292D01*
X134223000Y-76162637D01*
X134210931Y-76101967D01*
X134217158Y-76032375D01*
X134260020Y-75977197D01*
X134325909Y-75953952D01*
X134393907Y-75970019D01*
G37*
%TD.AperFunction*%
%TA.AperFunction,NonConductor*%
G36*
X125822610Y-72532266D02*
G01*
X125878543Y-72574138D01*
X125896981Y-72609442D01*
X125907786Y-72642048D01*
X125912686Y-72656834D01*
X126002011Y-72801654D01*
X126004789Y-72806157D01*
X126128846Y-72930214D01*
X126131682Y-72931963D01*
X126133217Y-72933670D01*
X126134511Y-72934693D01*
X126134336Y-72934914D01*
X126178405Y-72983911D01*
X126189626Y-73052874D01*
X126161782Y-73116956D01*
X126131682Y-73143037D01*
X126128846Y-73144785D01*
X126004789Y-73268842D01*
X125912687Y-73418163D01*
X125912686Y-73418166D01*
X125857501Y-73584703D01*
X125857501Y-73584704D01*
X125857500Y-73584704D01*
X125847000Y-73687483D01*
X125847000Y-74462501D01*
X125847001Y-74462519D01*
X125857500Y-74565296D01*
X125857501Y-74565299D01*
X125877450Y-74625499D01*
X125912686Y-74731834D01*
X126004788Y-74881156D01*
X126128844Y-75005212D01*
X126245078Y-75076905D01*
X126291802Y-75128853D01*
X126303025Y-75197816D01*
X126275181Y-75261898D01*
X126218986Y-75300150D01*
X126098166Y-75340186D01*
X126098163Y-75340187D01*
X125948842Y-75432289D01*
X125824789Y-75556342D01*
X125732687Y-75705663D01*
X125732686Y-75705666D01*
X125677501Y-75872203D01*
X125677501Y-75872204D01*
X125677500Y-75872204D01*
X125667000Y-75974983D01*
X125667000Y-76100500D01*
X125647315Y-76167539D01*
X125594511Y-76213294D01*
X125543000Y-76224500D01*
X124087637Y-76224500D01*
X123961969Y-76249497D01*
X123961963Y-76249499D01*
X123843582Y-76298534D01*
X123737034Y-76369726D01*
X123737033Y-76369727D01*
X116985181Y-83121580D01*
X116923858Y-83155065D01*
X116854166Y-83150081D01*
X116798233Y-83108209D01*
X116773816Y-83042745D01*
X116773500Y-83033899D01*
X116773500Y-81530225D01*
X116793185Y-81463186D01*
X116809814Y-81442549D01*
X125691597Y-72560765D01*
X125752918Y-72527282D01*
X125822610Y-72532266D01*
G37*
%TD.AperFunction*%
%TA.AperFunction,NonConductor*%
G36*
X154830699Y-83402799D02*
G01*
X154837180Y-83408834D01*
X155641165Y-84212819D01*
X155674650Y-84274142D01*
X155669666Y-84343834D01*
X155627794Y-84399767D01*
X155562330Y-84424184D01*
X155553484Y-84424500D01*
X154790129Y-84424500D01*
X154790123Y-84424501D01*
X154730516Y-84430908D01*
X154595669Y-84481203D01*
X154589942Y-84484331D01*
X154575499Y-84488017D01*
X154565448Y-84494477D01*
X154530513Y-84499500D01*
X154312000Y-84499500D01*
X154244961Y-84479815D01*
X154199206Y-84427011D01*
X154188000Y-84375500D01*
X154188000Y-84232927D01*
X154207685Y-84165888D01*
X154246901Y-84127390D01*
X154343656Y-84067712D01*
X154467712Y-83943656D01*
X154559814Y-83794334D01*
X154614999Y-83627797D01*
X154625500Y-83525009D01*
X154625499Y-83496515D01*
X154645181Y-83429479D01*
X154697984Y-83383722D01*
X154767142Y-83373777D01*
X154830699Y-83402799D01*
G37*
%TD.AperFunction*%
%TA.AperFunction,NonConductor*%
G36*
X156111444Y-64653999D02*
G01*
X156150486Y-64699056D01*
X156154951Y-64707820D01*
X156279890Y-64879786D01*
X156430213Y-65030109D01*
X156602181Y-65155050D01*
X156616792Y-65162494D01*
X156667589Y-65210467D01*
X156684500Y-65272980D01*
X156684500Y-67428598D01*
X156664815Y-67495637D01*
X156659768Y-67502907D01*
X156656205Y-67507665D01*
X156656202Y-67507671D01*
X156605908Y-67642517D01*
X156599501Y-67702116D01*
X156599501Y-67702123D01*
X156599500Y-67702135D01*
X156599500Y-69347870D01*
X156599501Y-69347876D01*
X156605908Y-69407483D01*
X156656202Y-69542328D01*
X156656206Y-69542335D01*
X156742452Y-69657544D01*
X156742455Y-69657547D01*
X156857664Y-69743793D01*
X156857671Y-69743797D01*
X156992517Y-69794091D01*
X156992516Y-69794091D01*
X156999444Y-69794835D01*
X157052127Y-69800500D01*
X158089546Y-69800499D01*
X158156585Y-69820183D01*
X158177227Y-69836818D01*
X158887551Y-70547142D01*
X158921036Y-70608465D01*
X158916052Y-70678157D01*
X158905410Y-70699918D01*
X158840188Y-70805661D01*
X158840186Y-70805666D01*
X158785001Y-70972203D01*
X158785001Y-70972204D01*
X158785000Y-70972204D01*
X158774500Y-71074983D01*
X158774500Y-71850001D01*
X158774501Y-71850019D01*
X158785000Y-71952796D01*
X158785001Y-71952799D01*
X158840185Y-72119331D01*
X158840187Y-72119336D01*
X158932289Y-72268657D01*
X159056346Y-72392714D01*
X159059182Y-72394463D01*
X159060717Y-72396170D01*
X159062011Y-72397193D01*
X159061836Y-72397414D01*
X159105905Y-72446411D01*
X159117126Y-72515374D01*
X159089282Y-72579456D01*
X159059182Y-72605537D01*
X159056346Y-72607285D01*
X158932289Y-72731342D01*
X158932288Y-72731344D01*
X158885859Y-72806619D01*
X158872611Y-72828097D01*
X158820663Y-72874821D01*
X158767072Y-72887000D01*
X156123429Y-72887000D01*
X155997761Y-72911997D01*
X155997755Y-72911999D01*
X155879370Y-72961035D01*
X155772831Y-73032222D01*
X155772824Y-73032228D01*
X153641871Y-75163181D01*
X153580548Y-75196666D01*
X153554190Y-75199500D01*
X152552129Y-75199500D01*
X152552123Y-75199501D01*
X152492516Y-75205908D01*
X152357671Y-75256202D01*
X152357664Y-75256206D01*
X152242455Y-75342452D01*
X152242452Y-75342455D01*
X152156206Y-75457664D01*
X152156202Y-75457671D01*
X152105908Y-75592517D01*
X152099501Y-75652116D01*
X152099501Y-75652123D01*
X152099500Y-75652135D01*
X152099500Y-77297870D01*
X152099501Y-77297876D01*
X152105908Y-77357483D01*
X152156202Y-77492328D01*
X152156206Y-77492335D01*
X152242452Y-77607544D01*
X152242455Y-77607547D01*
X152357664Y-77693793D01*
X152357671Y-77693797D01*
X152492517Y-77744091D01*
X152492516Y-77744091D01*
X152499444Y-77744835D01*
X152552127Y-77750500D01*
X153947872Y-77750499D01*
X154007483Y-77744091D01*
X154142331Y-77693796D01*
X154257546Y-77607546D01*
X154343796Y-77492331D01*
X154394091Y-77357483D01*
X154400500Y-77297873D01*
X154400499Y-76295806D01*
X154420183Y-76228768D01*
X154436813Y-76208131D01*
X154992810Y-75652135D01*
X156599500Y-75652135D01*
X156599500Y-77297870D01*
X156599501Y-77297876D01*
X156605908Y-77357483D01*
X156656202Y-77492328D01*
X156656206Y-77492335D01*
X156742452Y-77607544D01*
X156742455Y-77607547D01*
X156857664Y-77693793D01*
X156857671Y-77693797D01*
X156992517Y-77744091D01*
X156992516Y-77744091D01*
X156999444Y-77744835D01*
X157052127Y-77750500D01*
X158447872Y-77750499D01*
X158507483Y-77744091D01*
X158642331Y-77693796D01*
X158757546Y-77607546D01*
X158843796Y-77492331D01*
X158894091Y-77357483D01*
X158900500Y-77297873D01*
X158900499Y-75652128D01*
X158894091Y-75592517D01*
X158880599Y-75556344D01*
X158843797Y-75457671D01*
X158843793Y-75457664D01*
X158757547Y-75342455D01*
X158757544Y-75342452D01*
X158642335Y-75256206D01*
X158642328Y-75256202D01*
X158507482Y-75205908D01*
X158507483Y-75205908D01*
X158447883Y-75199501D01*
X158447881Y-75199500D01*
X158447873Y-75199500D01*
X158447864Y-75199500D01*
X157052129Y-75199500D01*
X157052123Y-75199501D01*
X156992516Y-75205908D01*
X156857671Y-75256202D01*
X156857664Y-75256206D01*
X156742455Y-75342452D01*
X156742452Y-75342455D01*
X156656206Y-75457664D01*
X156656202Y-75457671D01*
X156605908Y-75592517D01*
X156599501Y-75652116D01*
X156599501Y-75652123D01*
X156599500Y-75652135D01*
X154992810Y-75652135D01*
X156420627Y-74224319D01*
X156481950Y-74190834D01*
X156508308Y-74188000D01*
X158767072Y-74188000D01*
X158834111Y-74207685D01*
X158872609Y-74246901D01*
X158932288Y-74343656D01*
X159056344Y-74467712D01*
X159205666Y-74559814D01*
X159372203Y-74614999D01*
X159474991Y-74625500D01*
X160525008Y-74625499D01*
X160525016Y-74625498D01*
X160525019Y-74625498D01*
X160581302Y-74619748D01*
X160627797Y-74614999D01*
X160794334Y-74559814D01*
X160943656Y-74467712D01*
X161067712Y-74343656D01*
X161159814Y-74194334D01*
X161214999Y-74027797D01*
X161225500Y-73925009D01*
X161225499Y-73348499D01*
X161245183Y-73281461D01*
X161297987Y-73235706D01*
X161349499Y-73224500D01*
X167888000Y-73224500D01*
X167955039Y-73244185D01*
X168000794Y-73296989D01*
X168012000Y-73348500D01*
X168012000Y-73786669D01*
X168012001Y-73786687D01*
X168022325Y-73887752D01*
X168076592Y-74051515D01*
X168076593Y-74051518D01*
X168091981Y-74076465D01*
X168167160Y-74198350D01*
X168289150Y-74320340D01*
X168328097Y-74344362D01*
X168374820Y-74396307D01*
X168387000Y-74449900D01*
X168387000Y-75141691D01*
X168367315Y-75208730D01*
X168350681Y-75229372D01*
X158264457Y-85315595D01*
X158203134Y-85349080D01*
X158133442Y-85344096D01*
X158089095Y-85315595D01*
X158008352Y-85234852D01*
X158008348Y-85234849D01*
X157860867Y-85136304D01*
X157860854Y-85136297D01*
X157696981Y-85068420D01*
X157696972Y-85068417D01*
X157523008Y-85033814D01*
X157523005Y-85033814D01*
X157463000Y-85033814D01*
X157395961Y-85014129D01*
X157350206Y-84961325D01*
X157339000Y-84909814D01*
X157339000Y-84276136D01*
X157314002Y-84150469D01*
X157314001Y-84150468D01*
X157314001Y-84150464D01*
X157290106Y-84092777D01*
X157288127Y-84088000D01*
X157278193Y-84064016D01*
X157264966Y-84032082D01*
X157220267Y-83965185D01*
X157193778Y-83925540D01*
X157193772Y-83925533D01*
X150376819Y-77108580D01*
X150343334Y-77047257D01*
X150340500Y-77020899D01*
X150340500Y-67702135D01*
X152099500Y-67702135D01*
X152099500Y-69347870D01*
X152099501Y-69347876D01*
X152105908Y-69407483D01*
X152156202Y-69542328D01*
X152156206Y-69542335D01*
X152242452Y-69657544D01*
X152242455Y-69657547D01*
X152357664Y-69743793D01*
X152357671Y-69743797D01*
X152492517Y-69794091D01*
X152492516Y-69794091D01*
X152499444Y-69794835D01*
X152552127Y-69800500D01*
X153947872Y-69800499D01*
X154007483Y-69794091D01*
X154142331Y-69743796D01*
X154257546Y-69657546D01*
X154343796Y-69542331D01*
X154394091Y-69407483D01*
X154400500Y-69347873D01*
X154400499Y-67702128D01*
X154394091Y-67642517D01*
X154343796Y-67507669D01*
X154343795Y-67507668D01*
X154343793Y-67507664D01*
X154257547Y-67392455D01*
X154257544Y-67392452D01*
X154142335Y-67306206D01*
X154142328Y-67306202D01*
X154007482Y-67255908D01*
X154007483Y-67255908D01*
X153947883Y-67249501D01*
X153947881Y-67249500D01*
X153947873Y-67249500D01*
X153947864Y-67249500D01*
X152552129Y-67249500D01*
X152552123Y-67249501D01*
X152492516Y-67255908D01*
X152357671Y-67306202D01*
X152357664Y-67306206D01*
X152242455Y-67392452D01*
X152242452Y-67392455D01*
X152156206Y-67507664D01*
X152156202Y-67507671D01*
X152105908Y-67642517D01*
X152099501Y-67702116D01*
X152099501Y-67702123D01*
X152099500Y-67702135D01*
X150340500Y-67702135D01*
X150340500Y-65259617D01*
X150360185Y-65192578D01*
X150394592Y-65158902D01*
X150393874Y-65157914D01*
X150397811Y-65155053D01*
X150397816Y-65155051D01*
X150569792Y-65030104D01*
X150720104Y-64879792D01*
X150720106Y-64879788D01*
X150720109Y-64879786D01*
X150845048Y-64707820D01*
X150845047Y-64707820D01*
X150845051Y-64707816D01*
X150849514Y-64699054D01*
X150897488Y-64648259D01*
X150965308Y-64631463D01*
X151031444Y-64653999D01*
X151070486Y-64699056D01*
X151074951Y-64707820D01*
X151199890Y-64879786D01*
X151350213Y-65030109D01*
X151522179Y-65155048D01*
X151522181Y-65155049D01*
X151522184Y-65155051D01*
X151711588Y-65251557D01*
X151913757Y-65317246D01*
X152123713Y-65350500D01*
X152123714Y-65350500D01*
X152336286Y-65350500D01*
X152336287Y-65350500D01*
X152546243Y-65317246D01*
X152748412Y-65251557D01*
X152937816Y-65155051D01*
X153024138Y-65092335D01*
X153109786Y-65030109D01*
X153109788Y-65030106D01*
X153109792Y-65030104D01*
X153260104Y-64879792D01*
X153260106Y-64879788D01*
X153260109Y-64879786D01*
X153385048Y-64707820D01*
X153385047Y-64707820D01*
X153385051Y-64707816D01*
X153389514Y-64699054D01*
X153437488Y-64648259D01*
X153505308Y-64631463D01*
X153571444Y-64653999D01*
X153610486Y-64699056D01*
X153614951Y-64707820D01*
X153739890Y-64879786D01*
X153890213Y-65030109D01*
X154062179Y-65155048D01*
X154062181Y-65155049D01*
X154062184Y-65155051D01*
X154251588Y-65251557D01*
X154453757Y-65317246D01*
X154663713Y-65350500D01*
X154663714Y-65350500D01*
X154876286Y-65350500D01*
X154876287Y-65350500D01*
X155086243Y-65317246D01*
X155288412Y-65251557D01*
X155477816Y-65155051D01*
X155564138Y-65092335D01*
X155649786Y-65030109D01*
X155649788Y-65030106D01*
X155649792Y-65030104D01*
X155800104Y-64879792D01*
X155800106Y-64879788D01*
X155800109Y-64879786D01*
X155925048Y-64707820D01*
X155925047Y-64707820D01*
X155925051Y-64707816D01*
X155929514Y-64699054D01*
X155977488Y-64648259D01*
X156045308Y-64631463D01*
X156111444Y-64653999D01*
G37*
%TD.AperFunction*%
%TA.AperFunction,NonConductor*%
G36*
X121643731Y-85670185D02*
G01*
X121664373Y-85686819D01*
X122151531Y-86173977D01*
X122185016Y-86235300D01*
X122180032Y-86304992D01*
X122138160Y-86360925D01*
X122072696Y-86385342D01*
X122016401Y-86376221D01*
X122012244Y-86374499D01*
X122012242Y-86374498D01*
X122012238Y-86374497D01*
X121886571Y-86349500D01*
X121886569Y-86349500D01*
X119225858Y-86349500D01*
X119195070Y-86340459D01*
X119163880Y-86332900D01*
X119161244Y-86330527D01*
X119158819Y-86329815D01*
X119136133Y-86311089D01*
X119130412Y-86305092D01*
X119114414Y-86283072D01*
X119005821Y-86174479D01*
X119004828Y-86173438D01*
X118989450Y-86143625D01*
X118973387Y-86114207D01*
X118973495Y-86112692D01*
X118972799Y-86111342D01*
X118975978Y-86077974D01*
X118978371Y-86044515D01*
X118979282Y-86043298D01*
X118979426Y-86041787D01*
X119000140Y-86015435D01*
X119020243Y-85988582D01*
X119022406Y-85987109D01*
X119022605Y-85986857D01*
X119022955Y-85986735D01*
X119029457Y-85982310D01*
X119085272Y-85947883D01*
X119093656Y-85942712D01*
X119217712Y-85818656D01*
X119285099Y-85709402D01*
X119337047Y-85662679D01*
X119390638Y-85650500D01*
X121576692Y-85650500D01*
X121643731Y-85670185D01*
G37*
%TD.AperFunction*%
%TA.AperFunction,NonConductor*%
G36*
X147193332Y-80793770D02*
G01*
X147237679Y-80822271D01*
X149894654Y-83479246D01*
X149894656Y-83479247D01*
X149901267Y-83485858D01*
X150003715Y-83554312D01*
X150050602Y-83573733D01*
X150117548Y-83601463D01*
X150238389Y-83625499D01*
X150238393Y-83625500D01*
X150238394Y-83625500D01*
X150294699Y-83625500D01*
X150361738Y-83645185D01*
X150407493Y-83697989D01*
X150412405Y-83710496D01*
X150440185Y-83794331D01*
X150440187Y-83794336D01*
X150460341Y-83827011D01*
X150532288Y-83943656D01*
X150656344Y-84067712D01*
X150805666Y-84159814D01*
X150972203Y-84214999D01*
X151074991Y-84225500D01*
X151725500Y-84225499D01*
X151792539Y-84245183D01*
X151838294Y-84297987D01*
X151849500Y-84349499D01*
X151849500Y-86665547D01*
X151843261Y-86686792D01*
X151841682Y-86708879D01*
X151833609Y-86719662D01*
X151829815Y-86732586D01*
X151813082Y-86747084D01*
X151799812Y-86764813D01*
X151787189Y-86769520D01*
X151777011Y-86778341D01*
X151755094Y-86781492D01*
X151734347Y-86789231D01*
X151721185Y-86786368D01*
X151707853Y-86788285D01*
X151687711Y-86779086D01*
X151666074Y-86774380D01*
X151648347Y-86761109D01*
X151644297Y-86759260D01*
X151637820Y-86753229D01*
X151592929Y-86708339D01*
X151592925Y-86708334D01*
X151592925Y-86708335D01*
X151585859Y-86701269D01*
X151585858Y-86701267D01*
X151498733Y-86614142D01*
X151498729Y-86614139D01*
X151498728Y-86614138D01*
X151446517Y-86579251D01*
X151446509Y-86579247D01*
X151440141Y-86574992D01*
X151396286Y-86545688D01*
X151306140Y-86508349D01*
X151301960Y-86506617D01*
X151301951Y-86506613D01*
X151282458Y-86498539D01*
X151282454Y-86498537D01*
X151282452Y-86498537D01*
X151282448Y-86498536D01*
X151282444Y-86498535D01*
X151189905Y-86480127D01*
X151189896Y-86480127D01*
X151161607Y-86474500D01*
X151161606Y-86474500D01*
X151061500Y-86474500D01*
X150994461Y-86454815D01*
X150948706Y-86402011D01*
X150937500Y-86350501D01*
X150937499Y-86177128D01*
X150937498Y-86177111D01*
X150933320Y-86138253D01*
X150933320Y-86111745D01*
X150937500Y-86072873D01*
X150937499Y-85527128D01*
X150937499Y-85527127D01*
X150937498Y-85527111D01*
X150933320Y-85488253D01*
X150933320Y-85461745D01*
X150937500Y-85422873D01*
X150937499Y-84877128D01*
X150931091Y-84817517D01*
X150880796Y-84682669D01*
X150880795Y-84682668D01*
X150880793Y-84682664D01*
X150794547Y-84567455D01*
X150794544Y-84567452D01*
X150679335Y-84481206D01*
X150679328Y-84481202D01*
X150544482Y-84430908D01*
X150544483Y-84430908D01*
X150484883Y-84424501D01*
X150484881Y-84424500D01*
X150484873Y-84424500D01*
X150484864Y-84424500D01*
X148914129Y-84424500D01*
X148914123Y-84424501D01*
X148854516Y-84430908D01*
X148719671Y-84481202D01*
X148719664Y-84481206D01*
X148604455Y-84567452D01*
X148604452Y-84567455D01*
X148518206Y-84682664D01*
X148518202Y-84682671D01*
X148467910Y-84817513D01*
X148467909Y-84817517D01*
X148461500Y-84877127D01*
X148461500Y-84877134D01*
X148461500Y-84877135D01*
X148461500Y-85422869D01*
X148461501Y-85422878D01*
X148465679Y-85461745D01*
X148465679Y-85488250D01*
X148461500Y-85527122D01*
X148461500Y-86072869D01*
X148461501Y-86072878D01*
X148465679Y-86111745D01*
X148466360Y-86127684D01*
X148466245Y-86132989D01*
X148461500Y-86177127D01*
X148461500Y-86351868D01*
X148461472Y-86353187D01*
X148451297Y-86385249D01*
X148441817Y-86417539D01*
X148440761Y-86418453D01*
X148440339Y-86419784D01*
X148414450Y-86441252D01*
X148389013Y-86463294D01*
X148387464Y-86463630D01*
X148386556Y-86464384D01*
X148380758Y-86465089D01*
X148337501Y-86474500D01*
X147305301Y-86474500D01*
X147238262Y-86454815D01*
X147192507Y-86402011D01*
X147187595Y-86389504D01*
X147186185Y-86385249D01*
X147159814Y-86305666D01*
X147067712Y-86156344D01*
X146943656Y-86032288D01*
X146806782Y-85947864D01*
X146794336Y-85940187D01*
X146794331Y-85940185D01*
X146707174Y-85911304D01*
X146690481Y-85905772D01*
X146633037Y-85866000D01*
X146607869Y-85812257D01*
X146601463Y-85780048D01*
X146555956Y-85670185D01*
X146554314Y-85666220D01*
X146554312Y-85666216D01*
X146554311Y-85666214D01*
X146516704Y-85609931D01*
X146485858Y-85563767D01*
X146398733Y-85476642D01*
X146398732Y-85476641D01*
X144491021Y-83568930D01*
X144457536Y-83507607D01*
X144462520Y-83437915D01*
X144491021Y-83393568D01*
X145758934Y-82125655D01*
X147062319Y-80822269D01*
X147123640Y-80788786D01*
X147193332Y-80793770D01*
G37*
%TD.AperFunction*%
%TA.AperFunction,NonConductor*%
G36*
X125610040Y-77545185D02*
G01*
X125655795Y-77597989D01*
X125667001Y-77649500D01*
X125667001Y-77775018D01*
X125677500Y-77877796D01*
X125677501Y-77877799D01*
X125732685Y-78044331D01*
X125732687Y-78044336D01*
X125767569Y-78100888D01*
X125824788Y-78193656D01*
X125948844Y-78317712D01*
X126086091Y-78402366D01*
X126132815Y-78454313D01*
X126144038Y-78523275D01*
X126116195Y-78587357D01*
X126108675Y-78595585D01*
X125191226Y-79513034D01*
X125132273Y-79601266D01*
X125132271Y-79601269D01*
X125120036Y-79619578D01*
X125120033Y-79619583D01*
X125070999Y-79737963D01*
X125070997Y-79737969D01*
X125046000Y-79863636D01*
X125046000Y-86929191D01*
X125026315Y-86996230D01*
X124973511Y-87041985D01*
X124904353Y-87051929D01*
X124840797Y-87022904D01*
X124834319Y-87016872D01*
X122312173Y-84494726D01*
X122312169Y-84494723D01*
X122205627Y-84423535D01*
X122205320Y-84423408D01*
X122087244Y-84374499D01*
X122087238Y-84374497D01*
X121961571Y-84349500D01*
X121961569Y-84349500D01*
X119390638Y-84349500D01*
X119323599Y-84329815D01*
X119285099Y-84290597D01*
X119217712Y-84181344D01*
X119093656Y-84057288D01*
X118944334Y-83965186D01*
X118777797Y-83910001D01*
X118777795Y-83910000D01*
X118675016Y-83899500D01*
X118675009Y-83899500D01*
X118346515Y-83899500D01*
X118279476Y-83879815D01*
X118233721Y-83827011D01*
X118223777Y-83757853D01*
X118252802Y-83694297D01*
X118258834Y-83687819D01*
X121235803Y-80710851D01*
X124384835Y-77561819D01*
X124446158Y-77528334D01*
X124472516Y-77525500D01*
X125543001Y-77525500D01*
X125610040Y-77545185D01*
G37*
%TD.AperFunction*%
%TA.AperFunction,NonConductor*%
G36*
X173455834Y-74177870D02*
G01*
X173500181Y-74206371D01*
X173614150Y-74320340D01*
X173619401Y-74323579D01*
X173623016Y-74326185D01*
X173641824Y-74350392D01*
X173662321Y-74373180D01*
X173663474Y-74378255D01*
X173665885Y-74381358D01*
X173666994Y-74393746D01*
X173674500Y-74426771D01*
X173674500Y-77655448D01*
X173654815Y-77722487D01*
X173638181Y-77743129D01*
X173587681Y-77793629D01*
X173526358Y-77827114D01*
X173456666Y-77822130D01*
X173412319Y-77793629D01*
X173298351Y-77679661D01*
X173298350Y-77679660D01*
X173181435Y-77607546D01*
X173151518Y-77589093D01*
X173151513Y-77589091D01*
X173150069Y-77588612D01*
X172987753Y-77534826D01*
X172987751Y-77534825D01*
X172886678Y-77524500D01*
X172288330Y-77524500D01*
X172288312Y-77524501D01*
X172187247Y-77534825D01*
X172023484Y-77589092D01*
X172023481Y-77589093D01*
X171887597Y-77672908D01*
X171820204Y-77691348D01*
X171757403Y-77672908D01*
X171621518Y-77589093D01*
X171621513Y-77589091D01*
X171620069Y-77588612D01*
X171457753Y-77534826D01*
X171457751Y-77534825D01*
X171356678Y-77524500D01*
X170683330Y-77524500D01*
X170683312Y-77524501D01*
X170582247Y-77534825D01*
X170418484Y-77589092D01*
X170418481Y-77589093D01*
X170271648Y-77679661D01*
X170232681Y-77718629D01*
X170171358Y-77752114D01*
X170101666Y-77747130D01*
X170057319Y-77718629D01*
X170018351Y-77679661D01*
X170018350Y-77679660D01*
X169901435Y-77607546D01*
X169871518Y-77589093D01*
X169871513Y-77589091D01*
X169870069Y-77588612D01*
X169707753Y-77534826D01*
X169707751Y-77534825D01*
X169606678Y-77524500D01*
X168933330Y-77524500D01*
X168933312Y-77524501D01*
X168832247Y-77534825D01*
X168668484Y-77589092D01*
X168668481Y-77589093D01*
X168521648Y-77679661D01*
X168399661Y-77801648D01*
X168309093Y-77948481D01*
X168309092Y-77948484D01*
X168254826Y-78112247D01*
X168254826Y-78112248D01*
X168254825Y-78112248D01*
X168244500Y-78213315D01*
X168244500Y-78554191D01*
X168224815Y-78621230D01*
X168208181Y-78641872D01*
X158504067Y-88345985D01*
X158442744Y-88379470D01*
X158373052Y-88374486D01*
X158317119Y-88332614D01*
X158294769Y-88282495D01*
X158265896Y-88137341D01*
X158265893Y-88137332D01*
X158198016Y-87973459D01*
X158198009Y-87973446D01*
X158099464Y-87825965D01*
X158099461Y-87825961D01*
X157974037Y-87700537D01*
X157953506Y-87686819D01*
X157947026Y-87682489D01*
X157902223Y-87628879D01*
X157893514Y-87559554D01*
X157923668Y-87496527D01*
X157928218Y-87491726D01*
X169542776Y-75877169D01*
X169613965Y-75770627D01*
X169663001Y-75652244D01*
X169673153Y-75601207D01*
X169688000Y-75526569D01*
X169688000Y-74449900D01*
X169688661Y-74447645D01*
X169688083Y-74445369D01*
X169698455Y-74414291D01*
X169707685Y-74382861D01*
X169709691Y-74380628D01*
X169710204Y-74379094D01*
X169716017Y-74373591D01*
X169734275Y-74353283D01*
X169740304Y-74348432D01*
X169785850Y-74320340D01*
X169829558Y-74276631D01*
X169834775Y-74272435D01*
X169861125Y-74261546D01*
X169886142Y-74247886D01*
X169892996Y-74248376D01*
X169899349Y-74245751D01*
X169927399Y-74250836D01*
X169955834Y-74252870D01*
X169962599Y-74257218D01*
X169968098Y-74258215D01*
X169976847Y-74266375D01*
X170000181Y-74281371D01*
X170039150Y-74320340D01*
X170185984Y-74410908D01*
X170349747Y-74465174D01*
X170450823Y-74475500D01*
X171124176Y-74475499D01*
X171124184Y-74475498D01*
X171124187Y-74475498D01*
X171200407Y-74467712D01*
X171225253Y-74465174D01*
X171389016Y-74410908D01*
X171535850Y-74320340D01*
X171574819Y-74281371D01*
X171636142Y-74247886D01*
X171705834Y-74252870D01*
X171750181Y-74281371D01*
X171789150Y-74320340D01*
X171935984Y-74410908D01*
X172099747Y-74465174D01*
X172200823Y-74475500D01*
X172799176Y-74475499D01*
X172799184Y-74475498D01*
X172799187Y-74475498D01*
X172875407Y-74467712D01*
X172900253Y-74465174D01*
X173064016Y-74410908D01*
X173210850Y-74320340D01*
X173324819Y-74206371D01*
X173386142Y-74172886D01*
X173455834Y-74177870D01*
G37*
%TD.AperFunction*%
%TA.AperFunction,NonConductor*%
G36*
X147947230Y-88420185D02*
G01*
X147992985Y-88472989D01*
X148002929Y-88542147D01*
X147973904Y-88605703D01*
X147967872Y-88612181D01*
X147437180Y-89142873D01*
X147375857Y-89176358D01*
X147306165Y-89171374D01*
X147250232Y-89129502D01*
X147225815Y-89064038D01*
X147225499Y-89055192D01*
X147225499Y-88783308D01*
X147245184Y-88716269D01*
X147261818Y-88695627D01*
X147520627Y-88436819D01*
X147581950Y-88403334D01*
X147608308Y-88400500D01*
X147880191Y-88400500D01*
X147947230Y-88420185D01*
G37*
%TD.AperFunction*%
%TA.AperFunction,NonConductor*%
G36*
X156984951Y-89202776D02*
G01*
X157080370Y-89242299D01*
X157137334Y-89265894D01*
X157137336Y-89265894D01*
X157137341Y-89265896D01*
X157282496Y-89294769D01*
X157344407Y-89327154D01*
X157378981Y-89387869D01*
X157375242Y-89457639D01*
X157345987Y-89504065D01*
X157186871Y-89663182D01*
X157159942Y-89677886D01*
X157134127Y-89694477D01*
X157127926Y-89695368D01*
X157125550Y-89696666D01*
X157099192Y-89699500D01*
X156937499Y-89699500D01*
X156870460Y-89679815D01*
X156824705Y-89627011D01*
X156813499Y-89575500D01*
X156813499Y-89427128D01*
X156813498Y-89427111D01*
X156809320Y-89388253D01*
X156809320Y-89361747D01*
X156813500Y-89322873D01*
X156813499Y-89317347D01*
X156833176Y-89250309D01*
X156885975Y-89204548D01*
X156955132Y-89194597D01*
X156984951Y-89202776D01*
G37*
%TD.AperFunction*%
%TA.AperFunction,NonConductor*%
G36*
X127846953Y-90317492D02*
G01*
X127873037Y-90347595D01*
X127896597Y-90385792D01*
X127932287Y-90443655D01*
X128056346Y-90567714D01*
X128059182Y-90569463D01*
X128060717Y-90571170D01*
X128062011Y-90572193D01*
X128061836Y-90572414D01*
X128105905Y-90621411D01*
X128117126Y-90690374D01*
X128089282Y-90754456D01*
X128059182Y-90780537D01*
X128056346Y-90782285D01*
X127932289Y-90906342D01*
X127873039Y-91002403D01*
X127821091Y-91049127D01*
X127752128Y-91060350D01*
X127688046Y-91032506D01*
X127661961Y-91002403D01*
X127643816Y-90972985D01*
X127602712Y-90906344D01*
X127478656Y-90782288D01*
X127475819Y-90780538D01*
X127474283Y-90778830D01*
X127472989Y-90777807D01*
X127473163Y-90777585D01*
X127429096Y-90728594D01*
X127417872Y-90659632D01*
X127445713Y-90595549D01*
X127475817Y-90569462D01*
X127478656Y-90567712D01*
X127602712Y-90443656D01*
X127661961Y-90347596D01*
X127713909Y-90300872D01*
X127782871Y-90289649D01*
X127846953Y-90317492D01*
G37*
%TD.AperFunction*%
%TA.AperFunction,NonConductor*%
G36*
X130430697Y-91988590D02*
G01*
X130437180Y-91994626D01*
X130593181Y-92150627D01*
X130626666Y-92211950D01*
X130629500Y-92238308D01*
X130629500Y-92759362D01*
X130609815Y-92826401D01*
X130570598Y-92864899D01*
X130546701Y-92879640D01*
X130461342Y-92932289D01*
X130337289Y-93056342D01*
X130245539Y-93205094D01*
X130193591Y-93251818D01*
X130124628Y-93263041D01*
X130060546Y-93235197D01*
X130034461Y-93205094D01*
X129942712Y-93056344D01*
X129818656Y-92932288D01*
X129818652Y-92932285D01*
X129817522Y-92931588D01*
X129816909Y-92930907D01*
X129812989Y-92927807D01*
X129813518Y-92927137D01*
X129770797Y-92879640D01*
X129759576Y-92810678D01*
X129787419Y-92746596D01*
X129817523Y-92720511D01*
X129818490Y-92719914D01*
X129943656Y-92642712D01*
X130067712Y-92518656D01*
X130159814Y-92369334D01*
X130214999Y-92202797D01*
X130225500Y-92100009D01*
X130225499Y-92082309D01*
X130245180Y-92015273D01*
X130297982Y-91969515D01*
X130367140Y-91959568D01*
X130430697Y-91988590D01*
G37*
%TD.AperFunction*%
%TA.AperFunction,NonConductor*%
G36*
X127846953Y-92392492D02*
G01*
X127873037Y-92422595D01*
X127932288Y-92518656D01*
X128056344Y-92642712D01*
X128181697Y-92720029D01*
X128182477Y-92720511D01*
X128229201Y-92772459D01*
X128240424Y-92841422D01*
X128212580Y-92905504D01*
X128186942Y-92927720D01*
X128187011Y-92927807D01*
X128185086Y-92929328D01*
X128182484Y-92931584D01*
X128181348Y-92932284D01*
X128181343Y-92932288D01*
X128057289Y-93056342D01*
X127965539Y-93205094D01*
X127913591Y-93251818D01*
X127844628Y-93263041D01*
X127780546Y-93235197D01*
X127754461Y-93205094D01*
X127662712Y-93056344D01*
X127538656Y-92932288D01*
X127538652Y-92932285D01*
X127445022Y-92874533D01*
X127398297Y-92822585D01*
X127387076Y-92753623D01*
X127414919Y-92689541D01*
X127445018Y-92663459D01*
X127478656Y-92642712D01*
X127602712Y-92518656D01*
X127661961Y-92422596D01*
X127713909Y-92375872D01*
X127782871Y-92364649D01*
X127846953Y-92392492D01*
G37*
%TD.AperFunction*%
%TA.AperFunction,NonConductor*%
G36*
X132653203Y-84061253D02*
G01*
X132677536Y-84089865D01*
X132752160Y-84210850D01*
X132874150Y-84332840D01*
X133020984Y-84423408D01*
X133184747Y-84477674D01*
X133285823Y-84488000D01*
X133859176Y-84487999D01*
X133859184Y-84487998D01*
X133859187Y-84487998D01*
X133925696Y-84481204D01*
X133960253Y-84477674D01*
X134124016Y-84423408D01*
X134270850Y-84332840D01*
X134392840Y-84210850D01*
X134432283Y-84146903D01*
X134484230Y-84100179D01*
X134537821Y-84088000D01*
X142466773Y-84088000D01*
X142533812Y-84107685D01*
X142554454Y-84124319D01*
X144760122Y-86329987D01*
X144793607Y-86391310D01*
X144790147Y-86456671D01*
X144785001Y-86472199D01*
X144774500Y-86574983D01*
X144774500Y-87350001D01*
X144774501Y-87350019D01*
X144785000Y-87452796D01*
X144785001Y-87452799D01*
X144829342Y-87586610D01*
X144840186Y-87619334D01*
X144925528Y-87757697D01*
X144932289Y-87768657D01*
X145056346Y-87892714D01*
X145059182Y-87894463D01*
X145060717Y-87896170D01*
X145062011Y-87897193D01*
X145061836Y-87897414D01*
X145105905Y-87946411D01*
X145117126Y-88015374D01*
X145089282Y-88079456D01*
X145059182Y-88105537D01*
X145056346Y-88107285D01*
X144932289Y-88231342D01*
X144840187Y-88380663D01*
X144840185Y-88380668D01*
X144825661Y-88424499D01*
X144785001Y-88547203D01*
X144785001Y-88547204D01*
X144785000Y-88547204D01*
X144774500Y-88649983D01*
X144774500Y-89425001D01*
X144774501Y-89425019D01*
X144785000Y-89527796D01*
X144785001Y-89527799D01*
X144840185Y-89694331D01*
X144840187Y-89694336D01*
X144932289Y-89843657D01*
X145015411Y-89926779D01*
X145048896Y-89988102D01*
X145043912Y-90057794D01*
X145015411Y-90102141D01*
X140166873Y-94950681D01*
X140105550Y-94984166D01*
X140079192Y-94987000D01*
X134426771Y-94987000D01*
X134359732Y-94967315D01*
X134325132Y-94932070D01*
X134324821Y-94932317D01*
X134322528Y-94929417D01*
X134321233Y-94928098D01*
X134320340Y-94926650D01*
X134198350Y-94804660D01*
X134098464Y-94743050D01*
X134051518Y-94714093D01*
X134051513Y-94714091D01*
X133994730Y-94695275D01*
X133887753Y-94659826D01*
X133887751Y-94659825D01*
X133786684Y-94649500D01*
X133786677Y-94649500D01*
X133483308Y-94649500D01*
X133416269Y-94629815D01*
X133395627Y-94613181D01*
X132652174Y-93869727D01*
X132652173Y-93869726D01*
X132545625Y-93798533D01*
X132457046Y-93761843D01*
X132402643Y-93718002D01*
X132380578Y-93651707D01*
X132380499Y-93647282D01*
X132380499Y-93474998D01*
X132380498Y-93474981D01*
X132369999Y-93372203D01*
X132369998Y-93372200D01*
X132330107Y-93251818D01*
X132314814Y-93205666D01*
X132222712Y-93056344D01*
X132098656Y-92932288D01*
X131989402Y-92864900D01*
X131942679Y-92812953D01*
X131930500Y-92759362D01*
X131930500Y-91853428D01*
X131905502Y-91727761D01*
X131905501Y-91727760D01*
X131905501Y-91727756D01*
X131856465Y-91609373D01*
X131834477Y-91576465D01*
X131826194Y-91564069D01*
X131785275Y-91502828D01*
X130261818Y-89979371D01*
X130228333Y-89918048D01*
X130225499Y-89891690D01*
X130225499Y-89249998D01*
X130225498Y-89249981D01*
X130214999Y-89147203D01*
X130214998Y-89147200D01*
X130191919Y-89077552D01*
X130159814Y-88980666D01*
X130067712Y-88831344D01*
X129943656Y-88707288D01*
X129794334Y-88615186D01*
X129627797Y-88560001D01*
X129627795Y-88560000D01*
X129525010Y-88549500D01*
X128474998Y-88549500D01*
X128474980Y-88549501D01*
X128372203Y-88560000D01*
X128372200Y-88560001D01*
X128253456Y-88599350D01*
X128183628Y-88601752D01*
X128126771Y-88569325D01*
X126644627Y-87087181D01*
X126611142Y-87025858D01*
X126616126Y-86956166D01*
X126657998Y-86900233D01*
X126723462Y-86875816D01*
X126732308Y-86875500D01*
X131747507Y-86875500D01*
X131747512Y-86875500D01*
X131850300Y-86864999D01*
X132016836Y-86809815D01*
X132166157Y-86717712D01*
X132222050Y-86661819D01*
X132283373Y-86628334D01*
X132309731Y-86625500D01*
X133300639Y-86625500D01*
X133367678Y-86645185D01*
X133388321Y-86661820D01*
X133425961Y-86699461D01*
X133425965Y-86699464D01*
X133573446Y-86798009D01*
X133573459Y-86798016D01*
X133677359Y-86841052D01*
X133737334Y-86865894D01*
X133737336Y-86865894D01*
X133737341Y-86865896D01*
X133911304Y-86900499D01*
X133911307Y-86900500D01*
X133911309Y-86900500D01*
X134088693Y-86900500D01*
X134088694Y-86900499D01*
X134146682Y-86888964D01*
X134262658Y-86865896D01*
X134262661Y-86865894D01*
X134262666Y-86865894D01*
X134426547Y-86798013D01*
X134574035Y-86699464D01*
X134699464Y-86574035D01*
X134798013Y-86426547D01*
X134865894Y-86262666D01*
X134866913Y-86257547D01*
X134893278Y-86124999D01*
X134900500Y-86088691D01*
X134900500Y-85911309D01*
X134900500Y-85911306D01*
X134900499Y-85911304D01*
X134865896Y-85737341D01*
X134865893Y-85737332D01*
X134798016Y-85573459D01*
X134798009Y-85573446D01*
X134699464Y-85425965D01*
X134699461Y-85425961D01*
X134574038Y-85300538D01*
X134574034Y-85300535D01*
X134426553Y-85201990D01*
X134426540Y-85201983D01*
X134262667Y-85134106D01*
X134262658Y-85134103D01*
X134088694Y-85099500D01*
X134088691Y-85099500D01*
X133911309Y-85099500D01*
X133911306Y-85099500D01*
X133737341Y-85134103D01*
X133737332Y-85134106D01*
X133573459Y-85201983D01*
X133573446Y-85201990D01*
X133425965Y-85300535D01*
X133425961Y-85300538D01*
X133388321Y-85338180D01*
X133326999Y-85371666D01*
X133300639Y-85374500D01*
X132572000Y-85374500D01*
X132504961Y-85354815D01*
X132459206Y-85302011D01*
X132448000Y-85250500D01*
X132448000Y-84154966D01*
X132467685Y-84087927D01*
X132520489Y-84042172D01*
X132589647Y-84032228D01*
X132653203Y-84061253D01*
G37*
%TD.AperFunction*%
%TA.AperFunction,NonConductor*%
G36*
X185241181Y-88170185D02*
G01*
X185274458Y-88201612D01*
X185285586Y-88216928D01*
X185408072Y-88339414D01*
X185408078Y-88339418D01*
X185491023Y-88399683D01*
X185533689Y-88455013D01*
X185539667Y-88524626D01*
X185507061Y-88586421D01*
X185491023Y-88600317D01*
X185408078Y-88660581D01*
X185408069Y-88660588D01*
X185285588Y-88783069D01*
X185285588Y-88783070D01*
X185285586Y-88783072D01*
X185285415Y-88783308D01*
X185183768Y-88923211D01*
X185105128Y-89077552D01*
X185051597Y-89242302D01*
X185024500Y-89413389D01*
X185024500Y-89586610D01*
X185041561Y-89694334D01*
X185051598Y-89757701D01*
X185105127Y-89922445D01*
X185183768Y-90076788D01*
X185285586Y-90216928D01*
X185285588Y-90216930D01*
X185393127Y-90324469D01*
X185426612Y-90385792D01*
X185421628Y-90455484D01*
X185379756Y-90511417D01*
X185370544Y-90517688D01*
X185306344Y-90557287D01*
X185182289Y-90681342D01*
X185182288Y-90681344D01*
X185120025Y-90782290D01*
X185114901Y-90790597D01*
X185062953Y-90837321D01*
X185009362Y-90849500D01*
X183935929Y-90849500D01*
X183810261Y-90874497D01*
X183810255Y-90874499D01*
X183691874Y-90923534D01*
X183585326Y-90994726D01*
X178003374Y-96576678D01*
X177942051Y-96610163D01*
X177894514Y-96610243D01*
X177894487Y-96610514D01*
X177891886Y-96610248D01*
X177889745Y-96610252D01*
X177887755Y-96609826D01*
X177786678Y-96599500D01*
X177213330Y-96599500D01*
X177213312Y-96599501D01*
X177112247Y-96609825D01*
X177105622Y-96611244D01*
X177105289Y-96609692D01*
X177043672Y-96611810D01*
X176983631Y-96576076D01*
X176952441Y-96513555D01*
X176950500Y-96491703D01*
X176950500Y-96379313D01*
X176950499Y-96379298D01*
X176947598Y-96342432D01*
X176947597Y-96342426D01*
X176901745Y-96184606D01*
X176901744Y-96184603D01*
X176901744Y-96184602D01*
X176818081Y-96043135D01*
X176818079Y-96043133D01*
X176818076Y-96043129D01*
X176701870Y-95926923D01*
X176701862Y-95926917D01*
X176560396Y-95843255D01*
X176560393Y-95843254D01*
X176402572Y-95797402D01*
X176398366Y-95796634D01*
X176335957Y-95765220D01*
X176300438Y-95705052D01*
X176303087Y-95635232D01*
X176332971Y-95586974D01*
X177480276Y-94439670D01*
X177551465Y-94333127D01*
X177600501Y-94214744D01*
X177606366Y-94185257D01*
X177625500Y-94089069D01*
X177625500Y-91024499D01*
X177645185Y-90957460D01*
X177697989Y-90911705D01*
X177749500Y-90900499D01*
X177797871Y-90900499D01*
X177797872Y-90900499D01*
X177857483Y-90894091D01*
X177992331Y-90843796D01*
X178107546Y-90757546D01*
X178193796Y-90642331D01*
X178244091Y-90507483D01*
X178250500Y-90447873D01*
X178250499Y-89445806D01*
X178270183Y-89378768D01*
X178286813Y-89358131D01*
X179458127Y-88186819D01*
X179519450Y-88153334D01*
X179545808Y-88150500D01*
X185174142Y-88150500D01*
X185241181Y-88170185D01*
G37*
%TD.AperFunction*%
%TA.AperFunction,NonConductor*%
G36*
X173516974Y-79175984D02*
G01*
X173543334Y-79177870D01*
X173552387Y-79183688D01*
X173559427Y-79185220D01*
X173587681Y-79206371D01*
X173701650Y-79320340D01*
X173848484Y-79410908D01*
X174012247Y-79465174D01*
X174113323Y-79475500D01*
X174416691Y-79475499D01*
X174483730Y-79495183D01*
X174504372Y-79511818D01*
X178813181Y-83820627D01*
X178846666Y-83881950D01*
X178849500Y-83908308D01*
X178849500Y-86904191D01*
X178829815Y-86971230D01*
X178813181Y-86991872D01*
X177241871Y-88563181D01*
X177180548Y-88596666D01*
X177154190Y-88599500D01*
X176152129Y-88599500D01*
X176152123Y-88599501D01*
X176092516Y-88605908D01*
X175957671Y-88656202D01*
X175957664Y-88656206D01*
X175842455Y-88742452D01*
X175842452Y-88742455D01*
X175756206Y-88857664D01*
X175756202Y-88857671D01*
X175705908Y-88992517D01*
X175699501Y-89052116D01*
X175699501Y-89052123D01*
X175699500Y-89052135D01*
X175699500Y-90447870D01*
X175699501Y-90447876D01*
X175705908Y-90507483D01*
X175756202Y-90642328D01*
X175756206Y-90642335D01*
X175842452Y-90757544D01*
X175842455Y-90757547D01*
X175957664Y-90843793D01*
X175957671Y-90843797D01*
X175972962Y-90849500D01*
X176092517Y-90894091D01*
X176152127Y-90900500D01*
X176200500Y-90900499D01*
X176267537Y-90920182D01*
X176313293Y-90972985D01*
X176324500Y-91024499D01*
X176324500Y-93704191D01*
X176304815Y-93771230D01*
X176288181Y-93791872D01*
X174969727Y-95110325D01*
X174969726Y-95110326D01*
X174898535Y-95216873D01*
X174849499Y-95335255D01*
X174849497Y-95335261D01*
X174824500Y-95460928D01*
X174824500Y-95670500D01*
X174804815Y-95737539D01*
X174752011Y-95783294D01*
X174700500Y-95794500D01*
X174584298Y-95794500D01*
X174547432Y-95797401D01*
X174547426Y-95797402D01*
X174389606Y-95843254D01*
X174389603Y-95843255D01*
X174248137Y-95926917D01*
X174248129Y-95926923D01*
X174131923Y-96043129D01*
X174131917Y-96043137D01*
X174048255Y-96184603D01*
X174048254Y-96184606D01*
X174002402Y-96342426D01*
X174002401Y-96342432D01*
X173999500Y-96379298D01*
X173999500Y-96540092D01*
X173979815Y-96607131D01*
X173963181Y-96627773D01*
X173412773Y-97178181D01*
X173351450Y-97211666D01*
X173325092Y-97214500D01*
X172045476Y-97214500D01*
X171978437Y-97194815D01*
X171932682Y-97142011D01*
X171922738Y-97072853D01*
X171938742Y-97027382D01*
X171951744Y-97005398D01*
X171963977Y-96963294D01*
X171997597Y-96847573D01*
X171997598Y-96847567D01*
X172000499Y-96810701D01*
X172000500Y-96810694D01*
X172000500Y-96379306D01*
X171997598Y-96342431D01*
X171989636Y-96315027D01*
X171951745Y-96184606D01*
X171951744Y-96184603D01*
X171951744Y-96184602D01*
X171868081Y-96043135D01*
X171868079Y-96043133D01*
X171868076Y-96043129D01*
X171751870Y-95926923D01*
X171751862Y-95926917D01*
X171610396Y-95843255D01*
X171610393Y-95843254D01*
X171452573Y-95797402D01*
X171452567Y-95797401D01*
X171415701Y-95794500D01*
X171415694Y-95794500D01*
X169634306Y-95794500D01*
X169634298Y-95794500D01*
X169597432Y-95797401D01*
X169597426Y-95797402D01*
X169439606Y-95843254D01*
X169439603Y-95843255D01*
X169297605Y-95927232D01*
X169234484Y-95944500D01*
X159896304Y-95944500D01*
X159829265Y-95924815D01*
X159808623Y-95908181D01*
X155837622Y-91937180D01*
X155804137Y-91875857D01*
X155809121Y-91806165D01*
X155850993Y-91750232D01*
X155916457Y-91725815D01*
X155925303Y-91725499D01*
X156360871Y-91725499D01*
X156360872Y-91725499D01*
X156420483Y-91719091D01*
X156555331Y-91668796D01*
X156555333Y-91668793D01*
X156561058Y-91665669D01*
X156620487Y-91650500D01*
X163339071Y-91650500D01*
X163423615Y-91633682D01*
X163464744Y-91625501D01*
X163583127Y-91576465D01*
X163601679Y-91564069D01*
X163689669Y-91505277D01*
X166142811Y-89052135D01*
X167749500Y-89052135D01*
X167749500Y-90447870D01*
X167749501Y-90447876D01*
X167755908Y-90507483D01*
X167806202Y-90642328D01*
X167806206Y-90642335D01*
X167892452Y-90757544D01*
X167892455Y-90757547D01*
X168007664Y-90843793D01*
X168007671Y-90843797D01*
X168142517Y-90894091D01*
X168142516Y-90894091D01*
X168149444Y-90894835D01*
X168202127Y-90900500D01*
X169847872Y-90900499D01*
X169907483Y-90894091D01*
X170042331Y-90843796D01*
X170157546Y-90757546D01*
X170243796Y-90642331D01*
X170294091Y-90507483D01*
X170300500Y-90447873D01*
X170300499Y-89052128D01*
X170294091Y-88992517D01*
X170243796Y-88857669D01*
X170243795Y-88857668D01*
X170243793Y-88857664D01*
X170157547Y-88742455D01*
X170157544Y-88742452D01*
X170042335Y-88656206D01*
X170042328Y-88656202D01*
X169907482Y-88605908D01*
X169907483Y-88605908D01*
X169847883Y-88599501D01*
X169847881Y-88599500D01*
X169847873Y-88599500D01*
X169847864Y-88599500D01*
X168202129Y-88599500D01*
X168202123Y-88599501D01*
X168142516Y-88605908D01*
X168007671Y-88656202D01*
X168007664Y-88656206D01*
X167892455Y-88742452D01*
X167892452Y-88742455D01*
X167806206Y-88857664D01*
X167806202Y-88857671D01*
X167755908Y-88992517D01*
X167749501Y-89052116D01*
X167749501Y-89052123D01*
X167749500Y-89052135D01*
X166142811Y-89052135D01*
X166271734Y-88923212D01*
X168758127Y-86436818D01*
X168819450Y-86403333D01*
X168845808Y-86400499D01*
X169847871Y-86400499D01*
X169847872Y-86400499D01*
X169907483Y-86394091D01*
X170042331Y-86343796D01*
X170157546Y-86257546D01*
X170243796Y-86142331D01*
X170294091Y-86007483D01*
X170300500Y-85947873D01*
X170300499Y-84552135D01*
X175699500Y-84552135D01*
X175699500Y-85947870D01*
X175699501Y-85947876D01*
X175705908Y-86007483D01*
X175756202Y-86142328D01*
X175756206Y-86142335D01*
X175842452Y-86257544D01*
X175842455Y-86257547D01*
X175957664Y-86343793D01*
X175957671Y-86343797D01*
X176092517Y-86394091D01*
X176092516Y-86394091D01*
X176099444Y-86394835D01*
X176152127Y-86400500D01*
X177797872Y-86400499D01*
X177857483Y-86394091D01*
X177992331Y-86343796D01*
X178107546Y-86257546D01*
X178193796Y-86142331D01*
X178244091Y-86007483D01*
X178250500Y-85947873D01*
X178250499Y-84552128D01*
X178244842Y-84499500D01*
X178244091Y-84492516D01*
X178193797Y-84357671D01*
X178193793Y-84357664D01*
X178107547Y-84242455D01*
X178107544Y-84242452D01*
X177992335Y-84156206D01*
X177992328Y-84156202D01*
X177857482Y-84105908D01*
X177857483Y-84105908D01*
X177797883Y-84099501D01*
X177797881Y-84099500D01*
X177797873Y-84099500D01*
X177797864Y-84099500D01*
X176152129Y-84099500D01*
X176152123Y-84099501D01*
X176092516Y-84105908D01*
X175957671Y-84156202D01*
X175957664Y-84156206D01*
X175842455Y-84242452D01*
X175842452Y-84242455D01*
X175756206Y-84357664D01*
X175756202Y-84357671D01*
X175705908Y-84492517D01*
X175699501Y-84552116D01*
X175699501Y-84552123D01*
X175699500Y-84552135D01*
X170300499Y-84552135D01*
X170300499Y-84552128D01*
X170294842Y-84499500D01*
X170294091Y-84492516D01*
X170243797Y-84357671D01*
X170243793Y-84357664D01*
X170157547Y-84242455D01*
X170157544Y-84242452D01*
X170042335Y-84156206D01*
X170042328Y-84156202D01*
X169907482Y-84105908D01*
X169907483Y-84105908D01*
X169847883Y-84099501D01*
X169847881Y-84099500D01*
X169847873Y-84099500D01*
X169847864Y-84099500D01*
X168202129Y-84099500D01*
X168202123Y-84099501D01*
X168142516Y-84105908D01*
X168007671Y-84156202D01*
X168007664Y-84156206D01*
X167892455Y-84242452D01*
X167892452Y-84242455D01*
X167806206Y-84357664D01*
X167806202Y-84357671D01*
X167755908Y-84492517D01*
X167749501Y-84552116D01*
X167749501Y-84552123D01*
X167749500Y-84552135D01*
X167749500Y-85554191D01*
X167729815Y-85621230D01*
X167713181Y-85641872D01*
X163041873Y-90313181D01*
X162980550Y-90346666D01*
X162954192Y-90349500D01*
X158639808Y-90349500D01*
X158572769Y-90329815D01*
X158527014Y-90277011D01*
X158517070Y-90207853D01*
X158546095Y-90144297D01*
X158552127Y-90137819D01*
X169178127Y-79511818D01*
X169239450Y-79478333D01*
X169265808Y-79475499D01*
X169606670Y-79475499D01*
X169606676Y-79475499D01*
X169707753Y-79465174D01*
X169871516Y-79410908D01*
X170018350Y-79320340D01*
X170057319Y-79281371D01*
X170118642Y-79247886D01*
X170188334Y-79252870D01*
X170232681Y-79281371D01*
X170271650Y-79320340D01*
X170418484Y-79410908D01*
X170582247Y-79465174D01*
X170683323Y-79475500D01*
X171356676Y-79475499D01*
X171356684Y-79475498D01*
X171356687Y-79475498D01*
X171412030Y-79469844D01*
X171457753Y-79465174D01*
X171621516Y-79410908D01*
X171757403Y-79327091D01*
X171824795Y-79308651D01*
X171887597Y-79327092D01*
X172023475Y-79410903D01*
X172023478Y-79410904D01*
X172023484Y-79410908D01*
X172187247Y-79465174D01*
X172288323Y-79475500D01*
X172886676Y-79475499D01*
X172886684Y-79475498D01*
X172886687Y-79475498D01*
X172942030Y-79469844D01*
X172987753Y-79465174D01*
X173151516Y-79410908D01*
X173298350Y-79320340D01*
X173412319Y-79206371D01*
X173420264Y-79202032D01*
X173425690Y-79194785D01*
X173450449Y-79185550D01*
X173473642Y-79172886D01*
X173482671Y-79173531D01*
X173491154Y-79170368D01*
X173516974Y-79175984D01*
G37*
%TD.AperFunction*%
%TA.AperFunction,NonConductor*%
G36*
X130219454Y-95514801D02*
G01*
X130245539Y-95544906D01*
X130305189Y-95641616D01*
X130337288Y-95693656D01*
X130461344Y-95817712D01*
X130610666Y-95909814D01*
X130777203Y-95964999D01*
X130879991Y-95975500D01*
X131680008Y-95975499D01*
X131680016Y-95975498D01*
X131680019Y-95975498D01*
X131736302Y-95969748D01*
X131782797Y-95964999D01*
X131949334Y-95909814D01*
X132098656Y-95817712D01*
X132222712Y-95693656D01*
X132294962Y-95576518D01*
X132346908Y-95529795D01*
X132415871Y-95518572D01*
X132479953Y-95546415D01*
X132518810Y-95604484D01*
X132524500Y-95641616D01*
X132524500Y-95936668D01*
X132524501Y-95936687D01*
X132534825Y-96037752D01*
X132571109Y-96147249D01*
X132589092Y-96201516D01*
X132644876Y-96291957D01*
X132679661Y-96348351D01*
X132793629Y-96462319D01*
X132827114Y-96523642D01*
X132822130Y-96593334D01*
X132793629Y-96637681D01*
X132679661Y-96751648D01*
X132589093Y-96898481D01*
X132589092Y-96898484D01*
X132534826Y-97062247D01*
X132534826Y-97062248D01*
X132534825Y-97062248D01*
X132524500Y-97163315D01*
X132524500Y-97275955D01*
X132504815Y-97342994D01*
X132452011Y-97388749D01*
X132382853Y-97398693D01*
X132319297Y-97369668D01*
X132294962Y-97341052D01*
X132242714Y-97256346D01*
X132242711Y-97256342D01*
X132118657Y-97132288D01*
X132118653Y-97132285D01*
X131969344Y-97040189D01*
X131969338Y-97040186D01*
X131969336Y-97040185D01*
X131864337Y-97005392D01*
X131802801Y-96985001D01*
X131700019Y-96974500D01*
X131700012Y-96974500D01*
X129774500Y-96974500D01*
X129707461Y-96954815D01*
X129661706Y-96902011D01*
X129650500Y-96850500D01*
X129650500Y-95990638D01*
X129670185Y-95923599D01*
X129709401Y-95885100D01*
X129818656Y-95817712D01*
X129942712Y-95693656D01*
X130034461Y-95544905D01*
X130086409Y-95498181D01*
X130155371Y-95486958D01*
X130219454Y-95514801D01*
G37*
%TD.AperFunction*%
%TA.AperFunction,NonConductor*%
G36*
X154830702Y-92770598D02*
G01*
X154837180Y-92776630D01*
X159154190Y-97093641D01*
X159154192Y-97093642D01*
X159160827Y-97100277D01*
X159267370Y-97171466D01*
X159316638Y-97191873D01*
X159385752Y-97220501D01*
X159385756Y-97220501D01*
X159385757Y-97220502D01*
X159511424Y-97245500D01*
X159511427Y-97245500D01*
X159511428Y-97245500D01*
X159639565Y-97245500D01*
X169004524Y-97245500D01*
X169071563Y-97265185D01*
X169117318Y-97317989D01*
X169127262Y-97387147D01*
X169111257Y-97432617D01*
X169098734Y-97453792D01*
X169098253Y-97454607D01*
X169052402Y-97612426D01*
X169052401Y-97612432D01*
X169049500Y-97649298D01*
X169049500Y-98080701D01*
X169052401Y-98117567D01*
X169052402Y-98117573D01*
X169098253Y-98275392D01*
X169098255Y-98275396D01*
X169098256Y-98275398D01*
X169111256Y-98297381D01*
X169128439Y-98365102D01*
X169106280Y-98431365D01*
X169051814Y-98475128D01*
X169004524Y-98484500D01*
X157459586Y-98484500D01*
X157392547Y-98464815D01*
X157346792Y-98412011D01*
X157336848Y-98342853D01*
X157345023Y-98313052D01*
X157365894Y-98262666D01*
X157367088Y-98256666D01*
X157394756Y-98117567D01*
X157400500Y-98088691D01*
X157400500Y-97911309D01*
X157400500Y-97911306D01*
X157400499Y-97911304D01*
X157365896Y-97737341D01*
X157365893Y-97737332D01*
X157298016Y-97573459D01*
X157298009Y-97573446D01*
X157199464Y-97425965D01*
X157199461Y-97425961D01*
X157074038Y-97300538D01*
X157074034Y-97300535D01*
X156926553Y-97201990D01*
X156926540Y-97201983D01*
X156762667Y-97134106D01*
X156762658Y-97134103D01*
X156588694Y-97099500D01*
X156588691Y-97099500D01*
X156570808Y-97099500D01*
X156503769Y-97079815D01*
X156483127Y-97063181D01*
X154224319Y-94804373D01*
X154190834Y-94743050D01*
X154188000Y-94716692D01*
X154188000Y-94232927D01*
X154207685Y-94165888D01*
X154246901Y-94127390D01*
X154343656Y-94067712D01*
X154467712Y-93943656D01*
X154559814Y-93794334D01*
X154614999Y-93627797D01*
X154625500Y-93525009D01*
X154625499Y-92864309D01*
X154645183Y-92797272D01*
X154697987Y-92751517D01*
X154767146Y-92741573D01*
X154830702Y-92770598D01*
G37*
%TD.AperFunction*%
%TA.AperFunction,NonConductor*%
G36*
X148380834Y-91141624D02*
G01*
X148436767Y-91183496D01*
X148461184Y-91248960D01*
X148461500Y-91257799D01*
X148461500Y-91272866D01*
X148461501Y-91272876D01*
X148467908Y-91332483D01*
X148518202Y-91467328D01*
X148518206Y-91467335D01*
X148604452Y-91582544D01*
X148604455Y-91582547D01*
X148719664Y-91668793D01*
X148719671Y-91668797D01*
X148854517Y-91719091D01*
X148854516Y-91719091D01*
X148861444Y-91719835D01*
X148914127Y-91725500D01*
X149809068Y-91725499D01*
X149876107Y-91745183D01*
X149921862Y-91797987D01*
X149931806Y-91867146D01*
X149912170Y-91918389D01*
X149897535Y-91940290D01*
X149848499Y-92058675D01*
X149848497Y-92058681D01*
X149823500Y-92184348D01*
X149823500Y-92184351D01*
X149823500Y-93815649D01*
X149838752Y-93892324D01*
X149848499Y-93941324D01*
X149897535Y-94059707D01*
X149965825Y-94161912D01*
X149968726Y-94166253D01*
X150433745Y-94631272D01*
X150433752Y-94631278D01*
X150529531Y-94695275D01*
X150529532Y-94695275D01*
X150533135Y-94697682D01*
X150540293Y-94702465D01*
X150658676Y-94751501D01*
X150658680Y-94751501D01*
X150658681Y-94751502D01*
X150784348Y-94776500D01*
X150784351Y-94776500D01*
X152140651Y-94776500D01*
X152225195Y-94759682D01*
X152266324Y-94751501D01*
X152384707Y-94702465D01*
X152393303Y-94696720D01*
X152395468Y-94695275D01*
X152448523Y-94659825D01*
X152491249Y-94631277D01*
X152675319Y-94447207D01*
X152736642Y-94413722D01*
X152806333Y-94418706D01*
X152862267Y-94460577D01*
X152886684Y-94526042D01*
X152887000Y-94534888D01*
X152887000Y-95101571D01*
X152909936Y-95216873D01*
X152909937Y-95216877D01*
X152911998Y-95227242D01*
X152931784Y-95275008D01*
X152961035Y-95345627D01*
X153007446Y-95415087D01*
X153032226Y-95452173D01*
X153032227Y-95452174D01*
X155563181Y-97983127D01*
X155596666Y-98044450D01*
X155599500Y-98070808D01*
X155599500Y-98088695D01*
X155634103Y-98262658D01*
X155634105Y-98262663D01*
X155634106Y-98262666D01*
X155654975Y-98313049D01*
X155662444Y-98382517D01*
X155631169Y-98444996D01*
X155571080Y-98480648D01*
X155540414Y-98484500D01*
X142024500Y-98484500D01*
X141957461Y-98464815D01*
X141911706Y-98412011D01*
X141900500Y-98360500D01*
X141900500Y-98196306D01*
X141900499Y-98196304D01*
X141865896Y-98022341D01*
X141865893Y-98022332D01*
X141798016Y-97858459D01*
X141798014Y-97858456D01*
X141798013Y-97858453D01*
X141759810Y-97801280D01*
X141738934Y-97734607D01*
X141757418Y-97667226D01*
X141775229Y-97644715D01*
X148249821Y-91170123D01*
X148311142Y-91136640D01*
X148380834Y-91141624D01*
G37*
%TD.AperFunction*%
%TA.AperFunction,NonConductor*%
G36*
X132605703Y-98064284D02*
G01*
X132630037Y-98092899D01*
X132654593Y-98132710D01*
X132679659Y-98173349D01*
X132718629Y-98212319D01*
X132752114Y-98273642D01*
X132747130Y-98343334D01*
X132730166Y-98374376D01*
X132724872Y-98381437D01*
X132679660Y-98426650D01*
X132627089Y-98511880D01*
X132623718Y-98516378D01*
X132600057Y-98534065D01*
X132578091Y-98553823D01*
X132572386Y-98554751D01*
X132567757Y-98558212D01*
X132538289Y-98560300D01*
X132509128Y-98565046D01*
X132503826Y-98562742D01*
X132498062Y-98563151D01*
X132472143Y-98548976D01*
X132445046Y-98537202D01*
X132441831Y-98532398D01*
X132436761Y-98529625D01*
X132422618Y-98503685D01*
X132406190Y-98479133D01*
X132405000Y-98471369D01*
X132403316Y-98468280D01*
X132403703Y-98462908D01*
X132400500Y-98442002D01*
X132400500Y-98157997D01*
X132420185Y-98090958D01*
X132472989Y-98045203D01*
X132542147Y-98035259D01*
X132605703Y-98064284D01*
G37*
%TD.AperFunction*%
%TA.AperFunction,NonConductor*%
G36*
X185076401Y-92170185D02*
G01*
X185114899Y-92209401D01*
X185182288Y-92318656D01*
X185306344Y-92442712D01*
X185455666Y-92534814D01*
X185622203Y-92589999D01*
X185724991Y-92600500D01*
X186053484Y-92600499D01*
X186120522Y-92620183D01*
X186166277Y-92672987D01*
X186176221Y-92742146D01*
X186147196Y-92805701D01*
X186141164Y-92812180D01*
X180227665Y-98725681D01*
X180166342Y-98759166D01*
X180139984Y-98762000D01*
X178426771Y-98762000D01*
X178359732Y-98742315D01*
X178337396Y-98723954D01*
X178328198Y-98714390D01*
X178320340Y-98701650D01*
X178205506Y-98586816D01*
X178204677Y-98585954D01*
X178189066Y-98555990D01*
X178172886Y-98526358D01*
X178172975Y-98525104D01*
X178172395Y-98523990D01*
X178175460Y-98490351D01*
X178177870Y-98456666D01*
X178178640Y-98455467D01*
X178178737Y-98454409D01*
X178182061Y-98450143D01*
X178206371Y-98412319D01*
X178258190Y-98360500D01*
X178320340Y-98298350D01*
X178410908Y-98151516D01*
X178465174Y-97987753D01*
X178465175Y-97987740D01*
X178466485Y-97981623D01*
X178499757Y-97920187D01*
X184233127Y-92186819D01*
X184294450Y-92153334D01*
X184320808Y-92150500D01*
X185009362Y-92150500D01*
X185076401Y-92170185D01*
G37*
%TD.AperFunction*%
%TA.AperFunction,NonConductor*%
G36*
X140059731Y-96307685D02*
G01*
X140105486Y-96360489D01*
X140115430Y-96429647D01*
X140086405Y-96493203D01*
X140080373Y-96499681D01*
X139266873Y-97313181D01*
X139239945Y-97327884D01*
X139214127Y-97344477D01*
X139207926Y-97345368D01*
X139205550Y-97346666D01*
X139179192Y-97349500D01*
X139174362Y-97349500D01*
X139107323Y-97329815D01*
X139086681Y-97313181D01*
X139074038Y-97300538D01*
X139074034Y-97300535D01*
X138926553Y-97201990D01*
X138926540Y-97201983D01*
X138762667Y-97134106D01*
X138762658Y-97134103D01*
X138588694Y-97099500D01*
X138588691Y-97099500D01*
X138411309Y-97099500D01*
X138411306Y-97099500D01*
X138237341Y-97134103D01*
X138237332Y-97134106D01*
X138073459Y-97201983D01*
X138073446Y-97201990D01*
X137925965Y-97300535D01*
X137925961Y-97300538D01*
X137800538Y-97425961D01*
X137800535Y-97425965D01*
X137701990Y-97573446D01*
X137701983Y-97573459D01*
X137634106Y-97737332D01*
X137634103Y-97737341D01*
X137599500Y-97911304D01*
X137599500Y-98088695D01*
X137634103Y-98262658D01*
X137634105Y-98262663D01*
X137634106Y-98262666D01*
X137654975Y-98313049D01*
X137662444Y-98382517D01*
X137631169Y-98444996D01*
X137571080Y-98480648D01*
X137540414Y-98484500D01*
X135225929Y-98484500D01*
X135100261Y-98509497D01*
X135100255Y-98509499D01*
X134981870Y-98558535D01*
X134875331Y-98629722D01*
X134875324Y-98629728D01*
X134677743Y-98827309D01*
X134616420Y-98860794D01*
X134546728Y-98855810D01*
X134490795Y-98813938D01*
X134466704Y-98752227D01*
X134465174Y-98737247D01*
X134453378Y-98701650D01*
X134410908Y-98573484D01*
X134320340Y-98426650D01*
X134281371Y-98387681D01*
X134247886Y-98326358D01*
X134252870Y-98256666D01*
X134281371Y-98212319D01*
X134297386Y-98196304D01*
X134320340Y-98173350D01*
X134410908Y-98026516D01*
X134465174Y-97862753D01*
X134475500Y-97761677D01*
X134475499Y-97163324D01*
X134472514Y-97134106D01*
X134465174Y-97062247D01*
X134436097Y-96974500D01*
X134410908Y-96898484D01*
X134320340Y-96751650D01*
X134206371Y-96637681D01*
X134202616Y-96630804D01*
X134196253Y-96626232D01*
X134186107Y-96600571D01*
X134172886Y-96576358D01*
X134173444Y-96568543D01*
X134170564Y-96561257D01*
X134175901Y-96534186D01*
X134177870Y-96506666D01*
X134182907Y-96498656D01*
X134184081Y-96492707D01*
X134202106Y-96468132D01*
X134204677Y-96464046D01*
X134205506Y-96463183D01*
X134320340Y-96348350D01*
X134328198Y-96335609D01*
X134337396Y-96326046D01*
X134356671Y-96315027D01*
X134373180Y-96300179D01*
X134388893Y-96296607D01*
X134398055Y-96291371D01*
X134409355Y-96291957D01*
X134426771Y-96288000D01*
X139992692Y-96288000D01*
X140059731Y-96307685D01*
G37*
%TD.AperFunction*%
%TA.AperFunction,NonConductor*%
G36*
X173980537Y-98552821D02*
G01*
X174036470Y-98594693D01*
X174060887Y-98660157D01*
X174051005Y-98718248D01*
X174048255Y-98724602D01*
X174002402Y-98882426D01*
X174002401Y-98882432D01*
X173999500Y-98919298D01*
X173999500Y-99350701D01*
X174002401Y-99387567D01*
X174002402Y-99387573D01*
X174048254Y-99545393D01*
X174048255Y-99545396D01*
X174131917Y-99686862D01*
X174136702Y-99693031D01*
X174134256Y-99694927D01*
X174160857Y-99743642D01*
X174155873Y-99813334D01*
X174135069Y-99845703D01*
X174136702Y-99846969D01*
X174131917Y-99853137D01*
X174048255Y-99994603D01*
X174048254Y-99994606D01*
X174002402Y-100152426D01*
X174002401Y-100152432D01*
X173999500Y-100189298D01*
X173999500Y-100620701D01*
X174002401Y-100657567D01*
X174002402Y-100657573D01*
X174048254Y-100815393D01*
X174048256Y-100815398D01*
X174048260Y-100815405D01*
X174048261Y-100815410D01*
X174051353Y-100822554D01*
X174050199Y-100823053D01*
X174065439Y-100883130D01*
X174043277Y-100949391D01*
X174029206Y-100966202D01*
X173757227Y-101238181D01*
X173695904Y-101271666D01*
X173669551Y-101274500D01*
X173650000Y-101274500D01*
X173649981Y-101274501D01*
X173547202Y-101285001D01*
X173547200Y-101285001D01*
X173380668Y-101340185D01*
X173380663Y-101340187D01*
X173231342Y-101432289D01*
X173107285Y-101556346D01*
X173105537Y-101559182D01*
X173103829Y-101560717D01*
X173102807Y-101562011D01*
X173102585Y-101561836D01*
X173053589Y-101605905D01*
X172984626Y-101617126D01*
X172920544Y-101589282D01*
X172894463Y-101559182D01*
X172892714Y-101556346D01*
X172768657Y-101432289D01*
X172768656Y-101432288D01*
X172671902Y-101372610D01*
X172625179Y-101320663D01*
X172613000Y-101267072D01*
X172613000Y-99869207D01*
X172632685Y-99802168D01*
X172649314Y-99781531D01*
X173849524Y-98581320D01*
X173910845Y-98547837D01*
X173980537Y-98552821D01*
G37*
%TD.AperFunction*%
%TA.AperFunction,NonConductor*%
G36*
X121568731Y-87670185D02*
G01*
X121589373Y-87686819D01*
X125273181Y-91370627D01*
X125306666Y-91431950D01*
X125309500Y-91458308D01*
X125309500Y-92100001D01*
X125309501Y-92100019D01*
X125320000Y-92202796D01*
X125320001Y-92202799D01*
X125375185Y-92369331D01*
X125375187Y-92369336D01*
X125389470Y-92392492D01*
X125467288Y-92518656D01*
X125591344Y-92642712D01*
X125740666Y-92734814D01*
X125740668Y-92734815D01*
X125761064Y-92741573D01*
X125799502Y-92754310D01*
X125819534Y-92768179D01*
X125841703Y-92778303D01*
X125847751Y-92787714D01*
X125856947Y-92794081D01*
X125866302Y-92816580D01*
X125879477Y-92837081D01*
X125881935Y-92854178D01*
X125883772Y-92858596D01*
X125884500Y-92872016D01*
X125884500Y-92897770D01*
X125864815Y-92964809D01*
X125848181Y-92985451D01*
X125777289Y-93056342D01*
X125685187Y-93205663D01*
X125685186Y-93205666D01*
X125630001Y-93372203D01*
X125630001Y-93372204D01*
X125630000Y-93372204D01*
X125619500Y-93474983D01*
X125619500Y-95275001D01*
X125619501Y-95275018D01*
X125630000Y-95377796D01*
X125630001Y-95377799D01*
X125685185Y-95544331D01*
X125685187Y-95544336D01*
X125705038Y-95576520D01*
X125777288Y-95693656D01*
X125901344Y-95817712D01*
X126050666Y-95909814D01*
X126217203Y-95964999D01*
X126319991Y-95975500D01*
X127120008Y-95975499D01*
X127120016Y-95975498D01*
X127120019Y-95975498D01*
X127176302Y-95969748D01*
X127222797Y-95964999D01*
X127389334Y-95909814D01*
X127538656Y-95817712D01*
X127662712Y-95693656D01*
X127754461Y-95544905D01*
X127806409Y-95498181D01*
X127875371Y-95486958D01*
X127939454Y-95514801D01*
X127965539Y-95544906D01*
X128025189Y-95641616D01*
X128057288Y-95693656D01*
X128181344Y-95817712D01*
X128290597Y-95885099D01*
X128337321Y-95937047D01*
X128349500Y-95990638D01*
X128349500Y-96850500D01*
X128329815Y-96917539D01*
X128277011Y-96963294D01*
X128225500Y-96974500D01*
X126299980Y-96974500D01*
X126197198Y-96985001D01*
X126030666Y-97040184D01*
X126030655Y-97040189D01*
X125881346Y-97132285D01*
X125881342Y-97132288D01*
X125757288Y-97256342D01*
X125757285Y-97256346D01*
X125665189Y-97405655D01*
X125665184Y-97405666D01*
X125610001Y-97572198D01*
X125599500Y-97674980D01*
X125599500Y-102582774D01*
X125579815Y-102649813D01*
X125527011Y-102695568D01*
X125457853Y-102705512D01*
X125394297Y-102676487D01*
X125387819Y-102670455D01*
X116809819Y-94092455D01*
X116776334Y-94031132D01*
X116773500Y-94004774D01*
X116773500Y-87904204D01*
X116793185Y-87837165D01*
X116845989Y-87791410D01*
X116915147Y-87781466D01*
X116978703Y-87810491D01*
X116985181Y-87816523D01*
X117008072Y-87839414D01*
X117148212Y-87941232D01*
X117302555Y-88019873D01*
X117467299Y-88073402D01*
X117638389Y-88100500D01*
X117638390Y-88100500D01*
X118361610Y-88100500D01*
X118361611Y-88100500D01*
X118532701Y-88073402D01*
X118697445Y-88019873D01*
X118851788Y-87941232D01*
X118991928Y-87839414D01*
X119114414Y-87716928D01*
X119125541Y-87701612D01*
X119180872Y-87658948D01*
X119225858Y-87650500D01*
X121501692Y-87650500D01*
X121568731Y-87670185D01*
G37*
%TD.AperFunction*%
%TA.AperFunction,NonConductor*%
G36*
X167729442Y-99805185D02*
G01*
X167775197Y-99857989D01*
X167785141Y-99927147D01*
X167765505Y-99978391D01*
X167701990Y-100073446D01*
X167701983Y-100073459D01*
X167634106Y-100237332D01*
X167634103Y-100237341D01*
X167599500Y-100411304D01*
X167599500Y-100588695D01*
X167634103Y-100762658D01*
X167634106Y-100762667D01*
X167701983Y-100926540D01*
X167701990Y-100926553D01*
X167800535Y-101074034D01*
X167800538Y-101074038D01*
X167925961Y-101199461D01*
X167925965Y-101199464D01*
X168073446Y-101298009D01*
X168073459Y-101298016D01*
X168139813Y-101325500D01*
X168237334Y-101365894D01*
X168237336Y-101365894D01*
X168237341Y-101365896D01*
X168411304Y-101400499D01*
X168411307Y-101400500D01*
X168411309Y-101400500D01*
X168588693Y-101400500D01*
X168588694Y-101400499D01*
X168646682Y-101388964D01*
X168762658Y-101365896D01*
X168762661Y-101365894D01*
X168762666Y-101365894D01*
X168926547Y-101298013D01*
X169074035Y-101199464D01*
X169074038Y-101199461D01*
X169086681Y-101186819D01*
X169113608Y-101172115D01*
X169139427Y-101155523D01*
X169145627Y-101154631D01*
X169148004Y-101153334D01*
X169174362Y-101150500D01*
X169400461Y-101150500D01*
X169435056Y-101155424D01*
X169597426Y-101202597D01*
X169597429Y-101202597D01*
X169597431Y-101202598D01*
X169634306Y-101205500D01*
X171086788Y-101205500D01*
X171153827Y-101225185D01*
X171199582Y-101277989D01*
X171209526Y-101347147D01*
X171180501Y-101410703D01*
X171161357Y-101426981D01*
X171162011Y-101427807D01*
X171156343Y-101432288D01*
X171032289Y-101556342D01*
X170940187Y-101705663D01*
X170940186Y-101705666D01*
X170920689Y-101764505D01*
X170880916Y-101821949D01*
X170816400Y-101848772D01*
X170802983Y-101849500D01*
X167895929Y-101849500D01*
X167770261Y-101874497D01*
X167770255Y-101874499D01*
X167651874Y-101923534D01*
X167545326Y-101994726D01*
X160430710Y-109109342D01*
X160369387Y-109142827D01*
X160321245Y-109142315D01*
X160321055Y-109143516D01*
X160216111Y-109126894D01*
X160106287Y-109109500D01*
X159893713Y-109109500D01*
X159845042Y-109117208D01*
X159683760Y-109142753D01*
X159683757Y-109142754D01*
X159558481Y-109183459D01*
X159481585Y-109208444D01*
X159292179Y-109304951D01*
X159120213Y-109429890D01*
X158969890Y-109580213D01*
X158842085Y-109756125D01*
X158840740Y-109755148D01*
X158794295Y-109797166D01*
X158740382Y-109809500D01*
X157259618Y-109809500D01*
X157192579Y-109789815D01*
X157158900Y-109755408D01*
X157157915Y-109756125D01*
X157030109Y-109580213D01*
X156879786Y-109429890D01*
X156707820Y-109304951D01*
X156518414Y-109208444D01*
X156518413Y-109208443D01*
X156518412Y-109208443D01*
X156316243Y-109142754D01*
X156316241Y-109142753D01*
X156316240Y-109142753D01*
X156154957Y-109117208D01*
X156106287Y-109109500D01*
X155893713Y-109109500D01*
X155845042Y-109117208D01*
X155683760Y-109142753D01*
X155683757Y-109142754D01*
X155558481Y-109183459D01*
X155481585Y-109208444D01*
X155292179Y-109304951D01*
X155120213Y-109429890D01*
X154969890Y-109580213D01*
X154844951Y-109752179D01*
X154748444Y-109941585D01*
X154682753Y-110143760D01*
X154649500Y-110353713D01*
X154649500Y-110430191D01*
X154629815Y-110497230D01*
X154577011Y-110542985D01*
X154507853Y-110552929D01*
X154444297Y-110523904D01*
X154437819Y-110517872D01*
X153024673Y-109104726D01*
X153024669Y-109104723D01*
X152918127Y-109033535D01*
X152799744Y-108984499D01*
X152799738Y-108984497D01*
X152674071Y-108959500D01*
X152674069Y-108959500D01*
X141815403Y-108959500D01*
X141748364Y-108939815D01*
X141727722Y-108923181D01*
X141715079Y-108910538D01*
X141715075Y-108910535D01*
X141567594Y-108811990D01*
X141567581Y-108811983D01*
X141403708Y-108744106D01*
X141403699Y-108744103D01*
X141229735Y-108709500D01*
X141229732Y-108709500D01*
X141052350Y-108709500D01*
X141052347Y-108709500D01*
X140878382Y-108744103D01*
X140878373Y-108744106D01*
X140714500Y-108811983D01*
X140714487Y-108811990D01*
X140567006Y-108910535D01*
X140567002Y-108910538D01*
X140441579Y-109035961D01*
X140441576Y-109035965D01*
X140343031Y-109183446D01*
X140343024Y-109183459D01*
X140292703Y-109304949D01*
X140276626Y-109343765D01*
X140275149Y-109347330D01*
X140275144Y-109347341D01*
X140240541Y-109521304D01*
X140240541Y-109698695D01*
X140275144Y-109872658D01*
X140275147Y-109872667D01*
X140340061Y-110029383D01*
X140349500Y-110076835D01*
X140349500Y-112774142D01*
X140329815Y-112841181D01*
X140298387Y-112874459D01*
X140283072Y-112885585D01*
X140160588Y-113008069D01*
X140160581Y-113008078D01*
X140100317Y-113091023D01*
X140044987Y-113133689D01*
X139975374Y-113139667D01*
X139913579Y-113107061D01*
X139899683Y-113091023D01*
X139839418Y-113008078D01*
X139839414Y-113008072D01*
X139716928Y-112885586D01*
X139701612Y-112874458D01*
X139658948Y-112819128D01*
X139650500Y-112774142D01*
X139650500Y-111432670D01*
X139670185Y-111365631D01*
X139671398Y-111363779D01*
X139696972Y-111325506D01*
X139764853Y-111161625D01*
X139775023Y-111110500D01*
X139799458Y-110987654D01*
X139799459Y-110987652D01*
X139799459Y-110810265D01*
X139799458Y-110810263D01*
X139764855Y-110636300D01*
X139764852Y-110636291D01*
X139696975Y-110472418D01*
X139696968Y-110472405D01*
X139598423Y-110324924D01*
X139598420Y-110324920D01*
X139472997Y-110199497D01*
X139472993Y-110199494D01*
X139325512Y-110100949D01*
X139325499Y-110100942D01*
X139161626Y-110033065D01*
X139161617Y-110033062D01*
X138987653Y-109998459D01*
X138987650Y-109998459D01*
X138810268Y-109998459D01*
X138810265Y-109998459D01*
X138636300Y-110033062D01*
X138636291Y-110033065D01*
X138472418Y-110100942D01*
X138472405Y-110100949D01*
X138324924Y-110199494D01*
X138324920Y-110199497D01*
X138199497Y-110324920D01*
X138199494Y-110324924D01*
X138100949Y-110472405D01*
X138100942Y-110472418D01*
X138033065Y-110636291D01*
X138033062Y-110636300D01*
X137998459Y-110810263D01*
X137998459Y-110987654D01*
X138033062Y-111161617D01*
X138033065Y-111161626D01*
X138100942Y-111325499D01*
X138100949Y-111325512D01*
X138199494Y-111472993D01*
X138199497Y-111472997D01*
X138313181Y-111586681D01*
X138346666Y-111648004D01*
X138349500Y-111674362D01*
X138349500Y-112462275D01*
X138329815Y-112529314D01*
X138277011Y-112575069D01*
X138207853Y-112585013D01*
X138144297Y-112555988D01*
X138137819Y-112549956D01*
X134033094Y-108445232D01*
X134023131Y-108435269D01*
X134023130Y-108435267D01*
X133936005Y-108348142D01*
X133884781Y-108313915D01*
X133833558Y-108279688D01*
X133833555Y-108279686D01*
X133833552Y-108279685D01*
X133759875Y-108249168D01*
X133759873Y-108249167D01*
X133753064Y-108246347D01*
X133719724Y-108232537D01*
X133659301Y-108220518D01*
X133654578Y-108219578D01*
X133654576Y-108219578D01*
X133598882Y-108208500D01*
X133598879Y-108208500D01*
X133598878Y-108208500D01*
X130977226Y-108208500D01*
X130910187Y-108188815D01*
X130889545Y-108172181D01*
X127304545Y-104587181D01*
X127271060Y-104525858D01*
X127276044Y-104456166D01*
X127317916Y-104400233D01*
X127383380Y-104375816D01*
X127392226Y-104375500D01*
X131700007Y-104375500D01*
X131700012Y-104375500D01*
X131802800Y-104364999D01*
X131969336Y-104309815D01*
X132118657Y-104217712D01*
X132242712Y-104093657D01*
X132334815Y-103944336D01*
X132389999Y-103777800D01*
X132400500Y-103675012D01*
X132400500Y-101657997D01*
X132420185Y-101590958D01*
X132472989Y-101545203D01*
X132542147Y-101535259D01*
X132605703Y-101564284D01*
X132630037Y-101592899D01*
X132679660Y-101673350D01*
X132801650Y-101795340D01*
X132948484Y-101885908D01*
X133112247Y-101940174D01*
X133213323Y-101950500D01*
X133786676Y-101950499D01*
X133786684Y-101950498D01*
X133786687Y-101950498D01*
X133842030Y-101944844D01*
X133887753Y-101940174D01*
X134051516Y-101885908D01*
X134198350Y-101795340D01*
X134320340Y-101673350D01*
X134410908Y-101526516D01*
X134465174Y-101362753D01*
X134475500Y-101261677D01*
X134475499Y-100920806D01*
X134495183Y-100853768D01*
X134511813Y-100833131D01*
X135523127Y-99821819D01*
X135584450Y-99788334D01*
X135610808Y-99785500D01*
X167662403Y-99785500D01*
X167729442Y-99805185D01*
G37*
%TD.AperFunction*%
%TA.AperFunction,NonConductor*%
G36*
X170826359Y-103157364D02*
G01*
X170850586Y-103160001D01*
X170859289Y-103167033D01*
X170870022Y-103170185D01*
X170885976Y-103188597D01*
X170904932Y-103203914D01*
X170912646Y-103219376D01*
X170915777Y-103222989D01*
X170920686Y-103235489D01*
X170940186Y-103294334D01*
X171032288Y-103443656D01*
X171156344Y-103567712D01*
X171305666Y-103659814D01*
X171472203Y-103714999D01*
X171574991Y-103725500D01*
X171628047Y-103725499D01*
X171695085Y-103745182D01*
X171740840Y-103797986D01*
X171750785Y-103867144D01*
X171721761Y-103930700D01*
X171715728Y-103937180D01*
X161348093Y-114304815D01*
X161286770Y-114338300D01*
X161217078Y-114333316D01*
X161186101Y-114316400D01*
X161092335Y-114246206D01*
X161092328Y-114246202D01*
X160960917Y-114197189D01*
X160904983Y-114155318D01*
X160880566Y-114089853D01*
X160895418Y-114021580D01*
X160916563Y-113993332D01*
X161030104Y-113879792D01*
X161155051Y-113707816D01*
X161251557Y-113518412D01*
X161317246Y-113316243D01*
X161350500Y-113106287D01*
X161350500Y-112893713D01*
X161317246Y-112683757D01*
X161251557Y-112481588D01*
X161155051Y-112292184D01*
X161155049Y-112292181D01*
X161155048Y-112292179D01*
X161030109Y-112120213D01*
X160879786Y-111969890D01*
X160707820Y-111844951D01*
X160707115Y-111844591D01*
X160699054Y-111840485D01*
X160648259Y-111792512D01*
X160631463Y-111724692D01*
X160653999Y-111658556D01*
X160699054Y-111619515D01*
X160707816Y-111615051D01*
X160746864Y-111586681D01*
X160879786Y-111490109D01*
X160879788Y-111490106D01*
X160879792Y-111490104D01*
X161030104Y-111339792D01*
X161030106Y-111339788D01*
X161030109Y-111339786D01*
X161155048Y-111167820D01*
X161155047Y-111167820D01*
X161155051Y-111167816D01*
X161251557Y-110978412D01*
X161317246Y-110776243D01*
X161350500Y-110566287D01*
X161350500Y-110353713D01*
X161335736Y-110260500D01*
X161316484Y-110138945D01*
X161318123Y-110138685D01*
X161321257Y-110076126D01*
X161350655Y-110029289D01*
X168193127Y-103186819D01*
X168254450Y-103153334D01*
X168280808Y-103150500D01*
X170802983Y-103150500D01*
X170826359Y-103157364D01*
G37*
%TD.AperFunction*%
%TA.AperFunction,NonConductor*%
G36*
X158807421Y-111130185D02*
G01*
X158841099Y-111164591D01*
X158842085Y-111163875D01*
X158969890Y-111339786D01*
X159120213Y-111490109D01*
X159292182Y-111615050D01*
X159300946Y-111619516D01*
X159351742Y-111667491D01*
X159368536Y-111735312D01*
X159345998Y-111801447D01*
X159300946Y-111840484D01*
X159292182Y-111844949D01*
X159120213Y-111969890D01*
X158969890Y-112120213D01*
X158844951Y-112292179D01*
X158748444Y-112481585D01*
X158682753Y-112683760D01*
X158649500Y-112893713D01*
X158649500Y-113106286D01*
X158680585Y-113302552D01*
X158682754Y-113316243D01*
X158731836Y-113467302D01*
X158748444Y-113518414D01*
X158844951Y-113707820D01*
X158969890Y-113879786D01*
X159083430Y-113993326D01*
X159116915Y-114054649D01*
X159111931Y-114124341D01*
X159070059Y-114180274D01*
X159039083Y-114197189D01*
X158907669Y-114246203D01*
X158907664Y-114246206D01*
X158792455Y-114332452D01*
X158792452Y-114332455D01*
X158706206Y-114447664D01*
X158706202Y-114447671D01*
X158655908Y-114582517D01*
X158649501Y-114642116D01*
X158649501Y-114642123D01*
X158649500Y-114642135D01*
X158649500Y-114790500D01*
X158629815Y-114857539D01*
X158577011Y-114903294D01*
X158525500Y-114914500D01*
X157474499Y-114914500D01*
X157407460Y-114894815D01*
X157361705Y-114842011D01*
X157350499Y-114790500D01*
X157350499Y-114642129D01*
X157350498Y-114642123D01*
X157350497Y-114642116D01*
X157344091Y-114582517D01*
X157325509Y-114532697D01*
X157293797Y-114447671D01*
X157293793Y-114447664D01*
X157207547Y-114332455D01*
X157207544Y-114332452D01*
X157092335Y-114246206D01*
X157092328Y-114246202D01*
X156960917Y-114197189D01*
X156904983Y-114155318D01*
X156880566Y-114089853D01*
X156895418Y-114021580D01*
X156916563Y-113993332D01*
X157030104Y-113879792D01*
X157155051Y-113707816D01*
X157251557Y-113518412D01*
X157317246Y-113316243D01*
X157350500Y-113106287D01*
X157350500Y-112893713D01*
X157317246Y-112683757D01*
X157251557Y-112481588D01*
X157155051Y-112292184D01*
X157155049Y-112292181D01*
X157155048Y-112292179D01*
X157030109Y-112120213D01*
X156879786Y-111969890D01*
X156707820Y-111844951D01*
X156707115Y-111844591D01*
X156699054Y-111840485D01*
X156648259Y-111792512D01*
X156631463Y-111724692D01*
X156653999Y-111658556D01*
X156699054Y-111619515D01*
X156707816Y-111615051D01*
X156746864Y-111586681D01*
X156879786Y-111490109D01*
X156879788Y-111490106D01*
X156879792Y-111490104D01*
X157030104Y-111339792D01*
X157030106Y-111339788D01*
X157030109Y-111339786D01*
X157157915Y-111163875D01*
X157159259Y-111164851D01*
X157205705Y-111122834D01*
X157259618Y-111110500D01*
X158740382Y-111110500D01*
X158807421Y-111130185D01*
G37*
%TD.AperFunction*%
%TA.AperFunction,NonConductor*%
G36*
X114694048Y-116249827D02*
G01*
X114716787Y-116275370D01*
X114845811Y-116468467D01*
X114845821Y-116468481D01*
X115051546Y-116719158D01*
X115280841Y-116948453D01*
X115280846Y-116948457D01*
X115280847Y-116948458D01*
X115531524Y-117154183D01*
X115628766Y-117219158D01*
X115720234Y-117280275D01*
X115765039Y-117333887D01*
X115773746Y-117403212D01*
X115743592Y-117466239D01*
X115684149Y-117502959D01*
X115650548Y-117507374D01*
X114622109Y-117500782D01*
X114555197Y-117480669D01*
X114509782Y-117427572D01*
X114498909Y-117377895D01*
X114489690Y-116345365D01*
X114508775Y-116278156D01*
X114561169Y-116231931D01*
X114630236Y-116221370D01*
X114694048Y-116249827D01*
G37*
%TD.AperFunction*%
%TA.AperFunction,NonConductor*%
G36*
X186687577Y-61968952D02*
G01*
X186754485Y-61989067D01*
X186799898Y-62042165D01*
X186809395Y-62111387D01*
X186779961Y-62174754D01*
X186755665Y-62196050D01*
X186531532Y-62345811D01*
X186531518Y-62345821D01*
X186280841Y-62551546D01*
X186051546Y-62780841D01*
X185845821Y-63031518D01*
X185845811Y-63031532D01*
X185665657Y-63301151D01*
X185665646Y-63301169D01*
X185512788Y-63587145D01*
X185512786Y-63587150D01*
X185388686Y-63886752D01*
X185294548Y-64197086D01*
X185294545Y-64197097D01*
X185231287Y-64515125D01*
X185231284Y-64515142D01*
X185206751Y-64764240D01*
X185199500Y-64837857D01*
X185199500Y-65162143D01*
X185203814Y-65205941D01*
X185231284Y-65484857D01*
X185231287Y-65484874D01*
X185294545Y-65802902D01*
X185294548Y-65802913D01*
X185388686Y-66113247D01*
X185512786Y-66412849D01*
X185512788Y-66412854D01*
X185665652Y-66698841D01*
X185695456Y-66743445D01*
X185716334Y-66810122D01*
X185697850Y-66877502D01*
X185680035Y-66900017D01*
X179766873Y-72813181D01*
X179705550Y-72846666D01*
X179679192Y-72849500D01*
X175255708Y-72849500D01*
X175188669Y-72829815D01*
X175163084Y-72806619D01*
X175162947Y-72806757D01*
X175160147Y-72803957D01*
X175158445Y-72802414D01*
X175157844Y-72801654D01*
X175035851Y-72679661D01*
X175035850Y-72679660D01*
X174922009Y-72609442D01*
X174889018Y-72589093D01*
X174889013Y-72589091D01*
X174887569Y-72588612D01*
X174725253Y-72534826D01*
X174725251Y-72534825D01*
X174624184Y-72524500D01*
X174624177Y-72524500D01*
X174320808Y-72524500D01*
X174253769Y-72504815D01*
X174233127Y-72488181D01*
X173813674Y-72068727D01*
X173813673Y-72068726D01*
X173707125Y-71997533D01*
X173588747Y-71948500D01*
X173588745Y-71948499D01*
X173588744Y-71948499D01*
X173588046Y-71948360D01*
X173588035Y-71948354D01*
X173588035Y-71948358D01*
X173463071Y-71923500D01*
X173463069Y-71923500D01*
X161349500Y-71923500D01*
X161282461Y-71903815D01*
X161236706Y-71851011D01*
X161225500Y-71799500D01*
X161225499Y-71074998D01*
X161225498Y-71074980D01*
X161214999Y-70972203D01*
X161214998Y-70972200D01*
X161159814Y-70805666D01*
X161067712Y-70656344D01*
X160943656Y-70532288D01*
X160850888Y-70475069D01*
X160794336Y-70440187D01*
X160794331Y-70440185D01*
X160792862Y-70439698D01*
X160627797Y-70385001D01*
X160627794Y-70385000D01*
X160523319Y-70374327D01*
X160458627Y-70347931D01*
X160448241Y-70338650D01*
X158936818Y-68827227D01*
X158903333Y-68765904D01*
X158900499Y-68739546D01*
X158900499Y-67702129D01*
X158900498Y-67702123D01*
X158900497Y-67702116D01*
X158894091Y-67642517D01*
X158843796Y-67507669D01*
X158843795Y-67507668D01*
X158843793Y-67507664D01*
X158757547Y-67392455D01*
X158757544Y-67392452D01*
X158642335Y-67306206D01*
X158642328Y-67306202D01*
X158507482Y-67255908D01*
X158507483Y-67255908D01*
X158447883Y-67249501D01*
X158447881Y-67249500D01*
X158447873Y-67249500D01*
X158447865Y-67249500D01*
X158059500Y-67249500D01*
X157992461Y-67229815D01*
X157946706Y-67177011D01*
X157935500Y-67125500D01*
X157935500Y-65272980D01*
X157955185Y-65205941D01*
X158003208Y-65162494D01*
X158017818Y-65155050D01*
X158189786Y-65030109D01*
X158189788Y-65030106D01*
X158189792Y-65030104D01*
X158340104Y-64879792D01*
X158340106Y-64879788D01*
X158340109Y-64879786D01*
X158465048Y-64707820D01*
X158465047Y-64707820D01*
X158465051Y-64707816D01*
X158469514Y-64699054D01*
X158517488Y-64648259D01*
X158585308Y-64631463D01*
X158651444Y-64653999D01*
X158690486Y-64699056D01*
X158694951Y-64707820D01*
X158819890Y-64879786D01*
X158970213Y-65030109D01*
X159142179Y-65155048D01*
X159142181Y-65155049D01*
X159142184Y-65155051D01*
X159331588Y-65251557D01*
X159533757Y-65317246D01*
X159743713Y-65350500D01*
X159743714Y-65350500D01*
X159956286Y-65350500D01*
X159956287Y-65350500D01*
X160166243Y-65317246D01*
X160368412Y-65251557D01*
X160557816Y-65155051D01*
X160644138Y-65092335D01*
X160729786Y-65030109D01*
X160729788Y-65030106D01*
X160729792Y-65030104D01*
X160880104Y-64879792D01*
X160880106Y-64879788D01*
X160880109Y-64879786D01*
X161005048Y-64707820D01*
X161005047Y-64707820D01*
X161005051Y-64707816D01*
X161101557Y-64518412D01*
X161167246Y-64316243D01*
X161200500Y-64106287D01*
X161200500Y-63893713D01*
X161167246Y-63683757D01*
X161101557Y-63481588D01*
X161005051Y-63292184D01*
X161005049Y-63292181D01*
X161005048Y-63292179D01*
X160880109Y-63120213D01*
X160729786Y-62969890D01*
X160557820Y-62844951D01*
X160368414Y-62748444D01*
X160368413Y-62748443D01*
X160368412Y-62748443D01*
X160166243Y-62682754D01*
X160166241Y-62682753D01*
X160166240Y-62682753D01*
X160004957Y-62657208D01*
X159956287Y-62649500D01*
X159743713Y-62649500D01*
X159695042Y-62657208D01*
X159533760Y-62682753D01*
X159331585Y-62748444D01*
X159142179Y-62844951D01*
X158970213Y-62969890D01*
X158819890Y-63120213D01*
X158694949Y-63292182D01*
X158690484Y-63300946D01*
X158642509Y-63351742D01*
X158574688Y-63368536D01*
X158508553Y-63345998D01*
X158469516Y-63300946D01*
X158465050Y-63292182D01*
X158340109Y-63120213D01*
X158189786Y-62969890D01*
X158017820Y-62844951D01*
X157828414Y-62748444D01*
X157828413Y-62748443D01*
X157828412Y-62748443D01*
X157626243Y-62682754D01*
X157626241Y-62682753D01*
X157626240Y-62682753D01*
X157464957Y-62657208D01*
X157416287Y-62649500D01*
X157203713Y-62649500D01*
X157149649Y-62658063D01*
X156988945Y-62683516D01*
X156988686Y-62681882D01*
X156926094Y-62678730D01*
X156879288Y-62649342D01*
X156473674Y-62243727D01*
X156473673Y-62243726D01*
X156367131Y-62172538D01*
X156367127Y-62172535D01*
X156367122Y-62172533D01*
X156248744Y-62123499D01*
X156248738Y-62123497D01*
X156123071Y-62098500D01*
X156123069Y-62098500D01*
X149107749Y-62098500D01*
X149107747Y-62098500D01*
X148982079Y-62123497D01*
X148982073Y-62123499D01*
X148863693Y-62172533D01*
X148863684Y-62172538D01*
X148757149Y-62243723D01*
X148757145Y-62243726D01*
X148336799Y-62664072D01*
X148275476Y-62697557D01*
X148205785Y-62692573D01*
X148107482Y-62655908D01*
X148107483Y-62655908D01*
X148047883Y-62649501D01*
X148047881Y-62649500D01*
X148047873Y-62649500D01*
X148047864Y-62649500D01*
X146252129Y-62649500D01*
X146252123Y-62649501D01*
X146192516Y-62655908D01*
X146057671Y-62706202D01*
X146057664Y-62706206D01*
X145942455Y-62792452D01*
X145942452Y-62792455D01*
X145856206Y-62907664D01*
X145856202Y-62907671D01*
X145805908Y-63042517D01*
X145799501Y-63102116D01*
X145799500Y-63102135D01*
X145799500Y-64897870D01*
X145799501Y-64897876D01*
X145805908Y-64957483D01*
X145856202Y-65092328D01*
X145856206Y-65092335D01*
X145942452Y-65207544D01*
X145942455Y-65207547D01*
X146057664Y-65293793D01*
X146057671Y-65293797D01*
X146102618Y-65310561D01*
X146192517Y-65344091D01*
X146252127Y-65350500D01*
X146400500Y-65350499D01*
X146467539Y-65370183D01*
X146513294Y-65422987D01*
X146524500Y-65474499D01*
X146524500Y-79539548D01*
X146504815Y-79606587D01*
X146488181Y-79627229D01*
X143314729Y-82800681D01*
X143287801Y-82815384D01*
X143261983Y-82831977D01*
X143255782Y-82832868D01*
X143253406Y-82834166D01*
X143227048Y-82837000D01*
X143087679Y-82837000D01*
X143020640Y-82817315D01*
X142999998Y-82800681D01*
X130799584Y-70600267D01*
X130712459Y-70513142D01*
X130712458Y-70513141D01*
X130712456Y-70513139D01*
X130712454Y-70513138D01*
X130666770Y-70482613D01*
X130666766Y-70482611D01*
X130660934Y-70478714D01*
X130610012Y-70444688D01*
X130529518Y-70411347D01*
X130496178Y-70397537D01*
X130496174Y-70397536D01*
X130496170Y-70397535D01*
X130433152Y-70385000D01*
X130433151Y-70385000D01*
X130375337Y-70373500D01*
X130375333Y-70373500D01*
X130375332Y-70373500D01*
X126430381Y-70373500D01*
X126307167Y-70373500D01*
X126249347Y-70385001D01*
X126249346Y-70385000D01*
X126186329Y-70397535D01*
X126186319Y-70397538D01*
X126072490Y-70444687D01*
X126072481Y-70444692D01*
X125970042Y-70513140D01*
X125936041Y-70547142D01*
X125882916Y-70600267D01*
X115662141Y-80821041D01*
X115662138Y-80821045D01*
X115652471Y-80835513D01*
X115652463Y-80835527D01*
X115649866Y-80839414D01*
X115593688Y-80923488D01*
X115571244Y-80977674D01*
X115568375Y-80984599D01*
X115568370Y-80984609D01*
X115546538Y-81037317D01*
X115546535Y-81037327D01*
X115534517Y-81097743D01*
X115534518Y-81097744D01*
X115522718Y-81157072D01*
X115522511Y-81158062D01*
X115522500Y-81158171D01*
X115522500Y-94376833D01*
X115523080Y-94379750D01*
X115523079Y-94379750D01*
X115539248Y-94461035D01*
X115546537Y-94497677D01*
X115593688Y-94611512D01*
X115625971Y-94659826D01*
X115662142Y-94713959D01*
X115749267Y-94801084D01*
X115749270Y-94801086D01*
X115756650Y-94808466D01*
X130177790Y-109229606D01*
X130177819Y-109229637D01*
X130268039Y-109319857D01*
X130274201Y-109323974D01*
X130309162Y-109347334D01*
X130370488Y-109388312D01*
X130447609Y-109420256D01*
X130484322Y-109435463D01*
X130521782Y-109442914D01*
X130605165Y-109459499D01*
X130605166Y-109459500D01*
X130605167Y-109459500D01*
X130605168Y-109459500D01*
X133226820Y-109459500D01*
X133293859Y-109479185D01*
X133314501Y-109495819D01*
X136424363Y-112605682D01*
X136457848Y-112667005D01*
X136452864Y-112736697D01*
X136410992Y-112792630D01*
X136409568Y-112793681D01*
X136283073Y-112885585D01*
X136175530Y-112993128D01*
X136114207Y-113026612D01*
X136044515Y-113021628D01*
X135988582Y-112979756D01*
X135982310Y-112970543D01*
X135942712Y-112906344D01*
X135818656Y-112782288D01*
X135693559Y-112705128D01*
X135669336Y-112690187D01*
X135669331Y-112690185D01*
X135667862Y-112689698D01*
X135502797Y-112635001D01*
X135502795Y-112635000D01*
X135400010Y-112624500D01*
X134599998Y-112624500D01*
X134599980Y-112624501D01*
X134497203Y-112635000D01*
X134497200Y-112635001D01*
X134330668Y-112690185D01*
X134330663Y-112690187D01*
X134181342Y-112782289D01*
X134057289Y-112906342D01*
X133965187Y-113055663D01*
X133965186Y-113055666D01*
X133910001Y-113222203D01*
X133910001Y-113222204D01*
X133910000Y-113222204D01*
X133899500Y-113324983D01*
X133899500Y-114675001D01*
X133899501Y-114675018D01*
X133910000Y-114777796D01*
X133910001Y-114777799D01*
X133965185Y-114944331D01*
X133965187Y-114944336D01*
X133988574Y-114982252D01*
X134057288Y-115093656D01*
X134181344Y-115217712D01*
X134330666Y-115309814D01*
X134497203Y-115364999D01*
X134599991Y-115375500D01*
X135400008Y-115375499D01*
X135400016Y-115375498D01*
X135400019Y-115375498D01*
X135456302Y-115369748D01*
X135502797Y-115364999D01*
X135669334Y-115309814D01*
X135818656Y-115217712D01*
X135942712Y-115093656D01*
X135982310Y-115029456D01*
X136034258Y-114982732D01*
X136103220Y-114971509D01*
X136167303Y-114999352D01*
X136175530Y-115006872D01*
X136283072Y-115114414D01*
X136423212Y-115216232D01*
X136577555Y-115294873D01*
X136742299Y-115348402D01*
X136913389Y-115375500D01*
X136913390Y-115375500D01*
X137086610Y-115375500D01*
X137086611Y-115375500D01*
X137257701Y-115348402D01*
X137422445Y-115294873D01*
X137562487Y-115223518D01*
X137631153Y-115210623D01*
X137695893Y-115236899D01*
X137706460Y-115246323D01*
X138196990Y-115736854D01*
X138196993Y-115736857D01*
X138248218Y-115771084D01*
X138299442Y-115805311D01*
X138413276Y-115852463D01*
X138534116Y-115876499D01*
X138534120Y-115876500D01*
X138534121Y-115876500D01*
X141810607Y-115876500D01*
X141871029Y-115864481D01*
X141931452Y-115852463D01*
X141964792Y-115838652D01*
X142045286Y-115805312D01*
X142096509Y-115771084D01*
X142099015Y-115769410D01*
X142118671Y-115756276D01*
X142147733Y-115736858D01*
X142234858Y-115649733D01*
X142234859Y-115649731D01*
X142241925Y-115642665D01*
X142241928Y-115642661D01*
X142533004Y-115351584D01*
X142594325Y-115318101D01*
X142658999Y-115321335D01*
X142742299Y-115348402D01*
X142913389Y-115375500D01*
X142913390Y-115375500D01*
X143086610Y-115375500D01*
X143086611Y-115375500D01*
X143257701Y-115348402D01*
X143422445Y-115294873D01*
X143576788Y-115216232D01*
X143716928Y-115114414D01*
X143839414Y-114991928D01*
X143899682Y-114908975D01*
X143955012Y-114866311D01*
X144024626Y-114860332D01*
X144086421Y-114892938D01*
X144100315Y-114908973D01*
X144160586Y-114991928D01*
X144283072Y-115114414D01*
X144423212Y-115216232D01*
X144577555Y-115294873D01*
X144742299Y-115348402D01*
X144913389Y-115375500D01*
X144913390Y-115375500D01*
X145086610Y-115375500D01*
X145086611Y-115375500D01*
X145257701Y-115348402D01*
X145422445Y-115294873D01*
X145576788Y-115216232D01*
X145716928Y-115114414D01*
X145839414Y-114991928D01*
X145941232Y-114851788D01*
X146019873Y-114697445D01*
X146073402Y-114532701D01*
X146100500Y-114361611D01*
X146100500Y-113638389D01*
X146073402Y-113467299D01*
X146019873Y-113302555D01*
X145941232Y-113148212D01*
X145839414Y-113008072D01*
X145716928Y-112885586D01*
X145576788Y-112783768D01*
X145422445Y-112705127D01*
X145257701Y-112651598D01*
X145257699Y-112651597D01*
X145257698Y-112651597D01*
X145125194Y-112630611D01*
X145086611Y-112624500D01*
X144913389Y-112624500D01*
X144874806Y-112630611D01*
X144742302Y-112651597D01*
X144577552Y-112705128D01*
X144423211Y-112783768D01*
X144375995Y-112818073D01*
X144283072Y-112885586D01*
X144283070Y-112885588D01*
X144283069Y-112885588D01*
X144160588Y-113008069D01*
X144160581Y-113008078D01*
X144100317Y-113091023D01*
X144044987Y-113133689D01*
X143975374Y-113139667D01*
X143913579Y-113107061D01*
X143899683Y-113091023D01*
X143839418Y-113008078D01*
X143839414Y-113008072D01*
X143716928Y-112885586D01*
X143576788Y-112783768D01*
X143422445Y-112705127D01*
X143257701Y-112651598D01*
X143257699Y-112651597D01*
X143257698Y-112651597D01*
X143125194Y-112630611D01*
X143086611Y-112624500D01*
X142913389Y-112624500D01*
X142874806Y-112630611D01*
X142742302Y-112651597D01*
X142577552Y-112705128D01*
X142423211Y-112783768D01*
X142375995Y-112818073D01*
X142283072Y-112885586D01*
X142283070Y-112885588D01*
X142283069Y-112885588D01*
X142160588Y-113008069D01*
X142160581Y-113008078D01*
X142100317Y-113091023D01*
X142044987Y-113133689D01*
X141975374Y-113139667D01*
X141913579Y-113107061D01*
X141899683Y-113091023D01*
X141839418Y-113008078D01*
X141839414Y-113008072D01*
X141716928Y-112885586D01*
X141701612Y-112874458D01*
X141658948Y-112819128D01*
X141650500Y-112774142D01*
X141650500Y-110418891D01*
X141650770Y-110417970D01*
X141650514Y-110417047D01*
X141660593Y-110384515D01*
X141670185Y-110351852D01*
X141671002Y-110350922D01*
X141671193Y-110350308D01*
X141674164Y-110347328D01*
X141694700Y-110323981D01*
X141699927Y-110319586D01*
X141715076Y-110309464D01*
X141731501Y-110293038D01*
X141735603Y-110289590D01*
X141762893Y-110277613D01*
X141789045Y-110263334D01*
X141797506Y-110262424D01*
X141799583Y-110261513D01*
X141802164Y-110261923D01*
X141815403Y-110260500D01*
X152289192Y-110260500D01*
X152356231Y-110280185D01*
X152376873Y-110296819D01*
X154649342Y-112569288D01*
X154682827Y-112630611D01*
X154682319Y-112678755D01*
X154683516Y-112678945D01*
X154649500Y-112893713D01*
X154649500Y-113106286D01*
X154680585Y-113302552D01*
X154682754Y-113316243D01*
X154731836Y-113467302D01*
X154748444Y-113518414D01*
X154844951Y-113707820D01*
X154969890Y-113879786D01*
X155083430Y-113993326D01*
X155116915Y-114054649D01*
X155111931Y-114124341D01*
X155070059Y-114180274D01*
X155039083Y-114197189D01*
X154907669Y-114246203D01*
X154907664Y-114246206D01*
X154792455Y-114332452D01*
X154792452Y-114332455D01*
X154706206Y-114447664D01*
X154706202Y-114447671D01*
X154655908Y-114582517D01*
X154649501Y-114642116D01*
X154649501Y-114642123D01*
X154649500Y-114642135D01*
X154649500Y-116437870D01*
X154649501Y-116437876D01*
X154655908Y-116497483D01*
X154706202Y-116632328D01*
X154706206Y-116632335D01*
X154792452Y-116747544D01*
X154792455Y-116747547D01*
X154907664Y-116833793D01*
X154907671Y-116833797D01*
X155042517Y-116884091D01*
X155042516Y-116884091D01*
X155049444Y-116884835D01*
X155102127Y-116890500D01*
X156897872Y-116890499D01*
X156957483Y-116884091D01*
X157092331Y-116833796D01*
X157207546Y-116747546D01*
X157293796Y-116632331D01*
X157344091Y-116497483D01*
X157350500Y-116437873D01*
X157350500Y-116289500D01*
X157370185Y-116222461D01*
X157422989Y-116176706D01*
X157474500Y-116165500D01*
X158525501Y-116165500D01*
X158592540Y-116185185D01*
X158638295Y-116237989D01*
X158649501Y-116289500D01*
X158649501Y-116437876D01*
X158655908Y-116497483D01*
X158706202Y-116632328D01*
X158706206Y-116632335D01*
X158792452Y-116747544D01*
X158792455Y-116747547D01*
X158907664Y-116833793D01*
X158907671Y-116833797D01*
X159042517Y-116884091D01*
X159042516Y-116884091D01*
X159049444Y-116884835D01*
X159102127Y-116890500D01*
X160897872Y-116890499D01*
X160957483Y-116884091D01*
X161092331Y-116833796D01*
X161207546Y-116747546D01*
X161293796Y-116632331D01*
X161344091Y-116497483D01*
X161350500Y-116437873D01*
X161350499Y-116122037D01*
X161359219Y-116092338D01*
X161365931Y-116062130D01*
X161369266Y-116058121D01*
X161370183Y-116054999D01*
X161387207Y-116033970D01*
X161393649Y-116027584D01*
X161396233Y-116025858D01*
X161483358Y-115938733D01*
X161483360Y-115938729D01*
X173660271Y-103761818D01*
X173721594Y-103728333D01*
X173747952Y-103725499D01*
X174425002Y-103725499D01*
X174425008Y-103725499D01*
X174527797Y-103714999D01*
X174694334Y-103659814D01*
X174843656Y-103567712D01*
X174967712Y-103443656D01*
X175059814Y-103294334D01*
X175114999Y-103127797D01*
X175125500Y-103025009D01*
X175125499Y-101974992D01*
X175114999Y-101872203D01*
X175083650Y-101777598D01*
X175081248Y-101707770D01*
X175113673Y-101650915D01*
X175522771Y-101241819D01*
X175584094Y-101208334D01*
X175610452Y-101205500D01*
X176365686Y-101205500D01*
X176365694Y-101205500D01*
X176402569Y-101202598D01*
X176402571Y-101202597D01*
X176402573Y-101202597D01*
X176456880Y-101186819D01*
X176560398Y-101156744D01*
X176701865Y-101073081D01*
X176818081Y-100956865D01*
X176901744Y-100815398D01*
X176947598Y-100657569D01*
X176950500Y-100620694D01*
X176950500Y-100508296D01*
X176970185Y-100441257D01*
X177022989Y-100395502D01*
X177092147Y-100385558D01*
X177106654Y-100388976D01*
X177112245Y-100390173D01*
X177112247Y-100390174D01*
X177213323Y-100400500D01*
X177786676Y-100400499D01*
X177786684Y-100400498D01*
X177786687Y-100400498D01*
X177842030Y-100394844D01*
X177887753Y-100390174D01*
X178051516Y-100335908D01*
X178198350Y-100245340D01*
X178320340Y-100123350D01*
X178321233Y-100121901D01*
X178322104Y-100121117D01*
X178324821Y-100117683D01*
X178325407Y-100118147D01*
X178373180Y-100075179D01*
X178426771Y-100063000D01*
X180524863Y-100063000D01*
X180609407Y-100046182D01*
X180650536Y-100038001D01*
X180768919Y-99988965D01*
X180875461Y-99917777D01*
X188231277Y-92561961D01*
X188302465Y-92455419D01*
X188315986Y-92422777D01*
X188351501Y-92337036D01*
X188376500Y-92211361D01*
X188376500Y-90761931D01*
X188376500Y-90761928D01*
X188351502Y-90636261D01*
X188351501Y-90636260D01*
X188351501Y-90636256D01*
X188302465Y-90517873D01*
X188302464Y-90517872D01*
X188302461Y-90517866D01*
X188231277Y-90411332D01*
X188205737Y-90385792D01*
X188140669Y-90320724D01*
X187760257Y-89940311D01*
X187726772Y-89878988D01*
X187730006Y-89814314D01*
X187748402Y-89757701D01*
X187775500Y-89586611D01*
X187775500Y-89413389D01*
X187748402Y-89242299D01*
X187694873Y-89077555D01*
X187616232Y-88923212D01*
X187514414Y-88783072D01*
X187391928Y-88660586D01*
X187308975Y-88600317D01*
X187266311Y-88544988D01*
X187260332Y-88475374D01*
X187292938Y-88413579D01*
X187308976Y-88399682D01*
X187391928Y-88339414D01*
X187514414Y-88216928D01*
X187616232Y-88076788D01*
X187694873Y-87922445D01*
X187748402Y-87757701D01*
X187775500Y-87586611D01*
X187775500Y-87413389D01*
X187748402Y-87242299D01*
X187694873Y-87077555D01*
X187616232Y-86923212D01*
X187514414Y-86783072D01*
X187391928Y-86660586D01*
X187251788Y-86558768D01*
X187097445Y-86480127D01*
X186932701Y-86426598D01*
X186932699Y-86426597D01*
X186932698Y-86426597D01*
X186801271Y-86405781D01*
X186761611Y-86399500D01*
X186038389Y-86399500D01*
X185998728Y-86405781D01*
X185867302Y-86426597D01*
X185702552Y-86480128D01*
X185548211Y-86558768D01*
X185472002Y-86614138D01*
X185408072Y-86660586D01*
X185408070Y-86660588D01*
X185408069Y-86660588D01*
X185285585Y-86783072D01*
X185281111Y-86789231D01*
X185274729Y-86798016D01*
X185274459Y-86798387D01*
X185219128Y-86841052D01*
X185174142Y-86849500D01*
X180274500Y-86849500D01*
X180207461Y-86829815D01*
X180161706Y-86777011D01*
X180150500Y-86725500D01*
X180150500Y-83820807D01*
X180170185Y-83753768D01*
X180186814Y-83733131D01*
X185156622Y-78763322D01*
X185160328Y-78761298D01*
X185162594Y-78757732D01*
X185190729Y-78744698D01*
X185217943Y-78729839D01*
X185222157Y-78730140D01*
X185225992Y-78728364D01*
X185256709Y-78732611D01*
X185287635Y-78734823D01*
X185292208Y-78737519D01*
X185295203Y-78737934D01*
X185308633Y-78747205D01*
X185324997Y-78756855D01*
X185328607Y-78759949D01*
X185408072Y-78839414D01*
X185495048Y-78902606D01*
X185498833Y-78905850D01*
X185515274Y-78931132D01*
X185533689Y-78955013D01*
X185534127Y-78960124D01*
X185536924Y-78964424D01*
X185537086Y-78994578D01*
X185539667Y-79024626D01*
X185537273Y-79029162D01*
X185537301Y-79034292D01*
X185521136Y-79059745D01*
X185507061Y-79086421D01*
X185500689Y-79091941D01*
X185499844Y-79093273D01*
X185498358Y-79093961D01*
X185491023Y-79100317D01*
X185408078Y-79160581D01*
X185408069Y-79160588D01*
X185285588Y-79283069D01*
X185285588Y-79283070D01*
X185285586Y-79283072D01*
X185249418Y-79332853D01*
X185183768Y-79423211D01*
X185105128Y-79577552D01*
X185051597Y-79742302D01*
X185024500Y-79913389D01*
X185024500Y-80086610D01*
X185038497Y-80174988D01*
X185051598Y-80257701D01*
X185105127Y-80422445D01*
X185183768Y-80576788D01*
X185285586Y-80716928D01*
X185285588Y-80716930D01*
X185393127Y-80824469D01*
X185426612Y-80885792D01*
X185421628Y-80955484D01*
X185379756Y-81011417D01*
X185370544Y-81017688D01*
X185306344Y-81057287D01*
X185182289Y-81181342D01*
X185090187Y-81330663D01*
X185090186Y-81330666D01*
X185035001Y-81497203D01*
X185035001Y-81497204D01*
X185035000Y-81497204D01*
X185024500Y-81599983D01*
X185024500Y-82400001D01*
X185024501Y-82400019D01*
X185035000Y-82502796D01*
X185035001Y-82502799D01*
X185090185Y-82669331D01*
X185090187Y-82669336D01*
X185117829Y-82714150D01*
X185182288Y-82818656D01*
X185306344Y-82942712D01*
X185455666Y-83034814D01*
X185622203Y-83089999D01*
X185724991Y-83100500D01*
X187075008Y-83100499D01*
X187177797Y-83089999D01*
X187344334Y-83034814D01*
X187493656Y-82942712D01*
X187617712Y-82818656D01*
X187709814Y-82669334D01*
X187764999Y-82502797D01*
X187775500Y-82400009D01*
X187775499Y-81599992D01*
X187764999Y-81497203D01*
X187709814Y-81330666D01*
X187617712Y-81181344D01*
X187493656Y-81057288D01*
X187493652Y-81057285D01*
X187429456Y-81017688D01*
X187382731Y-80965740D01*
X187371510Y-80896777D01*
X187399353Y-80832695D01*
X187406850Y-80824491D01*
X187514414Y-80716928D01*
X187616232Y-80576788D01*
X187694873Y-80422445D01*
X187748402Y-80257701D01*
X187775500Y-80086611D01*
X187775500Y-79913389D01*
X187748402Y-79742299D01*
X187694873Y-79577555D01*
X187616232Y-79423212D01*
X187514414Y-79283072D01*
X187391928Y-79160586D01*
X187308975Y-79100317D01*
X187266311Y-79044988D01*
X187260332Y-78975374D01*
X187292938Y-78913579D01*
X187308976Y-78899682D01*
X187391928Y-78839414D01*
X187514414Y-78716928D01*
X187616232Y-78576788D01*
X187694873Y-78422445D01*
X187748402Y-78257701D01*
X187775500Y-78086611D01*
X187775500Y-77913389D01*
X187748402Y-77742299D01*
X187694873Y-77577555D01*
X187616232Y-77423212D01*
X187514414Y-77283072D01*
X187391928Y-77160586D01*
X187251788Y-77058768D01*
X187097445Y-76980127D01*
X186932701Y-76926598D01*
X186932699Y-76926597D01*
X186932698Y-76926597D01*
X186801271Y-76905781D01*
X186761611Y-76899500D01*
X186038389Y-76899500D01*
X185998728Y-76905781D01*
X185867302Y-76926597D01*
X185702552Y-76980128D01*
X185548211Y-77058768D01*
X185479652Y-77108580D01*
X185408072Y-77160586D01*
X185408070Y-77160588D01*
X185408069Y-77160588D01*
X185285585Y-77283072D01*
X185274459Y-77298387D01*
X185219128Y-77341052D01*
X185174142Y-77349500D01*
X184935929Y-77349500D01*
X184823860Y-77371793D01*
X184810256Y-77374499D01*
X184810255Y-77374499D01*
X184691870Y-77423535D01*
X184585331Y-77494722D01*
X184585324Y-77494728D01*
X179543930Y-82536122D01*
X179482607Y-82569607D01*
X179412915Y-82564623D01*
X179368568Y-82536122D01*
X175436818Y-78604372D01*
X175403333Y-78543049D01*
X175400499Y-78516691D01*
X175400499Y-78213330D01*
X175400498Y-78213313D01*
X175390174Y-78112247D01*
X175381679Y-78086610D01*
X175335908Y-77948484D01*
X175245340Y-77801650D01*
X175123350Y-77679660D01*
X175123346Y-77679657D01*
X175034403Y-77624796D01*
X174987678Y-77572848D01*
X174975500Y-77519258D01*
X174975500Y-74426771D01*
X174995185Y-74359732D01*
X175012945Y-74337978D01*
X175022750Y-74328420D01*
X175035850Y-74320340D01*
X175157840Y-74198350D01*
X175160338Y-74194299D01*
X175169153Y-74185707D01*
X175193233Y-74172953D01*
X175215468Y-74157211D01*
X175226403Y-74155387D01*
X175230898Y-74153007D01*
X175237391Y-74153554D01*
X175255708Y-74150500D01*
X180064071Y-74150500D01*
X180148615Y-74133682D01*
X180189744Y-74125501D01*
X180308127Y-74076465D01*
X180341283Y-74054311D01*
X180414669Y-74005277D01*
X186599983Y-67819961D01*
X186661304Y-67786478D01*
X186730996Y-67791462D01*
X186756549Y-67804540D01*
X186779631Y-67819963D01*
X186801147Y-67834340D01*
X186801151Y-67834342D01*
X186801158Y-67834347D01*
X186801166Y-67834351D01*
X186801169Y-67834353D01*
X187087145Y-67987211D01*
X187087147Y-67987211D01*
X187087153Y-67987215D01*
X187386754Y-68111314D01*
X187697077Y-68205449D01*
X187697083Y-68205450D01*
X187697086Y-68205451D01*
X187697097Y-68205454D01*
X187896528Y-68245122D01*
X188015132Y-68268714D01*
X188337857Y-68300500D01*
X188337860Y-68300500D01*
X188662140Y-68300500D01*
X188662143Y-68300500D01*
X188984868Y-68268714D01*
X189142295Y-68237399D01*
X189302902Y-68205454D01*
X189302913Y-68205451D01*
X189302913Y-68205450D01*
X189302923Y-68205449D01*
X189613246Y-68111314D01*
X189912847Y-67987215D01*
X190198842Y-67834347D01*
X190468476Y-67654183D01*
X190719153Y-67448458D01*
X190948458Y-67219153D01*
X191154183Y-66968476D01*
X191334347Y-66698842D01*
X191351017Y-66667653D01*
X191399976Y-66617812D01*
X191468113Y-66602350D01*
X191533793Y-66626180D01*
X191576163Y-66681737D01*
X191584354Y-66723894D01*
X192430364Y-114100437D01*
X192411880Y-114167817D01*
X192359901Y-114214508D01*
X192290931Y-114225684D01*
X192226867Y-114197799D01*
X192188050Y-114139705D01*
X192187793Y-114138873D01*
X192111314Y-113886754D01*
X191987215Y-113587153D01*
X191923151Y-113467299D01*
X191834353Y-113301169D01*
X191834352Y-113301167D01*
X191834347Y-113301158D01*
X191654183Y-113031524D01*
X191448458Y-112780847D01*
X191448457Y-112780846D01*
X191448453Y-112780841D01*
X191219158Y-112551546D01*
X190968481Y-112345821D01*
X190968480Y-112345820D01*
X190968476Y-112345817D01*
X190698842Y-112165653D01*
X190698837Y-112165650D01*
X190698830Y-112165646D01*
X190412854Y-112012788D01*
X190412849Y-112012786D01*
X190113247Y-111888686D01*
X189802913Y-111794548D01*
X189802902Y-111794545D01*
X189484874Y-111731287D01*
X189484857Y-111731284D01*
X189240812Y-111707248D01*
X189162143Y-111699500D01*
X188837857Y-111699500D01*
X188765099Y-111706666D01*
X188515142Y-111731284D01*
X188515125Y-111731287D01*
X188197097Y-111794545D01*
X188197086Y-111794548D01*
X187886752Y-111888686D01*
X187587150Y-112012786D01*
X187587145Y-112012788D01*
X187301169Y-112165646D01*
X187301151Y-112165657D01*
X187031532Y-112345811D01*
X187031518Y-112345821D01*
X186780841Y-112551546D01*
X186551546Y-112780841D01*
X186345821Y-113031518D01*
X186345811Y-113031532D01*
X186165657Y-113301151D01*
X186165646Y-113301169D01*
X186012788Y-113587145D01*
X186012786Y-113587150D01*
X185888686Y-113886752D01*
X185794548Y-114197086D01*
X185794545Y-114197097D01*
X185731287Y-114515125D01*
X185731284Y-114515142D01*
X185713329Y-114697447D01*
X185699500Y-114837857D01*
X185699500Y-115162143D01*
X185704973Y-115217710D01*
X185731284Y-115484857D01*
X185731287Y-115484874D01*
X185794545Y-115802902D01*
X185794548Y-115802913D01*
X185888686Y-116113247D01*
X186012786Y-116412849D01*
X186012788Y-116412854D01*
X186165646Y-116698830D01*
X186165657Y-116698848D01*
X186345811Y-116968467D01*
X186345821Y-116968481D01*
X186551546Y-117219158D01*
X186780841Y-117448453D01*
X186780846Y-117448457D01*
X186780847Y-117448458D01*
X187031524Y-117654183D01*
X187157272Y-117738205D01*
X187202077Y-117791817D01*
X187210784Y-117861142D01*
X187180630Y-117924169D01*
X187121187Y-117960889D01*
X187087586Y-117965304D01*
X119312727Y-117530850D01*
X119245815Y-117510737D01*
X119200400Y-117457640D01*
X119190900Y-117388420D01*
X119220331Y-117325051D01*
X119244627Y-117303754D01*
X119468476Y-117154183D01*
X119719153Y-116948458D01*
X119948458Y-116719153D01*
X120154183Y-116468476D01*
X120334347Y-116198842D01*
X120487215Y-115912847D01*
X120611314Y-115613246D01*
X120705449Y-115302923D01*
X120705451Y-115302913D01*
X120705454Y-115302902D01*
X120742946Y-115114411D01*
X120768714Y-114984868D01*
X120800500Y-114662143D01*
X120800500Y-114337857D01*
X120768714Y-114015132D01*
X120741792Y-113879784D01*
X120705454Y-113697097D01*
X120705451Y-113697086D01*
X120705450Y-113697083D01*
X120705449Y-113697077D01*
X120611314Y-113386754D01*
X120487215Y-113087153D01*
X120457477Y-113031518D01*
X120334353Y-112801169D01*
X120334352Y-112801167D01*
X120334347Y-112801158D01*
X120154183Y-112531524D01*
X119948458Y-112280847D01*
X119948457Y-112280846D01*
X119948453Y-112280841D01*
X119719158Y-112051546D01*
X119468481Y-111845821D01*
X119468480Y-111845820D01*
X119468476Y-111845817D01*
X119198842Y-111665653D01*
X119198837Y-111665650D01*
X119198830Y-111665646D01*
X118912854Y-111512788D01*
X118912849Y-111512786D01*
X118613247Y-111388686D01*
X118302913Y-111294548D01*
X118302902Y-111294545D01*
X117984874Y-111231287D01*
X117984857Y-111231284D01*
X117740812Y-111207248D01*
X117662143Y-111199500D01*
X117337857Y-111199500D01*
X117265099Y-111206666D01*
X117015142Y-111231284D01*
X117015125Y-111231287D01*
X116697097Y-111294545D01*
X116697086Y-111294548D01*
X116386752Y-111388686D01*
X116087150Y-111512786D01*
X116087145Y-111512788D01*
X115801169Y-111665646D01*
X115801151Y-111665657D01*
X115531532Y-111845811D01*
X115531518Y-111845821D01*
X115280841Y-112051546D01*
X115051546Y-112280841D01*
X114845821Y-112531518D01*
X114845811Y-112531532D01*
X114684288Y-112773268D01*
X114630676Y-112818073D01*
X114561351Y-112826780D01*
X114498323Y-112796625D01*
X114461604Y-112737182D01*
X114457191Y-112705490D01*
X114043987Y-66426625D01*
X114063072Y-66359416D01*
X114115466Y-66313191D01*
X114184533Y-66302630D01*
X114248345Y-66331087D01*
X114271083Y-66356628D01*
X114308647Y-66412847D01*
X114345811Y-66468467D01*
X114345821Y-66468481D01*
X114551546Y-66719158D01*
X114780841Y-66948453D01*
X114780846Y-66948457D01*
X114780847Y-66948458D01*
X115031524Y-67154183D01*
X115301158Y-67334347D01*
X115301167Y-67334352D01*
X115301169Y-67334353D01*
X115587145Y-67487211D01*
X115587147Y-67487211D01*
X115587153Y-67487215D01*
X115886754Y-67611314D01*
X116197077Y-67705449D01*
X116197083Y-67705450D01*
X116197086Y-67705451D01*
X116197097Y-67705454D01*
X116396528Y-67745122D01*
X116515132Y-67768714D01*
X116837857Y-67800500D01*
X116837860Y-67800500D01*
X117162140Y-67800500D01*
X117162143Y-67800500D01*
X117484868Y-67768714D01*
X117642295Y-67737399D01*
X117802902Y-67705454D01*
X117802913Y-67705451D01*
X117802913Y-67705450D01*
X117802923Y-67705449D01*
X118113246Y-67611314D01*
X118412847Y-67487215D01*
X118698842Y-67334347D01*
X118968476Y-67154183D01*
X119219153Y-66948458D01*
X119448458Y-66719153D01*
X119654183Y-66468476D01*
X119834347Y-66198842D01*
X119987215Y-65912847D01*
X120111314Y-65613246D01*
X120205449Y-65302923D01*
X120205451Y-65302913D01*
X120205454Y-65302902D01*
X120237399Y-65142295D01*
X120268714Y-64984868D01*
X120300500Y-64662143D01*
X120300500Y-64337857D01*
X120268714Y-64015132D01*
X120231582Y-63828457D01*
X120205454Y-63697097D01*
X120205451Y-63697086D01*
X120205450Y-63697083D01*
X120205449Y-63697077D01*
X120111314Y-63386754D01*
X119987215Y-63087153D01*
X119963356Y-63042517D01*
X119834353Y-62801169D01*
X119834352Y-62801167D01*
X119834347Y-62801158D01*
X119654183Y-62531524D01*
X119448458Y-62280847D01*
X119448457Y-62280846D01*
X119448453Y-62280841D01*
X119219158Y-62051546D01*
X118968481Y-61845821D01*
X118968480Y-61845820D01*
X118968476Y-61845817D01*
X118838188Y-61758761D01*
X118793384Y-61705150D01*
X118784677Y-61635825D01*
X118814831Y-61572798D01*
X118874274Y-61536078D01*
X118907874Y-61531663D01*
X186687577Y-61968952D01*
G37*
%TD.AperFunction*%
%TA.AperFunction,NonConductor*%
G36*
X192377596Y-115663527D02*
G01*
X192434268Y-115704393D01*
X192459851Y-115769410D01*
X192460325Y-115778251D01*
X192497731Y-117872974D01*
X192479247Y-117940354D01*
X192427268Y-117987045D01*
X192372956Y-117999185D01*
X190874493Y-117989579D01*
X190807581Y-117969466D01*
X190762166Y-117916369D01*
X190752666Y-117847149D01*
X190782098Y-117783780D01*
X190806398Y-117762480D01*
X190968458Y-117654195D01*
X190968457Y-117654195D01*
X190968476Y-117654183D01*
X191219153Y-117448458D01*
X191448458Y-117219153D01*
X191654183Y-116968476D01*
X191834347Y-116698842D01*
X191987215Y-116412847D01*
X192111314Y-116113246D01*
X192205449Y-115802923D01*
X192214728Y-115756273D01*
X192247111Y-115694365D01*
X192307826Y-115659789D01*
X192377596Y-115663527D01*
G37*
%TD.AperFunction*%
M02*
