%TF.GenerationSoftware,KiCad,Pcbnew,9.0.1*%
%TF.CreationDate,2026-02-20T10:45:09+01:00*%
%TF.ProjectId,datalogger2,64617461-6c6f-4676-9765-72322e6b6963,rev?*%
%TF.SameCoordinates,Original*%
%TF.FileFunction,Soldermask,Top*%
%TF.FilePolarity,Negative*%
%FSLAX46Y46*%
G04 Gerber Fmt 4.6, Leading zero omitted, Abs format (unit mm)*
G04 Created by KiCad (PCBNEW 9.0.1) date 2026-02-20 10:45:09*
%MOMM*%
%LPD*%
G01*
G04 APERTURE LIST*
G04 Aperture macros list*
%AMRoundRect*
0 Rectangle with rounded corners*
0 $1 Rounding radius*
0 $2 $3 $4 $5 $6 $7 $8 $9 X,Y pos of 4 corners*
0 Add a 4 corners polygon primitive as box body*
4,1,4,$2,$3,$4,$5,$6,$7,$8,$9,$2,$3,0*
0 Add four circle primitives for the rounded corners*
1,1,$1+$1,$2,$3*
1,1,$1+$1,$4,$5*
1,1,$1+$1,$6,$7*
1,1,$1+$1,$8,$9*
0 Add four rect primitives between the rounded corners*
20,1,$1+$1,$2,$3,$4,$5,0*
20,1,$1+$1,$4,$5,$6,$7,0*
20,1,$1+$1,$6,$7,$8,$9,0*
20,1,$1+$1,$8,$9,$2,$3,0*%
G04 Aperture macros list end*
%ADD10RoundRect,0.250000X-0.350000X-0.450000X0.350000X-0.450000X0.350000X0.450000X-0.350000X0.450000X0*%
%ADD11RoundRect,0.237500X-0.287500X-0.237500X0.287500X-0.237500X0.287500X0.237500X-0.287500X0.237500X0*%
%ADD12O,2.030000X1.730000*%
%ADD13R,2.030000X1.730000*%
%ADD14RoundRect,0.250000X0.475000X-0.337500X0.475000X0.337500X-0.475000X0.337500X-0.475000X-0.337500X0*%
%ADD15R,1.700000X1.700000*%
%ADD16C,1.700000*%
%ADD17R,1.250000X1.000000*%
%ADD18RoundRect,0.250000X-0.850000X-0.350000X0.850000X-0.350000X0.850000X0.350000X-0.850000X0.350000X0*%
%ADD19RoundRect,0.249997X-2.950003X-2.650003X2.950003X-2.650003X2.950003X2.650003X-2.950003X2.650003X0*%
%ADD20C,1.100000*%
%ADD21RoundRect,0.250000X-0.337500X-0.475000X0.337500X-0.475000X0.337500X0.475000X-0.337500X0.475000X0*%
%ADD22RoundRect,0.250000X-0.450000X0.350000X-0.450000X-0.350000X0.450000X-0.350000X0.450000X0.350000X0*%
%ADD23C,5.600000*%
%ADD24RoundRect,0.250000X-0.750000X0.600000X-0.750000X-0.600000X0.750000X-0.600000X0.750000X0.600000X0*%
%ADD25O,2.000000X1.700000*%
%ADD26RoundRect,0.250000X0.450000X-0.350000X0.450000X0.350000X-0.450000X0.350000X-0.450000X-0.350000X0*%
%ADD27RoundRect,0.100000X-0.637500X-0.100000X0.637500X-0.100000X0.637500X0.100000X-0.637500X0.100000X0*%
%ADD28R,0.700000X1.200000*%
%ADD29R,1.000000X0.800000*%
%ADD30R,1.000000X1.200000*%
%ADD31R,1.000000X2.800000*%
%ADD32R,1.300000X1.900000*%
%ADD33RoundRect,0.237500X0.287500X0.237500X-0.287500X0.237500X-0.287500X-0.237500X0.287500X-0.237500X0*%
%ADD34RoundRect,0.250000X0.350000X0.450000X-0.350000X0.450000X-0.350000X-0.450000X0.350000X-0.450000X0*%
%ADD35RoundRect,0.150000X-0.825000X-0.150000X0.825000X-0.150000X0.825000X0.150000X-0.825000X0.150000X0*%
%ADD36C,1.800000*%
%ADD37O,2.900000X1.700000*%
%ADD38RoundRect,0.250000X0.337500X0.475000X-0.337500X0.475000X-0.337500X-0.475000X0.337500X-0.475000X0*%
%ADD39RoundRect,0.250000X-0.475000X0.337500X-0.475000X-0.337500X0.475000X-0.337500X0.475000X0.337500X0*%
G04 APERTURE END LIST*
D10*
%TO.C,R6*%
X174700000Y-74250000D03*
X176700000Y-74250000D03*
%TD*%
D11*
%TO.C,D3*%
X174950000Y-77250000D03*
X176700000Y-77250000D03*
%TD*%
D12*
%TO.C,J2*%
X184625000Y-78920000D03*
X184625000Y-81460000D03*
D13*
X184625000Y-84000000D03*
%TD*%
D14*
%TO.C,C8*%
X150900000Y-57475000D03*
X150900000Y-55400000D03*
%TD*%
%TO.C,C6*%
X166600000Y-65875000D03*
X166600000Y-63800000D03*
%TD*%
D15*
%TO.C,J4*%
X176440000Y-89200000D03*
D16*
X173900000Y-89200000D03*
X171360000Y-89200000D03*
X168820000Y-89200000D03*
X166280000Y-89200000D03*
X163740000Y-89200000D03*
%TD*%
D17*
%TO.C,SW3*%
X136750000Y-55200000D03*
X144500000Y-55200000D03*
%TD*%
D18*
%TO.C,U2*%
X137175000Y-40245000D03*
X137175000Y-42525000D03*
D19*
X143475000Y-42525000D03*
D18*
X137175000Y-44805000D03*
%TD*%
D10*
%TO.C,R2*%
X154112500Y-47300000D03*
X156112500Y-47300000D03*
%TD*%
D20*
%TO.C,J5*%
X137860000Y-71400000D03*
D13*
X135700000Y-66320000D03*
D12*
X135700000Y-68860000D03*
X135700000Y-71400000D03*
X135700000Y-73940000D03*
%TD*%
D10*
%TO.C,R8*%
X174800000Y-82550000D03*
X176800000Y-82550000D03*
%TD*%
D21*
%TO.C,C1*%
X141662500Y-48400000D03*
X143737500Y-48400000D03*
%TD*%
D13*
%TO.C,J3*%
X184500000Y-72200000D03*
D12*
X184500000Y-69660000D03*
X184500000Y-67120000D03*
%TD*%
D22*
%TO.C,R7*%
X178000000Y-63700000D03*
X178000000Y-65700000D03*
%TD*%
D11*
%TO.C,D1*%
X163700000Y-47300000D03*
X161950000Y-47300000D03*
%TD*%
D21*
%TO.C,C2*%
X137537500Y-48400000D03*
X139612500Y-48400000D03*
%TD*%
D23*
%TO.C,H2*%
X185000000Y-35000000D03*
%TD*%
D24*
%TO.C,J6*%
X184500000Y-59600000D03*
D25*
X184500000Y-62100000D03*
%TD*%
D26*
%TO.C,R5*%
X159625000Y-67375000D03*
X159625000Y-65375000D03*
%TD*%
D23*
%TO.C,H1*%
X135000000Y-35000000D03*
%TD*%
D27*
%TO.C,U1*%
X153875000Y-54750000D03*
X153875000Y-55400000D03*
X153875000Y-56050000D03*
X153875000Y-56700000D03*
X153875000Y-57350000D03*
X153875000Y-58000000D03*
X153875000Y-58650000D03*
X153875000Y-59300000D03*
X153875000Y-59950000D03*
X153875000Y-60600000D03*
X159600000Y-60600000D03*
X159600000Y-59950000D03*
X159600000Y-59300000D03*
X159600000Y-58650000D03*
X159600000Y-58000000D03*
X159600000Y-57350000D03*
X159600000Y-56700000D03*
X159600000Y-56050000D03*
X159600000Y-55400000D03*
X159600000Y-54750000D03*
%TD*%
D21*
%TO.C,C4*%
X165300000Y-43300000D03*
X167375000Y-43300000D03*
%TD*%
D28*
%TO.C,J1*%
X154075000Y-77575000D03*
X152975000Y-77575000D03*
X151875000Y-77575000D03*
X150775000Y-77575000D03*
X149675000Y-77575000D03*
X148575000Y-77575000D03*
X147475000Y-77575000D03*
X146375000Y-77575000D03*
X145425000Y-77575000D03*
D29*
X144475000Y-88075000D03*
D30*
X144475000Y-81875000D03*
D31*
X144475000Y-92225000D03*
D30*
X155625000Y-77575000D03*
D32*
X157975000Y-92675000D03*
%TD*%
D33*
%TO.C,D2*%
X151975000Y-47300000D03*
X150225000Y-47300000D03*
%TD*%
D17*
%TO.C,SW1*%
X171750000Y-35600000D03*
X179500000Y-35600000D03*
%TD*%
D23*
%TO.C,H3*%
X135000000Y-90000000D03*
%TD*%
D34*
%TO.C,R1*%
X159987500Y-47300000D03*
X157987500Y-47300000D03*
%TD*%
D18*
%TO.C,U5*%
X157575000Y-34945000D03*
X157575000Y-37225000D03*
D19*
X163875000Y-37225000D03*
D18*
X157575000Y-39505000D03*
%TD*%
D35*
%TO.C,U3*%
X169650000Y-62830000D03*
X169650000Y-64100000D03*
X169650000Y-65370000D03*
X169650000Y-66640000D03*
X174600000Y-66640000D03*
X174600000Y-65370000D03*
X174600000Y-64100000D03*
X174600000Y-62830000D03*
%TD*%
D36*
%TO.C,SW2*%
X178250000Y-44300000D03*
X178250000Y-53300000D03*
D37*
X172000000Y-46300000D03*
X184500000Y-46300000D03*
X172000000Y-51300000D03*
X184500000Y-51300000D03*
%TD*%
D38*
%TO.C,C3*%
X156375000Y-63100000D03*
X154300000Y-63100000D03*
%TD*%
D11*
%TO.C,D4*%
X174950000Y-79950000D03*
X176700000Y-79950000D03*
%TD*%
D39*
%TO.C,C7*%
X164300000Y-56000000D03*
X164300000Y-58075000D03*
%TD*%
D26*
%TO.C,R3*%
X159600000Y-75375000D03*
X159600000Y-73375000D03*
%TD*%
D38*
%TO.C,C5*%
X163575000Y-43300000D03*
X161500000Y-43300000D03*
%TD*%
D23*
%TO.C,H4*%
X185000000Y-90000000D03*
%TD*%
D26*
%TO.C,R4*%
X159600000Y-71400000D03*
X159600000Y-69400000D03*
%TD*%
M02*
