%TF.GenerationSoftware,KiCad,Pcbnew,9.0.1*%
%TF.CreationDate,2026-02-20T10:45:08+01:00*%
%TF.ProjectId,datalogger2,64617461-6c6f-4676-9765-72322e6b6963,rev?*%
%TF.SameCoordinates,Original*%
%TF.FileFunction,Copper,L2,Bot*%
%TF.FilePolarity,Positive*%
%FSLAX46Y46*%
G04 Gerber Fmt 4.6, Leading zero omitted, Abs format (unit mm)*
G04 Created by KiCad (PCBNEW 9.0.1) date 2026-02-20 10:45:08*
%MOMM*%
%LPD*%
G01*
G04 APERTURE LIST*
G04 Aperture macros list*
%AMRoundRect*
0 Rectangle with rounded corners*
0 $1 Rounding radius*
0 $2 $3 $4 $5 $6 $7 $8 $9 X,Y pos of 4 corners*
0 Add a 4 corners polygon primitive as box body*
4,1,4,$2,$3,$4,$5,$6,$7,$8,$9,$2,$3,0*
0 Add four circle primitives for the rounded corners*
1,1,$1+$1,$2,$3*
1,1,$1+$1,$4,$5*
1,1,$1+$1,$6,$7*
1,1,$1+$1,$8,$9*
0 Add four rect primitives between the rounded corners*
20,1,$1+$1,$2,$3,$4,$5,0*
20,1,$1+$1,$4,$5,$6,$7,0*
20,1,$1+$1,$6,$7,$8,$9,0*
20,1,$1+$1,$8,$9,$2,$3,0*%
G04 Aperture macros list end*
%TA.AperFunction,ComponentPad*%
%ADD10O,2.030000X1.730000*%
%TD*%
%TA.AperFunction,ComponentPad*%
%ADD11R,2.030000X1.730000*%
%TD*%
%TA.AperFunction,ComponentPad*%
%ADD12R,1.700000X1.700000*%
%TD*%
%TA.AperFunction,ComponentPad*%
%ADD13C,1.700000*%
%TD*%
%TA.AperFunction,ComponentPad*%
%ADD14C,5.600000*%
%TD*%
%TA.AperFunction,ComponentPad*%
%ADD15RoundRect,0.250000X-0.750000X0.600000X-0.750000X-0.600000X0.750000X-0.600000X0.750000X0.600000X0*%
%TD*%
%TA.AperFunction,ComponentPad*%
%ADD16O,2.000000X1.700000*%
%TD*%
%TA.AperFunction,ComponentPad*%
%ADD17O,2.900000X1.700000*%
%TD*%
%TA.AperFunction,ViaPad*%
%ADD18C,0.800000*%
%TD*%
%TA.AperFunction,Conductor*%
%ADD19C,0.250000*%
%TD*%
G04 APERTURE END LIST*
D10*
%TO.P,J2,3,Pin_3*%
%TO.N,GND*%
X184625000Y-78920000D03*
%TO.P,J2,2,Pin_2*%
%TO.N,CAN_L*%
X184625000Y-81460000D03*
D11*
%TO.P,J2,1,Pin_1*%
%TO.N,CAN_H*%
X184625000Y-84000000D03*
%TD*%
D12*
%TO.P,J4,1,Pin_1*%
%TO.N,+3.3V*%
X176440000Y-89200000D03*
D13*
%TO.P,J4,2,Pin_2*%
%TO.N,Debug_SWCLK*%
X173900000Y-89200000D03*
%TO.P,J4,3,Pin_3*%
%TO.N,GND*%
X171360000Y-89200000D03*
%TO.P,J4,4,Pin_4*%
%TO.N,Debug_SWDIO*%
X168820000Y-89200000D03*
%TO.P,J4,5,Pin_5*%
%TO.N,NRST*%
X166280000Y-89200000D03*
%TO.P,J4,6,Pin_6*%
%TO.N,unconnected-(J4-Pin_6-Pad6)*%
X163740000Y-89200000D03*
%TD*%
D11*
%TO.P,J5,1,Pin_1*%
%TO.N,USART2_RX*%
X135700000Y-66320000D03*
D10*
%TO.P,J5,2,Pin_2*%
%TO.N,USART2_TX*%
X135700000Y-68860000D03*
%TO.P,J5,3,Pin_3*%
%TO.N,GND*%
X135700000Y-71400000D03*
%TO.P,J5,4,Pin_4*%
%TO.N,+3.3V*%
X135700000Y-73940000D03*
%TD*%
D11*
%TO.P,J3,1,Pin_1*%
%TO.N,CAN_H*%
X184500000Y-72200000D03*
D10*
%TO.P,J3,2,Pin_2*%
%TO.N,CAN_L*%
X184500000Y-69660000D03*
%TO.P,J3,3,Pin_3*%
%TO.N,GND*%
X184500000Y-67120000D03*
%TD*%
D14*
%TO.P,H2,1,1*%
%TO.N,GND*%
X185000000Y-35000000D03*
%TD*%
D15*
%TO.P,J6,1,Pin_1*%
%TO.N,Net-(J6-Pin_1)*%
X184500000Y-59600000D03*
D16*
%TO.P,J6,2,Pin_2*%
%TO.N,GND*%
X184500000Y-62100000D03*
%TD*%
D14*
%TO.P,H1,1,1*%
%TO.N,GND*%
X135000000Y-35000000D03*
%TD*%
%TO.P,H3,1,1*%
%TO.N,GND*%
X135000000Y-90000000D03*
%TD*%
D17*
%TO.P,SW2,1,A*%
%TO.N,Net-(J6-Pin_1)*%
X172000000Y-46300000D03*
X184500000Y-46300000D03*
%TO.P,SW2,2,B*%
%TO.N,Alimentation*%
X172000000Y-51300000D03*
X184500000Y-51300000D03*
%TD*%
D14*
%TO.P,H4,1,1*%
%TO.N,GND*%
X185000000Y-90000000D03*
%TD*%
D18*
%TO.N,GND*%
X159200000Y-33400000D03*
X138900000Y-34100000D03*
X184600000Y-76000000D03*
X152300000Y-33500000D03*
X155600000Y-58500000D03*
X165500000Y-60600000D03*
X140000000Y-38400000D03*
X180900000Y-81100000D03*
%TO.N,+3.3V*%
X161300000Y-58500000D03*
X166800000Y-69400000D03*
X161400000Y-63500000D03*
%TO.N,NRST*%
X152300000Y-65600000D03*
X155600000Y-66300000D03*
X161400000Y-78500000D03*
X149200000Y-51900000D03*
X168300000Y-45900000D03*
%TO.N,5V*%
X166600000Y-61900000D03*
X168300000Y-70900000D03*
X168200000Y-68300000D03*
X167300000Y-57100000D03*
%TO.N,SD_CS*%
X155700000Y-76200000D03*
X150800000Y-71400000D03*
%TO.N,SD_SPI1_SCK*%
X159800000Y-62500000D03*
X156312653Y-68912653D03*
%TO.N,Debug_SWDIO*%
X164100000Y-64800000D03*
X161424322Y-54150372D03*
%TO.N,Debug_SWCLK*%
X162415136Y-54319189D03*
X165950000Y-68050000D03*
%TO.N,USART2_RX*%
X144000000Y-62500000D03*
X147600000Y-62500000D03*
%TO.N,Test_PB*%
X152400000Y-52700000D03*
X147500000Y-56100000D03*
%TD*%
D19*
%TO.N,GND*%
X155600000Y-58500000D02*
X160957811Y-53142189D01*
X160957811Y-53142189D02*
X162902666Y-53142189D01*
X180900000Y-81100000D02*
X180900000Y-79700000D01*
X180900000Y-79700000D02*
X184600000Y-76000000D01*
X140000000Y-38400000D02*
X138900000Y-37300000D01*
X138900000Y-37300000D02*
X138900000Y-34100000D01*
X159200000Y-33400000D02*
X159100000Y-33500000D01*
X162902666Y-53142189D02*
X165500000Y-55739523D01*
X165500000Y-55739523D02*
X165500000Y-60600000D01*
X159100000Y-33500000D02*
X152300000Y-33500000D01*
%TO.N,+3.3V*%
X161400000Y-63500000D02*
X161400000Y-58600000D01*
X161400000Y-58600000D02*
X161300000Y-58500000D01*
X161400000Y-64526720D02*
X161400000Y-63500000D01*
X166273280Y-69400000D02*
X161400000Y-64526720D01*
X166800000Y-69400000D02*
X166273280Y-69400000D01*
%TO.N,NRST*%
X161400000Y-72100000D02*
X161400000Y-78500000D01*
X155600000Y-66300000D02*
X161400000Y-72100000D01*
X168300000Y-45900000D02*
X155200000Y-45900000D01*
X146774000Y-54326000D02*
X146774000Y-60074000D01*
X146774000Y-60074000D02*
X152300000Y-65600000D01*
X155200000Y-45900000D02*
X149200000Y-51900000D01*
X149200000Y-51900000D02*
X146774000Y-54326000D01*
%TO.N,5V*%
X167300000Y-61200000D02*
X166600000Y-61900000D01*
X167300000Y-57100000D02*
X167300000Y-61200000D01*
X168200000Y-68300000D02*
X168200000Y-70800000D01*
X168200000Y-70800000D02*
X168300000Y-70900000D01*
%TO.N,SD_CS*%
X150900000Y-71400000D02*
X150800000Y-71400000D01*
X155700000Y-76200000D02*
X150900000Y-71400000D01*
%TO.N,SD_SPI1_SCK*%
X154874000Y-65999280D02*
X158373280Y-62500000D01*
X158373280Y-62500000D02*
X159800000Y-62500000D01*
X156312653Y-68912653D02*
X154874000Y-67474000D01*
X154874000Y-67474000D02*
X154874000Y-65999280D01*
%TO.N,Debug_SWDIO*%
X164100000Y-64800000D02*
X164100000Y-54977333D01*
X162715856Y-53593189D02*
X161981505Y-53593189D01*
X164100000Y-54977333D02*
X162715856Y-53593189D01*
X161981505Y-53593189D02*
X161424322Y-54150372D01*
%TO.N,Debug_SWCLK*%
X162415136Y-64515136D02*
X166000000Y-68100000D01*
X162415136Y-54319189D02*
X162415136Y-64515136D01*
%TO.N,USART2_RX*%
X147600000Y-62500000D02*
X144000000Y-62500000D01*
%TO.N,Test_PB*%
X150900000Y-52700000D02*
X152400000Y-52700000D01*
X147500000Y-56100000D02*
X150900000Y-52700000D01*
%TD*%
%TA.AperFunction,Conductor*%
%TO.N,GND*%
G36*
X185002562Y-30000605D02*
G01*
X185370277Y-30015814D01*
X185375906Y-30016177D01*
X185459956Y-30023530D01*
X185464429Y-30024004D01*
X185787028Y-30064216D01*
X185793169Y-30065140D01*
X185871766Y-30078999D01*
X185875594Y-30079737D01*
X186199008Y-30147549D01*
X186205622Y-30149128D01*
X186274576Y-30167604D01*
X186277787Y-30168512D01*
X186603169Y-30265383D01*
X186610157Y-30267692D01*
X186664056Y-30287310D01*
X186666678Y-30288299D01*
X186996425Y-30416967D01*
X187003729Y-30420089D01*
X187034837Y-30434595D01*
X187036641Y-30435458D01*
X187374902Y-30600823D01*
X187383883Y-30605683D01*
X187730070Y-30811966D01*
X187738638Y-30817564D01*
X188066593Y-31051719D01*
X188074668Y-31058005D01*
X188382155Y-31318433D01*
X188389695Y-31325374D01*
X188674625Y-31610304D01*
X188681566Y-31617844D01*
X188941989Y-31925325D01*
X188948284Y-31933412D01*
X189182431Y-32261355D01*
X189188037Y-32269935D01*
X189394309Y-32616105D01*
X189399186Y-32625119D01*
X189564467Y-32963206D01*
X189565450Y-32965262D01*
X189579902Y-32996255D01*
X189583036Y-33003584D01*
X189711691Y-33333300D01*
X189712696Y-33335964D01*
X189732299Y-33389822D01*
X189734622Y-33396851D01*
X189831475Y-33722173D01*
X189832405Y-33725462D01*
X189850867Y-33794364D01*
X189852453Y-33801010D01*
X189920250Y-34124350D01*
X189921005Y-34128265D01*
X189934854Y-34206807D01*
X189935786Y-34213001D01*
X189975990Y-34535538D01*
X189976470Y-34540069D01*
X189983819Y-34624067D01*
X189984185Y-34629749D01*
X189999394Y-34997437D01*
X189999500Y-35002562D01*
X189999500Y-89997437D01*
X189999394Y-90002562D01*
X189984185Y-90370249D01*
X189983819Y-90375930D01*
X189983819Y-90375931D01*
X189976470Y-90459929D01*
X189975990Y-90464460D01*
X189935786Y-90786997D01*
X189934854Y-90793191D01*
X189921005Y-90871733D01*
X189920250Y-90875648D01*
X189852453Y-91198988D01*
X189850867Y-91205634D01*
X189832405Y-91274536D01*
X189831475Y-91277825D01*
X189734622Y-91603147D01*
X189732299Y-91610176D01*
X189712696Y-91664034D01*
X189711691Y-91666698D01*
X189583036Y-91996414D01*
X189579903Y-92003741D01*
X189579902Y-92003743D01*
X189565471Y-92034691D01*
X189564489Y-92036747D01*
X189399182Y-92374889D01*
X189394304Y-92383903D01*
X189188037Y-92730064D01*
X189182431Y-92738644D01*
X188948284Y-93066587D01*
X188941989Y-93074674D01*
X188681566Y-93382155D01*
X188674625Y-93389695D01*
X188389695Y-93674625D01*
X188382155Y-93681566D01*
X188074674Y-93941989D01*
X188066587Y-93948284D01*
X187738644Y-94182431D01*
X187730064Y-94188037D01*
X187383903Y-94394304D01*
X187374889Y-94399182D01*
X187036747Y-94564489D01*
X187034691Y-94565471D01*
X187003743Y-94579902D01*
X186996414Y-94583036D01*
X186666698Y-94711691D01*
X186664034Y-94712696D01*
X186610176Y-94732299D01*
X186603147Y-94734622D01*
X186277825Y-94831475D01*
X186274536Y-94832405D01*
X186205634Y-94850867D01*
X186198988Y-94852453D01*
X185875648Y-94920250D01*
X185871733Y-94921005D01*
X185793191Y-94934854D01*
X185786997Y-94935786D01*
X185464460Y-94975990D01*
X185459929Y-94976470D01*
X185375931Y-94983819D01*
X185370249Y-94984185D01*
X185002563Y-94999394D01*
X184997438Y-94999500D01*
X135002562Y-94999500D01*
X134997437Y-94999394D01*
X134629749Y-94984185D01*
X134624067Y-94983819D01*
X134540069Y-94976470D01*
X134535538Y-94975990D01*
X134213001Y-94935786D01*
X134206807Y-94934854D01*
X134128265Y-94921005D01*
X134124350Y-94920250D01*
X133801010Y-94852453D01*
X133794364Y-94850867D01*
X133725462Y-94832405D01*
X133722173Y-94831475D01*
X133396851Y-94734622D01*
X133389822Y-94732299D01*
X133335964Y-94712696D01*
X133333300Y-94711691D01*
X133003584Y-94583036D01*
X132996255Y-94579902D01*
X132965262Y-94565450D01*
X132963206Y-94564467D01*
X132625119Y-94399186D01*
X132616105Y-94394309D01*
X132269935Y-94188037D01*
X132261355Y-94182431D01*
X131933412Y-93948284D01*
X131925325Y-93941989D01*
X131617844Y-93681566D01*
X131610304Y-93674625D01*
X131325374Y-93389695D01*
X131318433Y-93382155D01*
X131058010Y-93074674D01*
X131051715Y-93066587D01*
X130938599Y-92908159D01*
X130817564Y-92738638D01*
X130811962Y-92730064D01*
X130605683Y-92383883D01*
X130600817Y-92374889D01*
X130435458Y-92036641D01*
X130434595Y-92034837D01*
X130420089Y-92003729D01*
X130416962Y-91996414D01*
X130288307Y-91666698D01*
X130287302Y-91664034D01*
X130267692Y-91610157D01*
X130265383Y-91603169D01*
X130168512Y-91277787D01*
X130167604Y-91274576D01*
X130149128Y-91205622D01*
X130147549Y-91199008D01*
X130079737Y-90875594D01*
X130078999Y-90871766D01*
X130065140Y-90793169D01*
X130064216Y-90787028D01*
X130024004Y-90464429D01*
X130023530Y-90459956D01*
X130016177Y-90375906D01*
X130015814Y-90370277D01*
X130000606Y-90002562D01*
X130000500Y-89997438D01*
X130000500Y-89093713D01*
X162389500Y-89093713D01*
X162389500Y-89306286D01*
X162422753Y-89516239D01*
X162488444Y-89718414D01*
X162584951Y-89907820D01*
X162709890Y-90079786D01*
X162860213Y-90230109D01*
X163032179Y-90355048D01*
X163032181Y-90355049D01*
X163032184Y-90355051D01*
X163221588Y-90451557D01*
X163423757Y-90517246D01*
X163633713Y-90550500D01*
X163633714Y-90550500D01*
X163846286Y-90550500D01*
X163846287Y-90550500D01*
X164056243Y-90517246D01*
X164258412Y-90451557D01*
X164447816Y-90355051D01*
X164534138Y-90292335D01*
X164619786Y-90230109D01*
X164619788Y-90230106D01*
X164619792Y-90230104D01*
X164770104Y-90079792D01*
X164770106Y-90079788D01*
X164770109Y-90079786D01*
X164895048Y-89907820D01*
X164895047Y-89907820D01*
X164895051Y-89907816D01*
X164899514Y-89899054D01*
X164947488Y-89848259D01*
X165015308Y-89831463D01*
X165081444Y-89853999D01*
X165120486Y-89899056D01*
X165124951Y-89907820D01*
X165249890Y-90079786D01*
X165400213Y-90230109D01*
X165572179Y-90355048D01*
X165572181Y-90355049D01*
X165572184Y-90355051D01*
X165761588Y-90451557D01*
X165963757Y-90517246D01*
X166173713Y-90550500D01*
X166173714Y-90550500D01*
X166386286Y-90550500D01*
X166386287Y-90550500D01*
X166596243Y-90517246D01*
X166798412Y-90451557D01*
X166987816Y-90355051D01*
X167074138Y-90292335D01*
X167159786Y-90230109D01*
X167159788Y-90230106D01*
X167159792Y-90230104D01*
X167310104Y-90079792D01*
X167310106Y-90079788D01*
X167310109Y-90079786D01*
X167435048Y-89907820D01*
X167435047Y-89907820D01*
X167435051Y-89907816D01*
X167439514Y-89899054D01*
X167487488Y-89848259D01*
X167555308Y-89831463D01*
X167621444Y-89853999D01*
X167660486Y-89899056D01*
X167664951Y-89907820D01*
X167789890Y-90079786D01*
X167940213Y-90230109D01*
X168112179Y-90355048D01*
X168112181Y-90355049D01*
X168112184Y-90355051D01*
X168301588Y-90451557D01*
X168503757Y-90517246D01*
X168713713Y-90550500D01*
X168713714Y-90550500D01*
X168926286Y-90550500D01*
X168926287Y-90550500D01*
X169136243Y-90517246D01*
X169338412Y-90451557D01*
X169527816Y-90355051D01*
X169614138Y-90292335D01*
X169699786Y-90230109D01*
X169699788Y-90230106D01*
X169699792Y-90230104D01*
X169850104Y-90079792D01*
X169850106Y-90079788D01*
X169850109Y-90079786D01*
X169975048Y-89907820D01*
X169975051Y-89907816D01*
X169979793Y-89898508D01*
X170027763Y-89847711D01*
X170095583Y-89830911D01*
X170161719Y-89853445D01*
X170200763Y-89898500D01*
X170205375Y-89907551D01*
X170304240Y-90043626D01*
X170304241Y-90043627D01*
X170916329Y-89431538D01*
X170959901Y-89507007D01*
X171052993Y-89600099D01*
X171128460Y-89643670D01*
X170516371Y-90255758D01*
X170652445Y-90354622D01*
X170841782Y-90451095D01*
X171043870Y-90516757D01*
X171253754Y-90550000D01*
X171466246Y-90550000D01*
X171676127Y-90516757D01*
X171676130Y-90516757D01*
X171878217Y-90451095D01*
X172067546Y-90354626D01*
X172067552Y-90354622D01*
X172203626Y-90255758D01*
X172203627Y-90255758D01*
X171591538Y-89643670D01*
X171667007Y-89600099D01*
X171760099Y-89507007D01*
X171803670Y-89431539D01*
X172415758Y-90043627D01*
X172415758Y-90043626D01*
X172514622Y-89907552D01*
X172514625Y-89907548D01*
X172519232Y-89898507D01*
X172567205Y-89847709D01*
X172635025Y-89830912D01*
X172701161Y-89853447D01*
X172740204Y-89898504D01*
X172744949Y-89907817D01*
X172869890Y-90079786D01*
X173020213Y-90230109D01*
X173192179Y-90355048D01*
X173192181Y-90355049D01*
X173192184Y-90355051D01*
X173381588Y-90451557D01*
X173583757Y-90517246D01*
X173793713Y-90550500D01*
X173793714Y-90550500D01*
X174006286Y-90550500D01*
X174006287Y-90550500D01*
X174216243Y-90517246D01*
X174418412Y-90451557D01*
X174607816Y-90355051D01*
X174779792Y-90230104D01*
X174893329Y-90116566D01*
X174954648Y-90083084D01*
X175024340Y-90088068D01*
X175080274Y-90129939D01*
X175097189Y-90160917D01*
X175146202Y-90292328D01*
X175146206Y-90292335D01*
X175232452Y-90407544D01*
X175232455Y-90407547D01*
X175347664Y-90493793D01*
X175347671Y-90493797D01*
X175482517Y-90544091D01*
X175482516Y-90544091D01*
X175489444Y-90544835D01*
X175542127Y-90550500D01*
X177337872Y-90550499D01*
X177397483Y-90544091D01*
X177532331Y-90493796D01*
X177647546Y-90407546D01*
X177733796Y-90292331D01*
X177784091Y-90157483D01*
X177790500Y-90097873D01*
X177790499Y-88302128D01*
X177784091Y-88242517D01*
X177782810Y-88239083D01*
X177733797Y-88107671D01*
X177733793Y-88107664D01*
X177647547Y-87992455D01*
X177647544Y-87992452D01*
X177532335Y-87906206D01*
X177532328Y-87906202D01*
X177397482Y-87855908D01*
X177397483Y-87855908D01*
X177337883Y-87849501D01*
X177337881Y-87849500D01*
X177337873Y-87849500D01*
X177337864Y-87849500D01*
X175542129Y-87849500D01*
X175542123Y-87849501D01*
X175482516Y-87855908D01*
X175347671Y-87906202D01*
X175347664Y-87906206D01*
X175232455Y-87992452D01*
X175232452Y-87992455D01*
X175146206Y-88107664D01*
X175146203Y-88107669D01*
X175097189Y-88239083D01*
X175055317Y-88295016D01*
X174989853Y-88319433D01*
X174921580Y-88304581D01*
X174893326Y-88283430D01*
X174779786Y-88169890D01*
X174607820Y-88044951D01*
X174418414Y-87948444D01*
X174418413Y-87948443D01*
X174418412Y-87948443D01*
X174216243Y-87882754D01*
X174216241Y-87882753D01*
X174216240Y-87882753D01*
X174054957Y-87857208D01*
X174006287Y-87849500D01*
X173793713Y-87849500D01*
X173745042Y-87857208D01*
X173583760Y-87882753D01*
X173381585Y-87948444D01*
X173192179Y-88044951D01*
X173020213Y-88169890D01*
X172869890Y-88320213D01*
X172744949Y-88492182D01*
X172740202Y-88501499D01*
X172692227Y-88552293D01*
X172624405Y-88569087D01*
X172558271Y-88546548D01*
X172519234Y-88501495D01*
X172514624Y-88492447D01*
X172415758Y-88356372D01*
X172415758Y-88356371D01*
X171803670Y-88968460D01*
X171760099Y-88892993D01*
X171667007Y-88799901D01*
X171591539Y-88756329D01*
X172203627Y-88144241D01*
X172203626Y-88144240D01*
X172067554Y-88045377D01*
X171878217Y-87948904D01*
X171676129Y-87883242D01*
X171466246Y-87850000D01*
X171253754Y-87850000D01*
X171043872Y-87883242D01*
X171043869Y-87883242D01*
X170841782Y-87948904D01*
X170652442Y-88045379D01*
X170516372Y-88144239D01*
X170516371Y-88144240D01*
X171128461Y-88756329D01*
X171052993Y-88799901D01*
X170959901Y-88892993D01*
X170916329Y-88968460D01*
X170304240Y-88356371D01*
X170304239Y-88356372D01*
X170205378Y-88492443D01*
X170200762Y-88501502D01*
X170152784Y-88552295D01*
X170084963Y-88569087D01*
X170018829Y-88546546D01*
X169979794Y-88501493D01*
X169975051Y-88492184D01*
X169975049Y-88492181D01*
X169975048Y-88492179D01*
X169850109Y-88320213D01*
X169699786Y-88169890D01*
X169527820Y-88044951D01*
X169338414Y-87948444D01*
X169338413Y-87948443D01*
X169338412Y-87948443D01*
X169136243Y-87882754D01*
X169136241Y-87882753D01*
X169136240Y-87882753D01*
X168974957Y-87857208D01*
X168926287Y-87849500D01*
X168713713Y-87849500D01*
X168665042Y-87857208D01*
X168503760Y-87882753D01*
X168301585Y-87948444D01*
X168112179Y-88044951D01*
X167940213Y-88169890D01*
X167789890Y-88320213D01*
X167664949Y-88492182D01*
X167660484Y-88500946D01*
X167612509Y-88551742D01*
X167544688Y-88568536D01*
X167478553Y-88545998D01*
X167439516Y-88500946D01*
X167435050Y-88492182D01*
X167310109Y-88320213D01*
X167159786Y-88169890D01*
X166987820Y-88044951D01*
X166798414Y-87948444D01*
X166798413Y-87948443D01*
X166798412Y-87948443D01*
X166596243Y-87882754D01*
X166596241Y-87882753D01*
X166596240Y-87882753D01*
X166434957Y-87857208D01*
X166386287Y-87849500D01*
X166173713Y-87849500D01*
X166125042Y-87857208D01*
X165963760Y-87882753D01*
X165761585Y-87948444D01*
X165572179Y-88044951D01*
X165400213Y-88169890D01*
X165249890Y-88320213D01*
X165124949Y-88492182D01*
X165120484Y-88500946D01*
X165072509Y-88551742D01*
X165004688Y-88568536D01*
X164938553Y-88545998D01*
X164899516Y-88500946D01*
X164895050Y-88492182D01*
X164770109Y-88320213D01*
X164619786Y-88169890D01*
X164447820Y-88044951D01*
X164258414Y-87948444D01*
X164258413Y-87948443D01*
X164258412Y-87948443D01*
X164056243Y-87882754D01*
X164056241Y-87882753D01*
X164056240Y-87882753D01*
X163894957Y-87857208D01*
X163846287Y-87849500D01*
X163633713Y-87849500D01*
X163585042Y-87857208D01*
X163423760Y-87882753D01*
X163221585Y-87948444D01*
X163032179Y-88044951D01*
X162860213Y-88169890D01*
X162709890Y-88320213D01*
X162584951Y-88492179D01*
X162488444Y-88681585D01*
X162422753Y-88883760D01*
X162389500Y-89093713D01*
X130000500Y-89093713D01*
X130000500Y-81352534D01*
X183109500Y-81352534D01*
X183109500Y-81567465D01*
X183143124Y-81779756D01*
X183143124Y-81779759D01*
X183209540Y-81984167D01*
X183209541Y-81984170D01*
X183307120Y-82175678D01*
X183433455Y-82349563D01*
X183433457Y-82349565D01*
X183527981Y-82444089D01*
X183561466Y-82505412D01*
X183556482Y-82575104D01*
X183514610Y-82631037D01*
X183483633Y-82647952D01*
X183367671Y-82691202D01*
X183367664Y-82691206D01*
X183252455Y-82777452D01*
X183252452Y-82777455D01*
X183166206Y-82892664D01*
X183166202Y-82892671D01*
X183115908Y-83027517D01*
X183109501Y-83087116D01*
X183109501Y-83087123D01*
X183109500Y-83087135D01*
X183109500Y-84912870D01*
X183109501Y-84912876D01*
X183115908Y-84972483D01*
X183166202Y-85107328D01*
X183166206Y-85107335D01*
X183252452Y-85222544D01*
X183252455Y-85222547D01*
X183367664Y-85308793D01*
X183367671Y-85308797D01*
X183502517Y-85359091D01*
X183502516Y-85359091D01*
X183509444Y-85359835D01*
X183562127Y-85365500D01*
X185687872Y-85365499D01*
X185747483Y-85359091D01*
X185882331Y-85308796D01*
X185997546Y-85222546D01*
X186083796Y-85107331D01*
X186134091Y-84972483D01*
X186140500Y-84912873D01*
X186140499Y-83087128D01*
X186134091Y-83027517D01*
X186083796Y-82892669D01*
X186083795Y-82892668D01*
X186083793Y-82892664D01*
X185997547Y-82777455D01*
X185997544Y-82777452D01*
X185882335Y-82691206D01*
X185882328Y-82691202D01*
X185766366Y-82647952D01*
X185710433Y-82606081D01*
X185686015Y-82540617D01*
X185700866Y-82472344D01*
X185722012Y-82444095D01*
X185816545Y-82349563D01*
X185942880Y-82175678D01*
X186040458Y-81984170D01*
X186106876Y-81779755D01*
X186140500Y-81567467D01*
X186140500Y-81352533D01*
X186106876Y-81140245D01*
X186106875Y-81140241D01*
X186106875Y-81140240D01*
X186040459Y-80935832D01*
X186040458Y-80935829D01*
X185942879Y-80744321D01*
X185816545Y-80570437D01*
X185664563Y-80418455D01*
X185490678Y-80292120D01*
X185490676Y-80292119D01*
X185487772Y-80290009D01*
X185445107Y-80234679D01*
X185439128Y-80165066D01*
X185471734Y-80103271D01*
X185487773Y-80089373D01*
X185664234Y-79961166D01*
X185664240Y-79961161D01*
X185816161Y-79809240D01*
X185942452Y-79635416D01*
X186039996Y-79443975D01*
X186106388Y-79239642D01*
X186106388Y-79239639D01*
X186133257Y-79070000D01*
X185112799Y-79070000D01*
X185135000Y-78987143D01*
X185135000Y-78852857D01*
X185112799Y-78770000D01*
X186133257Y-78770000D01*
X186106388Y-78600360D01*
X186106388Y-78600357D01*
X186039996Y-78396024D01*
X185942452Y-78204583D01*
X185816161Y-78030759D01*
X185664240Y-77878838D01*
X185490416Y-77752547D01*
X185298975Y-77655003D01*
X185094641Y-77588611D01*
X184882427Y-77555000D01*
X184775000Y-77555000D01*
X184775000Y-78432201D01*
X184692143Y-78410000D01*
X184557857Y-78410000D01*
X184475000Y-78432201D01*
X184475000Y-77555000D01*
X184367573Y-77555000D01*
X184155360Y-77588611D01*
X184155357Y-77588611D01*
X183951024Y-77655003D01*
X183759583Y-77752547D01*
X183585759Y-77878838D01*
X183433838Y-78030759D01*
X183307547Y-78204583D01*
X183210003Y-78396024D01*
X183143611Y-78600357D01*
X183143611Y-78600360D01*
X183116743Y-78770000D01*
X184137201Y-78770000D01*
X184115000Y-78852857D01*
X184115000Y-78987143D01*
X184137201Y-79070000D01*
X183116743Y-79070000D01*
X183143611Y-79239639D01*
X183143611Y-79239642D01*
X183210003Y-79443975D01*
X183307547Y-79635416D01*
X183433838Y-79809240D01*
X183585759Y-79961161D01*
X183762227Y-80089373D01*
X183804892Y-80144703D01*
X183810871Y-80214316D01*
X183778265Y-80276111D01*
X183762227Y-80290009D01*
X183688480Y-80343589D01*
X183585437Y-80418455D01*
X183585435Y-80418457D01*
X183585434Y-80418457D01*
X183433457Y-80570434D01*
X183433457Y-80570435D01*
X183433455Y-80570437D01*
X183379198Y-80645114D01*
X183307120Y-80744321D01*
X183209541Y-80935829D01*
X183209540Y-80935832D01*
X183143124Y-81140240D01*
X183143124Y-81140243D01*
X183109500Y-81352534D01*
X130000500Y-81352534D01*
X130000500Y-65407135D01*
X134184500Y-65407135D01*
X134184500Y-67232870D01*
X134184501Y-67232876D01*
X134190908Y-67292483D01*
X134241202Y-67427328D01*
X134241206Y-67427335D01*
X134327452Y-67542544D01*
X134327455Y-67542547D01*
X134442664Y-67628793D01*
X134442673Y-67628798D01*
X134510723Y-67654178D01*
X134558632Y-67672047D01*
X134614566Y-67713917D01*
X134638984Y-67779381D01*
X134624133Y-67847654D01*
X134602982Y-67875910D01*
X134508454Y-67970438D01*
X134382120Y-68144321D01*
X134284541Y-68335829D01*
X134284540Y-68335832D01*
X134218124Y-68540240D01*
X134218124Y-68540243D01*
X134212690Y-68574553D01*
X134184500Y-68752533D01*
X134184500Y-68967467D01*
X134199006Y-69059053D01*
X134218124Y-69179756D01*
X134218124Y-69179759D01*
X134284540Y-69384167D01*
X134284541Y-69384170D01*
X134382120Y-69575678D01*
X134508455Y-69749563D01*
X134660437Y-69901545D01*
X134760211Y-69974035D01*
X134837226Y-70029990D01*
X134879892Y-70085320D01*
X134885871Y-70154933D01*
X134853265Y-70216728D01*
X134837227Y-70230626D01*
X134660760Y-70358838D01*
X134660759Y-70358838D01*
X134508838Y-70510759D01*
X134382547Y-70684583D01*
X134285003Y-70876024D01*
X134218611Y-71080357D01*
X134218611Y-71080360D01*
X134191743Y-71250000D01*
X135212201Y-71250000D01*
X135190000Y-71332857D01*
X135190000Y-71467143D01*
X135212201Y-71550000D01*
X134191743Y-71550000D01*
X134218611Y-71719639D01*
X134218611Y-71719642D01*
X134285003Y-71923975D01*
X134382547Y-72115416D01*
X134508838Y-72289240D01*
X134660759Y-72441161D01*
X134837227Y-72569373D01*
X134879892Y-72624703D01*
X134885871Y-72694316D01*
X134853265Y-72756111D01*
X134837227Y-72770009D01*
X134763480Y-72823589D01*
X134660437Y-72898455D01*
X134660435Y-72898457D01*
X134660434Y-72898457D01*
X134508457Y-73050434D01*
X134508457Y-73050435D01*
X134508455Y-73050437D01*
X134463099Y-73112864D01*
X134382120Y-73224321D01*
X134284541Y-73415829D01*
X134284540Y-73415832D01*
X134218124Y-73620240D01*
X134218124Y-73620243D01*
X134184500Y-73832534D01*
X134184500Y-74047465D01*
X134218124Y-74259756D01*
X134218124Y-74259759D01*
X134284540Y-74464167D01*
X134284541Y-74464170D01*
X134382120Y-74655678D01*
X134508455Y-74829563D01*
X134660437Y-74981545D01*
X134834322Y-75107880D01*
X134928251Y-75155739D01*
X135025829Y-75205458D01*
X135025832Y-75205459D01*
X135203484Y-75263181D01*
X135230245Y-75271876D01*
X135442533Y-75305500D01*
X135442534Y-75305500D01*
X135957466Y-75305500D01*
X135957467Y-75305500D01*
X136169755Y-75271876D01*
X136169758Y-75271875D01*
X136169759Y-75271875D01*
X136374167Y-75205459D01*
X136374170Y-75205458D01*
X136565678Y-75107880D01*
X136739563Y-74981545D01*
X136891545Y-74829563D01*
X137017880Y-74655678D01*
X137115458Y-74464170D01*
X137181876Y-74259755D01*
X137215500Y-74047467D01*
X137215500Y-73832533D01*
X137181876Y-73620245D01*
X137181875Y-73620241D01*
X137181875Y-73620240D01*
X137115459Y-73415832D01*
X137115458Y-73415829D01*
X137017879Y-73224321D01*
X136891545Y-73050437D01*
X136739563Y-72898455D01*
X136565678Y-72772120D01*
X136565676Y-72772119D01*
X136562772Y-72770009D01*
X136520107Y-72714679D01*
X136514128Y-72645066D01*
X136546734Y-72583271D01*
X136562773Y-72569373D01*
X136739234Y-72441166D01*
X136739240Y-72441161D01*
X136891161Y-72289240D01*
X137017454Y-72115414D01*
X137083722Y-71985354D01*
X137131696Y-71934558D01*
X137199517Y-71917762D01*
X137265652Y-71940299D01*
X137281888Y-71953967D01*
X137349707Y-72021786D01*
X137349711Y-72021789D01*
X137480814Y-72109390D01*
X137480827Y-72109397D01*
X137606875Y-72161607D01*
X137626503Y-72169737D01*
X137768635Y-72198009D01*
X137781153Y-72200499D01*
X137781156Y-72200500D01*
X137781158Y-72200500D01*
X137938844Y-72200500D01*
X137938845Y-72200499D01*
X138093497Y-72169737D01*
X138206166Y-72123067D01*
X138239172Y-72109397D01*
X138239172Y-72109396D01*
X138239179Y-72109394D01*
X138370289Y-72021789D01*
X138481789Y-71910289D01*
X138569394Y-71779179D01*
X138629737Y-71633497D01*
X138660500Y-71478842D01*
X138660500Y-71321158D01*
X138660499Y-71321150D01*
X138658540Y-71311304D01*
X149899500Y-71311304D01*
X149899500Y-71488695D01*
X149934103Y-71662658D01*
X149934106Y-71662667D01*
X150001983Y-71826540D01*
X150001990Y-71826553D01*
X150100535Y-71974034D01*
X150100538Y-71974038D01*
X150225961Y-72099461D01*
X150225965Y-72099464D01*
X150373446Y-72198009D01*
X150373459Y-72198016D01*
X150496363Y-72248923D01*
X150537334Y-72265894D01*
X150537336Y-72265894D01*
X150537341Y-72265896D01*
X150711304Y-72300499D01*
X150711307Y-72300500D01*
X150864548Y-72300500D01*
X150931587Y-72320185D01*
X150952229Y-72336819D01*
X154763181Y-76147771D01*
X154796666Y-76209094D01*
X154799500Y-76235452D01*
X154799500Y-76288695D01*
X154834103Y-76462658D01*
X154834106Y-76462667D01*
X154901983Y-76626540D01*
X154901990Y-76626553D01*
X155000535Y-76774034D01*
X155000538Y-76774038D01*
X155125961Y-76899461D01*
X155125965Y-76899464D01*
X155273446Y-76998009D01*
X155273459Y-76998016D01*
X155396363Y-77048923D01*
X155437334Y-77065894D01*
X155437336Y-77065894D01*
X155437341Y-77065896D01*
X155611304Y-77100499D01*
X155611307Y-77100500D01*
X155611309Y-77100500D01*
X155788693Y-77100500D01*
X155788694Y-77100499D01*
X155846682Y-77088964D01*
X155962658Y-77065896D01*
X155962661Y-77065894D01*
X155962666Y-77065894D01*
X156126547Y-76998013D01*
X156274035Y-76899464D01*
X156399464Y-76774035D01*
X156498013Y-76626547D01*
X156565894Y-76462666D01*
X156600500Y-76288691D01*
X156600500Y-76111309D01*
X156600500Y-76111306D01*
X156600499Y-76111304D01*
X156565896Y-75937341D01*
X156565893Y-75937332D01*
X156498016Y-75773459D01*
X156498009Y-75773446D01*
X156399464Y-75625965D01*
X156399461Y-75625961D01*
X156274038Y-75500538D01*
X156274034Y-75500535D01*
X156126553Y-75401990D01*
X156126540Y-75401983D01*
X155962667Y-75334106D01*
X155962658Y-75334103D01*
X155788694Y-75299500D01*
X155788691Y-75299500D01*
X155735452Y-75299500D01*
X155668413Y-75279815D01*
X155647771Y-75263181D01*
X151728240Y-71343650D01*
X151694755Y-71282327D01*
X151694304Y-71280160D01*
X151665896Y-71137341D01*
X151665893Y-71137332D01*
X151598016Y-70973459D01*
X151598009Y-70973446D01*
X151499464Y-70825965D01*
X151499461Y-70825961D01*
X151374038Y-70700538D01*
X151374034Y-70700535D01*
X151226553Y-70601990D01*
X151226540Y-70601983D01*
X151062667Y-70534106D01*
X151062658Y-70534103D01*
X150888694Y-70499500D01*
X150888691Y-70499500D01*
X150711309Y-70499500D01*
X150711306Y-70499500D01*
X150537341Y-70534103D01*
X150537332Y-70534106D01*
X150373459Y-70601983D01*
X150373446Y-70601990D01*
X150225965Y-70700535D01*
X150225961Y-70700538D01*
X150100538Y-70825961D01*
X150100535Y-70825965D01*
X150001990Y-70973446D01*
X150001983Y-70973459D01*
X149934106Y-71137332D01*
X149934103Y-71137341D01*
X149899500Y-71311304D01*
X138658540Y-71311304D01*
X138629738Y-71166510D01*
X138629737Y-71166503D01*
X138594056Y-71080360D01*
X138569397Y-71020827D01*
X138569390Y-71020814D01*
X138481789Y-70889711D01*
X138481786Y-70889707D01*
X138370292Y-70778213D01*
X138370288Y-70778210D01*
X138239185Y-70690609D01*
X138239172Y-70690602D01*
X138093501Y-70630264D01*
X138093489Y-70630261D01*
X137938845Y-70599500D01*
X137938842Y-70599500D01*
X137781158Y-70599500D01*
X137781155Y-70599500D01*
X137626510Y-70630261D01*
X137626498Y-70630264D01*
X137480827Y-70690602D01*
X137480814Y-70690609D01*
X137349711Y-70778210D01*
X137281888Y-70846033D01*
X137220564Y-70879517D01*
X137150873Y-70874532D01*
X137094939Y-70832661D01*
X137083722Y-70814645D01*
X137017454Y-70684585D01*
X136891161Y-70510759D01*
X136739240Y-70358838D01*
X136562772Y-70230626D01*
X136520107Y-70175296D01*
X136514128Y-70105682D01*
X136546734Y-70043888D01*
X136562773Y-70029990D01*
X136565675Y-70027881D01*
X136565678Y-70027880D01*
X136739563Y-69901545D01*
X136891545Y-69749563D01*
X137017880Y-69575678D01*
X137115458Y-69384170D01*
X137181876Y-69179755D01*
X137215500Y-68967467D01*
X137215500Y-68752533D01*
X137181876Y-68540245D01*
X137181875Y-68540241D01*
X137181875Y-68540240D01*
X137115459Y-68335832D01*
X137115458Y-68335829D01*
X137065739Y-68238251D01*
X137017880Y-68144322D01*
X136891545Y-67970437D01*
X136797018Y-67875910D01*
X136763533Y-67814587D01*
X136768517Y-67744895D01*
X136810389Y-67688962D01*
X136841362Y-67672049D01*
X136957331Y-67628796D01*
X137072546Y-67542546D01*
X137158796Y-67427331D01*
X137209091Y-67292483D01*
X137215500Y-67232873D01*
X137215499Y-65407128D01*
X137209091Y-65347517D01*
X137205292Y-65337332D01*
X137158797Y-65212671D01*
X137158793Y-65212664D01*
X137072547Y-65097455D01*
X137072544Y-65097452D01*
X136957335Y-65011206D01*
X136957328Y-65011202D01*
X136822482Y-64960908D01*
X136822483Y-64960908D01*
X136762883Y-64954501D01*
X136762881Y-64954500D01*
X136762873Y-64954500D01*
X136762864Y-64954500D01*
X134637129Y-64954500D01*
X134637123Y-64954501D01*
X134577516Y-64960908D01*
X134442671Y-65011202D01*
X134442664Y-65011206D01*
X134327455Y-65097452D01*
X134327452Y-65097455D01*
X134241206Y-65212664D01*
X134241202Y-65212671D01*
X134190908Y-65347517D01*
X134184501Y-65407116D01*
X134184501Y-65407123D01*
X134184500Y-65407135D01*
X130000500Y-65407135D01*
X130000500Y-62411304D01*
X143099500Y-62411304D01*
X143099500Y-62588695D01*
X143134103Y-62762658D01*
X143134106Y-62762667D01*
X143201983Y-62926540D01*
X143201990Y-62926553D01*
X143300535Y-63074034D01*
X143300538Y-63074038D01*
X143425961Y-63199461D01*
X143425965Y-63199464D01*
X143573446Y-63298009D01*
X143573459Y-63298016D01*
X143696363Y-63348923D01*
X143737334Y-63365894D01*
X143737336Y-63365894D01*
X143737341Y-63365896D01*
X143911304Y-63400499D01*
X143911307Y-63400500D01*
X143911309Y-63400500D01*
X144088693Y-63400500D01*
X144088694Y-63400499D01*
X144146682Y-63388964D01*
X144262658Y-63365896D01*
X144262661Y-63365894D01*
X144262666Y-63365894D01*
X144426547Y-63298013D01*
X144574035Y-63199464D01*
X144611679Y-63161820D01*
X144673001Y-63128334D01*
X144699361Y-63125500D01*
X146900639Y-63125500D01*
X146967678Y-63145185D01*
X146988321Y-63161820D01*
X147025961Y-63199461D01*
X147025965Y-63199464D01*
X147173446Y-63298009D01*
X147173459Y-63298016D01*
X147296363Y-63348923D01*
X147337334Y-63365894D01*
X147337336Y-63365894D01*
X147337341Y-63365896D01*
X147511304Y-63400499D01*
X147511307Y-63400500D01*
X147511309Y-63400500D01*
X147688693Y-63400500D01*
X147688694Y-63400499D01*
X147746682Y-63388964D01*
X147862658Y-63365896D01*
X147862661Y-63365894D01*
X147862666Y-63365894D01*
X148026547Y-63298013D01*
X148174035Y-63199464D01*
X148299464Y-63074035D01*
X148398013Y-62926547D01*
X148427734Y-62854791D01*
X148471572Y-62800391D01*
X148537866Y-62778325D01*
X148605566Y-62795603D01*
X148629975Y-62814565D01*
X151363181Y-65547771D01*
X151396666Y-65609094D01*
X151399500Y-65635452D01*
X151399500Y-65688695D01*
X151434103Y-65862658D01*
X151434106Y-65862667D01*
X151501983Y-66026540D01*
X151501990Y-66026553D01*
X151600535Y-66174034D01*
X151600538Y-66174038D01*
X151725961Y-66299461D01*
X151725965Y-66299464D01*
X151873446Y-66398009D01*
X151873459Y-66398016D01*
X151996363Y-66448923D01*
X152037334Y-66465894D01*
X152037336Y-66465894D01*
X152037341Y-66465896D01*
X152211304Y-66500499D01*
X152211307Y-66500500D01*
X152211309Y-66500500D01*
X152388693Y-66500500D01*
X152388694Y-66500499D01*
X152446682Y-66488964D01*
X152562658Y-66465896D01*
X152562661Y-66465894D01*
X152562666Y-66465894D01*
X152702535Y-66407958D01*
X152726540Y-66398016D01*
X152726540Y-66398015D01*
X152726547Y-66398013D01*
X152874035Y-66299464D01*
X152999464Y-66174035D01*
X153098013Y-66026547D01*
X153134825Y-65937674D01*
X154248500Y-65937674D01*
X154248500Y-65942444D01*
X154248500Y-67535610D01*
X154272535Y-67656444D01*
X154272539Y-67656458D01*
X154280106Y-67674728D01*
X154280112Y-67674741D01*
X154281970Y-67679225D01*
X154319688Y-67770286D01*
X154353915Y-67821509D01*
X154357979Y-67827591D01*
X154357981Y-67827595D01*
X154388140Y-67872731D01*
X154388141Y-67872732D01*
X154388142Y-67872733D01*
X154475267Y-67959858D01*
X154475268Y-67959858D01*
X154482335Y-67966925D01*
X154482334Y-67966925D01*
X154482338Y-67966928D01*
X155375834Y-68860424D01*
X155409319Y-68921747D01*
X155412153Y-68948105D01*
X155412153Y-69001348D01*
X155446756Y-69175311D01*
X155446759Y-69175320D01*
X155514636Y-69339193D01*
X155514643Y-69339206D01*
X155613188Y-69486687D01*
X155613191Y-69486691D01*
X155738614Y-69612114D01*
X155738618Y-69612117D01*
X155886099Y-69710662D01*
X155886112Y-69710669D01*
X156009016Y-69761576D01*
X156049987Y-69778547D01*
X156049989Y-69778547D01*
X156049994Y-69778549D01*
X156223957Y-69813152D01*
X156223960Y-69813153D01*
X156223962Y-69813153D01*
X156401346Y-69813153D01*
X156401347Y-69813152D01*
X156459335Y-69801617D01*
X156575311Y-69778549D01*
X156575314Y-69778547D01*
X156575319Y-69778547D01*
X156739200Y-69710666D01*
X156886688Y-69612117D01*
X157012117Y-69486688D01*
X157110666Y-69339200D01*
X157178547Y-69175319D01*
X157201674Y-69059053D01*
X157234059Y-68997142D01*
X157294774Y-68962568D01*
X157364544Y-68966307D01*
X157410972Y-68995563D01*
X160738181Y-72322771D01*
X160771666Y-72384094D01*
X160774500Y-72410452D01*
X160774500Y-77800638D01*
X160754815Y-77867677D01*
X160738181Y-77888319D01*
X160700538Y-77925961D01*
X160700535Y-77925965D01*
X160601990Y-78073446D01*
X160601983Y-78073459D01*
X160534106Y-78237332D01*
X160534103Y-78237341D01*
X160499500Y-78411304D01*
X160499500Y-78588695D01*
X160534103Y-78762658D01*
X160534106Y-78762667D01*
X160601983Y-78926540D01*
X160601990Y-78926553D01*
X160700535Y-79074034D01*
X160700538Y-79074038D01*
X160825961Y-79199461D01*
X160825965Y-79199464D01*
X160973446Y-79298009D01*
X160973459Y-79298016D01*
X161046095Y-79328102D01*
X161137334Y-79365894D01*
X161137336Y-79365894D01*
X161137341Y-79365896D01*
X161311304Y-79400499D01*
X161311307Y-79400500D01*
X161311309Y-79400500D01*
X161488693Y-79400500D01*
X161488694Y-79400499D01*
X161546682Y-79388964D01*
X161662658Y-79365896D01*
X161662661Y-79365894D01*
X161662666Y-79365894D01*
X161826547Y-79298013D01*
X161974035Y-79199464D01*
X162099464Y-79074035D01*
X162198013Y-78926547D01*
X162265894Y-78762666D01*
X162300500Y-78588691D01*
X162300500Y-78411309D01*
X162300500Y-78411306D01*
X162300499Y-78411304D01*
X162265896Y-78237341D01*
X162265893Y-78237332D01*
X162198016Y-78073459D01*
X162198009Y-78073446D01*
X162099464Y-77925965D01*
X162099461Y-77925961D01*
X162061819Y-77888319D01*
X162028334Y-77826996D01*
X162025500Y-77800638D01*
X162025500Y-72167741D01*
X162025501Y-72167720D01*
X162025501Y-72038391D01*
X162001464Y-71917555D01*
X162001463Y-71917549D01*
X161954312Y-71803715D01*
X161885858Y-71701267D01*
X161885855Y-71701263D01*
X156536819Y-66352227D01*
X156503334Y-66290904D01*
X156500500Y-66264546D01*
X156500500Y-66211306D01*
X156500499Y-66211304D01*
X156465896Y-66037341D01*
X156465893Y-66037332D01*
X156398016Y-65873459D01*
X156398009Y-65873446D01*
X156299464Y-65725965D01*
X156299461Y-65725961D01*
X156253365Y-65679865D01*
X156219880Y-65618542D01*
X156224864Y-65548850D01*
X156253363Y-65504505D01*
X158596051Y-63161819D01*
X158657374Y-63128334D01*
X158683732Y-63125500D01*
X159100639Y-63125500D01*
X159167678Y-63145185D01*
X159188321Y-63161820D01*
X159225961Y-63199461D01*
X159225965Y-63199464D01*
X159373446Y-63298009D01*
X159373459Y-63298016D01*
X159496363Y-63348923D01*
X159537334Y-63365894D01*
X159537336Y-63365894D01*
X159537341Y-63365896D01*
X159711304Y-63400499D01*
X159711307Y-63400500D01*
X159711309Y-63400500D01*
X159888693Y-63400500D01*
X159888694Y-63400499D01*
X159946682Y-63388964D01*
X160062658Y-63365896D01*
X160062661Y-63365894D01*
X160062666Y-63365894D01*
X160226547Y-63298013D01*
X160318417Y-63236626D01*
X160385094Y-63215749D01*
X160452474Y-63234233D01*
X160499165Y-63286212D01*
X160510341Y-63355182D01*
X160508926Y-63363919D01*
X160499500Y-63411309D01*
X160499500Y-63588695D01*
X160534103Y-63762658D01*
X160534106Y-63762667D01*
X160601983Y-63926540D01*
X160601990Y-63926553D01*
X160700535Y-64074034D01*
X160700538Y-64074038D01*
X160738180Y-64111679D01*
X160771666Y-64173001D01*
X160774500Y-64199361D01*
X160774500Y-64588330D01*
X160798535Y-64709164D01*
X160798539Y-64709178D01*
X160799422Y-64711309D01*
X160808865Y-64734106D01*
X160845688Y-64823006D01*
X160879915Y-64874229D01*
X160883947Y-64880263D01*
X160914140Y-64925451D01*
X160914141Y-64925452D01*
X160914142Y-64925453D01*
X161001267Y-65012578D01*
X161001268Y-65012578D01*
X161008335Y-65019645D01*
X161008334Y-65019645D01*
X161008338Y-65019648D01*
X165874543Y-69885855D01*
X165874547Y-69885858D01*
X165976990Y-69954309D01*
X165976991Y-69954309D01*
X165976995Y-69954312D01*
X166038421Y-69979755D01*
X166090828Y-70001463D01*
X166109381Y-70005153D01*
X166118102Y-70008293D01*
X166139127Y-70023660D01*
X166162203Y-70035731D01*
X166163782Y-70037282D01*
X166225961Y-70099461D01*
X166225965Y-70099464D01*
X166373446Y-70198009D01*
X166373459Y-70198016D01*
X166496363Y-70248923D01*
X166537334Y-70265894D01*
X166537336Y-70265894D01*
X166537341Y-70265896D01*
X166711304Y-70300499D01*
X166711307Y-70300500D01*
X166711309Y-70300500D01*
X166888693Y-70300500D01*
X166888694Y-70300499D01*
X166946682Y-70288964D01*
X167062658Y-70265896D01*
X167062661Y-70265894D01*
X167062666Y-70265894D01*
X167226547Y-70198013D01*
X167280164Y-70162187D01*
X167379100Y-70096080D01*
X167380197Y-70097723D01*
X167386737Y-70094944D01*
X167398989Y-70084328D01*
X167418227Y-70081561D01*
X167436118Y-70073959D01*
X167452098Y-70076691D01*
X167468147Y-70074384D01*
X167485828Y-70082458D01*
X167504988Y-70085735D01*
X167516954Y-70096673D01*
X167531703Y-70103409D01*
X167542211Y-70119761D01*
X167556559Y-70132876D01*
X167561107Y-70149163D01*
X167569477Y-70162187D01*
X167574500Y-70197122D01*
X167574500Y-70327314D01*
X167554815Y-70394353D01*
X167553602Y-70396205D01*
X167501988Y-70473449D01*
X167501987Y-70473452D01*
X167434106Y-70637332D01*
X167434103Y-70637341D01*
X167399500Y-70811304D01*
X167399500Y-70988695D01*
X167434103Y-71162658D01*
X167434106Y-71162667D01*
X167501983Y-71326540D01*
X167501990Y-71326553D01*
X167600535Y-71474034D01*
X167600538Y-71474038D01*
X167725961Y-71599461D01*
X167725965Y-71599464D01*
X167873446Y-71698009D01*
X167873459Y-71698016D01*
X167996363Y-71748923D01*
X168037334Y-71765894D01*
X168037336Y-71765894D01*
X168037341Y-71765896D01*
X168211304Y-71800499D01*
X168211307Y-71800500D01*
X168211309Y-71800500D01*
X168388693Y-71800500D01*
X168388694Y-71800499D01*
X168446682Y-71788964D01*
X168562658Y-71765896D01*
X168562661Y-71765894D01*
X168562666Y-71765894D01*
X168726547Y-71698013D01*
X168874035Y-71599464D01*
X168999464Y-71474035D01*
X169098013Y-71326547D01*
X169100249Y-71321150D01*
X169117227Y-71280160D01*
X169165894Y-71162666D01*
X169170932Y-71137341D01*
X169200499Y-70988695D01*
X169200500Y-70988693D01*
X169200500Y-70811306D01*
X169200499Y-70811304D01*
X169165896Y-70637341D01*
X169165893Y-70637332D01*
X169162965Y-70630264D01*
X169129539Y-70549564D01*
X169098016Y-70473459D01*
X169098009Y-70473446D01*
X168999465Y-70325966D01*
X168939392Y-70265893D01*
X168874035Y-70200536D01*
X168874031Y-70200533D01*
X168874029Y-70200531D01*
X168870826Y-70197902D01*
X168831497Y-70140152D01*
X168825500Y-70102056D01*
X168825500Y-69552533D01*
X182984500Y-69552533D01*
X182984500Y-69767467D01*
X183005737Y-69901547D01*
X183018124Y-69979755D01*
X183018124Y-69979759D01*
X183084540Y-70184167D01*
X183084541Y-70184170D01*
X183157477Y-70327314D01*
X183182120Y-70375678D01*
X183308455Y-70549563D01*
X183308457Y-70549565D01*
X183402981Y-70644089D01*
X183436466Y-70705412D01*
X183431482Y-70775104D01*
X183389610Y-70831037D01*
X183358633Y-70847952D01*
X183242671Y-70891202D01*
X183242664Y-70891206D01*
X183127455Y-70977452D01*
X183127452Y-70977455D01*
X183041206Y-71092664D01*
X183041202Y-71092671D01*
X182990908Y-71227517D01*
X182986375Y-71269685D01*
X182984501Y-71287123D01*
X182984500Y-71287135D01*
X182984500Y-73112870D01*
X182984501Y-73112876D01*
X182990908Y-73172483D01*
X183041202Y-73307328D01*
X183041206Y-73307335D01*
X183127452Y-73422544D01*
X183127455Y-73422547D01*
X183242664Y-73508793D01*
X183242671Y-73508797D01*
X183377517Y-73559091D01*
X183377516Y-73559091D01*
X183384444Y-73559835D01*
X183437127Y-73565500D01*
X185562872Y-73565499D01*
X185622483Y-73559091D01*
X185757331Y-73508796D01*
X185872546Y-73422546D01*
X185958796Y-73307331D01*
X186009091Y-73172483D01*
X186015500Y-73112873D01*
X186015499Y-71287128D01*
X186009091Y-71227517D01*
X185986334Y-71166503D01*
X185958797Y-71092671D01*
X185958793Y-71092664D01*
X185872547Y-70977455D01*
X185872544Y-70977452D01*
X185757335Y-70891206D01*
X185757328Y-70891202D01*
X185641366Y-70847952D01*
X185585433Y-70806081D01*
X185561015Y-70740617D01*
X185575866Y-70672344D01*
X185597012Y-70644095D01*
X185691545Y-70549563D01*
X185817880Y-70375678D01*
X185915458Y-70184170D01*
X185942138Y-70102056D01*
X185981875Y-69979759D01*
X185981876Y-69979755D01*
X185994263Y-69901547D01*
X186015500Y-69767467D01*
X186015500Y-69552533D01*
X185981876Y-69340245D01*
X185981875Y-69340241D01*
X185981875Y-69340240D01*
X185915459Y-69135832D01*
X185915458Y-69135829D01*
X185844793Y-68997142D01*
X185817880Y-68944322D01*
X185691545Y-68770437D01*
X185539563Y-68618455D01*
X185365678Y-68492120D01*
X185365676Y-68492119D01*
X185362772Y-68490009D01*
X185320107Y-68434679D01*
X185314128Y-68365066D01*
X185346734Y-68303271D01*
X185362773Y-68289373D01*
X185539234Y-68161166D01*
X185539240Y-68161161D01*
X185691161Y-68009240D01*
X185817452Y-67835416D01*
X185914996Y-67643975D01*
X185981388Y-67439642D01*
X185981388Y-67439639D01*
X186008257Y-67270000D01*
X184987799Y-67270000D01*
X185010000Y-67187143D01*
X185010000Y-67052857D01*
X184987799Y-66970000D01*
X186008257Y-66970000D01*
X185981388Y-66800360D01*
X185981388Y-66800357D01*
X185914996Y-66596024D01*
X185817452Y-66404583D01*
X185691161Y-66230759D01*
X185539240Y-66078838D01*
X185365416Y-65952547D01*
X185173975Y-65855003D01*
X184969641Y-65788611D01*
X184757427Y-65755000D01*
X184650000Y-65755000D01*
X184650000Y-66632201D01*
X184567143Y-66610000D01*
X184432857Y-66610000D01*
X184350000Y-66632201D01*
X184350000Y-65755000D01*
X184242573Y-65755000D01*
X184030360Y-65788611D01*
X184030357Y-65788611D01*
X183826024Y-65855003D01*
X183634583Y-65952547D01*
X183460759Y-66078838D01*
X183308838Y-66230759D01*
X183182547Y-66404583D01*
X183085003Y-66596024D01*
X183018611Y-66800357D01*
X183018611Y-66800360D01*
X182991743Y-66970000D01*
X184012201Y-66970000D01*
X183990000Y-67052857D01*
X183990000Y-67187143D01*
X184012201Y-67270000D01*
X182991743Y-67270000D01*
X183018611Y-67439639D01*
X183018611Y-67439642D01*
X183085003Y-67643975D01*
X183182547Y-67835416D01*
X183308838Y-68009240D01*
X183460759Y-68161161D01*
X183637227Y-68289373D01*
X183679892Y-68344703D01*
X183685871Y-68414316D01*
X183653265Y-68476111D01*
X183637227Y-68490009D01*
X183628801Y-68496131D01*
X183460437Y-68618455D01*
X183460435Y-68618457D01*
X183460434Y-68618457D01*
X183308457Y-68770434D01*
X183308457Y-68770435D01*
X183308455Y-68770437D01*
X183293346Y-68791233D01*
X183182120Y-68944321D01*
X183084541Y-69135829D01*
X183084540Y-69135832D01*
X183018124Y-69340240D01*
X183018124Y-69340243D01*
X183018124Y-69340245D01*
X182984500Y-69552533D01*
X168825500Y-69552533D01*
X168825500Y-68999361D01*
X168845185Y-68932322D01*
X168861820Y-68911679D01*
X168899461Y-68874038D01*
X168899464Y-68874035D01*
X168998013Y-68726547D01*
X169065894Y-68562666D01*
X169070355Y-68540243D01*
X169100499Y-68388695D01*
X169100500Y-68388693D01*
X169100500Y-68211306D01*
X169100499Y-68211304D01*
X169065896Y-68037341D01*
X169065893Y-68037332D01*
X168998016Y-67873459D01*
X168998009Y-67873446D01*
X168899464Y-67725965D01*
X168899461Y-67725961D01*
X168774038Y-67600538D01*
X168774034Y-67600535D01*
X168626553Y-67501990D01*
X168626540Y-67501983D01*
X168462667Y-67434106D01*
X168462658Y-67434103D01*
X168288694Y-67399500D01*
X168288691Y-67399500D01*
X168111309Y-67399500D01*
X168111306Y-67399500D01*
X167937341Y-67434103D01*
X167937332Y-67434106D01*
X167773459Y-67501983D01*
X167773446Y-67501990D01*
X167625965Y-67600535D01*
X167625961Y-67600538D01*
X167500538Y-67725961D01*
X167500535Y-67725965D01*
X167401990Y-67873446D01*
X167401983Y-67873459D01*
X167334106Y-68037332D01*
X167334103Y-68037341D01*
X167299500Y-68211304D01*
X167299500Y-68388695D01*
X167307028Y-68426540D01*
X167300801Y-68496131D01*
X167257938Y-68551309D01*
X167192048Y-68574553D01*
X167137960Y-68565293D01*
X167104198Y-68551309D01*
X167062666Y-68534106D01*
X167062662Y-68534105D01*
X167062659Y-68534104D01*
X166898127Y-68501376D01*
X166836216Y-68468991D01*
X166801642Y-68408275D01*
X166805382Y-68338506D01*
X166807741Y-68332348D01*
X166815894Y-68312666D01*
X166819508Y-68294500D01*
X166850499Y-68138695D01*
X166850500Y-68138693D01*
X166850500Y-67961306D01*
X166850499Y-67961304D01*
X166815896Y-67787341D01*
X166815893Y-67787332D01*
X166808832Y-67770286D01*
X166785484Y-67713917D01*
X166748016Y-67623459D01*
X166748009Y-67623446D01*
X166649464Y-67475965D01*
X166649461Y-67475961D01*
X166524038Y-67350538D01*
X166524030Y-67350532D01*
X166502389Y-67336072D01*
X166502339Y-67336039D01*
X166376552Y-67251990D01*
X166376540Y-67251983D01*
X166212667Y-67184106D01*
X166212658Y-67184103D01*
X166038694Y-67149500D01*
X166038691Y-67149500D01*
X165985452Y-67149500D01*
X165918413Y-67129815D01*
X165897771Y-67113181D01*
X164547098Y-65762508D01*
X164513613Y-65701185D01*
X164518597Y-65631493D01*
X164560469Y-65575560D01*
X164565855Y-65571747D01*
X164674035Y-65499464D01*
X164799464Y-65374035D01*
X164898013Y-65226547D01*
X164903764Y-65212664D01*
X164907958Y-65202535D01*
X164965894Y-65062666D01*
X164973195Y-65025965D01*
X164988964Y-64946682D01*
X165000500Y-64888691D01*
X165000500Y-64711309D01*
X165000500Y-64711306D01*
X165000499Y-64711304D01*
X164965896Y-64537341D01*
X164965893Y-64537332D01*
X164898016Y-64373459D01*
X164898009Y-64373446D01*
X164799464Y-64225965D01*
X164799461Y-64225961D01*
X164761819Y-64188319D01*
X164728334Y-64126996D01*
X164725500Y-64100638D01*
X164725500Y-61811304D01*
X165699500Y-61811304D01*
X165699500Y-61988695D01*
X165734103Y-62162658D01*
X165734106Y-62162667D01*
X165801983Y-62326540D01*
X165801990Y-62326553D01*
X165900535Y-62474034D01*
X165900538Y-62474038D01*
X166025961Y-62599461D01*
X166025965Y-62599464D01*
X166173446Y-62698009D01*
X166173459Y-62698016D01*
X166296363Y-62748923D01*
X166337334Y-62765894D01*
X166337336Y-62765894D01*
X166337341Y-62765896D01*
X166511304Y-62800499D01*
X166511307Y-62800500D01*
X166511309Y-62800500D01*
X166688693Y-62800500D01*
X166688694Y-62800499D01*
X166800172Y-62778325D01*
X166862658Y-62765896D01*
X166862661Y-62765894D01*
X166862666Y-62765894D01*
X167026547Y-62698013D01*
X167174035Y-62599464D01*
X167299464Y-62474035D01*
X167398013Y-62326547D01*
X167398014Y-62326544D01*
X167398016Y-62326541D01*
X167464726Y-62165485D01*
X167465894Y-62162666D01*
X167483639Y-62073459D01*
X167495438Y-62014140D01*
X167500500Y-61988691D01*
X167500500Y-61935452D01*
X167520185Y-61868413D01*
X167536814Y-61847775D01*
X167785857Y-61598734D01*
X167854311Y-61496286D01*
X167901463Y-61382452D01*
X167925500Y-61261607D01*
X167925500Y-61138394D01*
X167925500Y-58949983D01*
X182999500Y-58949983D01*
X182999500Y-60250001D01*
X182999501Y-60250018D01*
X183010000Y-60352796D01*
X183010001Y-60352799D01*
X183065185Y-60519331D01*
X183065187Y-60519336D01*
X183157289Y-60668657D01*
X183281344Y-60792712D01*
X183436558Y-60888448D01*
X183483283Y-60940396D01*
X183494506Y-61009358D01*
X183466663Y-61073441D01*
X183459144Y-61081668D01*
X183320271Y-61220541D01*
X183195379Y-61392442D01*
X183098904Y-61581782D01*
X183033242Y-61783872D01*
X183006930Y-61950000D01*
X184022555Y-61950000D01*
X184000000Y-62034174D01*
X184000000Y-62165826D01*
X184022555Y-62250000D01*
X183006930Y-62250000D01*
X183033242Y-62416127D01*
X183098904Y-62618217D01*
X183195379Y-62807557D01*
X183320272Y-62979459D01*
X183320276Y-62979464D01*
X183470535Y-63129723D01*
X183470540Y-63129727D01*
X183642442Y-63254620D01*
X183831782Y-63351095D01*
X184033870Y-63416757D01*
X184243754Y-63450000D01*
X184350000Y-63450000D01*
X184350000Y-62577445D01*
X184434174Y-62600000D01*
X184565826Y-62600000D01*
X184650000Y-62577445D01*
X184650000Y-63450000D01*
X184756246Y-63450000D01*
X184966127Y-63416757D01*
X184966130Y-63416757D01*
X185168217Y-63351095D01*
X185357557Y-63254620D01*
X185529459Y-63129727D01*
X185529464Y-63129723D01*
X185679723Y-62979464D01*
X185679727Y-62979459D01*
X185804620Y-62807557D01*
X185901095Y-62618217D01*
X185966757Y-62416127D01*
X185993070Y-62250000D01*
X184977445Y-62250000D01*
X185000000Y-62165826D01*
X185000000Y-62034174D01*
X184977445Y-61950000D01*
X185993070Y-61950000D01*
X185966757Y-61783872D01*
X185901095Y-61581782D01*
X185804620Y-61392442D01*
X185679727Y-61220540D01*
X185679723Y-61220535D01*
X185540856Y-61081668D01*
X185507371Y-61020345D01*
X185512355Y-60950653D01*
X185554227Y-60894720D01*
X185563441Y-60888448D01*
X185569331Y-60884814D01*
X185569334Y-60884814D01*
X185718656Y-60792712D01*
X185842712Y-60668656D01*
X185934814Y-60519334D01*
X185989999Y-60352797D01*
X186000500Y-60250009D01*
X186000499Y-58949992D01*
X185989999Y-58847203D01*
X185934814Y-58680666D01*
X185842712Y-58531344D01*
X185718656Y-58407288D01*
X185569334Y-58315186D01*
X185402797Y-58260001D01*
X185402795Y-58260000D01*
X185300010Y-58249500D01*
X183699998Y-58249500D01*
X183699981Y-58249501D01*
X183597203Y-58260000D01*
X183597200Y-58260001D01*
X183430668Y-58315185D01*
X183430663Y-58315187D01*
X183281342Y-58407289D01*
X183157289Y-58531342D01*
X183065187Y-58680663D01*
X183065186Y-58680666D01*
X183010001Y-58847203D01*
X183010001Y-58847204D01*
X183010000Y-58847204D01*
X182999500Y-58949983D01*
X167925500Y-58949983D01*
X167925500Y-57799361D01*
X167945185Y-57732322D01*
X167961820Y-57711679D01*
X167999461Y-57674038D01*
X167999464Y-57674035D01*
X168098013Y-57526547D01*
X168165894Y-57362666D01*
X168200500Y-57188691D01*
X168200500Y-57011309D01*
X168200500Y-57011306D01*
X168200499Y-57011304D01*
X168165896Y-56837341D01*
X168165893Y-56837332D01*
X168098016Y-56673459D01*
X168098009Y-56673446D01*
X167999464Y-56525965D01*
X167999461Y-56525961D01*
X167874038Y-56400538D01*
X167874034Y-56400535D01*
X167726553Y-56301990D01*
X167726540Y-56301983D01*
X167562667Y-56234106D01*
X167562658Y-56234103D01*
X167388694Y-56199500D01*
X167388691Y-56199500D01*
X167211309Y-56199500D01*
X167211306Y-56199500D01*
X167037341Y-56234103D01*
X167037332Y-56234106D01*
X166873459Y-56301983D01*
X166873446Y-56301990D01*
X166725965Y-56400535D01*
X166725961Y-56400538D01*
X166600538Y-56525961D01*
X166600535Y-56525965D01*
X166501990Y-56673446D01*
X166501983Y-56673459D01*
X166434106Y-56837332D01*
X166434103Y-56837341D01*
X166399500Y-57011304D01*
X166399500Y-57188695D01*
X166434103Y-57362658D01*
X166434106Y-57362667D01*
X166501983Y-57526540D01*
X166501990Y-57526553D01*
X166600535Y-57674034D01*
X166600538Y-57674038D01*
X166638180Y-57711679D01*
X166671666Y-57773001D01*
X166674500Y-57799361D01*
X166674500Y-60875500D01*
X166654815Y-60942539D01*
X166602011Y-60988294D01*
X166550500Y-60999500D01*
X166511306Y-60999500D01*
X166337341Y-61034103D01*
X166337332Y-61034106D01*
X166173459Y-61101983D01*
X166173446Y-61101990D01*
X166025965Y-61200535D01*
X166025961Y-61200538D01*
X165900538Y-61325961D01*
X165900535Y-61325965D01*
X165801990Y-61473446D01*
X165801983Y-61473459D01*
X165734106Y-61637332D01*
X165734103Y-61637341D01*
X165699500Y-61811304D01*
X164725500Y-61811304D01*
X164725500Y-54915726D01*
X164725499Y-54915722D01*
X164721024Y-54893224D01*
X164701463Y-54794881D01*
X164654311Y-54681047D01*
X164654310Y-54681046D01*
X164654307Y-54681040D01*
X164585858Y-54578600D01*
X164585855Y-54578596D01*
X164495637Y-54488378D01*
X164495606Y-54488349D01*
X163216705Y-53209448D01*
X177099500Y-53209448D01*
X177099500Y-53390551D01*
X177127829Y-53569410D01*
X177183787Y-53741636D01*
X177183788Y-53741639D01*
X177233979Y-53840142D01*
X177258214Y-53887706D01*
X177266006Y-53902997D01*
X177372441Y-54049494D01*
X177372445Y-54049499D01*
X177500500Y-54177554D01*
X177500505Y-54177558D01*
X177585166Y-54239067D01*
X177647006Y-54283996D01*
X177752484Y-54337740D01*
X177808360Y-54366211D01*
X177808363Y-54366212D01*
X177894476Y-54394191D01*
X177980591Y-54422171D01*
X178063429Y-54435291D01*
X178159449Y-54450500D01*
X178159454Y-54450500D01*
X178340551Y-54450500D01*
X178427259Y-54436765D01*
X178519409Y-54422171D01*
X178691639Y-54366211D01*
X178852994Y-54283996D01*
X178999501Y-54177553D01*
X179127553Y-54049501D01*
X179233996Y-53902994D01*
X179316211Y-53741639D01*
X179372171Y-53569409D01*
X179386765Y-53477259D01*
X179400500Y-53390551D01*
X179400500Y-53209448D01*
X179378904Y-53073104D01*
X179372171Y-53030591D01*
X179316211Y-52858361D01*
X179316211Y-52858360D01*
X179250289Y-52728983D01*
X179233996Y-52697006D01*
X179200208Y-52650500D01*
X179127558Y-52550505D01*
X179127554Y-52550500D01*
X178999499Y-52422445D01*
X178999494Y-52422441D01*
X178852997Y-52316006D01*
X178852996Y-52316005D01*
X178852994Y-52316004D01*
X178801300Y-52289664D01*
X178691639Y-52233788D01*
X178691636Y-52233787D01*
X178519410Y-52177829D01*
X178340551Y-52149500D01*
X178340546Y-52149500D01*
X178159454Y-52149500D01*
X178159449Y-52149500D01*
X177980589Y-52177829D01*
X177808363Y-52233787D01*
X177808360Y-52233788D01*
X177647002Y-52316006D01*
X177500505Y-52422441D01*
X177500500Y-52422445D01*
X177372445Y-52550500D01*
X177372441Y-52550505D01*
X177266006Y-52697002D01*
X177183788Y-52858360D01*
X177183787Y-52858363D01*
X177127829Y-53030589D01*
X177099500Y-53209448D01*
X163216705Y-53209448D01*
X163206054Y-53198797D01*
X163206034Y-53198775D01*
X163114589Y-53107330D01*
X163069181Y-53076990D01*
X163069180Y-53076989D01*
X163063365Y-53073104D01*
X163012142Y-53038877D01*
X162931648Y-53005536D01*
X162916313Y-52999184D01*
X162898309Y-52991726D01*
X162888283Y-52989732D01*
X162837885Y-52979707D01*
X162777466Y-52967689D01*
X162777463Y-52967689D01*
X162777462Y-52967689D01*
X162043112Y-52967689D01*
X161919898Y-52967689D01*
X161919894Y-52967689D01*
X161869040Y-52977804D01*
X161869035Y-52977805D01*
X161859476Y-52979707D01*
X161799053Y-52991726D01*
X161751902Y-53011256D01*
X161685220Y-53038877D01*
X161685219Y-53038878D01*
X161662852Y-53053822D01*
X161662849Y-53053824D01*
X161582773Y-53107329D01*
X161539210Y-53150892D01*
X161495647Y-53194456D01*
X161495644Y-53194459D01*
X161476552Y-53213551D01*
X161476550Y-53213552D01*
X161476550Y-53213553D01*
X161465457Y-53219609D01*
X161415230Y-53247038D01*
X161388869Y-53249872D01*
X161335628Y-53249872D01*
X161161663Y-53284475D01*
X161161654Y-53284478D01*
X160997781Y-53352355D01*
X160997768Y-53352362D01*
X160850287Y-53450907D01*
X160850283Y-53450910D01*
X160724860Y-53576333D01*
X160724857Y-53576337D01*
X160626312Y-53723818D01*
X160626305Y-53723831D01*
X160558428Y-53887704D01*
X160558425Y-53887713D01*
X160523822Y-54061676D01*
X160523822Y-54239067D01*
X160558425Y-54413030D01*
X160558428Y-54413039D01*
X160626305Y-54576912D01*
X160626312Y-54576925D01*
X160724857Y-54724406D01*
X160724860Y-54724410D01*
X160850283Y-54849833D01*
X160850287Y-54849836D01*
X160997768Y-54948381D01*
X160997781Y-54948388D01*
X161096136Y-54989127D01*
X161161656Y-55016266D01*
X161161658Y-55016266D01*
X161161663Y-55016268D01*
X161335626Y-55050871D01*
X161335629Y-55050872D01*
X161335631Y-55050872D01*
X161513015Y-55050872D01*
X161583926Y-55036766D01*
X161641445Y-55025325D01*
X161711036Y-55031552D01*
X161766213Y-55074415D01*
X161789458Y-55140304D01*
X161789636Y-55146942D01*
X161789636Y-57542540D01*
X161769951Y-57609579D01*
X161717147Y-57655334D01*
X161647989Y-57665278D01*
X161618186Y-57657102D01*
X161562666Y-57634106D01*
X161562658Y-57634103D01*
X161388694Y-57599500D01*
X161388691Y-57599500D01*
X161211309Y-57599500D01*
X161211306Y-57599500D01*
X161037341Y-57634103D01*
X161037332Y-57634106D01*
X160873459Y-57701983D01*
X160873446Y-57701990D01*
X160725965Y-57800535D01*
X160725961Y-57800538D01*
X160600538Y-57925961D01*
X160600535Y-57925965D01*
X160501990Y-58073446D01*
X160501983Y-58073459D01*
X160434106Y-58237332D01*
X160434103Y-58237341D01*
X160399500Y-58411304D01*
X160399500Y-58588695D01*
X160434103Y-58762658D01*
X160434106Y-58762667D01*
X160501983Y-58926540D01*
X160501990Y-58926553D01*
X160600535Y-59074034D01*
X160600538Y-59074038D01*
X160725959Y-59199459D01*
X160729159Y-59202085D01*
X160768497Y-59259829D01*
X160774500Y-59297943D01*
X160774500Y-61928811D01*
X160754815Y-61995850D01*
X160702011Y-62041605D01*
X160632853Y-62051549D01*
X160569297Y-62022524D01*
X160547398Y-61997702D01*
X160499464Y-61925965D01*
X160499461Y-61925961D01*
X160374038Y-61800538D01*
X160374034Y-61800535D01*
X160226553Y-61701990D01*
X160226540Y-61701983D01*
X160062667Y-61634106D01*
X160062658Y-61634103D01*
X159888694Y-61599500D01*
X159888691Y-61599500D01*
X159711309Y-61599500D01*
X159711306Y-61599500D01*
X159537341Y-61634103D01*
X159537332Y-61634106D01*
X159373459Y-61701983D01*
X159373446Y-61701990D01*
X159225965Y-61800535D01*
X159225961Y-61800538D01*
X159188321Y-61838180D01*
X159126999Y-61871666D01*
X159100639Y-61874500D01*
X158311669Y-61874500D01*
X158251251Y-61886518D01*
X158208023Y-61895116D01*
X158190826Y-61898537D01*
X158076996Y-61945687D01*
X158076987Y-61945692D01*
X157974548Y-62014140D01*
X157947084Y-62041605D01*
X157887422Y-62101267D01*
X154388144Y-65600544D01*
X154388138Y-65600552D01*
X154319690Y-65702988D01*
X154319689Y-65702990D01*
X154302003Y-65745686D01*
X154302004Y-65745687D01*
X154273657Y-65814126D01*
X154273653Y-65814134D01*
X154272538Y-65816823D01*
X154272536Y-65816831D01*
X154256004Y-65899942D01*
X154255991Y-65900011D01*
X154255742Y-65901267D01*
X154248500Y-65937674D01*
X153134825Y-65937674D01*
X153165894Y-65862666D01*
X153167419Y-65855003D01*
X153200499Y-65688695D01*
X153200500Y-65688693D01*
X153200500Y-65511306D01*
X153200499Y-65511304D01*
X153165896Y-65337341D01*
X153165893Y-65337332D01*
X153098016Y-65173459D01*
X153098009Y-65173446D01*
X152999464Y-65025965D01*
X152999461Y-65025961D01*
X152874038Y-64900538D01*
X152874034Y-64900535D01*
X152726553Y-64801990D01*
X152726540Y-64801983D01*
X152562667Y-64734106D01*
X152562658Y-64734103D01*
X152388694Y-64699500D01*
X152388691Y-64699500D01*
X152335452Y-64699500D01*
X152268413Y-64679815D01*
X152247771Y-64663181D01*
X147435819Y-59851229D01*
X147402334Y-59789906D01*
X147399500Y-59763548D01*
X147399500Y-57124500D01*
X147419185Y-57057461D01*
X147471989Y-57011706D01*
X147523500Y-57000500D01*
X147588693Y-57000500D01*
X147588694Y-57000499D01*
X147646682Y-56988964D01*
X147762658Y-56965896D01*
X147762661Y-56965894D01*
X147762666Y-56965894D01*
X147926547Y-56898013D01*
X148074035Y-56799464D01*
X148199464Y-56674035D01*
X148298013Y-56526547D01*
X148365894Y-56362666D01*
X148400500Y-56188691D01*
X148400500Y-56135452D01*
X148420185Y-56068413D01*
X148436819Y-56047771D01*
X151122771Y-53361819D01*
X151184094Y-53328334D01*
X151210452Y-53325500D01*
X151700639Y-53325500D01*
X151767678Y-53345185D01*
X151788321Y-53361820D01*
X151825961Y-53399461D01*
X151825965Y-53399464D01*
X151973446Y-53498009D01*
X151973459Y-53498016D01*
X152096363Y-53548923D01*
X152137334Y-53565894D01*
X152137336Y-53565894D01*
X152137341Y-53565896D01*
X152311304Y-53600499D01*
X152311307Y-53600500D01*
X152311309Y-53600500D01*
X152488693Y-53600500D01*
X152488694Y-53600499D01*
X152546682Y-53588964D01*
X152662658Y-53565896D01*
X152662661Y-53565894D01*
X152662666Y-53565894D01*
X152826547Y-53498013D01*
X152974035Y-53399464D01*
X153099464Y-53274035D01*
X153198013Y-53126547D01*
X153265894Y-52962666D01*
X153300500Y-52788691D01*
X153300500Y-52611309D01*
X153300500Y-52611306D01*
X153300499Y-52611304D01*
X153265896Y-52437341D01*
X153265893Y-52437332D01*
X153198016Y-52273459D01*
X153198009Y-52273446D01*
X153099464Y-52125965D01*
X153099461Y-52125961D01*
X152974038Y-52000538D01*
X152974034Y-52000535D01*
X152826553Y-51901990D01*
X152826540Y-51901983D01*
X152662667Y-51834106D01*
X152662658Y-51834103D01*
X152488694Y-51799500D01*
X152488691Y-51799500D01*
X152311309Y-51799500D01*
X152311306Y-51799500D01*
X152137341Y-51834103D01*
X152137332Y-51834106D01*
X151973459Y-51901983D01*
X151973446Y-51901990D01*
X151825965Y-52000535D01*
X151825961Y-52000538D01*
X151788321Y-52038180D01*
X151726999Y-52071666D01*
X151700639Y-52074500D01*
X150961607Y-52074500D01*
X150838393Y-52074500D01*
X150818406Y-52078475D01*
X150798419Y-52082451D01*
X150798418Y-52082450D01*
X150717552Y-52098536D01*
X150717545Y-52098537D01*
X150693230Y-52108609D01*
X150684207Y-52112347D01*
X150603714Y-52145688D01*
X150555613Y-52177829D01*
X150549673Y-52181797D01*
X150549667Y-52181801D01*
X150501268Y-52214140D01*
X150457705Y-52257703D01*
X150414142Y-52301267D01*
X150414139Y-52301270D01*
X150101212Y-52614196D01*
X150039889Y-52647681D01*
X149970197Y-52642697D01*
X149914264Y-52600825D01*
X149889847Y-52535361D01*
X149904699Y-52467088D01*
X149910417Y-52457642D01*
X149998013Y-52326547D01*
X150065894Y-52162666D01*
X150069272Y-52145688D01*
X150100499Y-51988695D01*
X150100500Y-51988693D01*
X150100500Y-51935452D01*
X150120185Y-51868413D01*
X150136819Y-51847771D01*
X150790877Y-51193713D01*
X170049500Y-51193713D01*
X170049500Y-51406287D01*
X170082754Y-51616243D01*
X170146133Y-51811304D01*
X170148444Y-51818414D01*
X170244951Y-52007820D01*
X170369890Y-52179786D01*
X170520213Y-52330109D01*
X170692179Y-52455048D01*
X170692181Y-52455049D01*
X170692184Y-52455051D01*
X170881588Y-52551557D01*
X171083757Y-52617246D01*
X171293713Y-52650500D01*
X171293714Y-52650500D01*
X172706286Y-52650500D01*
X172706287Y-52650500D01*
X172916243Y-52617246D01*
X173118412Y-52551557D01*
X173307816Y-52455051D01*
X173352700Y-52422441D01*
X173479786Y-52330109D01*
X173479788Y-52330106D01*
X173479792Y-52330104D01*
X173630104Y-52179792D01*
X173630106Y-52179788D01*
X173630109Y-52179786D01*
X173755048Y-52007820D01*
X173755047Y-52007820D01*
X173755051Y-52007816D01*
X173851557Y-51818412D01*
X173917246Y-51616243D01*
X173950500Y-51406287D01*
X173950500Y-51193713D01*
X182549500Y-51193713D01*
X182549500Y-51406287D01*
X182582754Y-51616243D01*
X182646133Y-51811304D01*
X182648444Y-51818414D01*
X182744951Y-52007820D01*
X182869890Y-52179786D01*
X183020213Y-52330109D01*
X183192179Y-52455048D01*
X183192181Y-52455049D01*
X183192184Y-52455051D01*
X183381588Y-52551557D01*
X183583757Y-52617246D01*
X183793713Y-52650500D01*
X183793714Y-52650500D01*
X185206286Y-52650500D01*
X185206287Y-52650500D01*
X185416243Y-52617246D01*
X185618412Y-52551557D01*
X185807816Y-52455051D01*
X185852700Y-52422441D01*
X185979786Y-52330109D01*
X185979788Y-52330106D01*
X185979792Y-52330104D01*
X186130104Y-52179792D01*
X186130106Y-52179788D01*
X186130109Y-52179786D01*
X186255048Y-52007820D01*
X186255047Y-52007820D01*
X186255051Y-52007816D01*
X186351557Y-51818412D01*
X186417246Y-51616243D01*
X186450500Y-51406287D01*
X186450500Y-51193713D01*
X186417246Y-50983757D01*
X186351557Y-50781588D01*
X186255051Y-50592184D01*
X186255049Y-50592181D01*
X186255048Y-50592179D01*
X186130109Y-50420213D01*
X185979786Y-50269890D01*
X185807820Y-50144951D01*
X185618414Y-50048444D01*
X185618413Y-50048443D01*
X185618412Y-50048443D01*
X185416243Y-49982754D01*
X185416241Y-49982753D01*
X185416240Y-49982753D01*
X185254957Y-49957208D01*
X185206287Y-49949500D01*
X183793713Y-49949500D01*
X183745042Y-49957208D01*
X183583760Y-49982753D01*
X183381585Y-50048444D01*
X183192179Y-50144951D01*
X183020213Y-50269890D01*
X182869890Y-50420213D01*
X182744951Y-50592179D01*
X182648444Y-50781585D01*
X182582753Y-50983760D01*
X182549500Y-51193713D01*
X173950500Y-51193713D01*
X173917246Y-50983757D01*
X173851557Y-50781588D01*
X173755051Y-50592184D01*
X173755049Y-50592181D01*
X173755048Y-50592179D01*
X173630109Y-50420213D01*
X173479786Y-50269890D01*
X173307820Y-50144951D01*
X173118414Y-50048444D01*
X173118413Y-50048443D01*
X173118412Y-50048443D01*
X172916243Y-49982754D01*
X172916241Y-49982753D01*
X172916240Y-49982753D01*
X172754957Y-49957208D01*
X172706287Y-49949500D01*
X171293713Y-49949500D01*
X171245042Y-49957208D01*
X171083760Y-49982753D01*
X170881585Y-50048444D01*
X170692179Y-50144951D01*
X170520213Y-50269890D01*
X170369890Y-50420213D01*
X170244951Y-50592179D01*
X170148444Y-50781585D01*
X170082753Y-50983760D01*
X170049500Y-51193713D01*
X150790877Y-51193713D01*
X150883430Y-51101160D01*
X155422772Y-46561819D01*
X155484095Y-46528334D01*
X155510453Y-46525500D01*
X167600639Y-46525500D01*
X167667678Y-46545185D01*
X167688321Y-46561820D01*
X167725961Y-46599461D01*
X167725965Y-46599464D01*
X167873446Y-46698009D01*
X167873459Y-46698016D01*
X167996363Y-46748923D01*
X168037334Y-46765894D01*
X168037336Y-46765894D01*
X168037341Y-46765896D01*
X168211304Y-46800499D01*
X168211307Y-46800500D01*
X168211309Y-46800500D01*
X168388693Y-46800500D01*
X168388694Y-46800499D01*
X168446682Y-46788964D01*
X168562658Y-46765896D01*
X168562661Y-46765894D01*
X168562666Y-46765894D01*
X168726547Y-46698013D01*
X168874035Y-46599464D01*
X168999464Y-46474035D01*
X169098013Y-46326547D01*
X169153034Y-46193713D01*
X170049500Y-46193713D01*
X170049500Y-46406286D01*
X170068381Y-46525500D01*
X170082754Y-46616243D01*
X170131379Y-46765896D01*
X170148444Y-46818414D01*
X170244951Y-47007820D01*
X170369890Y-47179786D01*
X170520213Y-47330109D01*
X170692179Y-47455048D01*
X170692181Y-47455049D01*
X170692184Y-47455051D01*
X170881588Y-47551557D01*
X171083757Y-47617246D01*
X171293713Y-47650500D01*
X171293714Y-47650500D01*
X172706286Y-47650500D01*
X172706287Y-47650500D01*
X172916243Y-47617246D01*
X173118412Y-47551557D01*
X173307816Y-47455051D01*
X173329789Y-47439086D01*
X173479786Y-47330109D01*
X173479788Y-47330106D01*
X173479792Y-47330104D01*
X173630104Y-47179792D01*
X173630106Y-47179788D01*
X173630109Y-47179786D01*
X173755048Y-47007820D01*
X173755047Y-47007820D01*
X173755051Y-47007816D01*
X173851557Y-46818412D01*
X173917246Y-46616243D01*
X173950500Y-46406287D01*
X173950500Y-46193713D01*
X182549500Y-46193713D01*
X182549500Y-46406286D01*
X182568381Y-46525500D01*
X182582754Y-46616243D01*
X182631379Y-46765896D01*
X182648444Y-46818414D01*
X182744951Y-47007820D01*
X182869890Y-47179786D01*
X183020213Y-47330109D01*
X183192179Y-47455048D01*
X183192181Y-47455049D01*
X183192184Y-47455051D01*
X183381588Y-47551557D01*
X183583757Y-47617246D01*
X183793713Y-47650500D01*
X183793714Y-47650500D01*
X185206286Y-47650500D01*
X185206287Y-47650500D01*
X185416243Y-47617246D01*
X185618412Y-47551557D01*
X185807816Y-47455051D01*
X185829789Y-47439086D01*
X185979786Y-47330109D01*
X185979788Y-47330106D01*
X185979792Y-47330104D01*
X186130104Y-47179792D01*
X186130106Y-47179788D01*
X186130109Y-47179786D01*
X186255048Y-47007820D01*
X186255047Y-47007820D01*
X186255051Y-47007816D01*
X186351557Y-46818412D01*
X186417246Y-46616243D01*
X186450500Y-46406287D01*
X186450500Y-46193713D01*
X186417246Y-45983757D01*
X186351557Y-45781588D01*
X186255051Y-45592184D01*
X186255049Y-45592181D01*
X186255048Y-45592179D01*
X186130109Y-45420213D01*
X185979786Y-45269890D01*
X185807820Y-45144951D01*
X185618414Y-45048444D01*
X185618413Y-45048443D01*
X185618412Y-45048443D01*
X185416243Y-44982754D01*
X185416241Y-44982753D01*
X185416240Y-44982753D01*
X185254957Y-44957208D01*
X185206287Y-44949500D01*
X183793713Y-44949500D01*
X183745042Y-44957208D01*
X183583760Y-44982753D01*
X183381585Y-45048444D01*
X183192179Y-45144951D01*
X183020213Y-45269890D01*
X182869890Y-45420213D01*
X182744951Y-45592179D01*
X182648444Y-45781585D01*
X182582753Y-45983760D01*
X182549500Y-46193713D01*
X173950500Y-46193713D01*
X173917246Y-45983757D01*
X173851557Y-45781588D01*
X173755051Y-45592184D01*
X173755049Y-45592181D01*
X173755048Y-45592179D01*
X173630109Y-45420213D01*
X173479786Y-45269890D01*
X173307820Y-45144951D01*
X173118414Y-45048444D01*
X173118413Y-45048443D01*
X173118412Y-45048443D01*
X172916243Y-44982754D01*
X172916241Y-44982753D01*
X172916240Y-44982753D01*
X172754957Y-44957208D01*
X172706287Y-44949500D01*
X171293713Y-44949500D01*
X171245042Y-44957208D01*
X171083760Y-44982753D01*
X170881585Y-45048444D01*
X170692179Y-45144951D01*
X170520213Y-45269890D01*
X170369890Y-45420213D01*
X170244951Y-45592179D01*
X170148444Y-45781585D01*
X170082753Y-45983760D01*
X170049500Y-46193713D01*
X169153034Y-46193713D01*
X169165894Y-46162666D01*
X169200500Y-45988691D01*
X169200500Y-45811309D01*
X169200500Y-45811306D01*
X169200499Y-45811304D01*
X169165896Y-45637341D01*
X169165893Y-45637332D01*
X169098016Y-45473459D01*
X169098009Y-45473446D01*
X168999464Y-45325965D01*
X168999461Y-45325961D01*
X168874038Y-45200538D01*
X168874034Y-45200535D01*
X168726553Y-45101990D01*
X168726540Y-45101983D01*
X168562667Y-45034106D01*
X168562658Y-45034103D01*
X168388694Y-44999500D01*
X168388691Y-44999500D01*
X168211309Y-44999500D01*
X168211306Y-44999500D01*
X168037341Y-45034103D01*
X168037332Y-45034106D01*
X167873459Y-45101983D01*
X167873446Y-45101990D01*
X167725965Y-45200535D01*
X167725961Y-45200538D01*
X167688321Y-45238180D01*
X167626999Y-45271666D01*
X167600639Y-45274500D01*
X155138393Y-45274500D01*
X155110102Y-45280127D01*
X155110101Y-45280126D01*
X155017555Y-45298535D01*
X155017547Y-45298537D01*
X154951332Y-45325965D01*
X154951331Y-45325965D01*
X154903718Y-45345686D01*
X154903716Y-45345687D01*
X154801265Y-45414142D01*
X154801262Y-45414145D01*
X149252229Y-50963181D01*
X149190906Y-50996666D01*
X149164548Y-50999500D01*
X149111306Y-50999500D01*
X148937341Y-51034103D01*
X148937332Y-51034106D01*
X148773459Y-51101983D01*
X148773446Y-51101990D01*
X148625965Y-51200535D01*
X148625961Y-51200538D01*
X148500538Y-51325961D01*
X148500535Y-51325965D01*
X148401990Y-51473446D01*
X148401983Y-51473459D01*
X148334106Y-51637332D01*
X148334103Y-51637341D01*
X148299500Y-51811304D01*
X148299500Y-51864547D01*
X148279815Y-51931586D01*
X148263181Y-51952228D01*
X146288141Y-53927267D01*
X146279193Y-53940660D01*
X146275596Y-53946044D01*
X146219688Y-54029714D01*
X146199254Y-54079047D01*
X146175359Y-54136737D01*
X146173183Y-54141988D01*
X146173180Y-54141995D01*
X146172537Y-54143548D01*
X146157457Y-54219366D01*
X146157456Y-54219366D01*
X146148500Y-54264389D01*
X146148500Y-54264394D01*
X146148500Y-60135606D01*
X146171255Y-60250009D01*
X146171256Y-60250014D01*
X146172536Y-60256449D01*
X146219685Y-60370280D01*
X146219687Y-60370283D01*
X146219688Y-60370286D01*
X146253915Y-60421509D01*
X146288142Y-60472733D01*
X146375267Y-60559858D01*
X146375270Y-60559860D01*
X146382554Y-60567144D01*
X147285434Y-61470024D01*
X147318919Y-61531347D01*
X147313935Y-61601039D01*
X147272063Y-61656972D01*
X147245205Y-61672266D01*
X147173459Y-61701983D01*
X147173446Y-61701990D01*
X147025965Y-61800535D01*
X147025961Y-61800538D01*
X146988321Y-61838180D01*
X146926999Y-61871666D01*
X146900639Y-61874500D01*
X144699361Y-61874500D01*
X144632322Y-61854815D01*
X144611679Y-61838180D01*
X144574038Y-61800538D01*
X144574034Y-61800535D01*
X144426553Y-61701990D01*
X144426540Y-61701983D01*
X144262667Y-61634106D01*
X144262658Y-61634103D01*
X144088694Y-61599500D01*
X144088691Y-61599500D01*
X143911309Y-61599500D01*
X143911306Y-61599500D01*
X143737341Y-61634103D01*
X143737332Y-61634106D01*
X143573459Y-61701983D01*
X143573446Y-61701990D01*
X143425965Y-61800535D01*
X143425961Y-61800538D01*
X143300538Y-61925961D01*
X143300535Y-61925965D01*
X143201990Y-62073446D01*
X143201983Y-62073459D01*
X143134106Y-62237332D01*
X143134103Y-62237341D01*
X143099500Y-62411304D01*
X130000500Y-62411304D01*
X130000500Y-44209448D01*
X177099500Y-44209448D01*
X177099500Y-44390551D01*
X177127829Y-44569410D01*
X177183787Y-44741636D01*
X177183788Y-44741639D01*
X177266006Y-44902997D01*
X177372441Y-45049494D01*
X177372445Y-45049499D01*
X177500500Y-45177554D01*
X177500505Y-45177558D01*
X177532135Y-45200538D01*
X177647006Y-45283996D01*
X177752484Y-45337740D01*
X177808360Y-45366211D01*
X177808363Y-45366212D01*
X177894476Y-45394191D01*
X177980591Y-45422171D01*
X178063429Y-45435291D01*
X178159449Y-45450500D01*
X178159454Y-45450500D01*
X178340551Y-45450500D01*
X178427259Y-45436765D01*
X178519409Y-45422171D01*
X178691639Y-45366211D01*
X178852994Y-45283996D01*
X178999501Y-45177553D01*
X179127553Y-45049501D01*
X179233996Y-44902994D01*
X179316211Y-44741639D01*
X179372171Y-44569409D01*
X179386765Y-44477259D01*
X179400500Y-44390551D01*
X179400500Y-44209448D01*
X179384019Y-44105397D01*
X179372171Y-44030591D01*
X179316211Y-43858361D01*
X179316211Y-43858360D01*
X179287740Y-43802484D01*
X179233996Y-43697006D01*
X179220396Y-43678287D01*
X179127558Y-43550505D01*
X179127554Y-43550500D01*
X178999499Y-43422445D01*
X178999494Y-43422441D01*
X178852997Y-43316006D01*
X178852996Y-43316005D01*
X178852994Y-43316004D01*
X178801300Y-43289664D01*
X178691639Y-43233788D01*
X178691636Y-43233787D01*
X178519410Y-43177829D01*
X178340551Y-43149500D01*
X178340546Y-43149500D01*
X178159454Y-43149500D01*
X178159449Y-43149500D01*
X177980589Y-43177829D01*
X177808363Y-43233787D01*
X177808360Y-43233788D01*
X177647002Y-43316006D01*
X177500505Y-43422441D01*
X177500500Y-43422445D01*
X177372445Y-43550500D01*
X177372441Y-43550505D01*
X177266006Y-43697002D01*
X177183788Y-43858360D01*
X177183787Y-43858363D01*
X177127829Y-44030589D01*
X177099500Y-44209448D01*
X130000500Y-44209448D01*
X130000500Y-35002561D01*
X130000606Y-34997437D01*
X130009054Y-34793178D01*
X130015815Y-34629716D01*
X130016177Y-34624098D01*
X130023531Y-34540031D01*
X130024003Y-34535582D01*
X130064218Y-34212959D01*
X130065138Y-34206842D01*
X130079003Y-34128210D01*
X130079732Y-34124428D01*
X130147553Y-33800974D01*
X130149123Y-33794394D01*
X130167614Y-33725385D01*
X130168500Y-33722251D01*
X130265389Y-33396810D01*
X130267685Y-33389862D01*
X130287331Y-33335886D01*
X130288276Y-33333380D01*
X130416976Y-33003551D01*
X130420079Y-32996292D01*
X130434634Y-32965080D01*
X130435415Y-32963445D01*
X130600823Y-32625097D01*
X130605690Y-32616105D01*
X130811973Y-32269918D01*
X130817556Y-32261372D01*
X131051728Y-31933394D01*
X131057996Y-31925342D01*
X131318443Y-31617832D01*
X131325362Y-31610316D01*
X131610316Y-31325362D01*
X131617832Y-31318443D01*
X131925342Y-31057996D01*
X131933394Y-31051728D01*
X132261372Y-30817556D01*
X132269918Y-30811973D01*
X132616116Y-30605683D01*
X132625097Y-30600823D01*
X132963445Y-30435415D01*
X132965080Y-30434634D01*
X132996292Y-30420079D01*
X133003551Y-30416976D01*
X133333380Y-30288276D01*
X133335886Y-30287331D01*
X133389862Y-30267685D01*
X133396810Y-30265389D01*
X133722251Y-30168500D01*
X133725385Y-30167614D01*
X133794394Y-30149123D01*
X133800974Y-30147553D01*
X134124428Y-30079732D01*
X134128210Y-30079003D01*
X134206842Y-30065138D01*
X134212959Y-30064218D01*
X134535582Y-30024003D01*
X134540031Y-30023531D01*
X134624098Y-30016177D01*
X134629716Y-30015815D01*
X134997437Y-30000605D01*
X135002561Y-30000500D01*
X184997439Y-30000500D01*
X185002562Y-30000605D01*
G37*
%TD.AperFunction*%
%TD*%
M02*
