%TF.GenerationSoftware,KiCad,Pcbnew,9.0.1*%
%TF.CreationDate,2026-02-20T10:45:08+01:00*%
%TF.ProjectId,datalogger2,64617461-6c6f-4676-9765-72322e6b6963,rev?*%
%TF.SameCoordinates,Original*%
%TF.FileFunction,Copper,L1,Top*%
%TF.FilePolarity,Positive*%
%FSLAX46Y46*%
G04 Gerber Fmt 4.6, Leading zero omitted, Abs format (unit mm)*
G04 Created by KiCad (PCBNEW 9.0.1) date 2026-02-20 10:45:08*
%MOMM*%
%LPD*%
G01*
G04 APERTURE LIST*
G04 Aperture macros list*
%AMRoundRect*
0 Rectangle with rounded corners*
0 $1 Rounding radius*
0 $2 $3 $4 $5 $6 $7 $8 $9 X,Y pos of 4 corners*
0 Add a 4 corners polygon primitive as box body*
4,1,4,$2,$3,$4,$5,$6,$7,$8,$9,$2,$3,0*
0 Add four circle primitives for the rounded corners*
1,1,$1+$1,$2,$3*
1,1,$1+$1,$4,$5*
1,1,$1+$1,$6,$7*
1,1,$1+$1,$8,$9*
0 Add four rect primitives between the rounded corners*
20,1,$1+$1,$2,$3,$4,$5,0*
20,1,$1+$1,$4,$5,$6,$7,0*
20,1,$1+$1,$6,$7,$8,$9,0*
20,1,$1+$1,$8,$9,$2,$3,0*%
G04 Aperture macros list end*
%TA.AperFunction,SMDPad,CuDef*%
%ADD10RoundRect,0.250000X-0.350000X-0.450000X0.350000X-0.450000X0.350000X0.450000X-0.350000X0.450000X0*%
%TD*%
%TA.AperFunction,SMDPad,CuDef*%
%ADD11RoundRect,0.237500X-0.287500X-0.237500X0.287500X-0.237500X0.287500X0.237500X-0.287500X0.237500X0*%
%TD*%
%TA.AperFunction,ComponentPad*%
%ADD12O,2.030000X1.730000*%
%TD*%
%TA.AperFunction,ComponentPad*%
%ADD13R,2.030000X1.730000*%
%TD*%
%TA.AperFunction,SMDPad,CuDef*%
%ADD14RoundRect,0.250000X0.475000X-0.337500X0.475000X0.337500X-0.475000X0.337500X-0.475000X-0.337500X0*%
%TD*%
%TA.AperFunction,ComponentPad*%
%ADD15R,1.700000X1.700000*%
%TD*%
%TA.AperFunction,ComponentPad*%
%ADD16C,1.700000*%
%TD*%
%TA.AperFunction,SMDPad,CuDef*%
%ADD17R,1.250000X1.000000*%
%TD*%
%TA.AperFunction,SMDPad,CuDef*%
%ADD18RoundRect,0.250000X-0.850000X-0.350000X0.850000X-0.350000X0.850000X0.350000X-0.850000X0.350000X0*%
%TD*%
%TA.AperFunction,SMDPad,CuDef*%
%ADD19RoundRect,0.249997X-2.950003X-2.650003X2.950003X-2.650003X2.950003X2.650003X-2.950003X2.650003X0*%
%TD*%
%TA.AperFunction,SMDPad,CuDef*%
%ADD20RoundRect,0.250000X-0.337500X-0.475000X0.337500X-0.475000X0.337500X0.475000X-0.337500X0.475000X0*%
%TD*%
%TA.AperFunction,SMDPad,CuDef*%
%ADD21RoundRect,0.250000X-0.450000X0.350000X-0.450000X-0.350000X0.450000X-0.350000X0.450000X0.350000X0*%
%TD*%
%TA.AperFunction,ComponentPad*%
%ADD22C,5.600000*%
%TD*%
%TA.AperFunction,ComponentPad*%
%ADD23RoundRect,0.250000X-0.750000X0.600000X-0.750000X-0.600000X0.750000X-0.600000X0.750000X0.600000X0*%
%TD*%
%TA.AperFunction,ComponentPad*%
%ADD24O,2.000000X1.700000*%
%TD*%
%TA.AperFunction,SMDPad,CuDef*%
%ADD25RoundRect,0.250000X0.450000X-0.350000X0.450000X0.350000X-0.450000X0.350000X-0.450000X-0.350000X0*%
%TD*%
%TA.AperFunction,SMDPad,CuDef*%
%ADD26RoundRect,0.100000X-0.637500X-0.100000X0.637500X-0.100000X0.637500X0.100000X-0.637500X0.100000X0*%
%TD*%
%TA.AperFunction,SMDPad,CuDef*%
%ADD27R,0.700000X1.200000*%
%TD*%
%TA.AperFunction,SMDPad,CuDef*%
%ADD28R,1.000000X0.800000*%
%TD*%
%TA.AperFunction,SMDPad,CuDef*%
%ADD29R,1.000000X1.200000*%
%TD*%
%TA.AperFunction,SMDPad,CuDef*%
%ADD30R,1.000000X2.800000*%
%TD*%
%TA.AperFunction,SMDPad,CuDef*%
%ADD31R,1.300000X1.900000*%
%TD*%
%TA.AperFunction,SMDPad,CuDef*%
%ADD32RoundRect,0.237500X0.287500X0.237500X-0.287500X0.237500X-0.287500X-0.237500X0.287500X-0.237500X0*%
%TD*%
%TA.AperFunction,SMDPad,CuDef*%
%ADD33RoundRect,0.250000X0.350000X0.450000X-0.350000X0.450000X-0.350000X-0.450000X0.350000X-0.450000X0*%
%TD*%
%TA.AperFunction,SMDPad,CuDef*%
%ADD34RoundRect,0.150000X-0.825000X-0.150000X0.825000X-0.150000X0.825000X0.150000X-0.825000X0.150000X0*%
%TD*%
%TA.AperFunction,ComponentPad*%
%ADD35O,2.900000X1.700000*%
%TD*%
%TA.AperFunction,SMDPad,CuDef*%
%ADD36RoundRect,0.250000X0.337500X0.475000X-0.337500X0.475000X-0.337500X-0.475000X0.337500X-0.475000X0*%
%TD*%
%TA.AperFunction,SMDPad,CuDef*%
%ADD37RoundRect,0.250000X-0.475000X0.337500X-0.475000X-0.337500X0.475000X-0.337500X0.475000X0.337500X0*%
%TD*%
%TA.AperFunction,ViaPad*%
%ADD38C,0.800000*%
%TD*%
%TA.AperFunction,Conductor*%
%ADD39C,0.250000*%
%TD*%
G04 APERTURE END LIST*
D10*
%TO.P,R6,1*%
%TO.N,Net-(D3-K)*%
X174700000Y-74250000D03*
%TO.P,R6,2*%
%TO.N,GND*%
X176700000Y-74250000D03*
%TD*%
D11*
%TO.P,D3,1,K*%
%TO.N,Net-(D3-K)*%
X174950000Y-77250000D03*
%TO.P,D3,2,A*%
%TO.N,+3.3V*%
X176700000Y-77250000D03*
%TD*%
D12*
%TO.P,J2,3,Pin_3*%
%TO.N,GND*%
X184625000Y-78920000D03*
%TO.P,J2,2,Pin_2*%
%TO.N,CAN_L*%
X184625000Y-81460000D03*
D13*
%TO.P,J2,1,Pin_1*%
%TO.N,CAN_H*%
X184625000Y-84000000D03*
%TD*%
D14*
%TO.P,C8,1*%
%TO.N,+3.3V*%
X150900000Y-57475000D03*
%TO.P,C8,2*%
%TO.N,GND*%
X150900000Y-55400000D03*
%TD*%
%TO.P,C6,1*%
%TO.N,5V*%
X166600000Y-65875000D03*
%TO.P,C6,2*%
%TO.N,GND*%
X166600000Y-63800000D03*
%TD*%
D15*
%TO.P,J4,1,Pin_1*%
%TO.N,+3.3V*%
X176440000Y-89200000D03*
D16*
%TO.P,J4,2,Pin_2*%
%TO.N,Debug_SWCLK*%
X173900000Y-89200000D03*
%TO.P,J4,3,Pin_3*%
%TO.N,GND*%
X171360000Y-89200000D03*
%TO.P,J4,4,Pin_4*%
%TO.N,Debug_SWDIO*%
X168820000Y-89200000D03*
%TO.P,J4,5,Pin_5*%
%TO.N,NRST*%
X166280000Y-89200000D03*
%TO.P,J4,6,Pin_6*%
%TO.N,unconnected-(J4-Pin_6-Pad6)*%
X163740000Y-89200000D03*
%TD*%
D17*
%TO.P,SW3,1,1*%
%TO.N,GND*%
X136750000Y-55200000D03*
%TO.P,SW3,2,2*%
%TO.N,Test_PB*%
X144500000Y-55200000D03*
%TD*%
D18*
%TO.P,U2,1,GND*%
%TO.N,GND*%
X137175000Y-40245000D03*
%TO.P,U2,2,VO*%
%TO.N,+3.3V*%
X137175000Y-42525000D03*
D19*
X143475000Y-42525000D03*
D18*
%TO.P,U2,3,VI*%
%TO.N,Alimentation*%
X137175000Y-44805000D03*
%TD*%
D10*
%TO.P,R2,1*%
%TO.N,Net-(D2-K)*%
X154112500Y-47300000D03*
%TO.P,R2,2*%
%TO.N,GND*%
X156112500Y-47300000D03*
%TD*%
D13*
%TO.P,J5,1,Pin_1*%
%TO.N,USART2_RX*%
X135700000Y-66320000D03*
D12*
%TO.P,J5,2,Pin_2*%
%TO.N,USART2_TX*%
X135700000Y-68860000D03*
%TO.P,J5,3,Pin_3*%
%TO.N,GND*%
X135700000Y-71400000D03*
%TO.P,J5,4,Pin_4*%
%TO.N,+3.3V*%
X135700000Y-73940000D03*
%TD*%
D10*
%TO.P,R8,1*%
%TO.N,Net-(D4-K)*%
X174800000Y-82550000D03*
%TO.P,R8,2*%
%TO.N,GND*%
X176800000Y-82550000D03*
%TD*%
D20*
%TO.P,C1,1*%
%TO.N,+3.3V*%
X141662500Y-48400000D03*
%TO.P,C1,2*%
%TO.N,GND*%
X143737500Y-48400000D03*
%TD*%
D13*
%TO.P,J3,1,Pin_1*%
%TO.N,CAN_H*%
X184500000Y-72200000D03*
D12*
%TO.P,J3,2,Pin_2*%
%TO.N,CAN_L*%
X184500000Y-69660000D03*
%TO.P,J3,3,Pin_3*%
%TO.N,GND*%
X184500000Y-67120000D03*
%TD*%
D21*
%TO.P,R7,1*%
%TO.N,CAN_H*%
X178000000Y-63700000D03*
%TO.P,R7,2*%
%TO.N,CAN_L*%
X178000000Y-65700000D03*
%TD*%
D11*
%TO.P,D1,2,A*%
%TO.N,LED_Status_1*%
X163700000Y-47300000D03*
%TO.P,D1,1,K*%
%TO.N,Net-(D1-K)*%
X161950000Y-47300000D03*
%TD*%
D20*
%TO.P,C2,1*%
%TO.N,Alimentation*%
X137537500Y-48400000D03*
%TO.P,C2,2*%
%TO.N,GND*%
X139612500Y-48400000D03*
%TD*%
D22*
%TO.P,H2,1,1*%
%TO.N,GND*%
X185000000Y-35000000D03*
%TD*%
D23*
%TO.P,J6,1,Pin_1*%
%TO.N,Net-(J6-Pin_1)*%
X184500000Y-59600000D03*
D24*
%TO.P,J6,2,Pin_2*%
%TO.N,GND*%
X184500000Y-62100000D03*
%TD*%
D25*
%TO.P,R5,1*%
%TO.N,SD_SPI1_MISO*%
X159625000Y-67375000D03*
%TO.P,R5,2*%
%TO.N,+3.3V*%
X159625000Y-65375000D03*
%TD*%
D22*
%TO.P,H1,1,1*%
%TO.N,GND*%
X135000000Y-35000000D03*
%TD*%
D26*
%TO.P,U1,1,PB8*%
%TO.N,Test_PB*%
X153875000Y-54750000D03*
%TO.P,U1,2,PF0*%
%TO.N,LED_Status_1*%
X153875000Y-55400000D03*
%TO.P,U1,3,PF1*%
%TO.N,LED_Status_2*%
X153875000Y-56050000D03*
%TO.P,U1,4,NRST*%
%TO.N,NRST*%
X153875000Y-56700000D03*
%TO.P,U1,5,VDDA*%
%TO.N,+3.3V*%
X153875000Y-57350000D03*
%TO.P,U1,6,PA0*%
%TO.N,unconnected-(U1-PA0-Pad6)*%
X153875000Y-58000000D03*
%TO.P,U1,7,PA1*%
%TO.N,unconnected-(U1-PA1-Pad7)*%
X153875000Y-58650000D03*
%TO.P,U1,8,PA2*%
%TO.N,USART2_TX*%
X153875000Y-59300000D03*
%TO.P,U1,9,PA3*%
%TO.N,USART2_RX*%
X153875000Y-59950000D03*
%TO.P,U1,10,PA4*%
%TO.N,SD_CS*%
X153875000Y-60600000D03*
%TO.P,U1,11,PA5*%
%TO.N,SD_SPI1_SCK*%
X159600000Y-60600000D03*
%TO.P,U1,12,PA6*%
%TO.N,SD_SPI1_MISO*%
X159600000Y-59950000D03*
%TO.P,U1,13,PA7*%
%TO.N,SD_SPI1_MOSI*%
X159600000Y-59300000D03*
%TO.P,U1,14,PB1*%
%TO.N,unconnected-(U1-PB1-Pad14)*%
X159600000Y-58650000D03*
%TO.P,U1,15,VSSA*%
%TO.N,GND*%
X159600000Y-58000000D03*
%TO.P,U1,16,VDD*%
%TO.N,+3.3V*%
X159600000Y-57350000D03*
%TO.P,U1,17,PA9/PA11*%
%TO.N,CAN_RX*%
X159600000Y-56700000D03*
%TO.P,U1,18,PA10/PA12*%
%TO.N,CAN_TX*%
X159600000Y-56050000D03*
%TO.P,U1,19,PA13*%
%TO.N,Debug_SWCLK*%
X159600000Y-55400000D03*
%TO.P,U1,20,PA14*%
%TO.N,Debug_SWDIO*%
X159600000Y-54750000D03*
%TD*%
D20*
%TO.P,C4,1*%
%TO.N,Alimentation*%
X165300000Y-43300000D03*
%TO.P,C4,2*%
%TO.N,GND*%
X167375000Y-43300000D03*
%TD*%
D27*
%TO.P,J1,1,DAT2*%
%TO.N,unconnected-(J1-DAT2-Pad1)*%
X154075000Y-77575000D03*
%TO.P,J1,2,DAT3/CD*%
%TO.N,SD_CS*%
X152975000Y-77575000D03*
%TO.P,J1,3,CMD*%
%TO.N,SD_SPI1_MOSI*%
X151875000Y-77575000D03*
%TO.P,J1,4,VDD*%
%TO.N,+3.3V*%
X150775000Y-77575000D03*
%TO.P,J1,5,CLK*%
%TO.N,SD_SPI1_SCK*%
X149675000Y-77575000D03*
%TO.P,J1,6,VSS*%
%TO.N,GND*%
X148575000Y-77575000D03*
%TO.P,J1,7,DAT0*%
%TO.N,SD_SPI1_MISO*%
X147475000Y-77575000D03*
%TO.P,J1,8,DAT1*%
%TO.N,unconnected-(J1-DAT1-Pad8)*%
X146375000Y-77575000D03*
%TO.P,J1,9,SHIELD*%
%TO.N,GND*%
X145425000Y-77575000D03*
D28*
%TO.P,J1,10*%
%TO.N,N/C*%
X144475000Y-88075000D03*
D29*
%TO.P,J1,11*%
X144475000Y-81875000D03*
D30*
X144475000Y-92225000D03*
D29*
X155625000Y-77575000D03*
D31*
X157975000Y-92675000D03*
%TD*%
D32*
%TO.P,D2,1,K*%
%TO.N,Net-(D2-K)*%
X151975000Y-47300000D03*
%TO.P,D2,2,A*%
%TO.N,LED_Status_2*%
X150225000Y-47300000D03*
%TD*%
D17*
%TO.P,SW1,1,1*%
%TO.N,GND*%
X171750000Y-35600000D03*
%TO.P,SW1,2,2*%
%TO.N,NRST*%
X179500000Y-35600000D03*
%TD*%
D22*
%TO.P,H3,1,1*%
%TO.N,GND*%
X135000000Y-90000000D03*
%TD*%
D33*
%TO.P,R1,1*%
%TO.N,Net-(D1-K)*%
X159987500Y-47300000D03*
%TO.P,R1,2*%
%TO.N,GND*%
X157987500Y-47300000D03*
%TD*%
D18*
%TO.P,U5,1,GND*%
%TO.N,GND*%
X157575000Y-34945000D03*
%TO.P,U5,2,VO*%
%TO.N,5V*%
X157575000Y-37225000D03*
D19*
X163875000Y-37225000D03*
D18*
%TO.P,U5,3,VI*%
%TO.N,Alimentation*%
X157575000Y-39505000D03*
%TD*%
D34*
%TO.P,U3,1,TXD*%
%TO.N,CAN_TX*%
X169650000Y-62830000D03*
%TO.P,U3,2,VSS*%
%TO.N,GND*%
X169650000Y-64100000D03*
%TO.P,U3,3,VDD*%
%TO.N,5V*%
X169650000Y-65370000D03*
%TO.P,U3,4,RXD*%
%TO.N,CAN_RX*%
X169650000Y-66640000D03*
%TO.P,U3,5,Vio*%
%TO.N,+3.3V*%
X174600000Y-66640000D03*
%TO.P,U3,6,CANL*%
%TO.N,CAN_L*%
X174600000Y-65370000D03*
%TO.P,U3,7,CANH*%
%TO.N,CAN_H*%
X174600000Y-64100000D03*
%TO.P,U3,8,STBY*%
%TO.N,GND*%
X174600000Y-62830000D03*
%TD*%
D35*
%TO.P,SW2,1,A*%
%TO.N,Net-(J6-Pin_1)*%
X172000000Y-46300000D03*
X184500000Y-46300000D03*
%TO.P,SW2,2,B*%
%TO.N,Alimentation*%
X172000000Y-51300000D03*
X184500000Y-51300000D03*
%TD*%
D36*
%TO.P,C3,1*%
%TO.N,GND*%
X156375000Y-63100000D03*
%TO.P,C3,2*%
%TO.N,NRST*%
X154300000Y-63100000D03*
%TD*%
D11*
%TO.P,D4,1,K*%
%TO.N,Net-(D4-K)*%
X174950000Y-79950000D03*
%TO.P,D4,2,A*%
%TO.N,5V*%
X176700000Y-79950000D03*
%TD*%
D37*
%TO.P,C7,1*%
%TO.N,+3.3V*%
X164300000Y-56000000D03*
%TO.P,C7,2*%
%TO.N,GND*%
X164300000Y-58075000D03*
%TD*%
D25*
%TO.P,R3,1*%
%TO.N,SD_SPI1_MOSI*%
X159600000Y-75375000D03*
%TO.P,R3,2*%
%TO.N,+3.3V*%
X159600000Y-73375000D03*
%TD*%
D36*
%TO.P,C5,1*%
%TO.N,5V*%
X163575000Y-43300000D03*
%TO.P,C5,2*%
%TO.N,GND*%
X161500000Y-43300000D03*
%TD*%
D22*
%TO.P,H4,1,1*%
%TO.N,GND*%
X185000000Y-90000000D03*
%TD*%
D25*
%TO.P,R4,1*%
%TO.N,SD_SPI1_SCK*%
X159600000Y-71400000D03*
%TO.P,R4,2*%
%TO.N,+3.3V*%
X159600000Y-69400000D03*
%TD*%
D38*
%TO.N,GND*%
X159200000Y-33400000D03*
X138900000Y-34100000D03*
X184600000Y-76000000D03*
X152300000Y-33500000D03*
X155600000Y-58500000D03*
X165500000Y-60600000D03*
X140000000Y-38400000D03*
X180900000Y-81100000D03*
%TO.N,+3.3V*%
X161300000Y-58500000D03*
X166800000Y-69400000D03*
X161400000Y-63500000D03*
%TO.N,NRST*%
X152300000Y-65600000D03*
X155600000Y-66300000D03*
X161400000Y-78500000D03*
X149200000Y-51900000D03*
X168300000Y-45900000D03*
%TO.N,5V*%
X166600000Y-61900000D03*
X168300000Y-70900000D03*
X168200000Y-68300000D03*
X167300000Y-57100000D03*
%TO.N,SD_CS*%
X155700000Y-76200000D03*
X150800000Y-71400000D03*
%TO.N,SD_SPI1_SCK*%
X159800000Y-62500000D03*
X156312653Y-68912653D03*
%TO.N,Debug_SWDIO*%
X164100000Y-64800000D03*
X161424322Y-54150372D03*
%TO.N,Debug_SWCLK*%
X162415136Y-54319189D03*
X165950000Y-68050000D03*
%TO.N,USART2_RX*%
X144000000Y-62500000D03*
X147600000Y-62500000D03*
%TO.N,Test_PB*%
X152400000Y-52700000D03*
X147500000Y-56100000D03*
%TD*%
D39*
%TO.N,GND*%
X157575000Y-34945000D02*
X157655000Y-34945000D01*
X135700000Y-71400000D02*
X141875000Y-77575000D01*
X156375000Y-60487501D02*
X156375000Y-63100000D01*
X175200000Y-84150000D02*
X175200000Y-85600000D01*
X164300000Y-61500000D02*
X166600000Y-63800000D01*
X175200000Y-90376000D02*
X177616000Y-90376000D01*
X184625000Y-76025000D02*
X184625000Y-78920000D01*
X148575000Y-78077000D02*
X148151000Y-78501000D01*
X150900000Y-55400000D02*
X150837500Y-55462500D01*
X167999280Y-70174000D02*
X167574000Y-70599280D01*
X166299280Y-61174000D02*
X165874000Y-61599280D01*
X152300000Y-33500000D02*
X139500000Y-33500000D01*
X169650000Y-64100000D02*
X168400000Y-64100000D01*
X137175000Y-40245000D02*
X139020000Y-38400000D01*
X164300000Y-59400000D02*
X164300000Y-58075000D01*
X177616000Y-90376000D02*
X180900000Y-87092000D01*
X168102000Y-62375280D02*
X166900720Y-61174000D01*
X168102000Y-63802000D02*
X168102000Y-62375280D01*
X180900000Y-81100000D02*
X180900000Y-85900000D01*
X148151000Y-78501000D02*
X145501000Y-78501000D01*
X165874000Y-61599280D02*
X165874000Y-63074000D01*
X139500000Y-33500000D02*
X138900000Y-34100000D01*
X145501000Y-78501000D02*
X145425000Y-78425000D01*
X165874000Y-63074000D02*
X166600000Y-63800000D01*
X184600000Y-76000000D02*
X184625000Y-76025000D01*
X165500000Y-60600000D02*
X164300000Y-59400000D01*
X180900000Y-87092000D02*
X180900000Y-81100000D01*
X171360000Y-89200000D02*
X172536000Y-90376000D01*
X138900000Y-34100000D02*
X135900000Y-34100000D01*
X139020000Y-38400000D02*
X140000000Y-38400000D01*
X148575000Y-77575000D02*
X148575000Y-78077000D01*
X156100000Y-58000000D02*
X155600000Y-58500000D01*
X172624000Y-70174000D02*
X167999280Y-70174000D01*
X166900720Y-61174000D02*
X166299280Y-61174000D01*
X157655000Y-34945000D02*
X159200000Y-33400000D01*
X168400000Y-64100000D02*
X168102000Y-63802000D01*
X141875000Y-77575000D02*
X145425000Y-77575000D01*
X175200000Y-85600000D02*
X175200000Y-90376000D01*
X176700000Y-74250000D02*
X172624000Y-70174000D01*
X164300000Y-58075000D02*
X164300000Y-61500000D01*
X135900000Y-34100000D02*
X135000000Y-35000000D01*
X172536000Y-90376000D02*
X175200000Y-90376000D01*
X180900000Y-85900000D02*
X185000000Y-90000000D01*
X150800000Y-55462500D02*
X143737500Y-48400000D01*
X167574000Y-77974000D02*
X175200000Y-85600000D01*
X158862501Y-58000000D02*
X156375000Y-60487501D01*
X167574000Y-70599280D02*
X167574000Y-77974000D01*
X145425000Y-78425000D02*
X145425000Y-77575000D01*
X159600000Y-58000000D02*
X156100000Y-58000000D01*
X150837500Y-55462500D02*
X150800000Y-55462500D01*
X176800000Y-82550000D02*
X175200000Y-84150000D01*
X159600000Y-58000000D02*
X158862501Y-58000000D01*
%TO.N,+3.3V*%
X141662500Y-44337500D02*
X143475000Y-42525000D01*
X150900000Y-57475000D02*
X150737500Y-57475000D01*
X159600000Y-57350000D02*
X153875000Y-57350000D01*
X160626000Y-70426000D02*
X159600000Y-69400000D01*
X159600000Y-57350000D02*
X161300000Y-57350000D01*
X153875000Y-57350000D02*
X153650000Y-57350000D01*
X161300000Y-58500000D02*
X161300000Y-57350000D01*
X159625000Y-65375000D02*
X160651000Y-66401000D01*
X137175000Y-42525000D02*
X143475000Y-42525000D01*
X144951000Y-83151000D02*
X144951000Y-86127192D01*
X162950000Y-57350000D02*
X164300000Y-56000000D01*
X161400000Y-63600000D02*
X159625000Y-65375000D01*
X177726000Y-78276000D02*
X176700000Y-77250000D01*
X177726000Y-87914000D02*
X177726000Y-78276000D01*
X147153000Y-80949000D02*
X144951000Y-83151000D01*
X178300000Y-76100000D02*
X177150000Y-77250000D01*
X150775000Y-76725000D02*
X154125000Y-73375000D01*
X174600000Y-66640000D02*
X171840000Y-69400000D01*
X141662500Y-48400000D02*
X141662500Y-44337500D01*
X174600000Y-66640000D02*
X178300000Y-70340000D01*
X160651000Y-66401000D02*
X160651000Y-68349000D01*
X153525000Y-57475000D02*
X150900000Y-57475000D01*
X178300000Y-70340000D02*
X178300000Y-76100000D01*
X144100000Y-41900000D02*
X143475000Y-42525000D01*
X161400000Y-63500000D02*
X161400000Y-63600000D01*
X160651000Y-68349000D02*
X159600000Y-69400000D01*
X176440000Y-89200000D02*
X177726000Y-87914000D01*
X148251000Y-80949000D02*
X147153000Y-80949000D01*
X144877192Y-86201000D02*
X144022808Y-86201000D01*
X150775000Y-77575000D02*
X150775000Y-78425000D01*
X135700000Y-77878192D02*
X135700000Y-73940000D01*
X171840000Y-69400000D02*
X166800000Y-69400000D01*
X161300000Y-57350000D02*
X162950000Y-57350000D01*
X153650000Y-57350000D02*
X153525000Y-57475000D01*
X160626000Y-72349000D02*
X160626000Y-70426000D01*
X150775000Y-77575000D02*
X150775000Y-76725000D01*
X177150000Y-77250000D02*
X176700000Y-77250000D01*
X144022808Y-86201000D02*
X135700000Y-77878192D01*
X150737500Y-57475000D02*
X141662500Y-48400000D01*
X154125000Y-73375000D02*
X159600000Y-73375000D01*
X150775000Y-78425000D02*
X148251000Y-80949000D01*
X144951000Y-86127192D02*
X144877192Y-86201000D01*
X159600000Y-73375000D02*
X160626000Y-72349000D01*
%TO.N,Alimentation*%
X167625000Y-41150000D02*
X165475000Y-43300000D01*
X165475000Y-43300000D02*
X167700000Y-41075000D01*
X135749000Y-39649486D02*
X138698486Y-36700000D01*
X156149000Y-34349486D02*
X156149000Y-36800000D01*
X137175000Y-44805000D02*
X135749000Y-43379000D01*
X138698486Y-36700000D02*
X156049000Y-36700000D01*
X156149000Y-38079000D02*
X157575000Y-39505000D01*
X135749000Y-43379000D02*
X135749000Y-39649486D01*
X165300000Y-44600000D02*
X172000000Y-51300000D01*
X158498486Y-32000000D02*
X156149000Y-34349486D01*
X167700000Y-41075000D02*
X167700000Y-32000000D01*
X167700000Y-32000000D02*
X158498486Y-32000000D01*
X156149000Y-36800000D02*
X156149000Y-38079000D01*
X137812500Y-48300000D02*
X137712500Y-48400000D01*
X172000000Y-51300000D02*
X184500000Y-51300000D01*
X137175000Y-44805000D02*
X137175000Y-48037500D01*
X137175000Y-48037500D02*
X137537500Y-48400000D01*
X156049000Y-36700000D02*
X156149000Y-36800000D01*
X165300000Y-43300000D02*
X165300000Y-44600000D01*
%TO.N,NRST*%
X154300000Y-65000000D02*
X155600000Y-66300000D01*
X149200000Y-52065986D02*
X151951000Y-54816986D01*
X151951000Y-55513499D02*
X153137501Y-56700000D01*
X161400000Y-78500000D02*
X161400000Y-84320000D01*
X152300000Y-65600000D02*
X153700000Y-65600000D01*
X153700000Y-65600000D02*
X154300000Y-65000000D01*
X161400000Y-84320000D02*
X166280000Y-89200000D01*
X153137501Y-56700000D02*
X153875000Y-56700000D01*
X178600000Y-35600000D02*
X168300000Y-45900000D01*
X149200000Y-51900000D02*
X149200000Y-52065986D01*
X151951000Y-54816986D02*
X151951000Y-55513499D01*
X179500000Y-35600000D02*
X178600000Y-35600000D01*
X154300000Y-63100000D02*
X154300000Y-65000000D01*
%TO.N,5V*%
X176321510Y-79950000D02*
X176700000Y-79950000D01*
X169145000Y-65875000D02*
X169650000Y-65370000D01*
X166600000Y-65875000D02*
X167651000Y-64824000D01*
X163875000Y-43000000D02*
X163575000Y-43300000D01*
X163875000Y-37225000D02*
X157575000Y-37225000D01*
X166600000Y-66700000D02*
X168200000Y-68300000D01*
X167651000Y-62951000D02*
X166600000Y-61900000D01*
X166600000Y-65875000D02*
X169145000Y-65875000D01*
X163575000Y-43300000D02*
X163575000Y-44025000D01*
X166600000Y-65875000D02*
X166600000Y-66700000D01*
X167300000Y-47750000D02*
X167300000Y-57000000D01*
X167651000Y-64824000D02*
X167651000Y-62951000D01*
X163875000Y-37225000D02*
X163875000Y-43000000D01*
X169650000Y-65370000D02*
X169267678Y-65370000D01*
X168300000Y-71928490D02*
X176321510Y-79950000D01*
X166600000Y-62000000D02*
X166600000Y-61900000D01*
X168300000Y-70900000D02*
X168300000Y-71928490D01*
X163575000Y-44025000D02*
X167300000Y-47750000D01*
X167300000Y-57000000D02*
X167300000Y-57100000D01*
%TO.N,Net-(D1-K)*%
X161950000Y-47300000D02*
X159987500Y-47300000D01*
%TO.N,LED_Status_1*%
X155600000Y-55400000D02*
X153875000Y-55400000D01*
X163700000Y-47300000D02*
X155600000Y-55400000D01*
%TO.N,Net-(D2-K)*%
X151975000Y-47300000D02*
X154112500Y-47300000D01*
%TO.N,LED_Status_2*%
X153875000Y-56050000D02*
X153182274Y-56050000D01*
X152402000Y-54502000D02*
X150225000Y-52325000D01*
X152402000Y-55269726D02*
X152402000Y-54502000D01*
X150225000Y-52325000D02*
X150225000Y-47300000D01*
X153182274Y-56050000D02*
X152402000Y-55269726D01*
%TO.N,Net-(D3-K)*%
X174700000Y-74250000D02*
X174700000Y-77000000D01*
X174700000Y-77000000D02*
X174950000Y-77250000D01*
%TO.N,Net-(D4-K)*%
X174950000Y-79950000D02*
X174950000Y-82400000D01*
X174950000Y-82400000D02*
X174800000Y-82550000D01*
%TO.N,SD_SPI1_MOSI*%
X161700000Y-59300000D02*
X159600000Y-59300000D01*
X151875000Y-77073000D02*
X151875000Y-77575000D01*
X162700000Y-60300000D02*
X161700000Y-59300000D01*
X159600000Y-75375000D02*
X162700000Y-72275000D01*
X162700000Y-72275000D02*
X162700000Y-60300000D01*
X159600000Y-75375000D02*
X153573000Y-75375000D01*
X153573000Y-75375000D02*
X151875000Y-77073000D01*
%TO.N,SD_CS*%
X152975000Y-77575000D02*
X152975000Y-76725000D01*
X153500000Y-76200000D02*
X155700000Y-76200000D01*
X152975000Y-76725000D02*
X153500000Y-76200000D01*
X150800000Y-63675000D02*
X153875000Y-60600000D01*
X150800000Y-71400000D02*
X150800000Y-63675000D01*
%TO.N,SD_SPI1_MISO*%
X159625000Y-67375000D02*
X158599000Y-66349000D01*
X158599000Y-66349000D02*
X158599000Y-64727720D01*
X147475000Y-76725000D02*
X156825000Y-67375000D01*
X160663500Y-60320774D02*
X160292726Y-59950000D01*
X156825000Y-67375000D02*
X159625000Y-67375000D01*
X147475000Y-77575000D02*
X147475000Y-76725000D01*
X158599000Y-64727720D02*
X160663500Y-62663220D01*
X160292726Y-59950000D02*
X159600000Y-59950000D01*
X160663500Y-62663220D02*
X160663500Y-60320774D01*
%TO.N,SD_SPI1_SCK*%
X159600000Y-71400000D02*
X158800000Y-71400000D01*
X149675000Y-76725000D02*
X155000000Y-71400000D01*
X158800000Y-71400000D02*
X156312653Y-68912653D01*
X159800000Y-60800000D02*
X159600000Y-60600000D01*
X159800000Y-62500000D02*
X159800000Y-60800000D01*
X149675000Y-77575000D02*
X149675000Y-76725000D01*
X155000000Y-71400000D02*
X159600000Y-71400000D01*
%TO.N,CAN_L*%
X184500000Y-69660000D02*
X183159000Y-71001000D01*
X178000000Y-65700000D02*
X174930000Y-65700000D01*
X184500000Y-69660000D02*
X181960000Y-69660000D01*
X183159000Y-79994000D02*
X184625000Y-81460000D01*
X174930000Y-65700000D02*
X174600000Y-65370000D01*
X183159000Y-71001000D02*
X183159000Y-79994000D01*
X181960000Y-69660000D02*
X178000000Y-65700000D01*
%TO.N,CAN_H*%
X185966000Y-82659000D02*
X184625000Y-84000000D01*
X185143328Y-68469000D02*
X185841000Y-69166672D01*
X178000000Y-63700000D02*
X175000000Y-63700000D01*
X184500000Y-72200000D02*
X185966000Y-73666000D01*
X175000000Y-63700000D02*
X174600000Y-64100000D01*
X178000000Y-63700000D02*
X182769000Y-68469000D01*
X185966000Y-73666000D02*
X185966000Y-82659000D01*
X185841000Y-69166672D02*
X185841000Y-70859000D01*
X182769000Y-68469000D02*
X185143328Y-68469000D01*
X185841000Y-70859000D02*
X184500000Y-72200000D01*
%TO.N,Debug_SWDIO*%
X159600000Y-54750000D02*
X161150000Y-54750000D01*
X168820000Y-89200000D02*
X164100000Y-84480000D01*
X164100000Y-84480000D02*
X164100000Y-64800000D01*
X161150000Y-54750000D02*
X161700000Y-54200000D01*
%TO.N,Debug_SWCLK*%
X162395947Y-54300000D02*
X162415136Y-54319189D01*
X173900000Y-89200000D02*
X165950000Y-81250000D01*
X165950000Y-81250000D02*
X165950000Y-68050000D01*
X162300000Y-54300000D02*
X162395947Y-54300000D01*
X159600000Y-55400000D02*
X161200000Y-55400000D01*
X161200000Y-55400000D02*
X162300000Y-54300000D01*
%TO.N,USART2_RX*%
X147700000Y-62400000D02*
X147600000Y-62500000D01*
X149950000Y-59950000D02*
X147700000Y-62200000D01*
X153875000Y-59950000D02*
X149950000Y-59950000D01*
X147700000Y-62200000D02*
X147700000Y-62400000D01*
X140180000Y-66320000D02*
X144000000Y-62500000D01*
X135700000Y-66320000D02*
X140180000Y-66320000D01*
%TO.N,USART2_TX*%
X135700000Y-68860000D02*
X140040000Y-68860000D01*
X140040000Y-68860000D02*
X149600000Y-59300000D01*
X149600000Y-59300000D02*
X153875000Y-59300000D01*
%TO.N,Net-(J6-Pin_1)*%
X186276000Y-57824000D02*
X184500000Y-59600000D01*
X184500000Y-46300000D02*
X186276000Y-48076000D01*
X184500000Y-46300000D02*
X172000000Y-46300000D01*
X186276000Y-48076000D02*
X186276000Y-57824000D01*
%TO.N,Test_PB*%
X153875000Y-54750000D02*
X153875000Y-54175000D01*
X144500000Y-55200000D02*
X146600000Y-55200000D01*
X153875000Y-54175000D02*
X152400000Y-52700000D01*
X146600000Y-55200000D02*
X147500000Y-56100000D01*
%TO.N,CAN_RX*%
X170951000Y-62478678D02*
X165802000Y-57329678D01*
X170951000Y-66313999D02*
X170951000Y-62478678D01*
X163996196Y-53424372D02*
X159582902Y-53424372D01*
X165802000Y-55230176D02*
X163996196Y-53424372D01*
X170624999Y-66640000D02*
X170951000Y-66313999D01*
X169650000Y-66640000D02*
X170624999Y-66640000D01*
X158907274Y-56700000D02*
X159600000Y-56700000D01*
X158536500Y-54470774D02*
X158536500Y-56329226D01*
X165802000Y-57329678D02*
X165802000Y-55230176D01*
X159582902Y-53424372D02*
X158536500Y-54470774D01*
X158536500Y-56329226D02*
X158907274Y-56700000D01*
%TO.N,CAN_TX*%
X165351000Y-58531000D02*
X165351000Y-55416986D01*
X169650000Y-62830000D02*
X165351000Y-58531000D01*
X163579486Y-55086500D02*
X162615986Y-56050000D01*
X165351000Y-55416986D02*
X165020514Y-55086500D01*
X162615986Y-56050000D02*
X159600000Y-56050000D01*
X165020514Y-55086500D02*
X163579486Y-55086500D01*
%TD*%
%TA.AperFunction,Conductor*%
%TO.N,GND*%
G36*
X164243039Y-57944685D02*
G01*
X164288794Y-57997489D01*
X164300000Y-58049000D01*
X164300000Y-58075000D01*
X164326000Y-58075000D01*
X164393039Y-58094685D01*
X164438794Y-58147489D01*
X164450000Y-58199000D01*
X164450000Y-59162499D01*
X164824972Y-59162499D01*
X164824986Y-59162498D01*
X164927693Y-59152006D01*
X164927699Y-59152004D01*
X164975059Y-59136311D01*
X165044887Y-59133908D01*
X165101745Y-59166335D01*
X166723229Y-60787819D01*
X166756714Y-60849142D01*
X166751730Y-60918834D01*
X166709858Y-60974767D01*
X166644394Y-60999184D01*
X166635548Y-60999500D01*
X166511306Y-60999500D01*
X166337341Y-61034103D01*
X166337332Y-61034106D01*
X166173459Y-61101983D01*
X166173446Y-61101990D01*
X166025965Y-61200535D01*
X166025961Y-61200538D01*
X165900538Y-61325961D01*
X165900535Y-61325965D01*
X165801990Y-61473446D01*
X165801983Y-61473459D01*
X165734106Y-61637332D01*
X165734103Y-61637341D01*
X165699500Y-61811304D01*
X165699500Y-61988695D01*
X165734103Y-62162658D01*
X165734106Y-62162667D01*
X165801983Y-62326540D01*
X165801990Y-62326553D01*
X165900535Y-62474034D01*
X165900538Y-62474038D01*
X165963240Y-62536740D01*
X165996725Y-62598063D01*
X165991741Y-62667755D01*
X165949869Y-62723688D01*
X165914564Y-62742127D01*
X165805878Y-62778142D01*
X165805875Y-62778143D01*
X165656654Y-62870184D01*
X165532684Y-62994154D01*
X165440643Y-63143375D01*
X165440641Y-63143380D01*
X165385494Y-63309802D01*
X165385493Y-63309809D01*
X165375000Y-63412513D01*
X165375000Y-63650000D01*
X166476000Y-63650000D01*
X166484685Y-63652550D01*
X166493647Y-63651262D01*
X166517687Y-63662240D01*
X166543039Y-63669685D01*
X166548966Y-63676525D01*
X166557203Y-63680287D01*
X166571492Y-63702521D01*
X166588794Y-63722489D01*
X166591081Y-63733003D01*
X166594977Y-63739065D01*
X166600000Y-63774000D01*
X166600000Y-63826000D01*
X166580315Y-63893039D01*
X166527511Y-63938794D01*
X166476000Y-63950000D01*
X165375001Y-63950000D01*
X165375001Y-64187486D01*
X165385494Y-64290197D01*
X165440641Y-64456619D01*
X165440643Y-64456624D01*
X165532684Y-64605845D01*
X165656655Y-64729816D01*
X165656659Y-64729819D01*
X165659656Y-64731668D01*
X165661279Y-64733472D01*
X165662323Y-64734298D01*
X165662181Y-64734476D01*
X165706381Y-64783616D01*
X165717602Y-64852579D01*
X165689759Y-64916661D01*
X165659661Y-64942741D01*
X165656349Y-64944783D01*
X165656343Y-64944788D01*
X165532289Y-65068842D01*
X165440187Y-65218163D01*
X165440186Y-65218166D01*
X165385001Y-65384703D01*
X165385001Y-65384704D01*
X165385000Y-65384704D01*
X165374500Y-65487483D01*
X165374500Y-66262501D01*
X165374501Y-66262519D01*
X165385000Y-66365296D01*
X165385001Y-66365299D01*
X165440185Y-66531831D01*
X165440187Y-66531836D01*
X165475069Y-66588388D01*
X165532288Y-66681156D01*
X165656344Y-66805212D01*
X165805666Y-66897314D01*
X165856353Y-66914110D01*
X165913795Y-66953879D01*
X165940619Y-67018395D01*
X165928305Y-67087171D01*
X165880763Y-67138371D01*
X165841539Y-67153431D01*
X165687340Y-67184104D01*
X165687332Y-67184106D01*
X165523459Y-67251983D01*
X165523446Y-67251990D01*
X165375965Y-67350535D01*
X165375961Y-67350538D01*
X165250538Y-67475961D01*
X165250535Y-67475965D01*
X165151990Y-67623446D01*
X165151983Y-67623459D01*
X165084106Y-67787332D01*
X165084103Y-67787341D01*
X165049500Y-67961304D01*
X165049500Y-68138695D01*
X165084103Y-68312658D01*
X165084106Y-68312667D01*
X165151983Y-68476540D01*
X165151990Y-68476553D01*
X165250535Y-68624034D01*
X165250538Y-68624038D01*
X165288180Y-68661679D01*
X165321666Y-68723001D01*
X165324500Y-68749361D01*
X165324500Y-81311609D01*
X165332317Y-81350910D01*
X165332326Y-81350951D01*
X165332641Y-81352533D01*
X165348537Y-81432452D01*
X165349534Y-81434858D01*
X165353574Y-81444611D01*
X165395687Y-81546285D01*
X165414541Y-81574500D01*
X165414542Y-81574502D01*
X165464141Y-81648732D01*
X165464144Y-81648736D01*
X165555586Y-81740178D01*
X165555608Y-81740198D01*
X171453729Y-87638319D01*
X171487214Y-87699642D01*
X171482230Y-87769334D01*
X171440358Y-87825267D01*
X171374894Y-87849684D01*
X171366048Y-87850000D01*
X171253754Y-87850000D01*
X171043872Y-87883242D01*
X171043869Y-87883242D01*
X170841782Y-87948904D01*
X170652442Y-88045379D01*
X170516372Y-88144239D01*
X170516371Y-88144240D01*
X171128461Y-88756329D01*
X171052993Y-88799901D01*
X170959901Y-88892993D01*
X170916329Y-88968460D01*
X170304240Y-88356371D01*
X170304239Y-88356372D01*
X170205378Y-88492443D01*
X170200762Y-88501502D01*
X170152784Y-88552295D01*
X170084963Y-88569087D01*
X170018829Y-88546546D01*
X169979794Y-88501493D01*
X169975051Y-88492184D01*
X169975049Y-88492181D01*
X169975048Y-88492179D01*
X169850109Y-88320213D01*
X169699786Y-88169890D01*
X169527820Y-88044951D01*
X169338414Y-87948444D01*
X169338413Y-87948443D01*
X169338412Y-87948443D01*
X169136243Y-87882754D01*
X169136241Y-87882753D01*
X169136240Y-87882753D01*
X168974957Y-87857208D01*
X168926287Y-87849500D01*
X168713713Y-87849500D01*
X168685006Y-87854046D01*
X168503757Y-87882753D01*
X168488158Y-87887822D01*
X168418317Y-87889816D01*
X168362161Y-87857571D01*
X164761819Y-84257229D01*
X164728334Y-84195906D01*
X164725500Y-84169548D01*
X164725500Y-65499361D01*
X164745185Y-65432322D01*
X164761820Y-65411679D01*
X164799461Y-65374038D01*
X164799464Y-65374035D01*
X164898013Y-65226547D01*
X164901485Y-65218166D01*
X164943209Y-65117432D01*
X164965894Y-65062666D01*
X164966606Y-65059090D01*
X165000499Y-64888695D01*
X165000500Y-64888693D01*
X165000500Y-64711306D01*
X165000499Y-64711304D01*
X164965896Y-64537341D01*
X164965893Y-64537332D01*
X164898016Y-64373459D01*
X164898009Y-64373446D01*
X164799464Y-64225965D01*
X164799461Y-64225961D01*
X164674038Y-64100538D01*
X164674034Y-64100535D01*
X164526553Y-64001990D01*
X164526540Y-64001983D01*
X164362667Y-63934106D01*
X164362658Y-63934103D01*
X164188694Y-63899500D01*
X164188691Y-63899500D01*
X164011309Y-63899500D01*
X164011306Y-63899500D01*
X163837341Y-63934103D01*
X163837332Y-63934106D01*
X163673459Y-64001983D01*
X163673446Y-64001990D01*
X163520900Y-64103920D01*
X163519805Y-64102281D01*
X163463852Y-64126044D01*
X163394985Y-64114251D01*
X163343426Y-64067098D01*
X163325500Y-64002877D01*
X163325500Y-60367741D01*
X163325501Y-60367720D01*
X163325501Y-60238391D01*
X163325500Y-60238389D01*
X163301465Y-60117558D01*
X163301461Y-60117542D01*
X163300053Y-60114144D01*
X163300050Y-60114138D01*
X163289787Y-60089361D01*
X163281932Y-60070397D01*
X163254312Y-60003715D01*
X163185858Y-59901267D01*
X163185855Y-59901263D01*
X162192928Y-58908338D01*
X162189717Y-58905127D01*
X162180162Y-58887621D01*
X162177435Y-58889440D01*
X162177433Y-58889437D01*
X162180160Y-58887618D01*
X162172316Y-58873247D01*
X162156247Y-58843818D01*
X162156247Y-58843807D01*
X162156243Y-58843799D01*
X162158677Y-58809834D01*
X162161231Y-58774126D01*
X162162825Y-58770074D01*
X162165894Y-58762666D01*
X162200500Y-58588691D01*
X162200500Y-58462486D01*
X163075001Y-58462486D01*
X163085494Y-58565197D01*
X163140641Y-58731619D01*
X163140643Y-58731624D01*
X163232684Y-58880845D01*
X163356654Y-59004815D01*
X163505875Y-59096856D01*
X163505880Y-59096858D01*
X163672302Y-59152005D01*
X163672309Y-59152006D01*
X163775019Y-59162499D01*
X164149999Y-59162499D01*
X164150000Y-59162498D01*
X164150000Y-58225000D01*
X163075001Y-58225000D01*
X163075001Y-58462486D01*
X162200500Y-58462486D01*
X162200500Y-58411309D01*
X162200500Y-58411306D01*
X162200499Y-58411304D01*
X162165896Y-58237341D01*
X162165893Y-58237332D01*
X162155889Y-58213181D01*
X162128457Y-58146952D01*
X162120988Y-58077483D01*
X162152264Y-58015004D01*
X162212353Y-57979352D01*
X162243018Y-57975500D01*
X163011607Y-57975500D01*
X163072029Y-57963481D01*
X163132452Y-57951463D01*
X163165792Y-57937652D01*
X163173571Y-57934430D01*
X163175123Y-57934121D01*
X163179701Y-57932835D01*
X163181488Y-57932855D01*
X163221003Y-57925000D01*
X164176000Y-57925000D01*
X164243039Y-57944685D01*
G37*
%TD.AperFunction*%
%TA.AperFunction,Conductor*%
G36*
X167668677Y-70045185D02*
G01*
X167714432Y-70097989D01*
X167724376Y-70167147D01*
X167695351Y-70230703D01*
X167689319Y-70237181D01*
X167600538Y-70325961D01*
X167600535Y-70325965D01*
X167501990Y-70473446D01*
X167501983Y-70473459D01*
X167434106Y-70637332D01*
X167434103Y-70637341D01*
X167399500Y-70811304D01*
X167399500Y-70988695D01*
X167434103Y-71162658D01*
X167434106Y-71162667D01*
X167501983Y-71326540D01*
X167501990Y-71326553D01*
X167600535Y-71474034D01*
X167600538Y-71474038D01*
X167638180Y-71511679D01*
X167671666Y-71573001D01*
X167674500Y-71599361D01*
X167674500Y-71990096D01*
X167680601Y-72020773D01*
X167682105Y-72028334D01*
X167691105Y-72073580D01*
X167693258Y-72084403D01*
X167698536Y-72110938D01*
X167745688Y-72224776D01*
X167745688Y-72224777D01*
X167757291Y-72242141D01*
X167773163Y-72265894D01*
X167814142Y-72327223D01*
X167901267Y-72414348D01*
X167901270Y-72414350D01*
X167908861Y-72421941D01*
X174347394Y-78860474D01*
X174380879Y-78921797D01*
X174375895Y-78991489D01*
X174334023Y-79047422D01*
X174324810Y-79053693D01*
X174201653Y-79129657D01*
X174201649Y-79129660D01*
X174079661Y-79251648D01*
X173989093Y-79398481D01*
X173989091Y-79398486D01*
X173961719Y-79481088D01*
X173934826Y-79562247D01*
X173934826Y-79562248D01*
X173934825Y-79562248D01*
X173924500Y-79663315D01*
X173924500Y-80236669D01*
X173924501Y-80236687D01*
X173934825Y-80337752D01*
X173953692Y-80394687D01*
X173989092Y-80501516D01*
X174079660Y-80648350D01*
X174201650Y-80770340D01*
X174265597Y-80809783D01*
X174312321Y-80861728D01*
X174324500Y-80915320D01*
X174324500Y-81261414D01*
X174304815Y-81328453D01*
X174252011Y-81374208D01*
X174239505Y-81379120D01*
X174130666Y-81415186D01*
X174130663Y-81415187D01*
X173981342Y-81507289D01*
X173857289Y-81631342D01*
X173765187Y-81780663D01*
X173765186Y-81780666D01*
X173710001Y-81947203D01*
X173710001Y-81947204D01*
X173710000Y-81947204D01*
X173699500Y-82049983D01*
X173699500Y-83050001D01*
X173699501Y-83050019D01*
X173710000Y-83152796D01*
X173710001Y-83152799D01*
X173765185Y-83319331D01*
X173765187Y-83319336D01*
X173795876Y-83369091D01*
X173857288Y-83468656D01*
X173981344Y-83592712D01*
X174130666Y-83684814D01*
X174297203Y-83739999D01*
X174399991Y-83750500D01*
X175200008Y-83750499D01*
X175200016Y-83750498D01*
X175200019Y-83750498D01*
X175256302Y-83744748D01*
X175302797Y-83739999D01*
X175469334Y-83684814D01*
X175618656Y-83592712D01*
X175712675Y-83498692D01*
X175773994Y-83465210D01*
X175843686Y-83470194D01*
X175888034Y-83498695D01*
X175981654Y-83592315D01*
X176130875Y-83684356D01*
X176130880Y-83684358D01*
X176297302Y-83739505D01*
X176297309Y-83739506D01*
X176400019Y-83749999D01*
X176649999Y-83749999D01*
X176650000Y-83749998D01*
X176650000Y-81350000D01*
X176400029Y-81350000D01*
X176400012Y-81350001D01*
X176297302Y-81360494D01*
X176130880Y-81415641D01*
X176130875Y-81415643D01*
X175981657Y-81507682D01*
X175888034Y-81601305D01*
X175880186Y-81605589D01*
X175874842Y-81612756D01*
X175849998Y-81622073D01*
X175826710Y-81634789D01*
X175817792Y-81634151D01*
X175809421Y-81637291D01*
X175783484Y-81631697D01*
X175757019Y-81629805D01*
X175748058Y-81624057D01*
X175741122Y-81622562D01*
X175713207Y-81601704D01*
X175712830Y-81601462D01*
X175618656Y-81507288D01*
X175617765Y-81506738D01*
X175611977Y-81500971D01*
X175598457Y-81476318D01*
X175582212Y-81453375D01*
X175580610Y-81443773D01*
X175578381Y-81439708D01*
X175578838Y-81433148D01*
X175575500Y-81413132D01*
X175575500Y-80915320D01*
X175595185Y-80848281D01*
X175634401Y-80809783D01*
X175698350Y-80770340D01*
X175737319Y-80731371D01*
X175798642Y-80697886D01*
X175868334Y-80702870D01*
X175912681Y-80731371D01*
X175951650Y-80770340D01*
X176098484Y-80860908D01*
X176262247Y-80915174D01*
X176363323Y-80925500D01*
X176976500Y-80925499D01*
X176985186Y-80928049D01*
X176994147Y-80926761D01*
X177018183Y-80937738D01*
X177043539Y-80945183D01*
X177049467Y-80952025D01*
X177057703Y-80955786D01*
X177071989Y-80978017D01*
X177089294Y-80997987D01*
X177091581Y-81008502D01*
X177095477Y-81014564D01*
X177100500Y-81049499D01*
X177100500Y-81226000D01*
X177080815Y-81293039D01*
X177028011Y-81338794D01*
X176976500Y-81350000D01*
X176950000Y-81350000D01*
X176950000Y-83749999D01*
X176976500Y-83749999D01*
X177043539Y-83769684D01*
X177089294Y-83822488D01*
X177100500Y-83873999D01*
X177100500Y-87603547D01*
X177091855Y-87632987D01*
X177085332Y-87662974D01*
X177081577Y-87667989D01*
X177080815Y-87670586D01*
X177064185Y-87691223D01*
X176986575Y-87768834D01*
X176942227Y-87813182D01*
X176880904Y-87846666D01*
X176854546Y-87849500D01*
X175542129Y-87849500D01*
X175542123Y-87849501D01*
X175482516Y-87855908D01*
X175347671Y-87906202D01*
X175347664Y-87906206D01*
X175232455Y-87992452D01*
X175232452Y-87992455D01*
X175146206Y-88107664D01*
X175146203Y-88107669D01*
X175097189Y-88239083D01*
X175055317Y-88295016D01*
X174989853Y-88319433D01*
X174921580Y-88304581D01*
X174893326Y-88283430D01*
X174779786Y-88169890D01*
X174607820Y-88044951D01*
X174418414Y-87948444D01*
X174418413Y-87948443D01*
X174418412Y-87948443D01*
X174216243Y-87882754D01*
X174216241Y-87882753D01*
X174216240Y-87882753D01*
X174054957Y-87857208D01*
X174006287Y-87849500D01*
X173793713Y-87849500D01*
X173765006Y-87854046D01*
X173583757Y-87882753D01*
X173568158Y-87887822D01*
X173498317Y-87889816D01*
X173442161Y-87857571D01*
X166611819Y-81027229D01*
X166578334Y-80965906D01*
X166575500Y-80939548D01*
X166575500Y-70423937D01*
X166595185Y-70356898D01*
X166647989Y-70311143D01*
X166705217Y-70301606D01*
X166705217Y-70300500D01*
X166888693Y-70300500D01*
X166888694Y-70300499D01*
X166964101Y-70285500D01*
X167062658Y-70265896D01*
X167062661Y-70265894D01*
X167062666Y-70265894D01*
X167226547Y-70198013D01*
X167374035Y-70099464D01*
X167411679Y-70061820D01*
X167438609Y-70047114D01*
X167464426Y-70030523D01*
X167470624Y-70029631D01*
X167473001Y-70028334D01*
X167499361Y-70025500D01*
X167601638Y-70025500D01*
X167668677Y-70045185D01*
G37*
%TD.AperFunction*%
%TA.AperFunction,Conductor*%
G36*
X152515697Y-60576291D02*
G01*
X152518425Y-60575619D01*
X152549019Y-60586076D01*
X152580040Y-60595185D01*
X152581879Y-60597308D01*
X152584539Y-60598217D01*
X152604628Y-60623561D01*
X152625795Y-60647989D01*
X152626477Y-60651125D01*
X152627940Y-60652971D01*
X152636393Y-60687238D01*
X152637000Y-60693353D01*
X152637001Y-60739360D01*
X152652456Y-60856762D01*
X152653486Y-60859249D01*
X152654701Y-60871474D01*
X152641742Y-60940132D01*
X152618990Y-60971417D01*
X150954734Y-62635675D01*
X150401269Y-63189140D01*
X150401267Y-63189142D01*
X150376266Y-63214143D01*
X150314141Y-63276267D01*
X150295800Y-63303715D01*
X150295801Y-63303716D01*
X150245689Y-63378712D01*
X150245685Y-63378719D01*
X150215834Y-63450787D01*
X150215830Y-63450799D01*
X150213883Y-63455500D01*
X150198537Y-63492548D01*
X150193564Y-63517548D01*
X150179414Y-63588691D01*
X150179414Y-63588693D01*
X150174500Y-63613394D01*
X150174500Y-70700638D01*
X150154815Y-70767677D01*
X150138181Y-70788319D01*
X150100538Y-70825961D01*
X150100535Y-70825965D01*
X150001990Y-70973446D01*
X150001983Y-70973459D01*
X149934106Y-71137332D01*
X149934103Y-71137341D01*
X149899500Y-71311304D01*
X149899500Y-71488695D01*
X149934103Y-71662658D01*
X149934106Y-71662667D01*
X150001983Y-71826540D01*
X150001990Y-71826553D01*
X150100535Y-71974034D01*
X150100538Y-71974038D01*
X150225961Y-72099461D01*
X150225965Y-72099464D01*
X150373446Y-72198009D01*
X150373459Y-72198016D01*
X150496363Y-72248923D01*
X150537334Y-72265894D01*
X150537336Y-72265894D01*
X150537341Y-72265896D01*
X150711304Y-72300499D01*
X150711307Y-72300500D01*
X150715547Y-72300500D01*
X150782586Y-72320185D01*
X150828341Y-72372989D01*
X150838285Y-72442147D01*
X150809260Y-72505703D01*
X150803228Y-72512181D01*
X146989143Y-76326265D01*
X146989138Y-76326271D01*
X146980570Y-76339095D01*
X146923947Y-76423835D01*
X146870335Y-76468639D01*
X146807592Y-76478232D01*
X146772873Y-76474500D01*
X146772866Y-76474500D01*
X145977129Y-76474500D01*
X145977125Y-76474501D01*
X145932327Y-76479317D01*
X145917517Y-76480909D01*
X145917516Y-76480909D01*
X145910904Y-76481620D01*
X145884393Y-76481619D01*
X145822842Y-76475000D01*
X145575000Y-76475000D01*
X145575000Y-76726930D01*
X145567182Y-76770263D01*
X145530909Y-76867517D01*
X145524500Y-76927127D01*
X145524500Y-77567740D01*
X145524501Y-77575000D01*
X145524501Y-78222876D01*
X145530908Y-78282481D01*
X145530909Y-78282483D01*
X145567182Y-78379737D01*
X145575000Y-78423068D01*
X145575000Y-78675000D01*
X145822828Y-78675000D01*
X145822839Y-78674999D01*
X145884395Y-78668380D01*
X145910909Y-78668380D01*
X145917514Y-78669090D01*
X145917517Y-78669091D01*
X145977127Y-78675500D01*
X146772872Y-78675499D01*
X146832483Y-78669091D01*
X146881665Y-78650746D01*
X146951355Y-78645761D01*
X146968333Y-78650747D01*
X147017508Y-78669088D01*
X147017511Y-78669088D01*
X147017517Y-78669091D01*
X147077127Y-78675500D01*
X147872872Y-78675499D01*
X147932483Y-78669091D01*
X147982382Y-78650479D01*
X148052069Y-78645494D01*
X148069048Y-78650479D01*
X148117628Y-78668598D01*
X148117627Y-78668598D01*
X148177155Y-78674999D01*
X148177172Y-78675000D01*
X148425000Y-78675000D01*
X148425000Y-77699000D01*
X148427550Y-77690314D01*
X148426262Y-77681353D01*
X148437240Y-77657312D01*
X148444685Y-77631961D01*
X148451525Y-77626033D01*
X148455287Y-77617797D01*
X148477521Y-77603507D01*
X148497489Y-77586206D01*
X148508003Y-77583918D01*
X148514065Y-77580023D01*
X148549000Y-77575000D01*
X148601000Y-77575000D01*
X148668039Y-77594685D01*
X148713794Y-77647489D01*
X148725000Y-77699000D01*
X148725000Y-78675000D01*
X148972828Y-78675000D01*
X148972844Y-78674999D01*
X149032372Y-78668598D01*
X149032375Y-78668597D01*
X149080949Y-78650480D01*
X149142899Y-78644066D01*
X149155586Y-78645992D01*
X149217517Y-78669091D01*
X149277127Y-78675500D01*
X149349914Y-78675499D01*
X149359162Y-78676904D01*
X149382685Y-78687872D01*
X149407585Y-78695183D01*
X149413835Y-78702396D01*
X149422487Y-78706430D01*
X149436345Y-78728372D01*
X149453341Y-78747986D01*
X149454699Y-78757434D01*
X149459796Y-78765504D01*
X149459591Y-78791455D01*
X149463285Y-78817144D01*
X149459320Y-78825825D01*
X149459245Y-78835372D01*
X149445039Y-78857096D01*
X149434261Y-78880700D01*
X149428228Y-78887180D01*
X148028229Y-80287181D01*
X147966906Y-80320666D01*
X147940548Y-80323500D01*
X147091389Y-80323500D01*
X147030971Y-80335518D01*
X146987743Y-80344116D01*
X146970546Y-80347537D01*
X146856716Y-80394687D01*
X146856707Y-80394692D01*
X146754268Y-80463140D01*
X146729744Y-80487665D01*
X146667142Y-80550267D01*
X145687180Y-81530229D01*
X145625857Y-81563714D01*
X145556165Y-81558730D01*
X145500232Y-81516858D01*
X145475815Y-81451394D01*
X145475499Y-81442548D01*
X145475499Y-81227129D01*
X145475498Y-81227123D01*
X145475497Y-81227116D01*
X145469091Y-81167517D01*
X145458919Y-81140245D01*
X145418797Y-81032671D01*
X145418793Y-81032664D01*
X145332547Y-80917455D01*
X145332544Y-80917452D01*
X145217335Y-80831206D01*
X145217328Y-80831202D01*
X145082482Y-80780908D01*
X145082483Y-80780908D01*
X145022883Y-80774501D01*
X145022881Y-80774500D01*
X145022873Y-80774500D01*
X145022865Y-80774500D01*
X144949000Y-80774500D01*
X144881961Y-80754815D01*
X144836206Y-80702011D01*
X144825000Y-80650500D01*
X144825000Y-78791309D01*
X144844685Y-78724270D01*
X144897489Y-78678515D01*
X144962258Y-78668020D01*
X145027160Y-78674999D01*
X145027172Y-78675000D01*
X145275000Y-78675000D01*
X145275000Y-77725000D01*
X144575000Y-77725000D01*
X144575000Y-77901000D01*
X144555315Y-77968039D01*
X144502511Y-78013794D01*
X144451000Y-78025000D01*
X144075000Y-78025000D01*
X144075000Y-80650500D01*
X144055315Y-80717539D01*
X144002511Y-80763294D01*
X143951005Y-80774500D01*
X143927132Y-80774500D01*
X143927123Y-80774501D01*
X143867516Y-80780908D01*
X143732671Y-80831202D01*
X143732664Y-80831206D01*
X143617455Y-80917452D01*
X143617452Y-80917455D01*
X143531206Y-81032664D01*
X143531202Y-81032671D01*
X143480908Y-81167517D01*
X143474621Y-81226000D01*
X143474501Y-81227123D01*
X143474500Y-81227135D01*
X143474500Y-82522870D01*
X143474501Y-82522876D01*
X143480908Y-82582483D01*
X143531202Y-82717328D01*
X143531206Y-82717335D01*
X143617452Y-82832544D01*
X143617455Y-82832547D01*
X143732664Y-82918793D01*
X143732671Y-82918797D01*
X143777618Y-82935561D01*
X143867517Y-82969091D01*
X143927127Y-82975500D01*
X143950997Y-82975499D01*
X144018036Y-82995181D01*
X144063792Y-83047983D01*
X144075000Y-83099499D01*
X144075000Y-85069240D01*
X144055315Y-85136279D01*
X144002511Y-85182034D01*
X143933353Y-85191978D01*
X143869797Y-85162953D01*
X143863319Y-85156921D01*
X136361819Y-77655421D01*
X136328334Y-77594098D01*
X136325500Y-77567740D01*
X136325500Y-76927155D01*
X144575000Y-76927155D01*
X144575000Y-77425000D01*
X145275000Y-77425000D01*
X145275000Y-76475000D01*
X145027155Y-76475000D01*
X144967627Y-76481401D01*
X144967620Y-76481403D01*
X144832913Y-76531645D01*
X144832906Y-76531649D01*
X144717812Y-76617809D01*
X144717809Y-76617812D01*
X144631649Y-76732906D01*
X144631645Y-76732913D01*
X144581403Y-76867620D01*
X144581401Y-76867627D01*
X144575000Y-76927155D01*
X136325500Y-76927155D01*
X136325500Y-75306243D01*
X136345185Y-75239204D01*
X136393204Y-75195759D01*
X136565678Y-75107880D01*
X136739563Y-74981545D01*
X136891545Y-74829563D01*
X137017880Y-74655678D01*
X137115458Y-74464170D01*
X137181876Y-74259755D01*
X137215500Y-74047467D01*
X137215500Y-73832533D01*
X137181876Y-73620245D01*
X137181875Y-73620241D01*
X137181875Y-73620240D01*
X137115458Y-73415829D01*
X137051299Y-73289910D01*
X137017880Y-73224322D01*
X136891545Y-73050437D01*
X136739563Y-72898455D01*
X136565678Y-72772120D01*
X136565676Y-72772119D01*
X136562772Y-72770009D01*
X136520107Y-72714679D01*
X136514128Y-72645066D01*
X136546734Y-72583271D01*
X136562773Y-72569373D01*
X136739234Y-72441166D01*
X136739240Y-72441161D01*
X136891161Y-72289240D01*
X137017454Y-72115414D01*
X137083722Y-71985354D01*
X137131696Y-71934558D01*
X137199517Y-71917762D01*
X137265652Y-71940299D01*
X137281888Y-71953967D01*
X137349707Y-72021786D01*
X137349711Y-72021789D01*
X137480814Y-72109390D01*
X137480827Y-72109397D01*
X137626498Y-72169735D01*
X137626503Y-72169737D01*
X137768635Y-72198009D01*
X137781153Y-72200499D01*
X137781156Y-72200500D01*
X137781158Y-72200500D01*
X137938844Y-72200500D01*
X137938845Y-72200499D01*
X138093497Y-72169737D01*
X138206166Y-72123067D01*
X138239172Y-72109397D01*
X138239172Y-72109396D01*
X138239179Y-72109394D01*
X138370289Y-72021789D01*
X138481789Y-71910289D01*
X138569394Y-71779179D01*
X138629737Y-71633497D01*
X138660500Y-71478842D01*
X138660500Y-71321158D01*
X138660500Y-71321155D01*
X138660499Y-71321153D01*
X138646346Y-71250000D01*
X138629737Y-71166503D01*
X138594056Y-71080360D01*
X138569397Y-71020827D01*
X138569390Y-71020814D01*
X138481789Y-70889711D01*
X138481786Y-70889707D01*
X138370292Y-70778213D01*
X138370288Y-70778210D01*
X138239185Y-70690609D01*
X138239172Y-70690602D01*
X138093501Y-70630264D01*
X138093489Y-70630261D01*
X137938845Y-70599500D01*
X137938842Y-70599500D01*
X137781158Y-70599500D01*
X137781155Y-70599500D01*
X137626510Y-70630261D01*
X137626498Y-70630264D01*
X137480827Y-70690602D01*
X137480814Y-70690609D01*
X137349711Y-70778210D01*
X137281888Y-70846033D01*
X137220564Y-70879517D01*
X137150873Y-70874532D01*
X137094939Y-70832661D01*
X137083722Y-70814645D01*
X137017454Y-70684585D01*
X136891161Y-70510759D01*
X136739240Y-70358838D01*
X136562772Y-70230626D01*
X136520107Y-70175296D01*
X136514128Y-70105682D01*
X136546734Y-70043888D01*
X136562773Y-70029990D01*
X136565675Y-70027881D01*
X136565678Y-70027880D01*
X136739563Y-69901545D01*
X136891545Y-69749563D01*
X137017880Y-69575678D01*
X137029330Y-69553205D01*
X137077303Y-69502410D01*
X137139815Y-69485500D01*
X140101608Y-69485500D01*
X140101608Y-69485499D01*
X140184595Y-69468993D01*
X140222452Y-69461463D01*
X140255792Y-69447652D01*
X140336286Y-69414312D01*
X140387509Y-69380084D01*
X140438733Y-69345858D01*
X140525858Y-69258733D01*
X140525858Y-69258731D01*
X140536066Y-69248524D01*
X140536067Y-69248521D01*
X146718161Y-63066428D01*
X146779482Y-63032945D01*
X146849174Y-63037929D01*
X146895171Y-63070784D01*
X146896228Y-63069728D01*
X147025961Y-63199461D01*
X147025965Y-63199464D01*
X147173446Y-63298009D01*
X147173459Y-63298016D01*
X147294752Y-63348256D01*
X147337334Y-63365894D01*
X147337336Y-63365894D01*
X147337341Y-63365896D01*
X147511304Y-63400499D01*
X147511307Y-63400500D01*
X147511309Y-63400500D01*
X147688693Y-63400500D01*
X147688694Y-63400499D01*
X147752930Y-63387722D01*
X147862658Y-63365896D01*
X147862661Y-63365894D01*
X147862666Y-63365894D01*
X148026547Y-63298013D01*
X148174035Y-63199464D01*
X148299464Y-63074035D01*
X148398013Y-62926547D01*
X148465894Y-62762666D01*
X148469980Y-62742127D01*
X148497467Y-62603937D01*
X148500500Y-62588691D01*
X148500500Y-62411309D01*
X148500499Y-62411306D01*
X148492323Y-62370203D01*
X148498549Y-62300612D01*
X148526256Y-62258332D01*
X150172772Y-60611819D01*
X150234095Y-60578334D01*
X150260453Y-60575500D01*
X152513001Y-60575500D01*
X152515697Y-60576291D01*
G37*
%TD.AperFunction*%
%TA.AperFunction,Conductor*%
G36*
X184996586Y-73585184D02*
G01*
X185017228Y-73601818D01*
X185304181Y-73888771D01*
X185337666Y-73950094D01*
X185340500Y-73976452D01*
X185340500Y-77497824D01*
X185320815Y-77564863D01*
X185268011Y-77610618D01*
X185198853Y-77620562D01*
X185178182Y-77615755D01*
X185094641Y-77588611D01*
X184882427Y-77555000D01*
X184775000Y-77555000D01*
X184775000Y-78432201D01*
X184692143Y-78410000D01*
X184557857Y-78410000D01*
X184475000Y-78432201D01*
X184475000Y-77555000D01*
X184367573Y-77555000D01*
X184155360Y-77588611D01*
X184155357Y-77588611D01*
X183946818Y-77656370D01*
X183876977Y-77658365D01*
X183817144Y-77622285D01*
X183786316Y-77559584D01*
X183784500Y-77538439D01*
X183784500Y-73689499D01*
X183804185Y-73622460D01*
X183856989Y-73576705D01*
X183908500Y-73565499D01*
X184929547Y-73565499D01*
X184996586Y-73585184D01*
G37*
%TD.AperFunction*%
%TA.AperFunction,Conductor*%
G36*
X174643333Y-67583769D02*
G01*
X174687680Y-67612270D01*
X177638181Y-70562771D01*
X177671666Y-70624094D01*
X177674500Y-70650452D01*
X177674500Y-73081826D01*
X177654815Y-73148865D01*
X177602011Y-73194620D01*
X177532853Y-73204564D01*
X177485403Y-73187365D01*
X177369124Y-73115643D01*
X177369119Y-73115641D01*
X177202697Y-73060494D01*
X177202690Y-73060493D01*
X177099986Y-73050000D01*
X176850000Y-73050000D01*
X176850000Y-75449999D01*
X177099972Y-75449999D01*
X177099986Y-75449998D01*
X177202697Y-75439505D01*
X177369119Y-75384358D01*
X177369130Y-75384353D01*
X177485403Y-75312635D01*
X177552795Y-75294194D01*
X177619459Y-75315116D01*
X177664228Y-75368758D01*
X177674500Y-75418173D01*
X177674500Y-75789546D01*
X177654815Y-75856585D01*
X177638181Y-75877227D01*
X177261560Y-76253847D01*
X177200237Y-76287332D01*
X177144771Y-76284395D01*
X177144376Y-76286243D01*
X177137759Y-76284826D01*
X177036678Y-76274500D01*
X176363330Y-76274500D01*
X176363312Y-76274501D01*
X176262247Y-76284825D01*
X176098484Y-76339092D01*
X176098481Y-76339093D01*
X175951648Y-76429661D01*
X175912681Y-76468629D01*
X175851358Y-76502114D01*
X175781666Y-76497130D01*
X175737319Y-76468629D01*
X175698351Y-76429661D01*
X175698350Y-76429660D01*
X175551521Y-76339095D01*
X175551518Y-76339093D01*
X175551517Y-76339092D01*
X175551516Y-76339092D01*
X175410494Y-76292361D01*
X175353051Y-76252589D01*
X175326228Y-76188073D01*
X175325500Y-76174656D01*
X175325500Y-75481057D01*
X175345185Y-75414018D01*
X175384401Y-75375520D01*
X175518656Y-75292712D01*
X175612675Y-75198692D01*
X175673994Y-75165210D01*
X175743686Y-75170194D01*
X175788034Y-75198695D01*
X175881654Y-75292315D01*
X176030875Y-75384356D01*
X176030880Y-75384358D01*
X176197302Y-75439505D01*
X176197309Y-75439506D01*
X176300019Y-75449999D01*
X176549999Y-75449999D01*
X176550000Y-75449998D01*
X176550000Y-73050000D01*
X176300029Y-73050000D01*
X176300012Y-73050001D01*
X176197302Y-73060494D01*
X176030880Y-73115641D01*
X176030875Y-73115643D01*
X175881657Y-73207682D01*
X175788034Y-73301305D01*
X175726710Y-73334789D01*
X175657019Y-73329805D01*
X175612672Y-73301304D01*
X175518657Y-73207289D01*
X175518656Y-73207288D01*
X175369334Y-73115186D01*
X175202797Y-73060001D01*
X175202795Y-73060000D01*
X175100010Y-73049500D01*
X174299998Y-73049500D01*
X174299980Y-73049501D01*
X174197203Y-73060000D01*
X174197200Y-73060001D01*
X174030668Y-73115185D01*
X174030663Y-73115187D01*
X173881342Y-73207289D01*
X173757289Y-73331342D01*
X173665187Y-73480663D01*
X173665185Y-73480668D01*
X173637349Y-73564670D01*
X173610001Y-73647203D01*
X173610001Y-73647204D01*
X173610000Y-73647204D01*
X173599500Y-73749983D01*
X173599500Y-74750001D01*
X173599501Y-74750019D01*
X173610000Y-74852796D01*
X173610001Y-74852799D01*
X173665185Y-75019331D01*
X173665187Y-75019336D01*
X173700069Y-75075888D01*
X173757288Y-75168656D01*
X173881344Y-75292712D01*
X174015597Y-75375519D01*
X174062321Y-75427465D01*
X174074500Y-75481057D01*
X174074500Y-76519038D01*
X174054815Y-76586077D01*
X174002011Y-76631832D01*
X173932853Y-76641776D01*
X173869297Y-76612751D01*
X173862819Y-76606719D01*
X168961819Y-71705719D01*
X168947115Y-71678791D01*
X168930523Y-71652973D01*
X168929631Y-71646772D01*
X168928334Y-71644396D01*
X168925500Y-71618038D01*
X168925500Y-71599361D01*
X168945185Y-71532322D01*
X168961820Y-71511679D01*
X168999461Y-71474038D01*
X168999464Y-71474035D01*
X169098013Y-71326547D01*
X169165894Y-71162666D01*
X169167363Y-71155284D01*
X169200499Y-70988695D01*
X169200500Y-70988693D01*
X169200500Y-70811306D01*
X169200499Y-70811304D01*
X169165896Y-70637341D01*
X169165893Y-70637332D01*
X169162965Y-70630264D01*
X169135009Y-70562771D01*
X169098016Y-70473459D01*
X169098009Y-70473446D01*
X168999464Y-70325965D01*
X168999461Y-70325961D01*
X168910681Y-70237181D01*
X168877196Y-70175858D01*
X168882180Y-70106166D01*
X168924052Y-70050233D01*
X168989516Y-70025816D01*
X168998362Y-70025500D01*
X171901607Y-70025500D01*
X171962029Y-70013481D01*
X172022452Y-70001463D01*
X172055792Y-69987652D01*
X172136286Y-69954312D01*
X172187509Y-69920084D01*
X172238733Y-69885858D01*
X172325858Y-69798733D01*
X172325858Y-69798731D01*
X172336066Y-69788524D01*
X172336067Y-69788521D01*
X174512322Y-67612267D01*
X174573641Y-67578785D01*
X174643333Y-67583769D01*
G37*
%TD.AperFunction*%
%TA.AperFunction,Conductor*%
G36*
X158244296Y-57975802D02*
G01*
X158245333Y-57975517D01*
X158277755Y-57985627D01*
X158310304Y-57995185D01*
X158311007Y-57995996D01*
X158312034Y-57996317D01*
X158333856Y-58022366D01*
X158356059Y-58047989D01*
X158356211Y-58049050D01*
X158356903Y-58049876D01*
X158366280Y-58083902D01*
X158394790Y-58308747D01*
X158386338Y-58371794D01*
X158377456Y-58393238D01*
X158377455Y-58393239D01*
X158362000Y-58510638D01*
X158362000Y-58789363D01*
X158377453Y-58906753D01*
X158377457Y-58906765D01*
X158386066Y-58927550D01*
X158393533Y-58997019D01*
X158386066Y-59022450D01*
X158377457Y-59043234D01*
X158377455Y-59043239D01*
X158362000Y-59160638D01*
X158362000Y-59439363D01*
X158377453Y-59556753D01*
X158377457Y-59556765D01*
X158386066Y-59577550D01*
X158393533Y-59647019D01*
X158386066Y-59672450D01*
X158377457Y-59693234D01*
X158377455Y-59693239D01*
X158362000Y-59810638D01*
X158362000Y-60089363D01*
X158377453Y-60206753D01*
X158377457Y-60206765D01*
X158386066Y-60227550D01*
X158393533Y-60297019D01*
X158386066Y-60322450D01*
X158377457Y-60343234D01*
X158377455Y-60343239D01*
X158362000Y-60460638D01*
X158362000Y-60739363D01*
X158377453Y-60856753D01*
X158377456Y-60856762D01*
X158437964Y-61002841D01*
X158534218Y-61128282D01*
X158659659Y-61224536D01*
X158805738Y-61285044D01*
X158923139Y-61300500D01*
X159050500Y-61300499D01*
X159117539Y-61320183D01*
X159163294Y-61372987D01*
X159174500Y-61424499D01*
X159174500Y-61800638D01*
X159154815Y-61867677D01*
X159138181Y-61888319D01*
X159100538Y-61925961D01*
X159100535Y-61925965D01*
X159001990Y-62073446D01*
X159001983Y-62073459D01*
X158934106Y-62237332D01*
X158934103Y-62237341D01*
X158899500Y-62411304D01*
X158899500Y-62588695D01*
X158934103Y-62762658D01*
X158934106Y-62762667D01*
X159001983Y-62926540D01*
X159001990Y-62926553D01*
X159100535Y-63074034D01*
X159100538Y-63074038D01*
X159146633Y-63120133D01*
X159180118Y-63181456D01*
X159175134Y-63251148D01*
X159146633Y-63295495D01*
X158668129Y-63774000D01*
X158200270Y-64241859D01*
X158200267Y-64241862D01*
X158171932Y-64270197D01*
X158113142Y-64328986D01*
X158106944Y-64338263D01*
X158086183Y-64369334D01*
X158083431Y-64373453D01*
X158044687Y-64431434D01*
X158044685Y-64431438D01*
X158014749Y-64503711D01*
X158014749Y-64503714D01*
X158000824Y-64537334D01*
X157997537Y-64545269D01*
X157973685Y-64665186D01*
X157973500Y-64666114D01*
X157973500Y-64666190D01*
X157973500Y-66410607D01*
X157976223Y-66424298D01*
X157977221Y-66429312D01*
X157997537Y-66531452D01*
X158007848Y-66556344D01*
X158011341Y-66564778D01*
X158011343Y-66564784D01*
X158016837Y-66578048D01*
X158024306Y-66647517D01*
X157993031Y-66709996D01*
X157932942Y-66745648D01*
X157902276Y-66749500D01*
X156763389Y-66749500D01*
X156707462Y-66760624D01*
X156707452Y-66760626D01*
X156702971Y-66761518D01*
X156642548Y-66773537D01*
X156612803Y-66785858D01*
X156605766Y-66788772D01*
X156605765Y-66788773D01*
X156600447Y-66790976D01*
X156530977Y-66798445D01*
X156468498Y-66767170D01*
X156432846Y-66707081D01*
X156435340Y-66637256D01*
X156438433Y-66628963D01*
X156440282Y-66624500D01*
X156465894Y-66562666D01*
X156472984Y-66527025D01*
X156493417Y-66424298D01*
X156500500Y-66388691D01*
X156500500Y-66211309D01*
X156500500Y-66211306D01*
X156500499Y-66211304D01*
X156465896Y-66037341D01*
X156465893Y-66037332D01*
X156457019Y-66015909D01*
X156448923Y-65996363D01*
X156398016Y-65873459D01*
X156398009Y-65873446D01*
X156299464Y-65725965D01*
X156299461Y-65725961D01*
X156174038Y-65600538D01*
X156174034Y-65600535D01*
X156026553Y-65501990D01*
X156026540Y-65501983D01*
X155862667Y-65434106D01*
X155862658Y-65434103D01*
X155688694Y-65399500D01*
X155688691Y-65399500D01*
X155635453Y-65399500D01*
X155568414Y-65379815D01*
X155547772Y-65363181D01*
X154961819Y-64777228D01*
X154928334Y-64715905D01*
X154925500Y-64689547D01*
X154925500Y-64348347D01*
X154945185Y-64281308D01*
X154984401Y-64242810D01*
X155106156Y-64167712D01*
X155230212Y-64043656D01*
X155232252Y-64040347D01*
X155234245Y-64038555D01*
X155234693Y-64037989D01*
X155234789Y-64038065D01*
X155284194Y-63993623D01*
X155353156Y-63982395D01*
X155417240Y-64010234D01*
X155443329Y-64040339D01*
X155445181Y-64043341D01*
X155445183Y-64043344D01*
X155569154Y-64167315D01*
X155718375Y-64259356D01*
X155718380Y-64259358D01*
X155884802Y-64314505D01*
X155884809Y-64314506D01*
X155987519Y-64324999D01*
X156224999Y-64324999D01*
X156525000Y-64324999D01*
X156762472Y-64324999D01*
X156762486Y-64324998D01*
X156865197Y-64314505D01*
X157031619Y-64259358D01*
X157031624Y-64259356D01*
X157180845Y-64167315D01*
X157304815Y-64043345D01*
X157396856Y-63894124D01*
X157396858Y-63894119D01*
X157452005Y-63727697D01*
X157452006Y-63727690D01*
X157462499Y-63624986D01*
X157462500Y-63624973D01*
X157462500Y-63250000D01*
X156525000Y-63250000D01*
X156525000Y-64324999D01*
X156224999Y-64324999D01*
X156225000Y-64324998D01*
X156225000Y-62950000D01*
X156525000Y-62950000D01*
X157462499Y-62950000D01*
X157462499Y-62575028D01*
X157462498Y-62575013D01*
X157452005Y-62472302D01*
X157396858Y-62305880D01*
X157396856Y-62305875D01*
X157304815Y-62156654D01*
X157180845Y-62032684D01*
X157031624Y-61940643D01*
X157031619Y-61940641D01*
X156865197Y-61885494D01*
X156865190Y-61885493D01*
X156762486Y-61875000D01*
X156525000Y-61875000D01*
X156525000Y-62950000D01*
X156225000Y-62950000D01*
X156225000Y-61875000D01*
X155987529Y-61875000D01*
X155987512Y-61875001D01*
X155884802Y-61885494D01*
X155718380Y-61940641D01*
X155718375Y-61940643D01*
X155569154Y-62032684D01*
X155445183Y-62156655D01*
X155445179Y-62156660D01*
X155443326Y-62159665D01*
X155441518Y-62161290D01*
X155440702Y-62162323D01*
X155440525Y-62162183D01*
X155391374Y-62206385D01*
X155322411Y-62217601D01*
X155258331Y-62189752D01*
X155232253Y-62159653D01*
X155232237Y-62159628D01*
X155230212Y-62156344D01*
X155106156Y-62032288D01*
X155013388Y-61975069D01*
X154956836Y-61940187D01*
X154956831Y-61940185D01*
X154955362Y-61939698D01*
X154790297Y-61885001D01*
X154790295Y-61885000D01*
X154687510Y-61874500D01*
X153912498Y-61874500D01*
X153912480Y-61874501D01*
X153809703Y-61885000D01*
X153809695Y-61885002D01*
X153805149Y-61886509D01*
X153735320Y-61888909D01*
X153675280Y-61853175D01*
X153644090Y-61790653D01*
X153651652Y-61721194D01*
X153678465Y-61681124D01*
X154022772Y-61336818D01*
X154084095Y-61303333D01*
X154110453Y-61300499D01*
X154551863Y-61300499D01*
X154669253Y-61285046D01*
X154669257Y-61285044D01*
X154669262Y-61285044D01*
X154815341Y-61224536D01*
X154940782Y-61128282D01*
X155037036Y-61002841D01*
X155097544Y-60856762D01*
X155113000Y-60739361D01*
X155112999Y-60460640D01*
X155097544Y-60343238D01*
X155097542Y-60343234D01*
X155088935Y-60322455D01*
X155081465Y-60252986D01*
X155088935Y-60227545D01*
X155097544Y-60206762D01*
X155113000Y-60089361D01*
X155112999Y-59810640D01*
X155097544Y-59693238D01*
X155097542Y-59693234D01*
X155088935Y-59672455D01*
X155081465Y-59602986D01*
X155088935Y-59577545D01*
X155097544Y-59556762D01*
X155113000Y-59439361D01*
X155112999Y-59160640D01*
X155111862Y-59152006D01*
X155109480Y-59133908D01*
X155097544Y-59043238D01*
X155097542Y-59043234D01*
X155088935Y-59022455D01*
X155081465Y-58952986D01*
X155088935Y-58927545D01*
X155097544Y-58906762D01*
X155113000Y-58789361D01*
X155112999Y-58510640D01*
X155111191Y-58496909D01*
X155107569Y-58469393D01*
X155097544Y-58393238D01*
X155097542Y-58393234D01*
X155088935Y-58372455D01*
X155081465Y-58302986D01*
X155088935Y-58277545D01*
X155097544Y-58256762D01*
X155113000Y-58139361D01*
X155113000Y-58099500D01*
X155132685Y-58032461D01*
X155185489Y-57986706D01*
X155237000Y-57975500D01*
X158243265Y-57975500D01*
X158244296Y-57975802D01*
G37*
%TD.AperFunction*%
%TA.AperFunction,Conductor*%
G36*
X167705703Y-61770739D02*
G01*
X167712181Y-61776771D01*
X168204206Y-62268796D01*
X168237691Y-62330119D01*
X168232707Y-62399811D01*
X168223634Y-62418957D01*
X168223599Y-62419017D01*
X168172816Y-62467006D01*
X168104151Y-62479922D01*
X168039403Y-62453664D01*
X168028809Y-62444218D01*
X167536819Y-61952228D01*
X167522115Y-61925300D01*
X167505523Y-61899482D01*
X167504631Y-61893281D01*
X167503334Y-61890905D01*
X167500500Y-61864547D01*
X167500500Y-61864452D01*
X167520185Y-61797413D01*
X167572989Y-61751658D01*
X167642147Y-61741714D01*
X167705703Y-61770739D01*
G37*
%TD.AperFunction*%
%TA.AperFunction,Conductor*%
G36*
X155466539Y-37345185D02*
G01*
X155512294Y-37397989D01*
X155523500Y-37449500D01*
X155523500Y-38140611D01*
X155547535Y-38261444D01*
X155547540Y-38261461D01*
X155594685Y-38375281D01*
X155594687Y-38375284D01*
X155594688Y-38375286D01*
X155621226Y-38415001D01*
X155663142Y-38477733D01*
X155750267Y-38564858D01*
X155750269Y-38564859D01*
X155760579Y-38575169D01*
X155981346Y-38795936D01*
X156014831Y-38857259D01*
X156011371Y-38922620D01*
X155985001Y-39002199D01*
X155974500Y-39104983D01*
X155974500Y-39905001D01*
X155974501Y-39905019D01*
X155985000Y-40007796D01*
X155985001Y-40007799D01*
X156032772Y-40151961D01*
X156040186Y-40174334D01*
X156132288Y-40323656D01*
X156256344Y-40447712D01*
X156405666Y-40539814D01*
X156572203Y-40594999D01*
X156674991Y-40605500D01*
X158475008Y-40605499D01*
X158577797Y-40594999D01*
X158744334Y-40539814D01*
X158893656Y-40447712D01*
X159017712Y-40323656D01*
X159109814Y-40174334D01*
X159164999Y-40007797D01*
X159175500Y-39905009D01*
X159175499Y-39104992D01*
X159164999Y-39002203D01*
X159109814Y-38835666D01*
X159017712Y-38686344D01*
X158893656Y-38562288D01*
X158893655Y-38562287D01*
X158794155Y-38500915D01*
X158744905Y-38470538D01*
X158698181Y-38418591D01*
X158686958Y-38349629D01*
X158714801Y-38285546D01*
X158744906Y-38259461D01*
X158893656Y-38167712D01*
X159017712Y-38043656D01*
X159100519Y-37909402D01*
X159152467Y-37862679D01*
X159206058Y-37850500D01*
X160050500Y-37850500D01*
X160117539Y-37870185D01*
X160163294Y-37922989D01*
X160174500Y-37974500D01*
X160174500Y-39925019D01*
X160185001Y-40027801D01*
X160240184Y-40194333D01*
X160240189Y-40194344D01*
X160332285Y-40343653D01*
X160332288Y-40343657D01*
X160456342Y-40467711D01*
X160456346Y-40467714D01*
X160605655Y-40559810D01*
X160605658Y-40559811D01*
X160605664Y-40559815D01*
X160772200Y-40614999D01*
X160874988Y-40625500D01*
X163125500Y-40625500D01*
X163192539Y-40645185D01*
X163238294Y-40697989D01*
X163249500Y-40749500D01*
X163249500Y-41956188D01*
X163229815Y-42023227D01*
X163177011Y-42068982D01*
X163138102Y-42079546D01*
X163084702Y-42085001D01*
X163084700Y-42085001D01*
X162918168Y-42140185D01*
X162918163Y-42140187D01*
X162768842Y-42232289D01*
X162644788Y-42356343D01*
X162644783Y-42356349D01*
X162642741Y-42359661D01*
X162640747Y-42361453D01*
X162640307Y-42362011D01*
X162640211Y-42361935D01*
X162590791Y-42406383D01*
X162521828Y-42417602D01*
X162457747Y-42389755D01*
X162431668Y-42359656D01*
X162429819Y-42356659D01*
X162429816Y-42356655D01*
X162305845Y-42232684D01*
X162156624Y-42140643D01*
X162156619Y-42140641D01*
X161990197Y-42085494D01*
X161990190Y-42085493D01*
X161887486Y-42075000D01*
X161650000Y-42075000D01*
X161650000Y-44524999D01*
X161887472Y-44524999D01*
X161887486Y-44524998D01*
X161990197Y-44514505D01*
X162156619Y-44459358D01*
X162156624Y-44459356D01*
X162305845Y-44367315D01*
X162429818Y-44243342D01*
X162431665Y-44240348D01*
X162433469Y-44238724D01*
X162434298Y-44237677D01*
X162434476Y-44237818D01*
X162483610Y-44193621D01*
X162552573Y-44182396D01*
X162616656Y-44210236D01*
X162642742Y-44240339D01*
X162644788Y-44243656D01*
X162768844Y-44367712D01*
X162918166Y-44459814D01*
X163084703Y-44514999D01*
X163147413Y-44521405D01*
X163212104Y-44547800D01*
X163222492Y-44557082D01*
X166638181Y-47972771D01*
X166671666Y-48034094D01*
X166674500Y-48060452D01*
X166674500Y-55152312D01*
X166668575Y-55172488D01*
X166667464Y-55193486D01*
X166658929Y-55205338D01*
X166654815Y-55219351D01*
X166638924Y-55233120D01*
X166626636Y-55250186D01*
X166613047Y-55255543D01*
X166602011Y-55265106D01*
X166581198Y-55268098D01*
X166561635Y-55275811D01*
X166547309Y-55272971D01*
X166532853Y-55275050D01*
X166513724Y-55266314D01*
X166493099Y-55262226D01*
X166482583Y-55252092D01*
X166469297Y-55246025D01*
X166457927Y-55228334D01*
X166442787Y-55213744D01*
X166437125Y-55195965D01*
X166431523Y-55187247D01*
X166429843Y-55180910D01*
X166427501Y-55171028D01*
X166427501Y-55168570D01*
X166403463Y-55047725D01*
X166395144Y-55027642D01*
X166374452Y-54977686D01*
X166356312Y-54933891D01*
X166356311Y-54933889D01*
X166356310Y-54933887D01*
X166287858Y-54831443D01*
X166287855Y-54831439D01*
X164492018Y-53035604D01*
X164482055Y-53025641D01*
X164482054Y-53025639D01*
X164394929Y-52938514D01*
X164343705Y-52904287D01*
X164292482Y-52870060D01*
X164292479Y-52870058D01*
X164292476Y-52870057D01*
X164233049Y-52845442D01*
X164211988Y-52836719D01*
X164178648Y-52822909D01*
X164118062Y-52810858D01*
X164113343Y-52809919D01*
X164113342Y-52809919D01*
X164057804Y-52798872D01*
X164057803Y-52798872D01*
X164057802Y-52798872D01*
X159644509Y-52798872D01*
X159521295Y-52798872D01*
X159521294Y-52798872D01*
X159470962Y-52808883D01*
X159461036Y-52810858D01*
X159400450Y-52822909D01*
X159388672Y-52827787D01*
X159378756Y-52830098D01*
X159353624Y-52828672D01*
X159328595Y-52831362D01*
X159319335Y-52826726D01*
X159308999Y-52826140D01*
X159288628Y-52811353D01*
X159266117Y-52800084D01*
X159260833Y-52791178D01*
X159252455Y-52785097D01*
X159243312Y-52761644D01*
X159230467Y-52739993D01*
X159230837Y-52729644D01*
X159227077Y-52719999D01*
X159232064Y-52695329D01*
X159232964Y-52670168D01*
X159239187Y-52660093D01*
X159240922Y-52651515D01*
X159250723Y-52641420D01*
X159262934Y-52621654D01*
X163572771Y-48311818D01*
X163634094Y-48278333D01*
X163660452Y-48275499D01*
X164036670Y-48275499D01*
X164036676Y-48275499D01*
X164137753Y-48265174D01*
X164301516Y-48210908D01*
X164448350Y-48120340D01*
X164570340Y-47998350D01*
X164660908Y-47851516D01*
X164715174Y-47687753D01*
X164725500Y-47586677D01*
X164725499Y-47013324D01*
X164724936Y-47007816D01*
X164715174Y-46912247D01*
X164710433Y-46897941D01*
X164660908Y-46748484D01*
X164570340Y-46601650D01*
X164448350Y-46479660D01*
X164301516Y-46389092D01*
X164137753Y-46334826D01*
X164137751Y-46334825D01*
X164036678Y-46324500D01*
X163363330Y-46324500D01*
X163363312Y-46324501D01*
X163262247Y-46334825D01*
X163098484Y-46389092D01*
X163098481Y-46389093D01*
X162951648Y-46479661D01*
X162912681Y-46518629D01*
X162851358Y-46552114D01*
X162781666Y-46547130D01*
X162737319Y-46518629D01*
X162698351Y-46479661D01*
X162698350Y-46479660D01*
X162551516Y-46389092D01*
X162387753Y-46334826D01*
X162387751Y-46334825D01*
X162286678Y-46324500D01*
X161613330Y-46324500D01*
X161613312Y-46324501D01*
X161512247Y-46334825D01*
X161348484Y-46389092D01*
X161348481Y-46389093D01*
X161201648Y-46479661D01*
X161182160Y-46499149D01*
X161120837Y-46532633D01*
X161051145Y-46527647D01*
X160995212Y-46485774D01*
X160988948Y-46476571D01*
X160930212Y-46381344D01*
X160806156Y-46257288D01*
X160656834Y-46165186D01*
X160490297Y-46110001D01*
X160490295Y-46110000D01*
X160387510Y-46099500D01*
X159587498Y-46099500D01*
X159587480Y-46099501D01*
X159484703Y-46110000D01*
X159484700Y-46110001D01*
X159318168Y-46165185D01*
X159318163Y-46165187D01*
X159168845Y-46257287D01*
X159074827Y-46351305D01*
X159013503Y-46384789D01*
X158943812Y-46379805D01*
X158899465Y-46351304D01*
X158805845Y-46257684D01*
X158656624Y-46165643D01*
X158656619Y-46165641D01*
X158490197Y-46110494D01*
X158490190Y-46110493D01*
X158387486Y-46100000D01*
X158137500Y-46100000D01*
X158137500Y-48499999D01*
X158387472Y-48499999D01*
X158387486Y-48499998D01*
X158490197Y-48489505D01*
X158656619Y-48434358D01*
X158656624Y-48434356D01*
X158805842Y-48342317D01*
X158899464Y-48248695D01*
X158960787Y-48215210D01*
X159030479Y-48220194D01*
X159074827Y-48248695D01*
X159168844Y-48342712D01*
X159318166Y-48434814D01*
X159484703Y-48489999D01*
X159587491Y-48500500D01*
X160387508Y-48500499D01*
X160387516Y-48500498D01*
X160387519Y-48500498D01*
X160443802Y-48494748D01*
X160490297Y-48489999D01*
X160656834Y-48434814D01*
X160806156Y-48342712D01*
X160930212Y-48218656D01*
X160988944Y-48123434D01*
X161040889Y-48076712D01*
X161109851Y-48065489D01*
X161173934Y-48093332D01*
X161182162Y-48100852D01*
X161201650Y-48120340D01*
X161348484Y-48210908D01*
X161512247Y-48265174D01*
X161542765Y-48268291D01*
X161559309Y-48269982D01*
X161624001Y-48296378D01*
X161664153Y-48353559D01*
X161667016Y-48423370D01*
X161634388Y-48481021D01*
X155377229Y-54738181D01*
X155350301Y-54752884D01*
X155324483Y-54769477D01*
X155318282Y-54770368D01*
X155315906Y-54771666D01*
X155289548Y-54774500D01*
X155236999Y-54774500D01*
X155169960Y-54754815D01*
X155124205Y-54702011D01*
X155112999Y-54650500D01*
X155112999Y-54610636D01*
X155097546Y-54493246D01*
X155097544Y-54493241D01*
X155097544Y-54493238D01*
X155037036Y-54347159D01*
X154940782Y-54221718D01*
X154815341Y-54125464D01*
X154808349Y-54122568D01*
X154761753Y-54103267D01*
X154669262Y-54064956D01*
X154643324Y-54061541D01*
X154568043Y-54051630D01*
X154557065Y-54046773D01*
X154545070Y-54046345D01*
X154525705Y-54032900D01*
X154504147Y-54023363D01*
X154496103Y-54012347D01*
X154487677Y-54006497D01*
X154469668Y-53976144D01*
X154446601Y-53920455D01*
X154446601Y-53920454D01*
X154429314Y-53878719D01*
X154429312Y-53878714D01*
X154377562Y-53801267D01*
X154360858Y-53776267D01*
X154273733Y-53689142D01*
X154273732Y-53689141D01*
X154270621Y-53686030D01*
X154270606Y-53686016D01*
X153336819Y-52752229D01*
X153303334Y-52690906D01*
X153300500Y-52664548D01*
X153300500Y-52611306D01*
X153300499Y-52611304D01*
X153265896Y-52437341D01*
X153265893Y-52437332D01*
X153198016Y-52273459D01*
X153198009Y-52273446D01*
X153099464Y-52125965D01*
X153099461Y-52125961D01*
X152974038Y-52000538D01*
X152974034Y-52000535D01*
X152826553Y-51901990D01*
X152826540Y-51901983D01*
X152662667Y-51834106D01*
X152662658Y-51834103D01*
X152488694Y-51799500D01*
X152488691Y-51799500D01*
X152311309Y-51799500D01*
X152311306Y-51799500D01*
X152137341Y-51834103D01*
X152137332Y-51834106D01*
X151973459Y-51901983D01*
X151973446Y-51901990D01*
X151825965Y-52000535D01*
X151825961Y-52000538D01*
X151700538Y-52125961D01*
X151700535Y-52125965D01*
X151601990Y-52273446D01*
X151601983Y-52273459D01*
X151534106Y-52437332D01*
X151534105Y-52437337D01*
X151527569Y-52470194D01*
X151495183Y-52532104D01*
X151434466Y-52566677D01*
X151364697Y-52562936D01*
X151318271Y-52533681D01*
X150886819Y-52102229D01*
X150853334Y-52040906D01*
X150850500Y-52014548D01*
X150850500Y-48265320D01*
X150851577Y-48261651D01*
X150850721Y-48257927D01*
X150861343Y-48228391D01*
X150870185Y-48198281D01*
X150873448Y-48194734D01*
X150874367Y-48192180D01*
X150883962Y-48183306D01*
X150899029Y-48166932D01*
X150904024Y-48163099D01*
X150973350Y-48120340D01*
X151018076Y-48075613D01*
X151024529Y-48070664D01*
X151049837Y-48060884D01*
X151073642Y-48047886D01*
X151081939Y-48048479D01*
X151089702Y-48045480D01*
X151116274Y-48050934D01*
X151143334Y-48052870D01*
X151151609Y-48058188D01*
X151158145Y-48059530D01*
X151166701Y-48067888D01*
X151187681Y-48081371D01*
X151226650Y-48120340D01*
X151373484Y-48210908D01*
X151537247Y-48265174D01*
X151638323Y-48275500D01*
X152311676Y-48275499D01*
X152311684Y-48275498D01*
X152311687Y-48275498D01*
X152367030Y-48269844D01*
X152412753Y-48265174D01*
X152576516Y-48210908D01*
X152723350Y-48120340D01*
X152845340Y-47998350D01*
X152845343Y-47998344D01*
X152849821Y-47992683D01*
X152852546Y-47994838D01*
X152892445Y-47958242D01*
X152961295Y-47946349D01*
X153025646Y-47973567D01*
X153064827Y-48030530D01*
X153074437Y-48059530D01*
X153077686Y-48069334D01*
X153169788Y-48218656D01*
X153293844Y-48342712D01*
X153443166Y-48434814D01*
X153609703Y-48489999D01*
X153712491Y-48500500D01*
X154512508Y-48500499D01*
X154512516Y-48500498D01*
X154512519Y-48500498D01*
X154568802Y-48494748D01*
X154615297Y-48489999D01*
X154781834Y-48434814D01*
X154931156Y-48342712D01*
X155025175Y-48248692D01*
X155086494Y-48215210D01*
X155156186Y-48220194D01*
X155200534Y-48248695D01*
X155294154Y-48342315D01*
X155443375Y-48434356D01*
X155443380Y-48434358D01*
X155609802Y-48489505D01*
X155609809Y-48489506D01*
X155712519Y-48499999D01*
X155962499Y-48499999D01*
X156262500Y-48499999D01*
X156512472Y-48499999D01*
X156512486Y-48499998D01*
X156615197Y-48489505D01*
X156781619Y-48434358D01*
X156781624Y-48434356D01*
X156930845Y-48342315D01*
X156962319Y-48310842D01*
X157023642Y-48277357D01*
X157093334Y-48282341D01*
X157137681Y-48310842D01*
X157169154Y-48342315D01*
X157318375Y-48434356D01*
X157318380Y-48434358D01*
X157484802Y-48489505D01*
X157484809Y-48489506D01*
X157587519Y-48499999D01*
X157837499Y-48499999D01*
X157837500Y-48499998D01*
X157837500Y-47450000D01*
X156262500Y-47450000D01*
X156262500Y-48499999D01*
X155962499Y-48499999D01*
X155962500Y-48499998D01*
X155962500Y-47150000D01*
X156262500Y-47150000D01*
X157837500Y-47150000D01*
X157837500Y-46100000D01*
X157587529Y-46100000D01*
X157587512Y-46100001D01*
X157484802Y-46110494D01*
X157318380Y-46165641D01*
X157318375Y-46165643D01*
X157169154Y-46257684D01*
X157137681Y-46289158D01*
X157076358Y-46322643D01*
X157006666Y-46317659D01*
X156962319Y-46289158D01*
X156930845Y-46257684D01*
X156781624Y-46165643D01*
X156781619Y-46165641D01*
X156615197Y-46110494D01*
X156615190Y-46110493D01*
X156512486Y-46100000D01*
X156262500Y-46100000D01*
X156262500Y-47150000D01*
X155962500Y-47150000D01*
X155962500Y-46100000D01*
X155712529Y-46100000D01*
X155712512Y-46100001D01*
X155609802Y-46110494D01*
X155443380Y-46165641D01*
X155443375Y-46165643D01*
X155294157Y-46257682D01*
X155200534Y-46351305D01*
X155139210Y-46384789D01*
X155069519Y-46379805D01*
X155025172Y-46351304D01*
X154931157Y-46257289D01*
X154931156Y-46257288D01*
X154781834Y-46165186D01*
X154615297Y-46110001D01*
X154615295Y-46110000D01*
X154512510Y-46099500D01*
X153712498Y-46099500D01*
X153712480Y-46099501D01*
X153609703Y-46110000D01*
X153609700Y-46110001D01*
X153443168Y-46165185D01*
X153443163Y-46165187D01*
X153293842Y-46257289D01*
X153169789Y-46381342D01*
X153077687Y-46530663D01*
X153077683Y-46530672D01*
X153064827Y-46569469D01*
X153025053Y-46626914D01*
X152960537Y-46653735D01*
X152891761Y-46641419D01*
X152852344Y-46605321D01*
X152849821Y-46607317D01*
X152845339Y-46601649D01*
X152723351Y-46479661D01*
X152723350Y-46479660D01*
X152576516Y-46389092D01*
X152412753Y-46334826D01*
X152412751Y-46334825D01*
X152311678Y-46324500D01*
X151638330Y-46324500D01*
X151638312Y-46324501D01*
X151537247Y-46334825D01*
X151373484Y-46389092D01*
X151373481Y-46389093D01*
X151226648Y-46479661D01*
X151187681Y-46518629D01*
X151126358Y-46552114D01*
X151056666Y-46547130D01*
X151012319Y-46518629D01*
X150973351Y-46479661D01*
X150973350Y-46479660D01*
X150826516Y-46389092D01*
X150662753Y-46334826D01*
X150662751Y-46334825D01*
X150561678Y-46324500D01*
X149888330Y-46324500D01*
X149888312Y-46324501D01*
X149787247Y-46334825D01*
X149623484Y-46389092D01*
X149623481Y-46389093D01*
X149476648Y-46479661D01*
X149354661Y-46601648D01*
X149264093Y-46748481D01*
X149264091Y-46748486D01*
X149240920Y-46818412D01*
X149209826Y-46912247D01*
X149209826Y-46912248D01*
X149209825Y-46912248D01*
X149199500Y-47013315D01*
X149199500Y-47586669D01*
X149199501Y-47586687D01*
X149209825Y-47687752D01*
X149264092Y-47851515D01*
X149264093Y-47851518D01*
X149278572Y-47874992D01*
X149354660Y-47998350D01*
X149476650Y-48120340D01*
X149540597Y-48159783D01*
X149587321Y-48211728D01*
X149599500Y-48265320D01*
X149599500Y-50910229D01*
X149579815Y-50977268D01*
X149527011Y-51023023D01*
X149457853Y-51032967D01*
X149451309Y-51031846D01*
X149288695Y-50999500D01*
X149288691Y-50999500D01*
X149111309Y-50999500D01*
X149111306Y-50999500D01*
X148937341Y-51034103D01*
X148937332Y-51034106D01*
X148773459Y-51101983D01*
X148773446Y-51101990D01*
X148625965Y-51200535D01*
X148625961Y-51200538D01*
X148500538Y-51325961D01*
X148500535Y-51325965D01*
X148401990Y-51473446D01*
X148401983Y-51473459D01*
X148334106Y-51637332D01*
X148334103Y-51637341D01*
X148299500Y-51811304D01*
X148299500Y-51988695D01*
X148334103Y-52162658D01*
X148334106Y-52162667D01*
X148401983Y-52326540D01*
X148401990Y-52326553D01*
X148500535Y-52474034D01*
X148500538Y-52474038D01*
X148625961Y-52599461D01*
X148625965Y-52599464D01*
X148773446Y-52698009D01*
X148773459Y-52698016D01*
X148826532Y-52719999D01*
X148937334Y-52765894D01*
X148997790Y-52777919D01*
X149059700Y-52810303D01*
X149061279Y-52811855D01*
X150360081Y-54110657D01*
X150393566Y-54171980D01*
X150388582Y-54241672D01*
X150346710Y-54297605D01*
X150285007Y-54321695D01*
X150272306Y-54322992D01*
X150105880Y-54378141D01*
X150105875Y-54378143D01*
X149956654Y-54470184D01*
X149832684Y-54594154D01*
X149740643Y-54743375D01*
X149740641Y-54743380D01*
X149685494Y-54909802D01*
X149685493Y-54909809D01*
X149675000Y-55012513D01*
X149675000Y-55228548D01*
X149655315Y-55295587D01*
X149602511Y-55341342D01*
X149533353Y-55351286D01*
X149469797Y-55322261D01*
X149463319Y-55316229D01*
X143983770Y-49836680D01*
X143950285Y-49775357D01*
X143955269Y-49705665D01*
X143997141Y-49649732D01*
X144062605Y-49625315D01*
X144071451Y-49624999D01*
X144124972Y-49624999D01*
X144124986Y-49624998D01*
X144227697Y-49614505D01*
X144394119Y-49559358D01*
X144394124Y-49559356D01*
X144543345Y-49467315D01*
X144667315Y-49343345D01*
X144759356Y-49194124D01*
X144759358Y-49194119D01*
X144814505Y-49027697D01*
X144814506Y-49027690D01*
X144824999Y-48924986D01*
X144825000Y-48924973D01*
X144825000Y-48550000D01*
X143861500Y-48550000D01*
X143852814Y-48547449D01*
X143843853Y-48548738D01*
X143819812Y-48537759D01*
X143794461Y-48530315D01*
X143788533Y-48523474D01*
X143780297Y-48519713D01*
X143766007Y-48497478D01*
X143748706Y-48477511D01*
X143746418Y-48466996D01*
X143742523Y-48460935D01*
X143737500Y-48426000D01*
X143737500Y-48400000D01*
X143711500Y-48400000D01*
X143644461Y-48380315D01*
X143598706Y-48327511D01*
X143587500Y-48276000D01*
X143587500Y-48250000D01*
X143887500Y-48250000D01*
X144824999Y-48250000D01*
X144824999Y-47875028D01*
X144824998Y-47875013D01*
X144814505Y-47772302D01*
X144759358Y-47605880D01*
X144759356Y-47605875D01*
X144667315Y-47456654D01*
X144543345Y-47332684D01*
X144394124Y-47240643D01*
X144394119Y-47240641D01*
X144227697Y-47185494D01*
X144227690Y-47185493D01*
X144124986Y-47175000D01*
X143887500Y-47175000D01*
X143887500Y-48250000D01*
X143587500Y-48250000D01*
X143587500Y-47175000D01*
X143350029Y-47175000D01*
X143350012Y-47175001D01*
X143247302Y-47185494D01*
X143080880Y-47240641D01*
X143080875Y-47240643D01*
X142931654Y-47332684D01*
X142807683Y-47456655D01*
X142807679Y-47456660D01*
X142805826Y-47459665D01*
X142804018Y-47461290D01*
X142803202Y-47462323D01*
X142803025Y-47462183D01*
X142753874Y-47506385D01*
X142684911Y-47517601D01*
X142620831Y-47489752D01*
X142594753Y-47459653D01*
X142593968Y-47458380D01*
X142592712Y-47456344D01*
X142468656Y-47332288D01*
X142346902Y-47257190D01*
X142300179Y-47205243D01*
X142288000Y-47151652D01*
X142288000Y-46049500D01*
X142307685Y-45982461D01*
X142360489Y-45936706D01*
X142412000Y-45925500D01*
X146475007Y-45925500D01*
X146475012Y-45925500D01*
X146577800Y-45914999D01*
X146744336Y-45859815D01*
X146893657Y-45767712D01*
X147017712Y-45643657D01*
X147109815Y-45494336D01*
X147164999Y-45327800D01*
X147175500Y-45225012D01*
X147175500Y-43824986D01*
X160412501Y-43824986D01*
X160422994Y-43927697D01*
X160478141Y-44094119D01*
X160478143Y-44094124D01*
X160570184Y-44243345D01*
X160694154Y-44367315D01*
X160843375Y-44459356D01*
X160843380Y-44459358D01*
X161009802Y-44514505D01*
X161009809Y-44514506D01*
X161112519Y-44524999D01*
X161349999Y-44524999D01*
X161350000Y-44524998D01*
X161350000Y-43450000D01*
X160412501Y-43450000D01*
X160412501Y-43824986D01*
X147175500Y-43824986D01*
X147175500Y-42775013D01*
X160412500Y-42775013D01*
X160412500Y-43150000D01*
X161350000Y-43150000D01*
X161350000Y-42075000D01*
X161112529Y-42075000D01*
X161112512Y-42075001D01*
X161009802Y-42085494D01*
X160843380Y-42140641D01*
X160843375Y-42140643D01*
X160694154Y-42232684D01*
X160570184Y-42356654D01*
X160478143Y-42505875D01*
X160478141Y-42505880D01*
X160422994Y-42672302D01*
X160422993Y-42672309D01*
X160412500Y-42775013D01*
X147175500Y-42775013D01*
X147175500Y-39824988D01*
X147164999Y-39722200D01*
X147109815Y-39555664D01*
X147109811Y-39555658D01*
X147109810Y-39555655D01*
X147017714Y-39406346D01*
X147017711Y-39406342D01*
X146893657Y-39282288D01*
X146893653Y-39282285D01*
X146744344Y-39190189D01*
X146744338Y-39190186D01*
X146744336Y-39190185D01*
X146744333Y-39190184D01*
X146577801Y-39135001D01*
X146475019Y-39124500D01*
X146475012Y-39124500D01*
X140474988Y-39124500D01*
X140474980Y-39124500D01*
X140372198Y-39135001D01*
X140205666Y-39190184D01*
X140205655Y-39190189D01*
X140056346Y-39282285D01*
X140056342Y-39282288D01*
X139932288Y-39406342D01*
X139932285Y-39406346D01*
X139840189Y-39555655D01*
X139840184Y-39555666D01*
X139785001Y-39722198D01*
X139774500Y-39824980D01*
X139774500Y-41775500D01*
X139754815Y-41842539D01*
X139702011Y-41888294D01*
X139650500Y-41899500D01*
X138806058Y-41899500D01*
X138739019Y-41879815D01*
X138700519Y-41840597D01*
X138617712Y-41706344D01*
X138493656Y-41582288D01*
X138344428Y-41490244D01*
X138297705Y-41438297D01*
X138286482Y-41369334D01*
X138314326Y-41305252D01*
X138344430Y-41279167D01*
X138493343Y-41187317D01*
X138617315Y-41063345D01*
X138709356Y-40914124D01*
X138709358Y-40914119D01*
X138764505Y-40747697D01*
X138764506Y-40747690D01*
X138774999Y-40644986D01*
X138775000Y-40644973D01*
X138775000Y-40395000D01*
X137299000Y-40395000D01*
X137290314Y-40392449D01*
X137281353Y-40393738D01*
X137257312Y-40382759D01*
X137231961Y-40375315D01*
X137226033Y-40368474D01*
X137217797Y-40364713D01*
X137203507Y-40342478D01*
X137186206Y-40322511D01*
X137183918Y-40311996D01*
X137180023Y-40305935D01*
X137175000Y-40271000D01*
X137175000Y-40219000D01*
X137194685Y-40151961D01*
X137247489Y-40106206D01*
X137299000Y-40095000D01*
X138774999Y-40095000D01*
X138774999Y-39845028D01*
X138774998Y-39845013D01*
X138764505Y-39742302D01*
X138709358Y-39575880D01*
X138709356Y-39575875D01*
X138617315Y-39426654D01*
X138493345Y-39302684D01*
X138344124Y-39210643D01*
X138344119Y-39210641D01*
X138177697Y-39155494D01*
X138177690Y-39155493D01*
X138074986Y-39145000D01*
X137437437Y-39145000D01*
X137370398Y-39125315D01*
X137324643Y-39072511D01*
X137314699Y-39003353D01*
X137343724Y-38939797D01*
X137349742Y-38933333D01*
X138921257Y-37361819D01*
X138982580Y-37328334D01*
X139008938Y-37325500D01*
X155399500Y-37325500D01*
X155466539Y-37345185D01*
G37*
%TD.AperFunction*%
%TA.AperFunction,Conductor*%
G36*
X167017539Y-32645185D02*
G01*
X167063294Y-32697989D01*
X167074500Y-32749500D01*
X167074500Y-33707566D01*
X167054815Y-33774605D01*
X167002011Y-33820360D01*
X166937898Y-33830924D01*
X166875021Y-33824500D01*
X166875012Y-33824500D01*
X160874988Y-33824500D01*
X160874980Y-33824500D01*
X160772198Y-33835001D01*
X160605666Y-33890184D01*
X160605655Y-33890189D01*
X160456346Y-33982285D01*
X160456342Y-33982288D01*
X160332288Y-34106342D01*
X160332285Y-34106346D01*
X160240189Y-34255655D01*
X160240184Y-34255666D01*
X160185001Y-34422198D01*
X160174500Y-34524980D01*
X160174500Y-36475500D01*
X160154815Y-36542539D01*
X160102011Y-36588294D01*
X160050500Y-36599500D01*
X159206058Y-36599500D01*
X159139019Y-36579815D01*
X159100519Y-36540597D01*
X159017712Y-36406344D01*
X158893656Y-36282288D01*
X158744428Y-36190244D01*
X158697705Y-36138297D01*
X158686482Y-36069334D01*
X158714326Y-36005252D01*
X158744430Y-35979167D01*
X158893343Y-35887317D01*
X159017315Y-35763345D01*
X159109356Y-35614124D01*
X159109358Y-35614119D01*
X159164505Y-35447697D01*
X159164506Y-35447690D01*
X159174999Y-35344986D01*
X159175000Y-35344973D01*
X159175000Y-35095000D01*
X157699000Y-35095000D01*
X157690314Y-35092449D01*
X157681353Y-35093738D01*
X157657312Y-35082759D01*
X157631961Y-35075315D01*
X157626033Y-35068474D01*
X157617797Y-35064713D01*
X157603507Y-35042478D01*
X157586206Y-35022511D01*
X157583918Y-35011996D01*
X157580023Y-35005935D01*
X157575000Y-34971000D01*
X157575000Y-34919000D01*
X157594685Y-34851961D01*
X157647489Y-34806206D01*
X157699000Y-34795000D01*
X159174999Y-34795000D01*
X159174999Y-34545028D01*
X159174998Y-34545013D01*
X159164505Y-34442302D01*
X159109358Y-34275880D01*
X159109356Y-34275875D01*
X159017315Y-34126654D01*
X158893345Y-34002684D01*
X158744124Y-33910643D01*
X158744119Y-33910641D01*
X158577697Y-33855494D01*
X158577690Y-33855493D01*
X158474986Y-33845000D01*
X157837437Y-33845000D01*
X157770398Y-33825315D01*
X157724643Y-33772511D01*
X157714699Y-33703353D01*
X157743724Y-33639797D01*
X157749742Y-33633333D01*
X158721257Y-32661819D01*
X158782580Y-32628334D01*
X158808938Y-32625500D01*
X166950500Y-32625500D01*
X167017539Y-32645185D01*
G37*
%TD.AperFunction*%
%TA.AperFunction,Conductor*%
G36*
X185002562Y-30000605D02*
G01*
X185370277Y-30015814D01*
X185375906Y-30016177D01*
X185459956Y-30023530D01*
X185464429Y-30024004D01*
X185787028Y-30064216D01*
X185793169Y-30065140D01*
X185871766Y-30078999D01*
X185875594Y-30079737D01*
X186199008Y-30147549D01*
X186205622Y-30149128D01*
X186274576Y-30167604D01*
X186277787Y-30168512D01*
X186603169Y-30265383D01*
X186610157Y-30267692D01*
X186664056Y-30287310D01*
X186666678Y-30288299D01*
X186996425Y-30416967D01*
X187003729Y-30420089D01*
X187034837Y-30434595D01*
X187036641Y-30435458D01*
X187374902Y-30600823D01*
X187383883Y-30605683D01*
X187730070Y-30811966D01*
X187738638Y-30817564D01*
X188066593Y-31051719D01*
X188074668Y-31058005D01*
X188382155Y-31318433D01*
X188389695Y-31325374D01*
X188674625Y-31610304D01*
X188681566Y-31617844D01*
X188850712Y-31817555D01*
X188941989Y-31925325D01*
X188948282Y-31933410D01*
X188951840Y-31938393D01*
X189182431Y-32261355D01*
X189188037Y-32269935D01*
X189394309Y-32616105D01*
X189399186Y-32625119D01*
X189564467Y-32963206D01*
X189565450Y-32965262D01*
X189579902Y-32996255D01*
X189583036Y-33003584D01*
X189711691Y-33333300D01*
X189712696Y-33335964D01*
X189732299Y-33389822D01*
X189734622Y-33396851D01*
X189831475Y-33722173D01*
X189832405Y-33725462D01*
X189850867Y-33794364D01*
X189852453Y-33801010D01*
X189920250Y-34124350D01*
X189921005Y-34128265D01*
X189934854Y-34206807D01*
X189935786Y-34213001D01*
X189975990Y-34535538D01*
X189976470Y-34540069D01*
X189983819Y-34624067D01*
X189984185Y-34629749D01*
X189999394Y-34997437D01*
X189999500Y-35002562D01*
X189999500Y-89997437D01*
X189999394Y-90002562D01*
X189984185Y-90370249D01*
X189983819Y-90375930D01*
X189983819Y-90375931D01*
X189976470Y-90459929D01*
X189975990Y-90464460D01*
X189935786Y-90786997D01*
X189934854Y-90793191D01*
X189921005Y-90871733D01*
X189920250Y-90875648D01*
X189852453Y-91198988D01*
X189850867Y-91205634D01*
X189832405Y-91274536D01*
X189831475Y-91277825D01*
X189734622Y-91603147D01*
X189732299Y-91610176D01*
X189712696Y-91664034D01*
X189711691Y-91666698D01*
X189583036Y-91996414D01*
X189579903Y-92003741D01*
X189579902Y-92003743D01*
X189565471Y-92034691D01*
X189564489Y-92036747D01*
X189399182Y-92374889D01*
X189394304Y-92383903D01*
X189188037Y-92730064D01*
X189182431Y-92738644D01*
X188948284Y-93066587D01*
X188941989Y-93074674D01*
X188681566Y-93382155D01*
X188674625Y-93389695D01*
X188389695Y-93674625D01*
X188382155Y-93681566D01*
X188074674Y-93941989D01*
X188066587Y-93948284D01*
X187738644Y-94182431D01*
X187730064Y-94188037D01*
X187383903Y-94394304D01*
X187374889Y-94399182D01*
X187036747Y-94564489D01*
X187034691Y-94565471D01*
X187003743Y-94579902D01*
X186996414Y-94583036D01*
X186666698Y-94711691D01*
X186664034Y-94712696D01*
X186610176Y-94732299D01*
X186603147Y-94734622D01*
X186277825Y-94831475D01*
X186274536Y-94832405D01*
X186205634Y-94850867D01*
X186198988Y-94852453D01*
X185875648Y-94920250D01*
X185871733Y-94921005D01*
X185793191Y-94934854D01*
X185786997Y-94935786D01*
X185464460Y-94975990D01*
X185459929Y-94976470D01*
X185375931Y-94983819D01*
X185370249Y-94984185D01*
X185002563Y-94999394D01*
X184997438Y-94999500D01*
X135002562Y-94999500D01*
X134997437Y-94999394D01*
X134629749Y-94984185D01*
X134624067Y-94983819D01*
X134540069Y-94976470D01*
X134535538Y-94975990D01*
X134213001Y-94935786D01*
X134206807Y-94934854D01*
X134128265Y-94921005D01*
X134124350Y-94920250D01*
X133801010Y-94852453D01*
X133794364Y-94850867D01*
X133725462Y-94832405D01*
X133722173Y-94831475D01*
X133396851Y-94734622D01*
X133389822Y-94732299D01*
X133335964Y-94712696D01*
X133333300Y-94711691D01*
X133003584Y-94583036D01*
X132996255Y-94579902D01*
X132965262Y-94565450D01*
X132963206Y-94564467D01*
X132625119Y-94399186D01*
X132616105Y-94394309D01*
X132269935Y-94188037D01*
X132261355Y-94182431D01*
X132181617Y-94125499D01*
X131933410Y-93948282D01*
X131925325Y-93941989D01*
X131837176Y-93867331D01*
X131617844Y-93681566D01*
X131610304Y-93674625D01*
X131325374Y-93389695D01*
X131318433Y-93382155D01*
X131058010Y-93074674D01*
X131051715Y-93066587D01*
X130938599Y-92908159D01*
X130817564Y-92738638D01*
X130811962Y-92730064D01*
X130605683Y-92383883D01*
X130600817Y-92374889D01*
X130435458Y-92036641D01*
X130434595Y-92034837D01*
X130420089Y-92003729D01*
X130416962Y-91996414D01*
X130292376Y-91677127D01*
X130288299Y-91666679D01*
X130287302Y-91664034D01*
X130267692Y-91610157D01*
X130265383Y-91603169D01*
X130168512Y-91277787D01*
X130167604Y-91274576D01*
X130149128Y-91205622D01*
X130147549Y-91199008D01*
X130079737Y-90875594D01*
X130078999Y-90871766D01*
X130065140Y-90793169D01*
X130064216Y-90787028D01*
X130024004Y-90464429D01*
X130023530Y-90459956D01*
X130016177Y-90375906D01*
X130015814Y-90370277D01*
X130000606Y-90002562D01*
X130000500Y-89997438D01*
X130000500Y-65407135D01*
X134184500Y-65407135D01*
X134184500Y-67232870D01*
X134184501Y-67232876D01*
X134190908Y-67292483D01*
X134241202Y-67427328D01*
X134241206Y-67427335D01*
X134327452Y-67542544D01*
X134327455Y-67542547D01*
X134442664Y-67628793D01*
X134442673Y-67628798D01*
X134505367Y-67652181D01*
X134558632Y-67672047D01*
X134614566Y-67713917D01*
X134638984Y-67779381D01*
X134624133Y-67847654D01*
X134602982Y-67875910D01*
X134508454Y-67970438D01*
X134382120Y-68144321D01*
X134284541Y-68335829D01*
X134284540Y-68335832D01*
X134218124Y-68540240D01*
X134218124Y-68540243D01*
X134204852Y-68624038D01*
X134184500Y-68752533D01*
X134184500Y-68967467D01*
X134193345Y-69023311D01*
X134218124Y-69179756D01*
X134218124Y-69179759D01*
X134284540Y-69384167D01*
X134284541Y-69384170D01*
X134336172Y-69485500D01*
X134382120Y-69575678D01*
X134508455Y-69749563D01*
X134660437Y-69901545D01*
X134767153Y-69979079D01*
X134837226Y-70029990D01*
X134879892Y-70085320D01*
X134885871Y-70154933D01*
X134853265Y-70216728D01*
X134837227Y-70230626D01*
X134660760Y-70358838D01*
X134660759Y-70358838D01*
X134508838Y-70510759D01*
X134382547Y-70684583D01*
X134285003Y-70876024D01*
X134218611Y-71080357D01*
X134218611Y-71080360D01*
X134191743Y-71250000D01*
X135212201Y-71250000D01*
X135190000Y-71332857D01*
X135190000Y-71467143D01*
X135212201Y-71550000D01*
X134191743Y-71550000D01*
X134218611Y-71719639D01*
X134218611Y-71719642D01*
X134285003Y-71923975D01*
X134382547Y-72115416D01*
X134508838Y-72289240D01*
X134660759Y-72441161D01*
X134837227Y-72569373D01*
X134879892Y-72624703D01*
X134885871Y-72694316D01*
X134853265Y-72756111D01*
X134837227Y-72770009D01*
X134787821Y-72805905D01*
X134660437Y-72898455D01*
X134660435Y-72898457D01*
X134660434Y-72898457D01*
X134508457Y-73050434D01*
X134508457Y-73050435D01*
X134508455Y-73050437D01*
X134461080Y-73115643D01*
X134382120Y-73224321D01*
X134284542Y-73415829D01*
X134218124Y-73620240D01*
X134218124Y-73620243D01*
X134184500Y-73832534D01*
X134184500Y-74047465D01*
X134218124Y-74259756D01*
X134218124Y-74259759D01*
X134284540Y-74464167D01*
X134284541Y-74464170D01*
X134357752Y-74607853D01*
X134382120Y-74655678D01*
X134508455Y-74829563D01*
X134660437Y-74981545D01*
X134790850Y-75076296D01*
X134834323Y-75107881D01*
X134905777Y-75144288D01*
X135006795Y-75195759D01*
X135057590Y-75243732D01*
X135074500Y-75306243D01*
X135074500Y-77939802D01*
X135080117Y-77968039D01*
X135086518Y-78000221D01*
X135098537Y-78060644D01*
X135103843Y-78073453D01*
X135107294Y-78081785D01*
X135107296Y-78081792D01*
X135145685Y-78174472D01*
X135145687Y-78174475D01*
X135145688Y-78174478D01*
X135178027Y-78222876D01*
X135179779Y-78225497D01*
X135179780Y-78225499D01*
X135214141Y-78276925D01*
X135305586Y-78368370D01*
X135305608Y-78368390D01*
X143536947Y-86599729D01*
X143536950Y-86599733D01*
X143624075Y-86686858D01*
X143686629Y-86728655D01*
X143726523Y-86755312D01*
X143793205Y-86782932D01*
X143840356Y-86802463D01*
X143900779Y-86814481D01*
X143961201Y-86826500D01*
X144938799Y-86826500D01*
X144999221Y-86814481D01*
X145020298Y-86810288D01*
X145026814Y-86808993D01*
X145060389Y-86811998D01*
X145096400Y-86815221D01*
X145096402Y-86815222D01*
X145096405Y-86815223D01*
X145117686Y-86831756D01*
X145151578Y-86858084D01*
X145151578Y-86858086D01*
X145151581Y-86858088D01*
X145165480Y-86897492D01*
X145174822Y-86923974D01*
X145174822Y-86923976D01*
X145174823Y-86923979D01*
X145174822Y-86923982D01*
X145175000Y-86930611D01*
X145175000Y-87052809D01*
X145155315Y-87119848D01*
X145102511Y-87165603D01*
X145037750Y-87176099D01*
X145027293Y-87174975D01*
X145022873Y-87174500D01*
X145022871Y-87174500D01*
X143927129Y-87174500D01*
X143927123Y-87174501D01*
X143867516Y-87180908D01*
X143732671Y-87231202D01*
X143732664Y-87231206D01*
X143617455Y-87317452D01*
X143617452Y-87317455D01*
X143531206Y-87432664D01*
X143531202Y-87432671D01*
X143480908Y-87567517D01*
X143474501Y-87627116D01*
X143474500Y-87627135D01*
X143474500Y-88522870D01*
X143474501Y-88522876D01*
X143480908Y-88582483D01*
X143531202Y-88717328D01*
X143531206Y-88717335D01*
X143617452Y-88832544D01*
X143617455Y-88832547D01*
X143732664Y-88918793D01*
X143732671Y-88918797D01*
X143867517Y-88969091D01*
X143867516Y-88969091D01*
X143874444Y-88969835D01*
X143927127Y-88975500D01*
X145022872Y-88975499D01*
X145037746Y-88973900D01*
X145106505Y-88986306D01*
X145157642Y-89033917D01*
X145175000Y-89097190D01*
X145175000Y-90202809D01*
X145155315Y-90269848D01*
X145102511Y-90315603D01*
X145037750Y-90326099D01*
X145027293Y-90324975D01*
X145022873Y-90324500D01*
X145022871Y-90324500D01*
X143927129Y-90324500D01*
X143927123Y-90324501D01*
X143867516Y-90330908D01*
X143732671Y-90381202D01*
X143732664Y-90381206D01*
X143617455Y-90467452D01*
X143617452Y-90467455D01*
X143531206Y-90582664D01*
X143531202Y-90582671D01*
X143480908Y-90717517D01*
X143474501Y-90777116D01*
X143474500Y-90777135D01*
X143474500Y-93672870D01*
X143474501Y-93672876D01*
X143480908Y-93732483D01*
X143531202Y-93867328D01*
X143531206Y-93867335D01*
X143617452Y-93982544D01*
X143617455Y-93982547D01*
X143732664Y-94068793D01*
X143732671Y-94068797D01*
X143867517Y-94119091D01*
X143867516Y-94119091D01*
X143874444Y-94119835D01*
X143927127Y-94125500D01*
X145022872Y-94125499D01*
X145082483Y-94119091D01*
X145217331Y-94068796D01*
X145332546Y-93982546D01*
X145418796Y-93867331D01*
X145469091Y-93732483D01*
X145475500Y-93672873D01*
X145475499Y-92275000D01*
X154225000Y-92275000D01*
X154225000Y-93625000D01*
X156707970Y-93625000D01*
X156775009Y-93644685D01*
X156820764Y-93697489D01*
X156828342Y-93725116D01*
X156829124Y-93724932D01*
X156830907Y-93732479D01*
X156881202Y-93867328D01*
X156881206Y-93867335D01*
X156967452Y-93982544D01*
X156967455Y-93982547D01*
X157082664Y-94068793D01*
X157082671Y-94068797D01*
X157217517Y-94119091D01*
X157217516Y-94119091D01*
X157224444Y-94119835D01*
X157277127Y-94125500D01*
X158672872Y-94125499D01*
X158732483Y-94119091D01*
X158867331Y-94068796D01*
X158982546Y-93982546D01*
X159068796Y-93867331D01*
X159119091Y-93732483D01*
X159125500Y-93672873D01*
X159125499Y-91677128D01*
X159119091Y-91617517D01*
X159113731Y-91603147D01*
X159068797Y-91482671D01*
X159068793Y-91482664D01*
X158982547Y-91367455D01*
X158982544Y-91367452D01*
X158867335Y-91281206D01*
X158867328Y-91281202D01*
X158732482Y-91230908D01*
X158732483Y-91230908D01*
X158672883Y-91224501D01*
X158672881Y-91224500D01*
X158672873Y-91224500D01*
X158672864Y-91224500D01*
X157277129Y-91224500D01*
X157277123Y-91224501D01*
X157217516Y-91230908D01*
X157082671Y-91281202D01*
X157082664Y-91281206D01*
X156967455Y-91367452D01*
X156967452Y-91367455D01*
X156881206Y-91482664D01*
X156881202Y-91482671D01*
X156830908Y-91617517D01*
X156825621Y-91666698D01*
X156824501Y-91677123D01*
X156824500Y-91677135D01*
X156824500Y-92151000D01*
X156804815Y-92218039D01*
X156752011Y-92263794D01*
X156700500Y-92275000D01*
X154225000Y-92275000D01*
X145475499Y-92275000D01*
X145475499Y-91598999D01*
X145495184Y-91531961D01*
X145547988Y-91486206D01*
X145599499Y-91475000D01*
X145875000Y-91475000D01*
X145875000Y-84299000D01*
X145894685Y-84231961D01*
X145947489Y-84186206D01*
X145999000Y-84175000D01*
X154575000Y-84175000D01*
X154575000Y-82575000D01*
X146710952Y-82575000D01*
X146643913Y-82555315D01*
X146598158Y-82502511D01*
X146588214Y-82433353D01*
X146617239Y-82369797D01*
X146623271Y-82363319D01*
X147375771Y-81610819D01*
X147437094Y-81577334D01*
X147463452Y-81574500D01*
X148312608Y-81574500D01*
X148312608Y-81574499D01*
X148387888Y-81559526D01*
X148433452Y-81550463D01*
X148466792Y-81536652D01*
X148547286Y-81503312D01*
X148598509Y-81469084D01*
X148649733Y-81434858D01*
X148736858Y-81347733D01*
X148736859Y-81347731D01*
X148743925Y-81340665D01*
X148743928Y-81340661D01*
X151173729Y-78910860D01*
X151173733Y-78910858D01*
X151260858Y-78823733D01*
X151302202Y-78761857D01*
X151326052Y-78726163D01*
X151379663Y-78681360D01*
X151442407Y-78671767D01*
X151477127Y-78675500D01*
X152272872Y-78675499D01*
X152332483Y-78669091D01*
X152381665Y-78650746D01*
X152451355Y-78645761D01*
X152468333Y-78650747D01*
X152517508Y-78669088D01*
X152517511Y-78669088D01*
X152517517Y-78669091D01*
X152577127Y-78675500D01*
X153372872Y-78675499D01*
X153432483Y-78669091D01*
X153481665Y-78650746D01*
X153551355Y-78645761D01*
X153568333Y-78650747D01*
X153617508Y-78669088D01*
X153617511Y-78669088D01*
X153617517Y-78669091D01*
X153677127Y-78675500D01*
X154472872Y-78675499D01*
X154532483Y-78669091D01*
X154582382Y-78650480D01*
X154667329Y-78618797D01*
X154667329Y-78618796D01*
X154667331Y-78618796D01*
X154700689Y-78593823D01*
X154766151Y-78569406D01*
X154834425Y-78584257D01*
X154849305Y-78593820D01*
X154882669Y-78618796D01*
X154882670Y-78618796D01*
X154882670Y-78618797D01*
X155017517Y-78669091D01*
X155017516Y-78669091D01*
X155024444Y-78669835D01*
X155077127Y-78675500D01*
X156172872Y-78675499D01*
X156232483Y-78669091D01*
X156367331Y-78618796D01*
X156482546Y-78532546D01*
X156568796Y-78417331D01*
X156619091Y-78282483D01*
X156625500Y-78222873D01*
X156625499Y-76927128D01*
X156619091Y-76867517D01*
X156568884Y-76732906D01*
X156568797Y-76732671D01*
X156568795Y-76732668D01*
X156537243Y-76690520D01*
X156512826Y-76625058D01*
X156521948Y-76568761D01*
X156565894Y-76462666D01*
X156567357Y-76455315D01*
X156600499Y-76288695D01*
X156600500Y-76288693D01*
X156600500Y-76124500D01*
X156620185Y-76057461D01*
X156672989Y-76011706D01*
X156724500Y-76000500D01*
X158368942Y-76000500D01*
X158435981Y-76020185D01*
X158474479Y-76059401D01*
X158557288Y-76193656D01*
X158681344Y-76317712D01*
X158830666Y-76409814D01*
X158997203Y-76464999D01*
X159099991Y-76475500D01*
X160100008Y-76475499D01*
X160100016Y-76475498D01*
X160100019Y-76475498D01*
X160167261Y-76468629D01*
X160202797Y-76464999D01*
X160369334Y-76409814D01*
X160518656Y-76317712D01*
X160642712Y-76193656D01*
X160734814Y-76044334D01*
X160789999Y-75877797D01*
X160800500Y-75775009D01*
X160800499Y-75110450D01*
X160820183Y-75043412D01*
X160836813Y-75022775D01*
X163098729Y-72760860D01*
X163098733Y-72760858D01*
X163185858Y-72673733D01*
X163229697Y-72608124D01*
X163247401Y-72581627D01*
X163301014Y-72536826D01*
X163370339Y-72528120D01*
X163433366Y-72558277D01*
X163470083Y-72617721D01*
X163474500Y-72650523D01*
X163474500Y-84541611D01*
X163498535Y-84662444D01*
X163498540Y-84662461D01*
X163545685Y-84776281D01*
X163545688Y-84776286D01*
X163565448Y-84805858D01*
X163614142Y-84878733D01*
X163701267Y-84965858D01*
X163701270Y-84965860D01*
X163709169Y-84973759D01*
X166373229Y-87637819D01*
X166406714Y-87699142D01*
X166401730Y-87768834D01*
X166359858Y-87824767D01*
X166294394Y-87849184D01*
X166285548Y-87849500D01*
X166173713Y-87849500D01*
X166145006Y-87854046D01*
X165963757Y-87882753D01*
X165948158Y-87887822D01*
X165878317Y-87889816D01*
X165822161Y-87857571D01*
X162061819Y-84097229D01*
X162028334Y-84035906D01*
X162025500Y-84009548D01*
X162025500Y-79199361D01*
X162045185Y-79132322D01*
X162061820Y-79111679D01*
X162099461Y-79074038D01*
X162099464Y-79074035D01*
X162198013Y-78926547D01*
X162199981Y-78921797D01*
X162218452Y-78877203D01*
X162265894Y-78762666D01*
X162273532Y-78724270D01*
X162291371Y-78634584D01*
X162300500Y-78588691D01*
X162300500Y-78411309D01*
X162300500Y-78411306D01*
X162300499Y-78411304D01*
X162265896Y-78237341D01*
X162265893Y-78237332D01*
X162198016Y-78073459D01*
X162198009Y-78073446D01*
X162099464Y-77925965D01*
X162099461Y-77925961D01*
X161974038Y-77800538D01*
X161974034Y-77800535D01*
X161826553Y-77701990D01*
X161826540Y-77701983D01*
X161662667Y-77634106D01*
X161662658Y-77634103D01*
X161488694Y-77599500D01*
X161488691Y-77599500D01*
X161311309Y-77599500D01*
X161311306Y-77599500D01*
X161137341Y-77634103D01*
X161137332Y-77634106D01*
X160973459Y-77701983D01*
X160973446Y-77701990D01*
X160825965Y-77800535D01*
X160825961Y-77800538D01*
X160700538Y-77925961D01*
X160700535Y-77925965D01*
X160601990Y-78073446D01*
X160601983Y-78073459D01*
X160534106Y-78237332D01*
X160534103Y-78237341D01*
X160499500Y-78411304D01*
X160499500Y-78588695D01*
X160534103Y-78762658D01*
X160534106Y-78762667D01*
X160601983Y-78926540D01*
X160601990Y-78926553D01*
X160700535Y-79074034D01*
X160700538Y-79074038D01*
X160738180Y-79111679D01*
X160771666Y-79173001D01*
X160774500Y-79199361D01*
X160774500Y-84381611D01*
X160798535Y-84502444D01*
X160798540Y-84502461D01*
X160845685Y-84616281D01*
X160845687Y-84616284D01*
X160845688Y-84616286D01*
X160876536Y-84662452D01*
X160914142Y-84718733D01*
X161001267Y-84805858D01*
X161001270Y-84805860D01*
X161008717Y-84813307D01*
X163833229Y-87637819D01*
X163866714Y-87699142D01*
X163861730Y-87768834D01*
X163819858Y-87824767D01*
X163754394Y-87849184D01*
X163745548Y-87849500D01*
X163633713Y-87849500D01*
X163585042Y-87857208D01*
X163423760Y-87882753D01*
X163221585Y-87948444D01*
X163032179Y-88044951D01*
X162860213Y-88169890D01*
X162709890Y-88320213D01*
X162584951Y-88492179D01*
X162488444Y-88681585D01*
X162422753Y-88883760D01*
X162389500Y-89093713D01*
X162389500Y-89306286D01*
X162422753Y-89516239D01*
X162488444Y-89718414D01*
X162584951Y-89907820D01*
X162709890Y-90079786D01*
X162860213Y-90230109D01*
X163032179Y-90355048D01*
X163032181Y-90355049D01*
X163032184Y-90355051D01*
X163221588Y-90451557D01*
X163423757Y-90517246D01*
X163633713Y-90550500D01*
X163633714Y-90550500D01*
X163846286Y-90550500D01*
X163846287Y-90550500D01*
X164056243Y-90517246D01*
X164258412Y-90451557D01*
X164447816Y-90355051D01*
X164534138Y-90292335D01*
X164619786Y-90230109D01*
X164619788Y-90230106D01*
X164619792Y-90230104D01*
X164770104Y-90079792D01*
X164770106Y-90079788D01*
X164770109Y-90079786D01*
X164895048Y-89907820D01*
X164895047Y-89907820D01*
X164895051Y-89907816D01*
X164899514Y-89899054D01*
X164947488Y-89848259D01*
X165015308Y-89831463D01*
X165081444Y-89853999D01*
X165120486Y-89899056D01*
X165124951Y-89907820D01*
X165249890Y-90079786D01*
X165400213Y-90230109D01*
X165572179Y-90355048D01*
X165572181Y-90355049D01*
X165572184Y-90355051D01*
X165761588Y-90451557D01*
X165963757Y-90517246D01*
X166173713Y-90550500D01*
X166173714Y-90550500D01*
X166386286Y-90550500D01*
X166386287Y-90550500D01*
X166596243Y-90517246D01*
X166798412Y-90451557D01*
X166987816Y-90355051D01*
X167074138Y-90292335D01*
X167159786Y-90230109D01*
X167159788Y-90230106D01*
X167159792Y-90230104D01*
X167310104Y-90079792D01*
X167310106Y-90079788D01*
X167310109Y-90079786D01*
X167435048Y-89907820D01*
X167435047Y-89907820D01*
X167435051Y-89907816D01*
X167439514Y-89899054D01*
X167487488Y-89848259D01*
X167555308Y-89831463D01*
X167621444Y-89853999D01*
X167660486Y-89899056D01*
X167664951Y-89907820D01*
X167789890Y-90079786D01*
X167940213Y-90230109D01*
X168112179Y-90355048D01*
X168112181Y-90355049D01*
X168112184Y-90355051D01*
X168301588Y-90451557D01*
X168503757Y-90517246D01*
X168713713Y-90550500D01*
X168713714Y-90550500D01*
X168926286Y-90550500D01*
X168926287Y-90550500D01*
X169136243Y-90517246D01*
X169338412Y-90451557D01*
X169527816Y-90355051D01*
X169614138Y-90292335D01*
X169699786Y-90230109D01*
X169699788Y-90230106D01*
X169699792Y-90230104D01*
X169850104Y-90079792D01*
X169850106Y-90079788D01*
X169850109Y-90079786D01*
X169975048Y-89907820D01*
X169975051Y-89907816D01*
X169979793Y-89898508D01*
X170027763Y-89847711D01*
X170095583Y-89830911D01*
X170161719Y-89853445D01*
X170200763Y-89898500D01*
X170205375Y-89907551D01*
X170304240Y-90043626D01*
X170304241Y-90043627D01*
X170916329Y-89431538D01*
X170959901Y-89507007D01*
X171052993Y-89600099D01*
X171128460Y-89643670D01*
X170516371Y-90255758D01*
X170652445Y-90354622D01*
X170841782Y-90451095D01*
X171043870Y-90516757D01*
X171253754Y-90550000D01*
X171466246Y-90550000D01*
X171676127Y-90516757D01*
X171676130Y-90516757D01*
X171878217Y-90451095D01*
X172067546Y-90354626D01*
X172067552Y-90354622D01*
X172203626Y-90255758D01*
X172203627Y-90255758D01*
X171591538Y-89643670D01*
X171667007Y-89600099D01*
X171760099Y-89507007D01*
X171803670Y-89431538D01*
X172415758Y-90043627D01*
X172415758Y-90043626D01*
X172514622Y-89907552D01*
X172514625Y-89907548D01*
X172519232Y-89898507D01*
X172567205Y-89847709D01*
X172635025Y-89830912D01*
X172701161Y-89853447D01*
X172740204Y-89898504D01*
X172744949Y-89907817D01*
X172869890Y-90079786D01*
X173020213Y-90230109D01*
X173192179Y-90355048D01*
X173192181Y-90355049D01*
X173192184Y-90355051D01*
X173381588Y-90451557D01*
X173583757Y-90517246D01*
X173793713Y-90550500D01*
X173793714Y-90550500D01*
X174006286Y-90550500D01*
X174006287Y-90550500D01*
X174216243Y-90517246D01*
X174418412Y-90451557D01*
X174607816Y-90355051D01*
X174779792Y-90230104D01*
X174893329Y-90116566D01*
X174954648Y-90083084D01*
X175024340Y-90088068D01*
X175080274Y-90129939D01*
X175097189Y-90160917D01*
X175146202Y-90292328D01*
X175146206Y-90292335D01*
X175232452Y-90407544D01*
X175232455Y-90407547D01*
X175347664Y-90493793D01*
X175347671Y-90493797D01*
X175482517Y-90544091D01*
X175482516Y-90544091D01*
X175489444Y-90544835D01*
X175542127Y-90550500D01*
X177337872Y-90550499D01*
X177397483Y-90544091D01*
X177532331Y-90493796D01*
X177647546Y-90407546D01*
X177733796Y-90292331D01*
X177784091Y-90157483D01*
X177790500Y-90097873D01*
X177790499Y-88785452D01*
X177810184Y-88718414D01*
X177826818Y-88697772D01*
X178001715Y-88522876D01*
X178211858Y-88312733D01*
X178280312Y-88210285D01*
X178307932Y-88143603D01*
X178327463Y-88096452D01*
X178331451Y-88076402D01*
X178351501Y-87975606D01*
X178351501Y-87852393D01*
X178351501Y-87847283D01*
X178351500Y-87847257D01*
X178351500Y-78214389D01*
X178348737Y-78200502D01*
X178348736Y-78200497D01*
X178327464Y-78093554D01*
X178327463Y-78093553D01*
X178327463Y-78093549D01*
X178327460Y-78093543D01*
X178327459Y-78093538D01*
X178280314Y-77979719D01*
X178280312Y-77979714D01*
X178226070Y-77898537D01*
X178211858Y-77877267D01*
X178124733Y-77790142D01*
X178124729Y-77790139D01*
X177897271Y-77562681D01*
X177863786Y-77501358D01*
X177868770Y-77431666D01*
X177897271Y-77387319D01*
X178785855Y-76498736D01*
X178785858Y-76498733D01*
X178786929Y-76497130D01*
X178854312Y-76396285D01*
X178886858Y-76317712D01*
X178901463Y-76282452D01*
X178910078Y-76239142D01*
X178925501Y-76161606D01*
X178925501Y-76038393D01*
X178925500Y-76038387D01*
X178925500Y-70278394D01*
X178924725Y-70274500D01*
X178918569Y-70243548D01*
X178912754Y-70214311D01*
X178912754Y-70214310D01*
X178901464Y-70157553D01*
X178901463Y-70157549D01*
X178901463Y-70157548D01*
X178854311Y-70043714D01*
X178854310Y-70043713D01*
X178854307Y-70043707D01*
X178785858Y-69941267D01*
X178785855Y-69941263D01*
X178695637Y-69851045D01*
X178695606Y-69851016D01*
X176045793Y-67201203D01*
X176012308Y-67139880D01*
X176017292Y-67070188D01*
X176026746Y-67050394D01*
X176026745Y-67050393D01*
X176032190Y-67031654D01*
X176068216Y-66907652D01*
X176072597Y-66892573D01*
X176072598Y-66892567D01*
X176072868Y-66889142D01*
X176075500Y-66855694D01*
X176075500Y-66449500D01*
X176095185Y-66382461D01*
X176147989Y-66336706D01*
X176199500Y-66325500D01*
X176768942Y-66325500D01*
X176835981Y-66345185D01*
X176874479Y-66384401D01*
X176957288Y-66518656D01*
X177081344Y-66642712D01*
X177230666Y-66734814D01*
X177397203Y-66789999D01*
X177499991Y-66800500D01*
X178164547Y-66800499D01*
X178231586Y-66820183D01*
X178252228Y-66836818D01*
X181561263Y-70145855D01*
X181561267Y-70145858D01*
X181663712Y-70214310D01*
X181663716Y-70214313D01*
X181688065Y-70224399D01*
X181688087Y-70224407D01*
X181690726Y-70225500D01*
X181777548Y-70261463D01*
X181797597Y-70265451D01*
X181837986Y-70273485D01*
X181898392Y-70285501D01*
X181898394Y-70285501D01*
X182027721Y-70285501D01*
X182027741Y-70285500D01*
X182690547Y-70285500D01*
X182711792Y-70291738D01*
X182733881Y-70293318D01*
X182744664Y-70301390D01*
X182757586Y-70305185D01*
X182772085Y-70321918D01*
X182789814Y-70335190D01*
X182794521Y-70347810D01*
X182803341Y-70357989D01*
X182806492Y-70379906D01*
X182814231Y-70400654D01*
X182811368Y-70413814D01*
X182813285Y-70427147D01*
X182804085Y-70447290D01*
X182799379Y-70468927D01*
X182786110Y-70486652D01*
X182784260Y-70490703D01*
X182778228Y-70497181D01*
X182760269Y-70515140D01*
X182760267Y-70515142D01*
X182716704Y-70558704D01*
X182673142Y-70602266D01*
X182654435Y-70630264D01*
X182654434Y-70630265D01*
X182604690Y-70704709D01*
X182604690Y-70704710D01*
X182604688Y-70704712D01*
X182604688Y-70704714D01*
X182575782Y-70774500D01*
X182557537Y-70818548D01*
X182550110Y-70855886D01*
X182538523Y-70914143D01*
X182537685Y-70918356D01*
X182533500Y-70939394D01*
X182533500Y-80055611D01*
X182557535Y-80176444D01*
X182557540Y-80176461D01*
X182604685Y-80290281D01*
X182604687Y-80290284D01*
X182604688Y-80290286D01*
X182626882Y-80323500D01*
X182673142Y-80392733D01*
X182760267Y-80479858D01*
X182760270Y-80479860D01*
X182768075Y-80487665D01*
X183157453Y-80877043D01*
X183190938Y-80938366D01*
X183187703Y-81003042D01*
X183143124Y-81140240D01*
X183143124Y-81140243D01*
X183123932Y-81261414D01*
X183109500Y-81352533D01*
X183109500Y-81567467D01*
X183122372Y-81648733D01*
X183143124Y-81779756D01*
X183143124Y-81779759D01*
X183209540Y-81984167D01*
X183209541Y-81984170D01*
X183307120Y-82175678D01*
X183433455Y-82349563D01*
X183433457Y-82349565D01*
X183527981Y-82444089D01*
X183561466Y-82505412D01*
X183556482Y-82575104D01*
X183514610Y-82631037D01*
X183483633Y-82647952D01*
X183367671Y-82691202D01*
X183367664Y-82691206D01*
X183252455Y-82777452D01*
X183252454Y-82777454D01*
X183166206Y-82892664D01*
X183166202Y-82892671D01*
X183115908Y-83027517D01*
X183109501Y-83087116D01*
X183109500Y-83087135D01*
X183109500Y-84912870D01*
X183109501Y-84912876D01*
X183115908Y-84972483D01*
X183166202Y-85107328D01*
X183166206Y-85107335D01*
X183252452Y-85222544D01*
X183252455Y-85222547D01*
X183367664Y-85308793D01*
X183367671Y-85308797D01*
X183502517Y-85359091D01*
X183502516Y-85359091D01*
X183509444Y-85359835D01*
X183562127Y-85365500D01*
X185687872Y-85365499D01*
X185747483Y-85359091D01*
X185882331Y-85308796D01*
X185997546Y-85222546D01*
X186083796Y-85107331D01*
X186134091Y-84972483D01*
X186140500Y-84912873D01*
X186140499Y-83420452D01*
X186160184Y-83353414D01*
X186176818Y-83332772D01*
X186219804Y-83289786D01*
X186451857Y-83057734D01*
X186457020Y-83050008D01*
X186520311Y-82955286D01*
X186567463Y-82841452D01*
X186580193Y-82777454D01*
X186591500Y-82720607D01*
X186591500Y-82597394D01*
X186591500Y-73604394D01*
X186567463Y-73483548D01*
X186539413Y-73415830D01*
X186520312Y-73369714D01*
X186478628Y-73307331D01*
X186451858Y-73267267D01*
X186451856Y-73267264D01*
X186361637Y-73177045D01*
X186361606Y-73177016D01*
X186051818Y-72867228D01*
X186018333Y-72805905D01*
X186015499Y-72779547D01*
X186015499Y-71620453D01*
X186035184Y-71553414D01*
X186051818Y-71532772D01*
X186158590Y-71426000D01*
X186326857Y-71257734D01*
X186335580Y-71244679D01*
X186344181Y-71231809D01*
X186361147Y-71206416D01*
X186395311Y-71155286D01*
X186442463Y-71041452D01*
X186466500Y-70920607D01*
X186466500Y-70797394D01*
X186466500Y-69105066D01*
X186464518Y-69095104D01*
X186442463Y-68984221D01*
X186441396Y-68981646D01*
X186395311Y-68870386D01*
X186395309Y-68870383D01*
X186395307Y-68870379D01*
X186326858Y-68767939D01*
X186326855Y-68767935D01*
X186236637Y-68677717D01*
X186236606Y-68677688D01*
X185714288Y-68155370D01*
X185680803Y-68094047D01*
X185685787Y-68024355D01*
X185701651Y-67994803D01*
X185817452Y-67835416D01*
X185914996Y-67643975D01*
X185981388Y-67439642D01*
X185981388Y-67439639D01*
X186008257Y-67270000D01*
X184987799Y-67270000D01*
X185010000Y-67187143D01*
X185010000Y-67052857D01*
X184987799Y-66970000D01*
X186008257Y-66970000D01*
X185981388Y-66800360D01*
X185981388Y-66800357D01*
X185914996Y-66596024D01*
X185817452Y-66404583D01*
X185691161Y-66230759D01*
X185539240Y-66078838D01*
X185365416Y-65952547D01*
X185173975Y-65855003D01*
X184969641Y-65788611D01*
X184757427Y-65755000D01*
X184650000Y-65755000D01*
X184650000Y-66632201D01*
X184567143Y-66610000D01*
X184432857Y-66610000D01*
X184350000Y-66632201D01*
X184350000Y-65755000D01*
X184242573Y-65755000D01*
X184030360Y-65788611D01*
X184030357Y-65788611D01*
X183826024Y-65855003D01*
X183634583Y-65952547D01*
X183460759Y-66078838D01*
X183308838Y-66230759D01*
X183182547Y-66404583D01*
X183085003Y-66596024D01*
X183018611Y-66800357D01*
X183018611Y-66800360D01*
X182991743Y-66970000D01*
X184012201Y-66970000D01*
X183990000Y-67052857D01*
X183990000Y-67187143D01*
X184012201Y-67270000D01*
X182991743Y-67270000D01*
X183018611Y-67439639D01*
X183018612Y-67439646D01*
X183048821Y-67532621D01*
X183050816Y-67602462D01*
X183014735Y-67662295D01*
X182952034Y-67693122D01*
X182882619Y-67685157D01*
X182843211Y-67658620D01*
X180770284Y-65585694D01*
X179236818Y-64052227D01*
X179203333Y-63990904D01*
X179200499Y-63964546D01*
X179200499Y-63299998D01*
X179200498Y-63299981D01*
X179189999Y-63197203D01*
X179189998Y-63197200D01*
X179172162Y-63143375D01*
X179134814Y-63030666D01*
X179042712Y-62881344D01*
X178918656Y-62757288D01*
X178822555Y-62698013D01*
X178769336Y-62665187D01*
X178769331Y-62665185D01*
X178767862Y-62664698D01*
X178602797Y-62610001D01*
X178602795Y-62610000D01*
X178500010Y-62599500D01*
X177499998Y-62599500D01*
X177499980Y-62599501D01*
X177397203Y-62610000D01*
X177397200Y-62610001D01*
X177230668Y-62665185D01*
X177230663Y-62665187D01*
X177081342Y-62757289D01*
X176957289Y-62881342D01*
X176943671Y-62903420D01*
X176882861Y-63002011D01*
X176874481Y-63015597D01*
X176822533Y-63062321D01*
X176768942Y-63074500D01*
X176199000Y-63074500D01*
X176131961Y-63054815D01*
X176086206Y-63002011D01*
X176083201Y-62988201D01*
X176075000Y-62980000D01*
X173125000Y-62980000D01*
X173125000Y-63045649D01*
X173127899Y-63082489D01*
X173127900Y-63082495D01*
X173173716Y-63240193D01*
X173173717Y-63240196D01*
X173257314Y-63381552D01*
X173262100Y-63387722D01*
X173259640Y-63389629D01*
X173286210Y-63438288D01*
X173281226Y-63507980D01*
X173260162Y-63540781D01*
X173261699Y-63541974D01*
X173256915Y-63548140D01*
X173173255Y-63689603D01*
X173173254Y-63689606D01*
X173127402Y-63847426D01*
X173127401Y-63847432D01*
X173124500Y-63884298D01*
X173124500Y-64315701D01*
X173127401Y-64352567D01*
X173127402Y-64352573D01*
X173173254Y-64510393D01*
X173173255Y-64510396D01*
X173256917Y-64651862D01*
X173261702Y-64658031D01*
X173259256Y-64659927D01*
X173285857Y-64708642D01*
X173280873Y-64778334D01*
X173260069Y-64810703D01*
X173261702Y-64811969D01*
X173256917Y-64818137D01*
X173173255Y-64959603D01*
X173173254Y-64959606D01*
X173127402Y-65117426D01*
X173127401Y-65117432D01*
X173124500Y-65154298D01*
X173124500Y-65585701D01*
X173127401Y-65622567D01*
X173127402Y-65622573D01*
X173173254Y-65780393D01*
X173173255Y-65780396D01*
X173256917Y-65921862D01*
X173261702Y-65928031D01*
X173259256Y-65929927D01*
X173285857Y-65978642D01*
X173280873Y-66048334D01*
X173260069Y-66080703D01*
X173261702Y-66081969D01*
X173256917Y-66088137D01*
X173173255Y-66229603D01*
X173173254Y-66229606D01*
X173127402Y-66387426D01*
X173127401Y-66387432D01*
X173124500Y-66424298D01*
X173124500Y-66855701D01*
X173127401Y-66892567D01*
X173127402Y-66892573D01*
X173173254Y-67050393D01*
X173173256Y-67050398D01*
X173173260Y-67050405D01*
X173173261Y-67050410D01*
X173176353Y-67057554D01*
X173175199Y-67058053D01*
X173190439Y-67118130D01*
X173168277Y-67184391D01*
X173154206Y-67201202D01*
X171617229Y-68738181D01*
X171555906Y-68771666D01*
X171529548Y-68774500D01*
X169163728Y-68774500D01*
X169096689Y-68754815D01*
X169050934Y-68702011D01*
X169040990Y-68632853D01*
X169049165Y-68603052D01*
X169065894Y-68562666D01*
X169070355Y-68540243D01*
X169096140Y-68410610D01*
X169100500Y-68388691D01*
X169100500Y-68211309D01*
X169100500Y-68211306D01*
X169100499Y-68211304D01*
X169065896Y-68037341D01*
X169065893Y-68037332D01*
X168998016Y-67873459D01*
X168998009Y-67873446D01*
X168899464Y-67725965D01*
X168899461Y-67725961D01*
X168825681Y-67652181D01*
X168792196Y-67590858D01*
X168797180Y-67521166D01*
X168839052Y-67465233D01*
X168904516Y-67440816D01*
X168913362Y-67440500D01*
X170540686Y-67440500D01*
X170540694Y-67440500D01*
X170577569Y-67437598D01*
X170577571Y-67437597D01*
X170577573Y-67437597D01*
X170619191Y-67425505D01*
X170735398Y-67391744D01*
X170876865Y-67308081D01*
X170993081Y-67191865D01*
X171036281Y-67118814D01*
X171055322Y-67094266D01*
X171110857Y-67038733D01*
X171110859Y-67038729D01*
X171349729Y-66799859D01*
X171349733Y-66799857D01*
X171436858Y-66712732D01*
X171490928Y-66631811D01*
X171505312Y-66610285D01*
X171549977Y-66502452D01*
X171552463Y-66496451D01*
X171575306Y-66381607D01*
X171575308Y-66381607D01*
X171575308Y-66381596D01*
X171576500Y-66375606D01*
X171576500Y-66252392D01*
X171576500Y-62614350D01*
X173125000Y-62614350D01*
X173125000Y-62680000D01*
X174450000Y-62680000D01*
X174750000Y-62680000D01*
X176075000Y-62680000D01*
X176075000Y-62614365D01*
X176074999Y-62614350D01*
X176072100Y-62577510D01*
X176072099Y-62577504D01*
X176026283Y-62419806D01*
X176026282Y-62419802D01*
X175942684Y-62278446D01*
X175942678Y-62278438D01*
X175826561Y-62162321D01*
X175826552Y-62162314D01*
X175685196Y-62078717D01*
X175685193Y-62078716D01*
X175527495Y-62032900D01*
X175527489Y-62032899D01*
X175490649Y-62030000D01*
X174750000Y-62030000D01*
X174750000Y-62680000D01*
X174450000Y-62680000D01*
X174450000Y-62030000D01*
X173709350Y-62030000D01*
X173672510Y-62032899D01*
X173672504Y-62032900D01*
X173514806Y-62078716D01*
X173514803Y-62078717D01*
X173373447Y-62162314D01*
X173373438Y-62162321D01*
X173257321Y-62278438D01*
X173257314Y-62278447D01*
X173173718Y-62419802D01*
X173173716Y-62419806D01*
X173127900Y-62577504D01*
X173127899Y-62577510D01*
X173125000Y-62614350D01*
X171576500Y-62614350D01*
X171576500Y-62546419D01*
X171576501Y-62546398D01*
X171576501Y-62417071D01*
X171576500Y-62417068D01*
X171575354Y-62411309D01*
X171558496Y-62326553D01*
X171554342Y-62305670D01*
X171552463Y-62296227D01*
X171552461Y-62296222D01*
X171545098Y-62278447D01*
X171514143Y-62203714D01*
X171505312Y-62182393D01*
X171436858Y-62079945D01*
X171436855Y-62079941D01*
X167524283Y-58167371D01*
X167490798Y-58106048D01*
X167495782Y-58036356D01*
X167537654Y-57980423D01*
X167564509Y-57965130D01*
X167661394Y-57925000D01*
X167726541Y-57898016D01*
X167726544Y-57898014D01*
X167726547Y-57898013D01*
X167874035Y-57799464D01*
X167999464Y-57674035D01*
X168098013Y-57526547D01*
X168165894Y-57362666D01*
X168179038Y-57296590D01*
X168200499Y-57188695D01*
X168200500Y-57188693D01*
X168200500Y-57011306D01*
X168200499Y-57011304D01*
X168165896Y-56837341D01*
X168165893Y-56837332D01*
X168098016Y-56673459D01*
X168098009Y-56673446D01*
X167999464Y-56525965D01*
X167999461Y-56525961D01*
X167961819Y-56488319D01*
X167928334Y-56426996D01*
X167925500Y-56400638D01*
X167925500Y-48409452D01*
X167945185Y-48342413D01*
X167997989Y-48296658D01*
X168067147Y-48286714D01*
X168130703Y-48315739D01*
X168137181Y-48321771D01*
X170238504Y-50423094D01*
X170271989Y-50484417D01*
X170267005Y-50554109D01*
X170251142Y-50583659D01*
X170244950Y-50592180D01*
X170148444Y-50781585D01*
X170082753Y-50983760D01*
X170049500Y-51193713D01*
X170049500Y-51406287D01*
X170082754Y-51616243D01*
X170146133Y-51811304D01*
X170148444Y-51818414D01*
X170244951Y-52007820D01*
X170369890Y-52179786D01*
X170520213Y-52330109D01*
X170692179Y-52455048D01*
X170692181Y-52455049D01*
X170692184Y-52455051D01*
X170881588Y-52551557D01*
X171083757Y-52617246D01*
X171293713Y-52650500D01*
X171293714Y-52650500D01*
X172706286Y-52650500D01*
X172706287Y-52650500D01*
X172916243Y-52617246D01*
X173118412Y-52551557D01*
X173307816Y-52455051D01*
X173352700Y-52422441D01*
X173479786Y-52330109D01*
X173479788Y-52330106D01*
X173479792Y-52330104D01*
X173630104Y-52179792D01*
X173630106Y-52179788D01*
X173630109Y-52179786D01*
X173755049Y-52007819D01*
X173762497Y-51993203D01*
X173810473Y-51942408D01*
X173872981Y-51925500D01*
X177998165Y-51925500D01*
X178065204Y-51945185D01*
X178110959Y-51997989D01*
X178120903Y-52067147D01*
X178091878Y-52130703D01*
X178033100Y-52168477D01*
X178017563Y-52171973D01*
X177980589Y-52177829D01*
X177808363Y-52233787D01*
X177808360Y-52233788D01*
X177647002Y-52316006D01*
X177500505Y-52422441D01*
X177500500Y-52422445D01*
X177372445Y-52550500D01*
X177372441Y-52550505D01*
X177266006Y-52697002D01*
X177183788Y-52858360D01*
X177183787Y-52858363D01*
X177127829Y-53030589D01*
X177099500Y-53209448D01*
X177099500Y-53390551D01*
X177127829Y-53569410D01*
X177183787Y-53741636D01*
X177183788Y-53741639D01*
X177266006Y-53902997D01*
X177372441Y-54049494D01*
X177372445Y-54049499D01*
X177500500Y-54177554D01*
X177500505Y-54177558D01*
X177599277Y-54249319D01*
X177647006Y-54283996D01*
X177752484Y-54337740D01*
X177808360Y-54366211D01*
X177808363Y-54366212D01*
X177857706Y-54382244D01*
X177980591Y-54422171D01*
X178063429Y-54435291D01*
X178159449Y-54450500D01*
X178159454Y-54450500D01*
X178340551Y-54450500D01*
X178430410Y-54436267D01*
X178519409Y-54422171D01*
X178691639Y-54366211D01*
X178852994Y-54283996D01*
X178999501Y-54177553D01*
X179127553Y-54049501D01*
X179233996Y-53902994D01*
X179316211Y-53741639D01*
X179372171Y-53569409D01*
X179386765Y-53477259D01*
X179400500Y-53390551D01*
X179400500Y-53209448D01*
X179384019Y-53105397D01*
X179372171Y-53030591D01*
X179329673Y-52899792D01*
X179316212Y-52858363D01*
X179316211Y-52858360D01*
X179266931Y-52761644D01*
X179233996Y-52697006D01*
X179183829Y-52627956D01*
X179127558Y-52550505D01*
X179127554Y-52550500D01*
X178999499Y-52422445D01*
X178999494Y-52422441D01*
X178852997Y-52316006D01*
X178852996Y-52316005D01*
X178852994Y-52316004D01*
X178801300Y-52289664D01*
X178691639Y-52233788D01*
X178691636Y-52233787D01*
X178519410Y-52177829D01*
X178482437Y-52171973D01*
X178419302Y-52142044D01*
X178382371Y-52082732D01*
X178383369Y-52012870D01*
X178421979Y-51954637D01*
X178485943Y-51926523D01*
X178501835Y-51925500D01*
X182627019Y-51925500D01*
X182694058Y-51945185D01*
X182737503Y-51993203D01*
X182744950Y-52007819D01*
X182869890Y-52179786D01*
X183020213Y-52330109D01*
X183192179Y-52455048D01*
X183192181Y-52455049D01*
X183192184Y-52455051D01*
X183381588Y-52551557D01*
X183583757Y-52617246D01*
X183793713Y-52650500D01*
X183793714Y-52650500D01*
X185206286Y-52650500D01*
X185206287Y-52650500D01*
X185416243Y-52617246D01*
X185488183Y-52593870D01*
X185558023Y-52591876D01*
X185617856Y-52627956D01*
X185648684Y-52690657D01*
X185650500Y-52711802D01*
X185650500Y-57513547D01*
X185630815Y-57580586D01*
X185614181Y-57601228D01*
X185002228Y-58213181D01*
X184940905Y-58246666D01*
X184914547Y-58249500D01*
X183699998Y-58249500D01*
X183699981Y-58249501D01*
X183597203Y-58260000D01*
X183597200Y-58260001D01*
X183430668Y-58315185D01*
X183430663Y-58315187D01*
X183281342Y-58407289D01*
X183157289Y-58531342D01*
X183065187Y-58680663D01*
X183065185Y-58680668D01*
X183048302Y-58731619D01*
X183010001Y-58847203D01*
X183010001Y-58847204D01*
X183010000Y-58847204D01*
X182999500Y-58949983D01*
X182999500Y-60250001D01*
X182999501Y-60250018D01*
X183010000Y-60352796D01*
X183010001Y-60352799D01*
X183065185Y-60519331D01*
X183065187Y-60519336D01*
X183099829Y-60575500D01*
X183157288Y-60668656D01*
X183281344Y-60792712D01*
X183409038Y-60871474D01*
X183436558Y-60888448D01*
X183483283Y-60940396D01*
X183494506Y-61009358D01*
X183466663Y-61073441D01*
X183459144Y-61081668D01*
X183320271Y-61220541D01*
X183195379Y-61392442D01*
X183098904Y-61581782D01*
X183033242Y-61783872D01*
X183006930Y-61950000D01*
X184022555Y-61950000D01*
X184000000Y-62034174D01*
X184000000Y-62165826D01*
X184022555Y-62250000D01*
X183006930Y-62250000D01*
X183033242Y-62416127D01*
X183098904Y-62618217D01*
X183195379Y-62807557D01*
X183320272Y-62979459D01*
X183320276Y-62979464D01*
X183470535Y-63129723D01*
X183470540Y-63129727D01*
X183642442Y-63254620D01*
X183831782Y-63351095D01*
X184033870Y-63416757D01*
X184243754Y-63450000D01*
X184350000Y-63450000D01*
X184350000Y-62577445D01*
X184434174Y-62600000D01*
X184565826Y-62600000D01*
X184650000Y-62577445D01*
X184650000Y-63450000D01*
X184756246Y-63450000D01*
X184966127Y-63416757D01*
X184966130Y-63416757D01*
X185168217Y-63351095D01*
X185357557Y-63254620D01*
X185529459Y-63129727D01*
X185529464Y-63129723D01*
X185679723Y-62979464D01*
X185679727Y-62979459D01*
X185804620Y-62807557D01*
X185901095Y-62618217D01*
X185966757Y-62416127D01*
X185993070Y-62250000D01*
X184977445Y-62250000D01*
X185000000Y-62165826D01*
X185000000Y-62034174D01*
X184977445Y-61950000D01*
X185993070Y-61950000D01*
X185966757Y-61783872D01*
X185901095Y-61581782D01*
X185804620Y-61392442D01*
X185679727Y-61220540D01*
X185679723Y-61220535D01*
X185540856Y-61081668D01*
X185507371Y-61020345D01*
X185512355Y-60950653D01*
X185554227Y-60894720D01*
X185563441Y-60888448D01*
X185569331Y-60884814D01*
X185569334Y-60884814D01*
X185718656Y-60792712D01*
X185842712Y-60668656D01*
X185934814Y-60519334D01*
X185989999Y-60352797D01*
X186000500Y-60250009D01*
X186000499Y-59035450D01*
X186020184Y-58968412D01*
X186036813Y-58947775D01*
X186674729Y-58309860D01*
X186674733Y-58309858D01*
X186761858Y-58222733D01*
X186830311Y-58120286D01*
X186877463Y-58006452D01*
X186891148Y-57937652D01*
X186897780Y-57904311D01*
X186897780Y-57904306D01*
X186901500Y-57885607D01*
X186901500Y-57762394D01*
X186901500Y-48014394D01*
X186877463Y-47893548D01*
X186830311Y-47779714D01*
X186830310Y-47779713D01*
X186830307Y-47779707D01*
X186761858Y-47677267D01*
X186761855Y-47677263D01*
X186671637Y-47587045D01*
X186671606Y-47587016D01*
X186261495Y-47176905D01*
X186228010Y-47115582D01*
X186232994Y-47045890D01*
X186248859Y-47016337D01*
X186255051Y-47007816D01*
X186351557Y-46818412D01*
X186417246Y-46616243D01*
X186450500Y-46406287D01*
X186450500Y-46193713D01*
X186417246Y-45983757D01*
X186351557Y-45781588D01*
X186255051Y-45592184D01*
X186255049Y-45592181D01*
X186255048Y-45592179D01*
X186130109Y-45420213D01*
X185979786Y-45269890D01*
X185807820Y-45144951D01*
X185618414Y-45048444D01*
X185618413Y-45048443D01*
X185618412Y-45048443D01*
X185416243Y-44982754D01*
X185416241Y-44982753D01*
X185416240Y-44982753D01*
X185254957Y-44957208D01*
X185206287Y-44949500D01*
X183793713Y-44949500D01*
X183745042Y-44957208D01*
X183583760Y-44982753D01*
X183381585Y-45048444D01*
X183192179Y-45144951D01*
X183020213Y-45269890D01*
X182869890Y-45420213D01*
X182744950Y-45592180D01*
X182737503Y-45606797D01*
X182689527Y-45657592D01*
X182627019Y-45674500D01*
X178501835Y-45674500D01*
X178434796Y-45654815D01*
X178389041Y-45602011D01*
X178379097Y-45532853D01*
X178408122Y-45469297D01*
X178466900Y-45431523D01*
X178482437Y-45428027D01*
X178490493Y-45426750D01*
X178519409Y-45422171D01*
X178691639Y-45366211D01*
X178852994Y-45283996D01*
X178999501Y-45177553D01*
X179127553Y-45049501D01*
X179233996Y-44902994D01*
X179316211Y-44741639D01*
X179372171Y-44569409D01*
X179389529Y-44459814D01*
X179400500Y-44390551D01*
X179400500Y-44209448D01*
X179382267Y-44094334D01*
X179372171Y-44030591D01*
X179321672Y-43875169D01*
X179316212Y-43858363D01*
X179316211Y-43858360D01*
X179287740Y-43802484D01*
X179233996Y-43697006D01*
X179199575Y-43649629D01*
X179127556Y-43550502D01*
X178999499Y-43422445D01*
X178999494Y-43422441D01*
X178852997Y-43316006D01*
X178852996Y-43316005D01*
X178852994Y-43316004D01*
X178801300Y-43289664D01*
X178691639Y-43233788D01*
X178691636Y-43233787D01*
X178519410Y-43177829D01*
X178340551Y-43149500D01*
X178340546Y-43149500D01*
X178159454Y-43149500D01*
X178159449Y-43149500D01*
X177980589Y-43177829D01*
X177808363Y-43233787D01*
X177808360Y-43233788D01*
X177647002Y-43316006D01*
X177500505Y-43422441D01*
X177500500Y-43422445D01*
X177372445Y-43550500D01*
X177372444Y-43550502D01*
X177266006Y-43697002D01*
X177183788Y-43858360D01*
X177183787Y-43858363D01*
X177127829Y-44030589D01*
X177099500Y-44209448D01*
X177099500Y-44390551D01*
X177127829Y-44569410D01*
X177183787Y-44741636D01*
X177183788Y-44741639D01*
X177266006Y-44902997D01*
X177372441Y-45049494D01*
X177372445Y-45049499D01*
X177500500Y-45177554D01*
X177500505Y-45177558D01*
X177627591Y-45269890D01*
X177647006Y-45283996D01*
X177732976Y-45327800D01*
X177808360Y-45366211D01*
X177808363Y-45366212D01*
X177894476Y-45394191D01*
X177980591Y-45422171D01*
X178008115Y-45426530D01*
X178017563Y-45428027D01*
X178080698Y-45457956D01*
X178117629Y-45517268D01*
X178116631Y-45587130D01*
X178078021Y-45645363D01*
X178014057Y-45673477D01*
X177998165Y-45674500D01*
X173872981Y-45674500D01*
X173805942Y-45654815D01*
X173762497Y-45606797D01*
X173755049Y-45592180D01*
X173630109Y-45420213D01*
X173479786Y-45269890D01*
X173307820Y-45144951D01*
X173118414Y-45048444D01*
X173118413Y-45048443D01*
X173118412Y-45048443D01*
X172916243Y-44982754D01*
X172916241Y-44982753D01*
X172916240Y-44982753D01*
X172754957Y-44957208D01*
X172706287Y-44949500D01*
X171293713Y-44949500D01*
X171245042Y-44957208D01*
X171083760Y-44982753D01*
X170881585Y-45048444D01*
X170692179Y-45144951D01*
X170520213Y-45269890D01*
X170369890Y-45420213D01*
X170244951Y-45592179D01*
X170148444Y-45781585D01*
X170082753Y-45983760D01*
X170049500Y-46193713D01*
X170049500Y-46406286D01*
X170080442Y-46601650D01*
X170082754Y-46616243D01*
X170133465Y-46772316D01*
X170148444Y-46818414D01*
X170244951Y-47007820D01*
X170369890Y-47179786D01*
X170520213Y-47330109D01*
X170692179Y-47455048D01*
X170692181Y-47455049D01*
X170692184Y-47455051D01*
X170881588Y-47551557D01*
X171083757Y-47617246D01*
X171293713Y-47650500D01*
X171293714Y-47650500D01*
X172706286Y-47650500D01*
X172706287Y-47650500D01*
X172916243Y-47617246D01*
X173118412Y-47551557D01*
X173307816Y-47455051D01*
X173329789Y-47439086D01*
X173479786Y-47330109D01*
X173479788Y-47330106D01*
X173479792Y-47330104D01*
X173630104Y-47179792D01*
X173630106Y-47179788D01*
X173630109Y-47179786D01*
X173755049Y-47007819D01*
X173755052Y-47007815D01*
X173762497Y-46993203D01*
X173810473Y-46942408D01*
X173872981Y-46925500D01*
X182627019Y-46925500D01*
X182694058Y-46945185D01*
X182737503Y-46993203D01*
X182744950Y-47007819D01*
X182869890Y-47179786D01*
X183020213Y-47330109D01*
X183192179Y-47455048D01*
X183192181Y-47455049D01*
X183192184Y-47455051D01*
X183381588Y-47551557D01*
X183583757Y-47617246D01*
X183793713Y-47650500D01*
X184914548Y-47650500D01*
X184981587Y-47670185D01*
X185002229Y-47686819D01*
X185614181Y-48298771D01*
X185647666Y-48360094D01*
X185650500Y-48386452D01*
X185650500Y-49888197D01*
X185630815Y-49955236D01*
X185578011Y-50000991D01*
X185508853Y-50010935D01*
X185488183Y-50006128D01*
X185416244Y-49982754D01*
X185416240Y-49982753D01*
X185242502Y-49955236D01*
X185206287Y-49949500D01*
X183793713Y-49949500D01*
X183757498Y-49955236D01*
X183583760Y-49982753D01*
X183381585Y-50048444D01*
X183192179Y-50144951D01*
X183020213Y-50269890D01*
X182869890Y-50420213D01*
X182744950Y-50592180D01*
X182737503Y-50606797D01*
X182689527Y-50657592D01*
X182627019Y-50674500D01*
X173872981Y-50674500D01*
X173805942Y-50654815D01*
X173762497Y-50606797D01*
X173755049Y-50592180D01*
X173630109Y-50420213D01*
X173479786Y-50269890D01*
X173307820Y-50144951D01*
X173118414Y-50048444D01*
X173118413Y-50048443D01*
X173118412Y-50048443D01*
X172916243Y-49982754D01*
X172916241Y-49982753D01*
X172916240Y-49982753D01*
X172742502Y-49955236D01*
X172706287Y-49949500D01*
X172706286Y-49949500D01*
X171585452Y-49949500D01*
X171518413Y-49929815D01*
X171497771Y-49913181D01*
X168543854Y-46959264D01*
X168510369Y-46897941D01*
X168515353Y-46828249D01*
X168557225Y-46772316D01*
X168584074Y-46757026D01*
X168726547Y-46698013D01*
X168874035Y-46599464D01*
X168999464Y-46474035D01*
X169098013Y-46326547D01*
X169098861Y-46324501D01*
X169113500Y-46289158D01*
X169165894Y-46162666D01*
X169178459Y-46099501D01*
X169192383Y-46029499D01*
X169200500Y-45988691D01*
X169200500Y-45935452D01*
X169220185Y-45868413D01*
X169236819Y-45847771D01*
X173827146Y-41257444D01*
X178509404Y-36575185D01*
X178570725Y-36541702D01*
X178640416Y-36546686D01*
X178767517Y-36594091D01*
X178767516Y-36594091D01*
X178774444Y-36594835D01*
X178827127Y-36600500D01*
X180172872Y-36600499D01*
X180232483Y-36594091D01*
X180367331Y-36543796D01*
X180482546Y-36457546D01*
X180568796Y-36342331D01*
X180619091Y-36207483D01*
X180625500Y-36147873D01*
X180625499Y-35052128D01*
X180619091Y-34992517D01*
X180568884Y-34857906D01*
X180568797Y-34857671D01*
X180568793Y-34857664D01*
X180482547Y-34742455D01*
X180482544Y-34742452D01*
X180367335Y-34656206D01*
X180367328Y-34656202D01*
X180232482Y-34605908D01*
X180232483Y-34605908D01*
X180172883Y-34599501D01*
X180172881Y-34599500D01*
X180172873Y-34599500D01*
X180172864Y-34599500D01*
X178827129Y-34599500D01*
X178827123Y-34599501D01*
X178767516Y-34605908D01*
X178632671Y-34656202D01*
X178632664Y-34656206D01*
X178517455Y-34742452D01*
X178517452Y-34742455D01*
X178431206Y-34857664D01*
X178431202Y-34857671D01*
X178390421Y-34967013D01*
X178348550Y-35022947D01*
X178321694Y-35038240D01*
X178303718Y-35045686D01*
X178303717Y-35045686D01*
X178201266Y-35114141D01*
X178201263Y-35114144D01*
X168352229Y-44963181D01*
X168290906Y-44996666D01*
X168264548Y-44999500D01*
X168211306Y-44999500D01*
X168037341Y-45034103D01*
X168037332Y-45034106D01*
X167873459Y-45101983D01*
X167873446Y-45101990D01*
X167725965Y-45200535D01*
X167725961Y-45200538D01*
X167600538Y-45325961D01*
X167600535Y-45325965D01*
X167501990Y-45473446D01*
X167501983Y-45473459D01*
X167442977Y-45615916D01*
X167399136Y-45670320D01*
X167332842Y-45692385D01*
X167265143Y-45675106D01*
X167240735Y-45656145D01*
X166116910Y-44532320D01*
X166113230Y-44525580D01*
X166106984Y-44521116D01*
X166096720Y-44495346D01*
X166083425Y-44470997D01*
X166083972Y-44463337D01*
X166081132Y-44456205D01*
X166086430Y-44428977D01*
X166088409Y-44401305D01*
X166093346Y-44393433D01*
X166094477Y-44387622D01*
X166112105Y-44363525D01*
X166115001Y-44358909D01*
X166115933Y-44357934D01*
X166230212Y-44243656D01*
X166239140Y-44229180D01*
X166248203Y-44219710D01*
X166267579Y-44208569D01*
X166284194Y-44193623D01*
X166297278Y-44191492D01*
X166308774Y-44184883D01*
X166331096Y-44185986D01*
X166353156Y-44182395D01*
X166365318Y-44187678D01*
X166378559Y-44188333D01*
X166396738Y-44201328D01*
X166417240Y-44210234D01*
X166430329Y-44225338D01*
X166435400Y-44228963D01*
X166437040Y-44233082D01*
X166443329Y-44240339D01*
X166445181Y-44243341D01*
X166445183Y-44243344D01*
X166569154Y-44367315D01*
X166718375Y-44459356D01*
X166718380Y-44459358D01*
X166884802Y-44514505D01*
X166884809Y-44514506D01*
X166987519Y-44524999D01*
X167224999Y-44524999D01*
X167525000Y-44524999D01*
X167762472Y-44524999D01*
X167762486Y-44524998D01*
X167865197Y-44514505D01*
X168031619Y-44459358D01*
X168031624Y-44459356D01*
X168180845Y-44367315D01*
X168304815Y-44243345D01*
X168396856Y-44094124D01*
X168396858Y-44094119D01*
X168452005Y-43927697D01*
X168452006Y-43927690D01*
X168462499Y-43824986D01*
X168462500Y-43824973D01*
X168462500Y-43450000D01*
X167525000Y-43450000D01*
X167525000Y-44524999D01*
X167224999Y-44524999D01*
X167225000Y-44524998D01*
X167225000Y-43424000D01*
X167227550Y-43415314D01*
X167226262Y-43406353D01*
X167237240Y-43382312D01*
X167244685Y-43356961D01*
X167251525Y-43351033D01*
X167255287Y-43342797D01*
X167277521Y-43328507D01*
X167297489Y-43311206D01*
X167308003Y-43308918D01*
X167314065Y-43305023D01*
X167349000Y-43300000D01*
X167375000Y-43300000D01*
X167375000Y-43274000D01*
X167394685Y-43206961D01*
X167447489Y-43161206D01*
X167499000Y-43150000D01*
X168462499Y-43150000D01*
X168462499Y-42775028D01*
X168462498Y-42775013D01*
X168452005Y-42672302D01*
X168396858Y-42505880D01*
X168396856Y-42505875D01*
X168304815Y-42356654D01*
X168180845Y-42232684D01*
X168031624Y-42140643D01*
X168031619Y-42140641D01*
X167865197Y-42085494D01*
X167865185Y-42085492D01*
X167860664Y-42085030D01*
X167795974Y-42058629D01*
X167755827Y-42001445D01*
X167752969Y-41931634D01*
X167785592Y-41873996D01*
X168098729Y-41560860D01*
X168098733Y-41560858D01*
X168185858Y-41473733D01*
X168254311Y-41371286D01*
X168301463Y-41257452D01*
X168325500Y-41136606D01*
X168325500Y-36147844D01*
X170625000Y-36147844D01*
X170631401Y-36207372D01*
X170631403Y-36207379D01*
X170681645Y-36342086D01*
X170681649Y-36342093D01*
X170767809Y-36457187D01*
X170767812Y-36457190D01*
X170882906Y-36543350D01*
X170882913Y-36543354D01*
X171017620Y-36593596D01*
X171017627Y-36593598D01*
X171077155Y-36599999D01*
X171077172Y-36600000D01*
X171600000Y-36600000D01*
X171900000Y-36600000D01*
X172422828Y-36600000D01*
X172422844Y-36599999D01*
X172482372Y-36593598D01*
X172482379Y-36593596D01*
X172617086Y-36543354D01*
X172617093Y-36543350D01*
X172732187Y-36457190D01*
X172732190Y-36457187D01*
X172818350Y-36342093D01*
X172818354Y-36342086D01*
X172868596Y-36207379D01*
X172868598Y-36207372D01*
X172874999Y-36147844D01*
X172875000Y-36147827D01*
X172875000Y-35750000D01*
X171900000Y-35750000D01*
X171900000Y-36600000D01*
X171600000Y-36600000D01*
X171600000Y-35750000D01*
X170625000Y-35750000D01*
X170625000Y-36147844D01*
X168325500Y-36147844D01*
X168325500Y-35052155D01*
X170625000Y-35052155D01*
X170625000Y-35450000D01*
X171600000Y-35450000D01*
X171900000Y-35450000D01*
X172875000Y-35450000D01*
X172875000Y-35052172D01*
X172874999Y-35052155D01*
X172868598Y-34992627D01*
X172868596Y-34992620D01*
X172818354Y-34857913D01*
X172818350Y-34857906D01*
X172732190Y-34742812D01*
X172732187Y-34742809D01*
X172617093Y-34656649D01*
X172617086Y-34656645D01*
X172482379Y-34606403D01*
X172482372Y-34606401D01*
X172422844Y-34600000D01*
X171900000Y-34600000D01*
X171900000Y-35450000D01*
X171600000Y-35450000D01*
X171600000Y-34600000D01*
X171077155Y-34600000D01*
X171017627Y-34606401D01*
X171017620Y-34606403D01*
X170882913Y-34656645D01*
X170882906Y-34656649D01*
X170767812Y-34742809D01*
X170767809Y-34742812D01*
X170681649Y-34857906D01*
X170681645Y-34857913D01*
X170631403Y-34992620D01*
X170631401Y-34992627D01*
X170625000Y-35052155D01*
X168325500Y-35052155D01*
X168325500Y-31938394D01*
X168301463Y-31817548D01*
X168254311Y-31703714D01*
X168254310Y-31703713D01*
X168254307Y-31703707D01*
X168185858Y-31601267D01*
X168185855Y-31601263D01*
X168098736Y-31514144D01*
X168098732Y-31514141D01*
X167996292Y-31445692D01*
X167996283Y-31445687D01*
X167882454Y-31398538D01*
X167882455Y-31398538D01*
X167882452Y-31398537D01*
X167882448Y-31398536D01*
X167882444Y-31398535D01*
X167761610Y-31374500D01*
X167761606Y-31374500D01*
X158560093Y-31374500D01*
X158436879Y-31374500D01*
X158436875Y-31374500D01*
X158386021Y-31384615D01*
X158386016Y-31384616D01*
X158376457Y-31386518D01*
X158316034Y-31398537D01*
X158268883Y-31418067D01*
X158202201Y-31445688D01*
X158202200Y-31445689D01*
X158179833Y-31460633D01*
X158179830Y-31460635D01*
X158099754Y-31514140D01*
X158056191Y-31557703D01*
X158012628Y-31601267D01*
X155752594Y-33861300D01*
X155752585Y-33861309D01*
X155750270Y-33863625D01*
X155750267Y-33863628D01*
X155663142Y-33950753D01*
X155642071Y-33982288D01*
X155637125Y-33989689D01*
X155637125Y-33989690D01*
X155594686Y-34053203D01*
X155594685Y-34053205D01*
X155572676Y-34106342D01*
X155547539Y-34167027D01*
X155547535Y-34167041D01*
X155523500Y-34287875D01*
X155523500Y-35950500D01*
X155503815Y-36017539D01*
X155451011Y-36063294D01*
X155399500Y-36074500D01*
X138760093Y-36074500D01*
X138636879Y-36074500D01*
X138579778Y-36085858D01*
X138579777Y-36085857D01*
X138516040Y-36098535D01*
X138516031Y-36098537D01*
X138494148Y-36107602D01*
X138482693Y-36112347D01*
X138402200Y-36145688D01*
X138359081Y-36174500D01*
X138352918Y-36178617D01*
X138352914Y-36178620D01*
X138299754Y-36214140D01*
X138256191Y-36257703D01*
X138212628Y-36301267D01*
X135352594Y-39161300D01*
X135352585Y-39161309D01*
X135350270Y-39163625D01*
X135350267Y-39163628D01*
X135263142Y-39250753D01*
X135242071Y-39282288D01*
X135237125Y-39289689D01*
X135237125Y-39289690D01*
X135194686Y-39353203D01*
X135194685Y-39353205D01*
X135172676Y-39406342D01*
X135147539Y-39467027D01*
X135147535Y-39467041D01*
X135123500Y-39587875D01*
X135123500Y-43440607D01*
X135129482Y-43470687D01*
X135145357Y-43550496D01*
X135147535Y-43561445D01*
X135147536Y-43561448D01*
X135147537Y-43561451D01*
X135169717Y-43614999D01*
X135194688Y-43675287D01*
X135214209Y-43704500D01*
X135221226Y-43715001D01*
X135263142Y-43777733D01*
X135350267Y-43864858D01*
X135350269Y-43864859D01*
X135360579Y-43875169D01*
X135581346Y-44095936D01*
X135614831Y-44157259D01*
X135611371Y-44222620D01*
X135585001Y-44302199D01*
X135574500Y-44404983D01*
X135574500Y-45205001D01*
X135574501Y-45205019D01*
X135585000Y-45307796D01*
X135585001Y-45307799D01*
X135622901Y-45422171D01*
X135640186Y-45474334D01*
X135732288Y-45623656D01*
X135856344Y-45747712D01*
X136005666Y-45839814D01*
X136172203Y-45894999D01*
X136274991Y-45905500D01*
X136425500Y-45905499D01*
X136492539Y-45925183D01*
X136538294Y-45977987D01*
X136549500Y-46029499D01*
X136549500Y-47514867D01*
X136531040Y-47579961D01*
X136515187Y-47605663D01*
X136515186Y-47605665D01*
X136500329Y-47650500D01*
X136460001Y-47772203D01*
X136460001Y-47772204D01*
X136460000Y-47772204D01*
X136449500Y-47874983D01*
X136449500Y-48925001D01*
X136449501Y-48925019D01*
X136460000Y-49027796D01*
X136460001Y-49027799D01*
X136515115Y-49194119D01*
X136515186Y-49194334D01*
X136607288Y-49343656D01*
X136731344Y-49467712D01*
X136880666Y-49559814D01*
X137047203Y-49614999D01*
X137149991Y-49625500D01*
X137925008Y-49625499D01*
X137925016Y-49625498D01*
X137925019Y-49625498D01*
X137981302Y-49619748D01*
X138027797Y-49614999D01*
X138194334Y-49559814D01*
X138343656Y-49467712D01*
X138467712Y-49343656D01*
X138469752Y-49340347D01*
X138471745Y-49338555D01*
X138472193Y-49337989D01*
X138472289Y-49338065D01*
X138521694Y-49293623D01*
X138590656Y-49282395D01*
X138654740Y-49310234D01*
X138680829Y-49340339D01*
X138682681Y-49343341D01*
X138682683Y-49343344D01*
X138806654Y-49467315D01*
X138955875Y-49559356D01*
X138955880Y-49559358D01*
X139122302Y-49614505D01*
X139122309Y-49614506D01*
X139225019Y-49624999D01*
X139462499Y-49624999D01*
X139462500Y-49624998D01*
X139462500Y-47175000D01*
X139225029Y-47175000D01*
X139225012Y-47175001D01*
X139122302Y-47185494D01*
X138955880Y-47240641D01*
X138955875Y-47240643D01*
X138806654Y-47332684D01*
X138682683Y-47456655D01*
X138682679Y-47456660D01*
X138680826Y-47459665D01*
X138679018Y-47461290D01*
X138678202Y-47462323D01*
X138678025Y-47462183D01*
X138628874Y-47506385D01*
X138559911Y-47517601D01*
X138495831Y-47489752D01*
X138469753Y-47459653D01*
X138468968Y-47458380D01*
X138467712Y-47456344D01*
X138343656Y-47332288D01*
X138194334Y-47240186D01*
X138027797Y-47185001D01*
X138027795Y-47185000D01*
X137925016Y-47174500D01*
X137925009Y-47174500D01*
X137924500Y-47174500D01*
X137924394Y-47174468D01*
X137921861Y-47174340D01*
X137921869Y-47174179D01*
X137921868Y-47174179D01*
X137921870Y-47174155D01*
X137921891Y-47173734D01*
X137857461Y-47154815D01*
X137811706Y-47102011D01*
X137800500Y-47050500D01*
X137800500Y-46029499D01*
X137820185Y-45962460D01*
X137872989Y-45916705D01*
X137924500Y-45905499D01*
X138075002Y-45905499D01*
X138075008Y-45905499D01*
X138177797Y-45894999D01*
X138344334Y-45839814D01*
X138493656Y-45747712D01*
X138617712Y-45623656D01*
X138709814Y-45474334D01*
X138764999Y-45307797D01*
X138775500Y-45205009D01*
X138775499Y-44404992D01*
X138775122Y-44401305D01*
X138764999Y-44302203D01*
X138764998Y-44302200D01*
X138744502Y-44240348D01*
X138709814Y-44135666D01*
X138617712Y-43986344D01*
X138493656Y-43862288D01*
X138493655Y-43862287D01*
X138394155Y-43800915D01*
X138344905Y-43770538D01*
X138298181Y-43718591D01*
X138286958Y-43649629D01*
X138314801Y-43585546D01*
X138344906Y-43559461D01*
X138359441Y-43550496D01*
X138493656Y-43467712D01*
X138617712Y-43343656D01*
X138700519Y-43209402D01*
X138752467Y-43162679D01*
X138806058Y-43150500D01*
X139650500Y-43150500D01*
X139717539Y-43170185D01*
X139763294Y-43222989D01*
X139774500Y-43274500D01*
X139774500Y-45225019D01*
X139785001Y-45327801D01*
X139840184Y-45494333D01*
X139840189Y-45494344D01*
X139932285Y-45643653D01*
X139932288Y-45643657D01*
X140056342Y-45767711D01*
X140056346Y-45767714D01*
X140205655Y-45859810D01*
X140205658Y-45859811D01*
X140205664Y-45859815D01*
X140372200Y-45914999D01*
X140474988Y-45925500D01*
X140913000Y-45925500D01*
X140980039Y-45945185D01*
X141025794Y-45997989D01*
X141037000Y-46049500D01*
X141037000Y-47151652D01*
X141017315Y-47218691D01*
X140978098Y-47257189D01*
X140900835Y-47304845D01*
X140856342Y-47332289D01*
X140727181Y-47461451D01*
X140725606Y-47459876D01*
X140677418Y-47493994D01*
X140607619Y-47497130D01*
X140547205Y-47462031D01*
X140544041Y-47458380D01*
X140418345Y-47332684D01*
X140269124Y-47240643D01*
X140269119Y-47240641D01*
X140102697Y-47185494D01*
X140102690Y-47185493D01*
X139999986Y-47175000D01*
X139762500Y-47175000D01*
X139762500Y-49624999D01*
X139999972Y-49624999D01*
X139999986Y-49624998D01*
X140102697Y-49614505D01*
X140269119Y-49559358D01*
X140269124Y-49559356D01*
X140418345Y-49467315D01*
X140547424Y-49338237D01*
X140549082Y-49339895D01*
X140596911Y-49306015D01*
X140666709Y-49302862D01*
X140727132Y-49337945D01*
X140730734Y-49342102D01*
X140732288Y-49343656D01*
X140856344Y-49467712D01*
X141005666Y-49559814D01*
X141172203Y-49614999D01*
X141274991Y-49625500D01*
X141952047Y-49625499D01*
X142019086Y-49645183D01*
X142039728Y-49661818D01*
X146740729Y-54362819D01*
X146774214Y-54424142D01*
X146769230Y-54493834D01*
X146727358Y-54549767D01*
X146661894Y-54574184D01*
X146653048Y-54574500D01*
X145698467Y-54574500D01*
X145631428Y-54554815D01*
X145585673Y-54502011D01*
X145582285Y-54493834D01*
X145568796Y-54457669D01*
X145568793Y-54457664D01*
X145482547Y-54342455D01*
X145482544Y-54342452D01*
X145367335Y-54256206D01*
X145367328Y-54256202D01*
X145232482Y-54205908D01*
X145232483Y-54205908D01*
X145172883Y-54199501D01*
X145172881Y-54199500D01*
X145172873Y-54199500D01*
X145172864Y-54199500D01*
X143827129Y-54199500D01*
X143827123Y-54199501D01*
X143767516Y-54205908D01*
X143632671Y-54256202D01*
X143632664Y-54256206D01*
X143517455Y-54342452D01*
X143517452Y-54342455D01*
X143431206Y-54457664D01*
X143431202Y-54457671D01*
X143380908Y-54592517D01*
X143374501Y-54652116D01*
X143374500Y-54652135D01*
X143374500Y-55747870D01*
X143374501Y-55747876D01*
X143380908Y-55807483D01*
X143431202Y-55942328D01*
X143431206Y-55942335D01*
X143517452Y-56057544D01*
X143517455Y-56057547D01*
X143632664Y-56143793D01*
X143632671Y-56143797D01*
X143767517Y-56194091D01*
X143767516Y-56194091D01*
X143774444Y-56194835D01*
X143827127Y-56200500D01*
X145172872Y-56200499D01*
X145232483Y-56194091D01*
X145367331Y-56143796D01*
X145482546Y-56057546D01*
X145568796Y-55942331D01*
X145578039Y-55917549D01*
X145582285Y-55906166D01*
X145624157Y-55850233D01*
X145689621Y-55825816D01*
X145698467Y-55825500D01*
X146289548Y-55825500D01*
X146356587Y-55845185D01*
X146377229Y-55861819D01*
X146563181Y-56047771D01*
X146596666Y-56109094D01*
X146599500Y-56135452D01*
X146599500Y-56188695D01*
X146634103Y-56362658D01*
X146634106Y-56362667D01*
X146701983Y-56526540D01*
X146701990Y-56526553D01*
X146800535Y-56674034D01*
X146800538Y-56674038D01*
X146925961Y-56799461D01*
X146925965Y-56799464D01*
X147073446Y-56898009D01*
X147073459Y-56898016D01*
X147196363Y-56948923D01*
X147237334Y-56965894D01*
X147237336Y-56965894D01*
X147237341Y-56965896D01*
X147411304Y-57000499D01*
X147411307Y-57000500D01*
X147411309Y-57000500D01*
X147588693Y-57000500D01*
X147588694Y-57000499D01*
X147646682Y-56988964D01*
X147762658Y-56965896D01*
X147762661Y-56965894D01*
X147762666Y-56965894D01*
X147926547Y-56898013D01*
X148074035Y-56799464D01*
X148199464Y-56674035D01*
X148298013Y-56526547D01*
X148365894Y-56362666D01*
X148382800Y-56277674D01*
X148415183Y-56215767D01*
X148475898Y-56181192D01*
X148545668Y-56184931D01*
X148592097Y-56214187D01*
X149638181Y-57260271D01*
X149671666Y-57321594D01*
X149674500Y-57347952D01*
X149674500Y-57862501D01*
X149674501Y-57862519D01*
X149685000Y-57965296D01*
X149685001Y-57965299D01*
X149740185Y-58131831D01*
X149740187Y-58131836D01*
X149759736Y-58163530D01*
X149805257Y-58237332D01*
X149832289Y-58281157D01*
X149956344Y-58405212D01*
X150020788Y-58444961D01*
X150067513Y-58496909D01*
X150078736Y-58565871D01*
X150050893Y-58629953D01*
X149992824Y-58668810D01*
X149955692Y-58674500D01*
X149667741Y-58674500D01*
X149667721Y-58674499D01*
X149661607Y-58674499D01*
X149538394Y-58674499D01*
X149437597Y-58694548D01*
X149437592Y-58694548D01*
X149417549Y-58698536D01*
X149417547Y-58698536D01*
X149370397Y-58718067D01*
X149303719Y-58745685D01*
X149303717Y-58745686D01*
X149201266Y-58814141D01*
X149201263Y-58814144D01*
X145033153Y-62982255D01*
X144971830Y-63015740D01*
X144902138Y-63010756D01*
X144846205Y-62968884D01*
X144821788Y-62903420D01*
X144830910Y-62847124D01*
X144865894Y-62762666D01*
X144869980Y-62742127D01*
X144897467Y-62603937D01*
X144900500Y-62588691D01*
X144900500Y-62411309D01*
X144900500Y-62411308D01*
X144900500Y-62411306D01*
X144900499Y-62411304D01*
X144865896Y-62237341D01*
X144865893Y-62237332D01*
X144798016Y-62073459D01*
X144798009Y-62073446D01*
X144699464Y-61925965D01*
X144699461Y-61925961D01*
X144574038Y-61800538D01*
X144574034Y-61800535D01*
X144426553Y-61701990D01*
X144426540Y-61701983D01*
X144262667Y-61634106D01*
X144262658Y-61634103D01*
X144088694Y-61599500D01*
X144088691Y-61599500D01*
X143911309Y-61599500D01*
X143911306Y-61599500D01*
X143737341Y-61634103D01*
X143737332Y-61634106D01*
X143573459Y-61701983D01*
X143573446Y-61701990D01*
X143425965Y-61800535D01*
X143425961Y-61800538D01*
X143300538Y-61925961D01*
X143300535Y-61925965D01*
X143201990Y-62073446D01*
X143201983Y-62073459D01*
X143134106Y-62237332D01*
X143134103Y-62237341D01*
X143099500Y-62411304D01*
X143099500Y-62464548D01*
X143079815Y-62531587D01*
X143063181Y-62552229D01*
X139957229Y-65658181D01*
X139895906Y-65691666D01*
X139869548Y-65694500D01*
X137339499Y-65694500D01*
X137272460Y-65674815D01*
X137226705Y-65622011D01*
X137215499Y-65570500D01*
X137215499Y-65407129D01*
X137215498Y-65407123D01*
X137215497Y-65407116D01*
X137209091Y-65347517D01*
X137163974Y-65226553D01*
X137158797Y-65212671D01*
X137158793Y-65212664D01*
X137072547Y-65097455D01*
X137072544Y-65097452D01*
X136957335Y-65011206D01*
X136957328Y-65011202D01*
X136822482Y-64960908D01*
X136822483Y-64960908D01*
X136762883Y-64954501D01*
X136762881Y-64954500D01*
X136762873Y-64954500D01*
X136762864Y-64954500D01*
X134637129Y-64954500D01*
X134637123Y-64954501D01*
X134577516Y-64960908D01*
X134442671Y-65011202D01*
X134442664Y-65011206D01*
X134327455Y-65097452D01*
X134327452Y-65097455D01*
X134241206Y-65212664D01*
X134241202Y-65212671D01*
X134190908Y-65347517D01*
X134185320Y-65399500D01*
X134184501Y-65407123D01*
X134184500Y-65407135D01*
X130000500Y-65407135D01*
X130000500Y-55747844D01*
X135625000Y-55747844D01*
X135631401Y-55807372D01*
X135631403Y-55807379D01*
X135681645Y-55942086D01*
X135681649Y-55942093D01*
X135767809Y-56057187D01*
X135767812Y-56057190D01*
X135882906Y-56143350D01*
X135882913Y-56143354D01*
X136017620Y-56193596D01*
X136017627Y-56193598D01*
X136077155Y-56199999D01*
X136077172Y-56200000D01*
X136600000Y-56200000D01*
X136900000Y-56200000D01*
X137422828Y-56200000D01*
X137422844Y-56199999D01*
X137482372Y-56193598D01*
X137482379Y-56193596D01*
X137617086Y-56143354D01*
X137617093Y-56143350D01*
X137732187Y-56057190D01*
X137732190Y-56057187D01*
X137818350Y-55942093D01*
X137818354Y-55942086D01*
X137868596Y-55807379D01*
X137868598Y-55807372D01*
X137874999Y-55747844D01*
X137875000Y-55747827D01*
X137875000Y-55350000D01*
X136900000Y-55350000D01*
X136900000Y-56200000D01*
X136600000Y-56200000D01*
X136600000Y-55350000D01*
X135625000Y-55350000D01*
X135625000Y-55747844D01*
X130000500Y-55747844D01*
X130000500Y-54652155D01*
X135625000Y-54652155D01*
X135625000Y-55050000D01*
X136600000Y-55050000D01*
X136900000Y-55050000D01*
X137875000Y-55050000D01*
X137875000Y-54652172D01*
X137874999Y-54652155D01*
X137868598Y-54592627D01*
X137868596Y-54592620D01*
X137818354Y-54457913D01*
X137818350Y-54457906D01*
X137732190Y-54342812D01*
X137732187Y-54342809D01*
X137617093Y-54256649D01*
X137617086Y-54256645D01*
X137482379Y-54206403D01*
X137482372Y-54206401D01*
X137422844Y-54200000D01*
X136900000Y-54200000D01*
X136900000Y-55050000D01*
X136600000Y-55050000D01*
X136600000Y-54200000D01*
X136077155Y-54200000D01*
X136017627Y-54206401D01*
X136017620Y-54206403D01*
X135882913Y-54256645D01*
X135882906Y-54256649D01*
X135767812Y-54342809D01*
X135767809Y-54342812D01*
X135681649Y-54457906D01*
X135681645Y-54457913D01*
X135631403Y-54592620D01*
X135631401Y-54592627D01*
X135625000Y-54652155D01*
X130000500Y-54652155D01*
X130000500Y-35002561D01*
X130000606Y-34997437D01*
X130000805Y-34992620D01*
X130015815Y-34629716D01*
X130016177Y-34624098D01*
X130023531Y-34540031D01*
X130024003Y-34535582D01*
X130064218Y-34212959D01*
X130065138Y-34206842D01*
X130079003Y-34128210D01*
X130079732Y-34124428D01*
X130147553Y-33800974D01*
X130149123Y-33794394D01*
X130167614Y-33725385D01*
X130168500Y-33722251D01*
X130265389Y-33396810D01*
X130267685Y-33389862D01*
X130287331Y-33335886D01*
X130288276Y-33333380D01*
X130416976Y-33003551D01*
X130420079Y-32996292D01*
X130434634Y-32965080D01*
X130435415Y-32963445D01*
X130600823Y-32625097D01*
X130605690Y-32616105D01*
X130811973Y-32269918D01*
X130817556Y-32261372D01*
X131051728Y-31933394D01*
X131057996Y-31925342D01*
X131318443Y-31617832D01*
X131325362Y-31610316D01*
X131610316Y-31325362D01*
X131617832Y-31318443D01*
X131925342Y-31057996D01*
X131933394Y-31051728D01*
X132261372Y-30817556D01*
X132269918Y-30811973D01*
X132616116Y-30605683D01*
X132625097Y-30600823D01*
X132963445Y-30435415D01*
X132965080Y-30434634D01*
X132996292Y-30420079D01*
X133003551Y-30416976D01*
X133333380Y-30288276D01*
X133335886Y-30287331D01*
X133389862Y-30267685D01*
X133396810Y-30265389D01*
X133722251Y-30168500D01*
X133725385Y-30167614D01*
X133794394Y-30149123D01*
X133800974Y-30147553D01*
X134124428Y-30079732D01*
X134128210Y-30079003D01*
X134206842Y-30065138D01*
X134212959Y-30064218D01*
X134535582Y-30024003D01*
X134540031Y-30023531D01*
X134624098Y-30016177D01*
X134629716Y-30015815D01*
X134997437Y-30000605D01*
X135002561Y-30000500D01*
X184997439Y-30000500D01*
X185002562Y-30000605D01*
G37*
%TD.AperFunction*%
%TD*%
M02*
