M48
; DRILL file {KiCad 9.0.1} date 2026-02-20T10:45:06+0100
; FORMAT={-:-/ absolute / metric / decimal}
; #@! TF.CreationDate,2026-02-20T10:45:06+01:00
; #@! TF.GenerationSoftware,Kicad,Pcbnew,9.0.1
; #@! TF.FileFunction,Plated,1,2,PTH
FMAT,2
METRIC
; #@! TA.AperFunction,Plated,PTH,ViaDrill
T1C0.400
; #@! TA.AperFunction,Plated,PTH,ComponentDrill
T2C1.000
; #@! TA.AperFunction,Plated,PTH,ComponentDrill
T3C1.020
; #@! TA.AperFunction,Plated,PTH,ComponentDrill
T4C1.200
; #@! TA.AperFunction,Plated,PTH,ComponentDrill
T5C3.200
%
G90
G05
T1
X138.9Y-34.1
X140.0Y-38.4
X144.0Y-62.5
X147.5Y-56.1
X147.6Y-62.5
X149.2Y-51.9
X150.8Y-71.4
X152.3Y-33.5
X152.3Y-65.6
X152.4Y-52.7
X155.6Y-58.5
X155.6Y-66.3
X155.7Y-76.2
X156.313Y-68.913
X159.2Y-33.4
X159.8Y-62.5
X161.3Y-58.5
X161.4Y-63.5
X161.4Y-78.5
X161.424Y-54.15
X162.415Y-54.319
X164.1Y-64.8
X165.5Y-60.6
X165.95Y-68.05
X166.6Y-61.9
X166.8Y-69.4
X167.3Y-57.1
X168.2Y-68.3
X168.3Y-45.9
X168.3Y-70.9
X180.9Y-81.1
X184.6Y-76.0
T2
X163.74Y-89.2
X166.28Y-89.2
X168.82Y-89.2
X171.36Y-89.2
X173.9Y-89.2
X176.44Y-89.2
X184.5Y-59.6
X184.5Y-62.1
T3
X135.7Y-66.32
X135.7Y-68.86
X135.7Y-71.4
X135.7Y-73.94
X184.5Y-67.12
X184.5Y-69.66
X184.5Y-72.2
X184.625Y-78.92
X184.625Y-81.46
X184.625Y-84.0
T4
X172.0Y-46.3
X172.0Y-51.3
X184.5Y-46.3
X184.5Y-51.3
T5
X135.0Y-35.0
X135.0Y-90.0
X185.0Y-35.0
X185.0Y-90.0
M30
